%TF.GenerationSoftware,KiCad,Pcbnew,7.0.10*%
%TF.CreationDate,2024-02-09T12:47:51+11:00*%
%TF.ProjectId,PIC16F15214 Debugger,50494331-3646-4313-9532-313420446562,1.0-A*%
%TF.SameCoordinates,Original*%
%TF.FileFunction,Drillmap*%
%TF.FilePolarity,Positive*%
%FSLAX45Y45*%
G04 Gerber Fmt 4.5, Leading zero omitted, Abs format (unit mm)*
G04 Created by KiCad (PCBNEW 7.0.10) date 2024-02-09 12:47:51*
%MOMM*%
%LPD*%
G01*
G04 APERTURE LIST*
%ADD10C,0.100000*%
%ADD11C,0.200000*%
%ADD12C,0.110000*%
%ADD13C,0.120000*%
G04 APERTURE END LIST*
D10*
X13336513Y-8255000D02*
X15749513Y-8255000D01*
X15749513Y-11303000D01*
X13336513Y-11303000D01*
X13336513Y-8255000D01*
D11*
D10*
X13906113Y-10247000D02*
X13986113Y-10327000D01*
X13986113Y-10247000D02*
X13906113Y-10327000D01*
X13906113Y-10501000D02*
X13986113Y-10581000D01*
X13986113Y-10501000D02*
X13906113Y-10581000D01*
X13906113Y-10755000D02*
X13986113Y-10835000D01*
X13986113Y-10755000D02*
X13906113Y-10835000D01*
X13906113Y-11009000D02*
X13986113Y-11089000D01*
X13986113Y-11009000D02*
X13906113Y-11089000D01*
X14668113Y-10247000D02*
X14748113Y-10327000D01*
X14748113Y-10247000D02*
X14668113Y-10327000D01*
X14668113Y-10501000D02*
X14748113Y-10581000D01*
X14748113Y-10501000D02*
X14668113Y-10581000D01*
X14668113Y-10755000D02*
X14748113Y-10835000D01*
X14748113Y-10755000D02*
X14668113Y-10835000D01*
X14668113Y-11009000D02*
X14748113Y-11089000D01*
X14748113Y-11009000D02*
X14668113Y-11089000D01*
X15520113Y-10007600D02*
G75*
G03*
X15420113Y-10007600I-50000J0D01*
G01*
X15420113Y-10007600D02*
G75*
G03*
X15520113Y-10007600I50000J0D01*
G01*
X15520113Y-10261600D02*
G75*
G03*
X15420113Y-10261600I-50000J0D01*
G01*
X15420113Y-10261600D02*
G75*
G03*
X15520113Y-10261600I50000J0D01*
G01*
X15520113Y-10515600D02*
G75*
G03*
X15420113Y-10515600I-50000J0D01*
G01*
X15420113Y-10515600D02*
G75*
G03*
X15520113Y-10515600I50000J0D01*
G01*
X15520113Y-10769600D02*
G75*
G03*
X15420113Y-10769600I-50000J0D01*
G01*
X15420113Y-10769600D02*
G75*
G03*
X15520113Y-10769600I50000J0D01*
G01*
X15520113Y-11023600D02*
G75*
G03*
X15420113Y-11023600I-50000J0D01*
G01*
X15420113Y-11023600D02*
G75*
G03*
X15520113Y-11023600I50000J0D01*
G01*
D12*
X13603913Y-9037800D02*
X13603913Y-9147800D01*
X13548913Y-9092800D02*
X13658913Y-9092800D01*
X13603913Y-9266800D02*
X13603913Y-9376800D01*
X13548913Y-9321800D02*
X13658913Y-9321800D01*
X13603913Y-9495800D02*
X13603913Y-9605800D01*
X13548913Y-9550800D02*
X13658913Y-9550800D01*
D13*
X14032990Y-8894327D02*
X14032990Y-8809473D01*
X13948136Y-8809473D01*
X13948136Y-8894327D01*
X14032990Y-8894327D01*
X14032990Y-9402327D02*
X14032990Y-9317473D01*
X13948136Y-9317473D01*
X13948136Y-9402327D01*
X14032990Y-9402327D01*
X14286990Y-8894327D02*
X14286990Y-8809473D01*
X14202136Y-8809473D01*
X14202136Y-8894327D01*
X14286990Y-8894327D01*
X14286990Y-9402327D02*
X14286990Y-9317473D01*
X14202136Y-9317473D01*
X14202136Y-9402327D01*
X14286990Y-9402327D01*
D11*
X13592290Y-11619484D02*
X13592290Y-11419484D01*
X13592290Y-11419484D02*
X13639909Y-11419484D01*
X13639909Y-11419484D02*
X13668480Y-11429008D01*
X13668480Y-11429008D02*
X13687528Y-11448055D01*
X13687528Y-11448055D02*
X13697052Y-11467103D01*
X13697052Y-11467103D02*
X13706575Y-11505198D01*
X13706575Y-11505198D02*
X13706575Y-11533769D01*
X13706575Y-11533769D02*
X13697052Y-11571865D01*
X13697052Y-11571865D02*
X13687528Y-11590912D01*
X13687528Y-11590912D02*
X13668480Y-11609960D01*
X13668480Y-11609960D02*
X13639909Y-11619484D01*
X13639909Y-11619484D02*
X13592290Y-11619484D01*
X13792290Y-11619484D02*
X13792290Y-11486150D01*
X13792290Y-11524246D02*
X13801813Y-11505198D01*
X13801813Y-11505198D02*
X13811337Y-11495674D01*
X13811337Y-11495674D02*
X13830385Y-11486150D01*
X13830385Y-11486150D02*
X13849433Y-11486150D01*
X13916099Y-11619484D02*
X13916099Y-11486150D01*
X13916099Y-11419484D02*
X13906575Y-11429008D01*
X13906575Y-11429008D02*
X13916099Y-11438531D01*
X13916099Y-11438531D02*
X13925623Y-11429008D01*
X13925623Y-11429008D02*
X13916099Y-11419484D01*
X13916099Y-11419484D02*
X13916099Y-11438531D01*
X14039909Y-11619484D02*
X14020861Y-11609960D01*
X14020861Y-11609960D02*
X14011337Y-11590912D01*
X14011337Y-11590912D02*
X14011337Y-11419484D01*
X14144671Y-11619484D02*
X14125623Y-11609960D01*
X14125623Y-11609960D02*
X14116099Y-11590912D01*
X14116099Y-11590912D02*
X14116099Y-11419484D01*
X14373242Y-11619484D02*
X14373242Y-11419484D01*
X14373242Y-11419484D02*
X14439909Y-11562341D01*
X14439909Y-11562341D02*
X14506575Y-11419484D01*
X14506575Y-11419484D02*
X14506575Y-11619484D01*
X14687528Y-11619484D02*
X14687528Y-11514722D01*
X14687528Y-11514722D02*
X14678004Y-11495674D01*
X14678004Y-11495674D02*
X14658956Y-11486150D01*
X14658956Y-11486150D02*
X14620861Y-11486150D01*
X14620861Y-11486150D02*
X14601813Y-11495674D01*
X14687528Y-11609960D02*
X14668480Y-11619484D01*
X14668480Y-11619484D02*
X14620861Y-11619484D01*
X14620861Y-11619484D02*
X14601813Y-11609960D01*
X14601813Y-11609960D02*
X14592290Y-11590912D01*
X14592290Y-11590912D02*
X14592290Y-11571865D01*
X14592290Y-11571865D02*
X14601813Y-11552817D01*
X14601813Y-11552817D02*
X14620861Y-11543293D01*
X14620861Y-11543293D02*
X14668480Y-11543293D01*
X14668480Y-11543293D02*
X14687528Y-11533769D01*
X14782766Y-11486150D02*
X14782766Y-11686150D01*
X14782766Y-11495674D02*
X14801813Y-11486150D01*
X14801813Y-11486150D02*
X14839909Y-11486150D01*
X14839909Y-11486150D02*
X14858956Y-11495674D01*
X14858956Y-11495674D02*
X14868480Y-11505198D01*
X14868480Y-11505198D02*
X14878004Y-11524246D01*
X14878004Y-11524246D02*
X14878004Y-11581388D01*
X14878004Y-11581388D02*
X14868480Y-11600436D01*
X14868480Y-11600436D02*
X14858956Y-11609960D01*
X14858956Y-11609960D02*
X14839909Y-11619484D01*
X14839909Y-11619484D02*
X14801813Y-11619484D01*
X14801813Y-11619484D02*
X14782766Y-11609960D01*
X14963718Y-11600436D02*
X14973242Y-11609960D01*
X14973242Y-11609960D02*
X14963718Y-11619484D01*
X14963718Y-11619484D02*
X14954194Y-11609960D01*
X14954194Y-11609960D02*
X14963718Y-11600436D01*
X14963718Y-11600436D02*
X14963718Y-11619484D01*
X14963718Y-11495674D02*
X14973242Y-11505198D01*
X14973242Y-11505198D02*
X14963718Y-11514722D01*
X14963718Y-11514722D02*
X14954194Y-11505198D01*
X14954194Y-11505198D02*
X14963718Y-11495674D01*
X14963718Y-11495674D02*
X14963718Y-11514722D01*
D10*
X13251513Y-11908000D02*
X13331513Y-11988000D01*
X13331513Y-11908000D02*
X13251513Y-11988000D01*
D11*
X13630385Y-11839484D02*
X13649433Y-11839484D01*
X13649433Y-11839484D02*
X13668480Y-11849008D01*
X13668480Y-11849008D02*
X13678004Y-11858531D01*
X13678004Y-11858531D02*
X13687528Y-11877579D01*
X13687528Y-11877579D02*
X13697052Y-11915674D01*
X13697052Y-11915674D02*
X13697052Y-11963293D01*
X13697052Y-11963293D02*
X13687528Y-12001388D01*
X13687528Y-12001388D02*
X13678004Y-12020436D01*
X13678004Y-12020436D02*
X13668480Y-12029960D01*
X13668480Y-12029960D02*
X13649433Y-12039484D01*
X13649433Y-12039484D02*
X13630385Y-12039484D01*
X13630385Y-12039484D02*
X13611337Y-12029960D01*
X13611337Y-12029960D02*
X13601813Y-12020436D01*
X13601813Y-12020436D02*
X13592290Y-12001388D01*
X13592290Y-12001388D02*
X13582766Y-11963293D01*
X13582766Y-11963293D02*
X13582766Y-11915674D01*
X13582766Y-11915674D02*
X13592290Y-11877579D01*
X13592290Y-11877579D02*
X13601813Y-11858531D01*
X13601813Y-11858531D02*
X13611337Y-11849008D01*
X13611337Y-11849008D02*
X13630385Y-11839484D01*
X13782766Y-12020436D02*
X13792290Y-12029960D01*
X13792290Y-12029960D02*
X13782766Y-12039484D01*
X13782766Y-12039484D02*
X13773242Y-12029960D01*
X13773242Y-12029960D02*
X13782766Y-12020436D01*
X13782766Y-12020436D02*
X13782766Y-12039484D01*
X13906575Y-11925198D02*
X13887528Y-11915674D01*
X13887528Y-11915674D02*
X13878004Y-11906150D01*
X13878004Y-11906150D02*
X13868480Y-11887103D01*
X13868480Y-11887103D02*
X13868480Y-11877579D01*
X13868480Y-11877579D02*
X13878004Y-11858531D01*
X13878004Y-11858531D02*
X13887528Y-11849008D01*
X13887528Y-11849008D02*
X13906575Y-11839484D01*
X13906575Y-11839484D02*
X13944671Y-11839484D01*
X13944671Y-11839484D02*
X13963718Y-11849008D01*
X13963718Y-11849008D02*
X13973242Y-11858531D01*
X13973242Y-11858531D02*
X13982766Y-11877579D01*
X13982766Y-11877579D02*
X13982766Y-11887103D01*
X13982766Y-11887103D02*
X13973242Y-11906150D01*
X13973242Y-11906150D02*
X13963718Y-11915674D01*
X13963718Y-11915674D02*
X13944671Y-11925198D01*
X13944671Y-11925198D02*
X13906575Y-11925198D01*
X13906575Y-11925198D02*
X13887528Y-11934722D01*
X13887528Y-11934722D02*
X13878004Y-11944246D01*
X13878004Y-11944246D02*
X13868480Y-11963293D01*
X13868480Y-11963293D02*
X13868480Y-12001388D01*
X13868480Y-12001388D02*
X13878004Y-12020436D01*
X13878004Y-12020436D02*
X13887528Y-12029960D01*
X13887528Y-12029960D02*
X13906575Y-12039484D01*
X13906575Y-12039484D02*
X13944671Y-12039484D01*
X13944671Y-12039484D02*
X13963718Y-12029960D01*
X13963718Y-12029960D02*
X13973242Y-12020436D01*
X13973242Y-12020436D02*
X13982766Y-12001388D01*
X13982766Y-12001388D02*
X13982766Y-11963293D01*
X13982766Y-11963293D02*
X13973242Y-11944246D01*
X13973242Y-11944246D02*
X13963718Y-11934722D01*
X13963718Y-11934722D02*
X13944671Y-11925198D01*
X14106575Y-11839484D02*
X14125623Y-11839484D01*
X14125623Y-11839484D02*
X14144671Y-11849008D01*
X14144671Y-11849008D02*
X14154194Y-11858531D01*
X14154194Y-11858531D02*
X14163718Y-11877579D01*
X14163718Y-11877579D02*
X14173242Y-11915674D01*
X14173242Y-11915674D02*
X14173242Y-11963293D01*
X14173242Y-11963293D02*
X14163718Y-12001388D01*
X14163718Y-12001388D02*
X14154194Y-12020436D01*
X14154194Y-12020436D02*
X14144671Y-12029960D01*
X14144671Y-12029960D02*
X14125623Y-12039484D01*
X14125623Y-12039484D02*
X14106575Y-12039484D01*
X14106575Y-12039484D02*
X14087528Y-12029960D01*
X14087528Y-12029960D02*
X14078004Y-12020436D01*
X14078004Y-12020436D02*
X14068480Y-12001388D01*
X14068480Y-12001388D02*
X14058956Y-11963293D01*
X14058956Y-11963293D02*
X14058956Y-11915674D01*
X14058956Y-11915674D02*
X14068480Y-11877579D01*
X14068480Y-11877579D02*
X14078004Y-11858531D01*
X14078004Y-11858531D02*
X14087528Y-11849008D01*
X14087528Y-11849008D02*
X14106575Y-11839484D01*
X14297052Y-11839484D02*
X14316099Y-11839484D01*
X14316099Y-11839484D02*
X14335147Y-11849008D01*
X14335147Y-11849008D02*
X14344671Y-11858531D01*
X14344671Y-11858531D02*
X14354194Y-11877579D01*
X14354194Y-11877579D02*
X14363718Y-11915674D01*
X14363718Y-11915674D02*
X14363718Y-11963293D01*
X14363718Y-11963293D02*
X14354194Y-12001388D01*
X14354194Y-12001388D02*
X14344671Y-12020436D01*
X14344671Y-12020436D02*
X14335147Y-12029960D01*
X14335147Y-12029960D02*
X14316099Y-12039484D01*
X14316099Y-12039484D02*
X14297052Y-12039484D01*
X14297052Y-12039484D02*
X14278004Y-12029960D01*
X14278004Y-12029960D02*
X14268480Y-12020436D01*
X14268480Y-12020436D02*
X14258956Y-12001388D01*
X14258956Y-12001388D02*
X14249433Y-11963293D01*
X14249433Y-11963293D02*
X14249433Y-11915674D01*
X14249433Y-11915674D02*
X14258956Y-11877579D01*
X14258956Y-11877579D02*
X14268480Y-11858531D01*
X14268480Y-11858531D02*
X14278004Y-11849008D01*
X14278004Y-11849008D02*
X14297052Y-11839484D01*
X14449433Y-12039484D02*
X14449433Y-11906150D01*
X14449433Y-11925198D02*
X14458956Y-11915674D01*
X14458956Y-11915674D02*
X14478004Y-11906150D01*
X14478004Y-11906150D02*
X14506575Y-11906150D01*
X14506575Y-11906150D02*
X14525623Y-11915674D01*
X14525623Y-11915674D02*
X14535147Y-11934722D01*
X14535147Y-11934722D02*
X14535147Y-12039484D01*
X14535147Y-11934722D02*
X14544671Y-11915674D01*
X14544671Y-11915674D02*
X14563718Y-11906150D01*
X14563718Y-11906150D02*
X14592290Y-11906150D01*
X14592290Y-11906150D02*
X14611337Y-11915674D01*
X14611337Y-11915674D02*
X14620861Y-11934722D01*
X14620861Y-11934722D02*
X14620861Y-12039484D01*
X14716099Y-12039484D02*
X14716099Y-11906150D01*
X14716099Y-11925198D02*
X14725623Y-11915674D01*
X14725623Y-11915674D02*
X14744671Y-11906150D01*
X14744671Y-11906150D02*
X14773242Y-11906150D01*
X14773242Y-11906150D02*
X14792290Y-11915674D01*
X14792290Y-11915674D02*
X14801814Y-11934722D01*
X14801814Y-11934722D02*
X14801814Y-12039484D01*
X14801814Y-11934722D02*
X14811337Y-11915674D01*
X14811337Y-11915674D02*
X14830385Y-11906150D01*
X14830385Y-11906150D02*
X14858956Y-11906150D01*
X14858956Y-11906150D02*
X14878004Y-11915674D01*
X14878004Y-11915674D02*
X14887528Y-11934722D01*
X14887528Y-11934722D02*
X14887528Y-12039484D01*
X15278004Y-11829960D02*
X15106576Y-12087103D01*
X15535147Y-11839484D02*
X15554195Y-11839484D01*
X15554195Y-11839484D02*
X15573242Y-11849008D01*
X15573242Y-11849008D02*
X15582766Y-11858531D01*
X15582766Y-11858531D02*
X15592290Y-11877579D01*
X15592290Y-11877579D02*
X15601814Y-11915674D01*
X15601814Y-11915674D02*
X15601814Y-11963293D01*
X15601814Y-11963293D02*
X15592290Y-12001388D01*
X15592290Y-12001388D02*
X15582766Y-12020436D01*
X15582766Y-12020436D02*
X15573242Y-12029960D01*
X15573242Y-12029960D02*
X15554195Y-12039484D01*
X15554195Y-12039484D02*
X15535147Y-12039484D01*
X15535147Y-12039484D02*
X15516099Y-12029960D01*
X15516099Y-12029960D02*
X15506576Y-12020436D01*
X15506576Y-12020436D02*
X15497052Y-12001388D01*
X15497052Y-12001388D02*
X15487528Y-11963293D01*
X15487528Y-11963293D02*
X15487528Y-11915674D01*
X15487528Y-11915674D02*
X15497052Y-11877579D01*
X15497052Y-11877579D02*
X15506576Y-11858531D01*
X15506576Y-11858531D02*
X15516099Y-11849008D01*
X15516099Y-11849008D02*
X15535147Y-11839484D01*
X15687528Y-12020436D02*
X15697052Y-12029960D01*
X15697052Y-12029960D02*
X15687528Y-12039484D01*
X15687528Y-12039484D02*
X15678004Y-12029960D01*
X15678004Y-12029960D02*
X15687528Y-12020436D01*
X15687528Y-12020436D02*
X15687528Y-12039484D01*
X15820861Y-11839484D02*
X15839909Y-11839484D01*
X15839909Y-11839484D02*
X15858957Y-11849008D01*
X15858957Y-11849008D02*
X15868480Y-11858531D01*
X15868480Y-11858531D02*
X15878004Y-11877579D01*
X15878004Y-11877579D02*
X15887528Y-11915674D01*
X15887528Y-11915674D02*
X15887528Y-11963293D01*
X15887528Y-11963293D02*
X15878004Y-12001388D01*
X15878004Y-12001388D02*
X15868480Y-12020436D01*
X15868480Y-12020436D02*
X15858957Y-12029960D01*
X15858957Y-12029960D02*
X15839909Y-12039484D01*
X15839909Y-12039484D02*
X15820861Y-12039484D01*
X15820861Y-12039484D02*
X15801814Y-12029960D01*
X15801814Y-12029960D02*
X15792290Y-12020436D01*
X15792290Y-12020436D02*
X15782766Y-12001388D01*
X15782766Y-12001388D02*
X15773242Y-11963293D01*
X15773242Y-11963293D02*
X15773242Y-11915674D01*
X15773242Y-11915674D02*
X15782766Y-11877579D01*
X15782766Y-11877579D02*
X15792290Y-11858531D01*
X15792290Y-11858531D02*
X15801814Y-11849008D01*
X15801814Y-11849008D02*
X15820861Y-11839484D01*
X15954195Y-11839484D02*
X16078004Y-11839484D01*
X16078004Y-11839484D02*
X16011337Y-11915674D01*
X16011337Y-11915674D02*
X16039909Y-11915674D01*
X16039909Y-11915674D02*
X16058957Y-11925198D01*
X16058957Y-11925198D02*
X16068480Y-11934722D01*
X16068480Y-11934722D02*
X16078004Y-11953769D01*
X16078004Y-11953769D02*
X16078004Y-12001388D01*
X16078004Y-12001388D02*
X16068480Y-12020436D01*
X16068480Y-12020436D02*
X16058957Y-12029960D01*
X16058957Y-12029960D02*
X16039909Y-12039484D01*
X16039909Y-12039484D02*
X15982766Y-12039484D01*
X15982766Y-12039484D02*
X15963718Y-12029960D01*
X15963718Y-12029960D02*
X15954195Y-12020436D01*
X16268480Y-12039484D02*
X16154195Y-12039484D01*
X16211337Y-12039484D02*
X16211337Y-11839484D01*
X16211337Y-11839484D02*
X16192290Y-11868055D01*
X16192290Y-11868055D02*
X16173242Y-11887103D01*
X16173242Y-11887103D02*
X16154195Y-11896627D01*
X16449433Y-11839484D02*
X16354195Y-11839484D01*
X16354195Y-11839484D02*
X16344671Y-11934722D01*
X16344671Y-11934722D02*
X16354195Y-11925198D01*
X16354195Y-11925198D02*
X16373242Y-11915674D01*
X16373242Y-11915674D02*
X16420861Y-11915674D01*
X16420861Y-11915674D02*
X16439909Y-11925198D01*
X16439909Y-11925198D02*
X16449433Y-11934722D01*
X16449433Y-11934722D02*
X16458957Y-11953769D01*
X16458957Y-11953769D02*
X16458957Y-12001388D01*
X16458957Y-12001388D02*
X16449433Y-12020436D01*
X16449433Y-12020436D02*
X16439909Y-12029960D01*
X16439909Y-12029960D02*
X16420861Y-12039484D01*
X16420861Y-12039484D02*
X16373242Y-12039484D01*
X16373242Y-12039484D02*
X16354195Y-12029960D01*
X16354195Y-12029960D02*
X16344671Y-12020436D01*
X16535147Y-11839484D02*
X16535147Y-11877579D01*
X16611338Y-11839484D02*
X16611338Y-11877579D01*
X16906576Y-12115674D02*
X16897052Y-12106150D01*
X16897052Y-12106150D02*
X16878004Y-12077579D01*
X16878004Y-12077579D02*
X16868481Y-12058531D01*
X16868481Y-12058531D02*
X16858957Y-12029960D01*
X16858957Y-12029960D02*
X16849433Y-11982341D01*
X16849433Y-11982341D02*
X16849433Y-11944246D01*
X16849433Y-11944246D02*
X16858957Y-11896627D01*
X16858957Y-11896627D02*
X16868481Y-11868055D01*
X16868481Y-11868055D02*
X16878004Y-11849008D01*
X16878004Y-11849008D02*
X16897052Y-11820436D01*
X16897052Y-11820436D02*
X16906576Y-11810912D01*
X17011338Y-11925198D02*
X16992290Y-11915674D01*
X16992290Y-11915674D02*
X16982766Y-11906150D01*
X16982766Y-11906150D02*
X16973242Y-11887103D01*
X16973242Y-11887103D02*
X16973242Y-11877579D01*
X16973242Y-11877579D02*
X16982766Y-11858531D01*
X16982766Y-11858531D02*
X16992290Y-11849008D01*
X16992290Y-11849008D02*
X17011338Y-11839484D01*
X17011338Y-11839484D02*
X17049433Y-11839484D01*
X17049433Y-11839484D02*
X17068481Y-11849008D01*
X17068481Y-11849008D02*
X17078004Y-11858531D01*
X17078004Y-11858531D02*
X17087528Y-11877579D01*
X17087528Y-11877579D02*
X17087528Y-11887103D01*
X17087528Y-11887103D02*
X17078004Y-11906150D01*
X17078004Y-11906150D02*
X17068481Y-11915674D01*
X17068481Y-11915674D02*
X17049433Y-11925198D01*
X17049433Y-11925198D02*
X17011338Y-11925198D01*
X17011338Y-11925198D02*
X16992290Y-11934722D01*
X16992290Y-11934722D02*
X16982766Y-11944246D01*
X16982766Y-11944246D02*
X16973242Y-11963293D01*
X16973242Y-11963293D02*
X16973242Y-12001388D01*
X16973242Y-12001388D02*
X16982766Y-12020436D01*
X16982766Y-12020436D02*
X16992290Y-12029960D01*
X16992290Y-12029960D02*
X17011338Y-12039484D01*
X17011338Y-12039484D02*
X17049433Y-12039484D01*
X17049433Y-12039484D02*
X17068481Y-12029960D01*
X17068481Y-12029960D02*
X17078004Y-12020436D01*
X17078004Y-12020436D02*
X17087528Y-12001388D01*
X17087528Y-12001388D02*
X17087528Y-11963293D01*
X17087528Y-11963293D02*
X17078004Y-11944246D01*
X17078004Y-11944246D02*
X17068481Y-11934722D01*
X17068481Y-11934722D02*
X17049433Y-11925198D01*
X17325623Y-12039484D02*
X17325623Y-11839484D01*
X17411338Y-12039484D02*
X17411338Y-11934722D01*
X17411338Y-11934722D02*
X17401814Y-11915674D01*
X17401814Y-11915674D02*
X17382766Y-11906150D01*
X17382766Y-11906150D02*
X17354195Y-11906150D01*
X17354195Y-11906150D02*
X17335147Y-11915674D01*
X17335147Y-11915674D02*
X17325623Y-11925198D01*
X17535147Y-12039484D02*
X17516100Y-12029960D01*
X17516100Y-12029960D02*
X17506576Y-12020436D01*
X17506576Y-12020436D02*
X17497052Y-12001388D01*
X17497052Y-12001388D02*
X17497052Y-11944246D01*
X17497052Y-11944246D02*
X17506576Y-11925198D01*
X17506576Y-11925198D02*
X17516100Y-11915674D01*
X17516100Y-11915674D02*
X17535147Y-11906150D01*
X17535147Y-11906150D02*
X17563719Y-11906150D01*
X17563719Y-11906150D02*
X17582766Y-11915674D01*
X17582766Y-11915674D02*
X17592290Y-11925198D01*
X17592290Y-11925198D02*
X17601814Y-11944246D01*
X17601814Y-11944246D02*
X17601814Y-12001388D01*
X17601814Y-12001388D02*
X17592290Y-12020436D01*
X17592290Y-12020436D02*
X17582766Y-12029960D01*
X17582766Y-12029960D02*
X17563719Y-12039484D01*
X17563719Y-12039484D02*
X17535147Y-12039484D01*
X17716100Y-12039484D02*
X17697052Y-12029960D01*
X17697052Y-12029960D02*
X17687528Y-12010912D01*
X17687528Y-12010912D02*
X17687528Y-11839484D01*
X17868481Y-12029960D02*
X17849433Y-12039484D01*
X17849433Y-12039484D02*
X17811338Y-12039484D01*
X17811338Y-12039484D02*
X17792290Y-12029960D01*
X17792290Y-12029960D02*
X17782766Y-12010912D01*
X17782766Y-12010912D02*
X17782766Y-11934722D01*
X17782766Y-11934722D02*
X17792290Y-11915674D01*
X17792290Y-11915674D02*
X17811338Y-11906150D01*
X17811338Y-11906150D02*
X17849433Y-11906150D01*
X17849433Y-11906150D02*
X17868481Y-11915674D01*
X17868481Y-11915674D02*
X17878004Y-11934722D01*
X17878004Y-11934722D02*
X17878004Y-11953769D01*
X17878004Y-11953769D02*
X17782766Y-11972817D01*
X17954195Y-12029960D02*
X17973243Y-12039484D01*
X17973243Y-12039484D02*
X18011338Y-12039484D01*
X18011338Y-12039484D02*
X18030385Y-12029960D01*
X18030385Y-12029960D02*
X18039909Y-12010912D01*
X18039909Y-12010912D02*
X18039909Y-12001388D01*
X18039909Y-12001388D02*
X18030385Y-11982341D01*
X18030385Y-11982341D02*
X18011338Y-11972817D01*
X18011338Y-11972817D02*
X17982766Y-11972817D01*
X17982766Y-11972817D02*
X17963719Y-11963293D01*
X17963719Y-11963293D02*
X17954195Y-11944246D01*
X17954195Y-11944246D02*
X17954195Y-11934722D01*
X17954195Y-11934722D02*
X17963719Y-11915674D01*
X17963719Y-11915674D02*
X17982766Y-11906150D01*
X17982766Y-11906150D02*
X18011338Y-11906150D01*
X18011338Y-11906150D02*
X18030385Y-11915674D01*
X18106576Y-12115674D02*
X18116100Y-12106150D01*
X18116100Y-12106150D02*
X18135147Y-12077579D01*
X18135147Y-12077579D02*
X18144671Y-12058531D01*
X18144671Y-12058531D02*
X18154195Y-12029960D01*
X18154195Y-12029960D02*
X18163719Y-11982341D01*
X18163719Y-11982341D02*
X18163719Y-11944246D01*
X18163719Y-11944246D02*
X18154195Y-11896627D01*
X18154195Y-11896627D02*
X18144671Y-11868055D01*
X18144671Y-11868055D02*
X18135147Y-11849008D01*
X18135147Y-11849008D02*
X18116100Y-11820436D01*
X18116100Y-11820436D02*
X18106576Y-11810912D01*
D10*
X13331513Y-12212000D02*
G75*
G03*
X13231513Y-12212000I-50000J0D01*
G01*
X13231513Y-12212000D02*
G75*
G03*
X13331513Y-12212000I50000J0D01*
G01*
D11*
X13697052Y-12303484D02*
X13582766Y-12303484D01*
X13639909Y-12303484D02*
X13639909Y-12103484D01*
X13639909Y-12103484D02*
X13620861Y-12132055D01*
X13620861Y-12132055D02*
X13601813Y-12151103D01*
X13601813Y-12151103D02*
X13582766Y-12160627D01*
X13782766Y-12284436D02*
X13792290Y-12293960D01*
X13792290Y-12293960D02*
X13782766Y-12303484D01*
X13782766Y-12303484D02*
X13773242Y-12293960D01*
X13773242Y-12293960D02*
X13782766Y-12284436D01*
X13782766Y-12284436D02*
X13782766Y-12303484D01*
X13916099Y-12103484D02*
X13935147Y-12103484D01*
X13935147Y-12103484D02*
X13954194Y-12113008D01*
X13954194Y-12113008D02*
X13963718Y-12122531D01*
X13963718Y-12122531D02*
X13973242Y-12141579D01*
X13973242Y-12141579D02*
X13982766Y-12179674D01*
X13982766Y-12179674D02*
X13982766Y-12227293D01*
X13982766Y-12227293D02*
X13973242Y-12265388D01*
X13973242Y-12265388D02*
X13963718Y-12284436D01*
X13963718Y-12284436D02*
X13954194Y-12293960D01*
X13954194Y-12293960D02*
X13935147Y-12303484D01*
X13935147Y-12303484D02*
X13916099Y-12303484D01*
X13916099Y-12303484D02*
X13897052Y-12293960D01*
X13897052Y-12293960D02*
X13887528Y-12284436D01*
X13887528Y-12284436D02*
X13878004Y-12265388D01*
X13878004Y-12265388D02*
X13868480Y-12227293D01*
X13868480Y-12227293D02*
X13868480Y-12179674D01*
X13868480Y-12179674D02*
X13878004Y-12141579D01*
X13878004Y-12141579D02*
X13887528Y-12122531D01*
X13887528Y-12122531D02*
X13897052Y-12113008D01*
X13897052Y-12113008D02*
X13916099Y-12103484D01*
X14106575Y-12103484D02*
X14125623Y-12103484D01*
X14125623Y-12103484D02*
X14144671Y-12113008D01*
X14144671Y-12113008D02*
X14154194Y-12122531D01*
X14154194Y-12122531D02*
X14163718Y-12141579D01*
X14163718Y-12141579D02*
X14173242Y-12179674D01*
X14173242Y-12179674D02*
X14173242Y-12227293D01*
X14173242Y-12227293D02*
X14163718Y-12265388D01*
X14163718Y-12265388D02*
X14154194Y-12284436D01*
X14154194Y-12284436D02*
X14144671Y-12293960D01*
X14144671Y-12293960D02*
X14125623Y-12303484D01*
X14125623Y-12303484D02*
X14106575Y-12303484D01*
X14106575Y-12303484D02*
X14087528Y-12293960D01*
X14087528Y-12293960D02*
X14078004Y-12284436D01*
X14078004Y-12284436D02*
X14068480Y-12265388D01*
X14068480Y-12265388D02*
X14058956Y-12227293D01*
X14058956Y-12227293D02*
X14058956Y-12179674D01*
X14058956Y-12179674D02*
X14068480Y-12141579D01*
X14068480Y-12141579D02*
X14078004Y-12122531D01*
X14078004Y-12122531D02*
X14087528Y-12113008D01*
X14087528Y-12113008D02*
X14106575Y-12103484D01*
X14297052Y-12103484D02*
X14316099Y-12103484D01*
X14316099Y-12103484D02*
X14335147Y-12113008D01*
X14335147Y-12113008D02*
X14344671Y-12122531D01*
X14344671Y-12122531D02*
X14354194Y-12141579D01*
X14354194Y-12141579D02*
X14363718Y-12179674D01*
X14363718Y-12179674D02*
X14363718Y-12227293D01*
X14363718Y-12227293D02*
X14354194Y-12265388D01*
X14354194Y-12265388D02*
X14344671Y-12284436D01*
X14344671Y-12284436D02*
X14335147Y-12293960D01*
X14335147Y-12293960D02*
X14316099Y-12303484D01*
X14316099Y-12303484D02*
X14297052Y-12303484D01*
X14297052Y-12303484D02*
X14278004Y-12293960D01*
X14278004Y-12293960D02*
X14268480Y-12284436D01*
X14268480Y-12284436D02*
X14258956Y-12265388D01*
X14258956Y-12265388D02*
X14249433Y-12227293D01*
X14249433Y-12227293D02*
X14249433Y-12179674D01*
X14249433Y-12179674D02*
X14258956Y-12141579D01*
X14258956Y-12141579D02*
X14268480Y-12122531D01*
X14268480Y-12122531D02*
X14278004Y-12113008D01*
X14278004Y-12113008D02*
X14297052Y-12103484D01*
X14449433Y-12303484D02*
X14449433Y-12170150D01*
X14449433Y-12189198D02*
X14458956Y-12179674D01*
X14458956Y-12179674D02*
X14478004Y-12170150D01*
X14478004Y-12170150D02*
X14506575Y-12170150D01*
X14506575Y-12170150D02*
X14525623Y-12179674D01*
X14525623Y-12179674D02*
X14535147Y-12198722D01*
X14535147Y-12198722D02*
X14535147Y-12303484D01*
X14535147Y-12198722D02*
X14544671Y-12179674D01*
X14544671Y-12179674D02*
X14563718Y-12170150D01*
X14563718Y-12170150D02*
X14592290Y-12170150D01*
X14592290Y-12170150D02*
X14611337Y-12179674D01*
X14611337Y-12179674D02*
X14620861Y-12198722D01*
X14620861Y-12198722D02*
X14620861Y-12303484D01*
X14716099Y-12303484D02*
X14716099Y-12170150D01*
X14716099Y-12189198D02*
X14725623Y-12179674D01*
X14725623Y-12179674D02*
X14744671Y-12170150D01*
X14744671Y-12170150D02*
X14773242Y-12170150D01*
X14773242Y-12170150D02*
X14792290Y-12179674D01*
X14792290Y-12179674D02*
X14801814Y-12198722D01*
X14801814Y-12198722D02*
X14801814Y-12303484D01*
X14801814Y-12198722D02*
X14811337Y-12179674D01*
X14811337Y-12179674D02*
X14830385Y-12170150D01*
X14830385Y-12170150D02*
X14858956Y-12170150D01*
X14858956Y-12170150D02*
X14878004Y-12179674D01*
X14878004Y-12179674D02*
X14887528Y-12198722D01*
X14887528Y-12198722D02*
X14887528Y-12303484D01*
X15278004Y-12093960D02*
X15106576Y-12351103D01*
X15535147Y-12103484D02*
X15554195Y-12103484D01*
X15554195Y-12103484D02*
X15573242Y-12113008D01*
X15573242Y-12113008D02*
X15582766Y-12122531D01*
X15582766Y-12122531D02*
X15592290Y-12141579D01*
X15592290Y-12141579D02*
X15601814Y-12179674D01*
X15601814Y-12179674D02*
X15601814Y-12227293D01*
X15601814Y-12227293D02*
X15592290Y-12265388D01*
X15592290Y-12265388D02*
X15582766Y-12284436D01*
X15582766Y-12284436D02*
X15573242Y-12293960D01*
X15573242Y-12293960D02*
X15554195Y-12303484D01*
X15554195Y-12303484D02*
X15535147Y-12303484D01*
X15535147Y-12303484D02*
X15516099Y-12293960D01*
X15516099Y-12293960D02*
X15506576Y-12284436D01*
X15506576Y-12284436D02*
X15497052Y-12265388D01*
X15497052Y-12265388D02*
X15487528Y-12227293D01*
X15487528Y-12227293D02*
X15487528Y-12179674D01*
X15487528Y-12179674D02*
X15497052Y-12141579D01*
X15497052Y-12141579D02*
X15506576Y-12122531D01*
X15506576Y-12122531D02*
X15516099Y-12113008D01*
X15516099Y-12113008D02*
X15535147Y-12103484D01*
X15687528Y-12284436D02*
X15697052Y-12293960D01*
X15697052Y-12293960D02*
X15687528Y-12303484D01*
X15687528Y-12303484D02*
X15678004Y-12293960D01*
X15678004Y-12293960D02*
X15687528Y-12284436D01*
X15687528Y-12284436D02*
X15687528Y-12303484D01*
X15820861Y-12103484D02*
X15839909Y-12103484D01*
X15839909Y-12103484D02*
X15858957Y-12113008D01*
X15858957Y-12113008D02*
X15868480Y-12122531D01*
X15868480Y-12122531D02*
X15878004Y-12141579D01*
X15878004Y-12141579D02*
X15887528Y-12179674D01*
X15887528Y-12179674D02*
X15887528Y-12227293D01*
X15887528Y-12227293D02*
X15878004Y-12265388D01*
X15878004Y-12265388D02*
X15868480Y-12284436D01*
X15868480Y-12284436D02*
X15858957Y-12293960D01*
X15858957Y-12293960D02*
X15839909Y-12303484D01*
X15839909Y-12303484D02*
X15820861Y-12303484D01*
X15820861Y-12303484D02*
X15801814Y-12293960D01*
X15801814Y-12293960D02*
X15792290Y-12284436D01*
X15792290Y-12284436D02*
X15782766Y-12265388D01*
X15782766Y-12265388D02*
X15773242Y-12227293D01*
X15773242Y-12227293D02*
X15773242Y-12179674D01*
X15773242Y-12179674D02*
X15782766Y-12141579D01*
X15782766Y-12141579D02*
X15792290Y-12122531D01*
X15792290Y-12122531D02*
X15801814Y-12113008D01*
X15801814Y-12113008D02*
X15820861Y-12103484D01*
X15954195Y-12103484D02*
X16078004Y-12103484D01*
X16078004Y-12103484D02*
X16011337Y-12179674D01*
X16011337Y-12179674D02*
X16039909Y-12179674D01*
X16039909Y-12179674D02*
X16058957Y-12189198D01*
X16058957Y-12189198D02*
X16068480Y-12198722D01*
X16068480Y-12198722D02*
X16078004Y-12217769D01*
X16078004Y-12217769D02*
X16078004Y-12265388D01*
X16078004Y-12265388D02*
X16068480Y-12284436D01*
X16068480Y-12284436D02*
X16058957Y-12293960D01*
X16058957Y-12293960D02*
X16039909Y-12303484D01*
X16039909Y-12303484D02*
X15982766Y-12303484D01*
X15982766Y-12303484D02*
X15963718Y-12293960D01*
X15963718Y-12293960D02*
X15954195Y-12284436D01*
X16173242Y-12303484D02*
X16211337Y-12303484D01*
X16211337Y-12303484D02*
X16230385Y-12293960D01*
X16230385Y-12293960D02*
X16239909Y-12284436D01*
X16239909Y-12284436D02*
X16258957Y-12255865D01*
X16258957Y-12255865D02*
X16268480Y-12217769D01*
X16268480Y-12217769D02*
X16268480Y-12141579D01*
X16268480Y-12141579D02*
X16258957Y-12122531D01*
X16258957Y-12122531D02*
X16249433Y-12113008D01*
X16249433Y-12113008D02*
X16230385Y-12103484D01*
X16230385Y-12103484D02*
X16192290Y-12103484D01*
X16192290Y-12103484D02*
X16173242Y-12113008D01*
X16173242Y-12113008D02*
X16163718Y-12122531D01*
X16163718Y-12122531D02*
X16154195Y-12141579D01*
X16154195Y-12141579D02*
X16154195Y-12189198D01*
X16154195Y-12189198D02*
X16163718Y-12208246D01*
X16163718Y-12208246D02*
X16173242Y-12217769D01*
X16173242Y-12217769D02*
X16192290Y-12227293D01*
X16192290Y-12227293D02*
X16230385Y-12227293D01*
X16230385Y-12227293D02*
X16249433Y-12217769D01*
X16249433Y-12217769D02*
X16258957Y-12208246D01*
X16258957Y-12208246D02*
X16268480Y-12189198D01*
X16439909Y-12170150D02*
X16439909Y-12303484D01*
X16392290Y-12093960D02*
X16344671Y-12236817D01*
X16344671Y-12236817D02*
X16468480Y-12236817D01*
X16535147Y-12103484D02*
X16535147Y-12141579D01*
X16611338Y-12103484D02*
X16611338Y-12141579D01*
X16906576Y-12379674D02*
X16897052Y-12370150D01*
X16897052Y-12370150D02*
X16878004Y-12341579D01*
X16878004Y-12341579D02*
X16868481Y-12322531D01*
X16868481Y-12322531D02*
X16858957Y-12293960D01*
X16858957Y-12293960D02*
X16849433Y-12246341D01*
X16849433Y-12246341D02*
X16849433Y-12208246D01*
X16849433Y-12208246D02*
X16858957Y-12160627D01*
X16858957Y-12160627D02*
X16868481Y-12132055D01*
X16868481Y-12132055D02*
X16878004Y-12113008D01*
X16878004Y-12113008D02*
X16897052Y-12084436D01*
X16897052Y-12084436D02*
X16906576Y-12074912D01*
X17078004Y-12103484D02*
X16982766Y-12103484D01*
X16982766Y-12103484D02*
X16973242Y-12198722D01*
X16973242Y-12198722D02*
X16982766Y-12189198D01*
X16982766Y-12189198D02*
X17001814Y-12179674D01*
X17001814Y-12179674D02*
X17049433Y-12179674D01*
X17049433Y-12179674D02*
X17068481Y-12189198D01*
X17068481Y-12189198D02*
X17078004Y-12198722D01*
X17078004Y-12198722D02*
X17087528Y-12217769D01*
X17087528Y-12217769D02*
X17087528Y-12265388D01*
X17087528Y-12265388D02*
X17078004Y-12284436D01*
X17078004Y-12284436D02*
X17068481Y-12293960D01*
X17068481Y-12293960D02*
X17049433Y-12303484D01*
X17049433Y-12303484D02*
X17001814Y-12303484D01*
X17001814Y-12303484D02*
X16982766Y-12293960D01*
X16982766Y-12293960D02*
X16973242Y-12284436D01*
X17325623Y-12303484D02*
X17325623Y-12103484D01*
X17411338Y-12303484D02*
X17411338Y-12198722D01*
X17411338Y-12198722D02*
X17401814Y-12179674D01*
X17401814Y-12179674D02*
X17382766Y-12170150D01*
X17382766Y-12170150D02*
X17354195Y-12170150D01*
X17354195Y-12170150D02*
X17335147Y-12179674D01*
X17335147Y-12179674D02*
X17325623Y-12189198D01*
X17535147Y-12303484D02*
X17516100Y-12293960D01*
X17516100Y-12293960D02*
X17506576Y-12284436D01*
X17506576Y-12284436D02*
X17497052Y-12265388D01*
X17497052Y-12265388D02*
X17497052Y-12208246D01*
X17497052Y-12208246D02*
X17506576Y-12189198D01*
X17506576Y-12189198D02*
X17516100Y-12179674D01*
X17516100Y-12179674D02*
X17535147Y-12170150D01*
X17535147Y-12170150D02*
X17563719Y-12170150D01*
X17563719Y-12170150D02*
X17582766Y-12179674D01*
X17582766Y-12179674D02*
X17592290Y-12189198D01*
X17592290Y-12189198D02*
X17601814Y-12208246D01*
X17601814Y-12208246D02*
X17601814Y-12265388D01*
X17601814Y-12265388D02*
X17592290Y-12284436D01*
X17592290Y-12284436D02*
X17582766Y-12293960D01*
X17582766Y-12293960D02*
X17563719Y-12303484D01*
X17563719Y-12303484D02*
X17535147Y-12303484D01*
X17716100Y-12303484D02*
X17697052Y-12293960D01*
X17697052Y-12293960D02*
X17687528Y-12274912D01*
X17687528Y-12274912D02*
X17687528Y-12103484D01*
X17868481Y-12293960D02*
X17849433Y-12303484D01*
X17849433Y-12303484D02*
X17811338Y-12303484D01*
X17811338Y-12303484D02*
X17792290Y-12293960D01*
X17792290Y-12293960D02*
X17782766Y-12274912D01*
X17782766Y-12274912D02*
X17782766Y-12198722D01*
X17782766Y-12198722D02*
X17792290Y-12179674D01*
X17792290Y-12179674D02*
X17811338Y-12170150D01*
X17811338Y-12170150D02*
X17849433Y-12170150D01*
X17849433Y-12170150D02*
X17868481Y-12179674D01*
X17868481Y-12179674D02*
X17878004Y-12198722D01*
X17878004Y-12198722D02*
X17878004Y-12217769D01*
X17878004Y-12217769D02*
X17782766Y-12236817D01*
X17954195Y-12293960D02*
X17973243Y-12303484D01*
X17973243Y-12303484D02*
X18011338Y-12303484D01*
X18011338Y-12303484D02*
X18030385Y-12293960D01*
X18030385Y-12293960D02*
X18039909Y-12274912D01*
X18039909Y-12274912D02*
X18039909Y-12265388D01*
X18039909Y-12265388D02*
X18030385Y-12246341D01*
X18030385Y-12246341D02*
X18011338Y-12236817D01*
X18011338Y-12236817D02*
X17982766Y-12236817D01*
X17982766Y-12236817D02*
X17963719Y-12227293D01*
X17963719Y-12227293D02*
X17954195Y-12208246D01*
X17954195Y-12208246D02*
X17954195Y-12198722D01*
X17954195Y-12198722D02*
X17963719Y-12179674D01*
X17963719Y-12179674D02*
X17982766Y-12170150D01*
X17982766Y-12170150D02*
X18011338Y-12170150D01*
X18011338Y-12170150D02*
X18030385Y-12179674D01*
X18106576Y-12379674D02*
X18116100Y-12370150D01*
X18116100Y-12370150D02*
X18135147Y-12341579D01*
X18135147Y-12341579D02*
X18144671Y-12322531D01*
X18144671Y-12322531D02*
X18154195Y-12293960D01*
X18154195Y-12293960D02*
X18163719Y-12246341D01*
X18163719Y-12246341D02*
X18163719Y-12208246D01*
X18163719Y-12208246D02*
X18154195Y-12160627D01*
X18154195Y-12160627D02*
X18144671Y-12132055D01*
X18144671Y-12132055D02*
X18135147Y-12113008D01*
X18135147Y-12113008D02*
X18116100Y-12084436D01*
X18116100Y-12084436D02*
X18106576Y-12074912D01*
D12*
X13276513Y-12421000D02*
X13276513Y-12531000D01*
X13221513Y-12476000D02*
X13331513Y-12476000D01*
D11*
X13697052Y-12567484D02*
X13582766Y-12567484D01*
X13639909Y-12567484D02*
X13639909Y-12367484D01*
X13639909Y-12367484D02*
X13620861Y-12396055D01*
X13620861Y-12396055D02*
X13601813Y-12415103D01*
X13601813Y-12415103D02*
X13582766Y-12424627D01*
X13782766Y-12548436D02*
X13792290Y-12557960D01*
X13792290Y-12557960D02*
X13782766Y-12567484D01*
X13782766Y-12567484D02*
X13773242Y-12557960D01*
X13773242Y-12557960D02*
X13782766Y-12548436D01*
X13782766Y-12548436D02*
X13782766Y-12567484D01*
X13982766Y-12567484D02*
X13868480Y-12567484D01*
X13925623Y-12567484D02*
X13925623Y-12367484D01*
X13925623Y-12367484D02*
X13906575Y-12396055D01*
X13906575Y-12396055D02*
X13887528Y-12415103D01*
X13887528Y-12415103D02*
X13868480Y-12424627D01*
X14106575Y-12367484D02*
X14125623Y-12367484D01*
X14125623Y-12367484D02*
X14144671Y-12377008D01*
X14144671Y-12377008D02*
X14154194Y-12386531D01*
X14154194Y-12386531D02*
X14163718Y-12405579D01*
X14163718Y-12405579D02*
X14173242Y-12443674D01*
X14173242Y-12443674D02*
X14173242Y-12491293D01*
X14173242Y-12491293D02*
X14163718Y-12529388D01*
X14163718Y-12529388D02*
X14154194Y-12548436D01*
X14154194Y-12548436D02*
X14144671Y-12557960D01*
X14144671Y-12557960D02*
X14125623Y-12567484D01*
X14125623Y-12567484D02*
X14106575Y-12567484D01*
X14106575Y-12567484D02*
X14087528Y-12557960D01*
X14087528Y-12557960D02*
X14078004Y-12548436D01*
X14078004Y-12548436D02*
X14068480Y-12529388D01*
X14068480Y-12529388D02*
X14058956Y-12491293D01*
X14058956Y-12491293D02*
X14058956Y-12443674D01*
X14058956Y-12443674D02*
X14068480Y-12405579D01*
X14068480Y-12405579D02*
X14078004Y-12386531D01*
X14078004Y-12386531D02*
X14087528Y-12377008D01*
X14087528Y-12377008D02*
X14106575Y-12367484D01*
X14297052Y-12367484D02*
X14316099Y-12367484D01*
X14316099Y-12367484D02*
X14335147Y-12377008D01*
X14335147Y-12377008D02*
X14344671Y-12386531D01*
X14344671Y-12386531D02*
X14354194Y-12405579D01*
X14354194Y-12405579D02*
X14363718Y-12443674D01*
X14363718Y-12443674D02*
X14363718Y-12491293D01*
X14363718Y-12491293D02*
X14354194Y-12529388D01*
X14354194Y-12529388D02*
X14344671Y-12548436D01*
X14344671Y-12548436D02*
X14335147Y-12557960D01*
X14335147Y-12557960D02*
X14316099Y-12567484D01*
X14316099Y-12567484D02*
X14297052Y-12567484D01*
X14297052Y-12567484D02*
X14278004Y-12557960D01*
X14278004Y-12557960D02*
X14268480Y-12548436D01*
X14268480Y-12548436D02*
X14258956Y-12529388D01*
X14258956Y-12529388D02*
X14249433Y-12491293D01*
X14249433Y-12491293D02*
X14249433Y-12443674D01*
X14249433Y-12443674D02*
X14258956Y-12405579D01*
X14258956Y-12405579D02*
X14268480Y-12386531D01*
X14268480Y-12386531D02*
X14278004Y-12377008D01*
X14278004Y-12377008D02*
X14297052Y-12367484D01*
X14449433Y-12567484D02*
X14449433Y-12434150D01*
X14449433Y-12453198D02*
X14458956Y-12443674D01*
X14458956Y-12443674D02*
X14478004Y-12434150D01*
X14478004Y-12434150D02*
X14506575Y-12434150D01*
X14506575Y-12434150D02*
X14525623Y-12443674D01*
X14525623Y-12443674D02*
X14535147Y-12462722D01*
X14535147Y-12462722D02*
X14535147Y-12567484D01*
X14535147Y-12462722D02*
X14544671Y-12443674D01*
X14544671Y-12443674D02*
X14563718Y-12434150D01*
X14563718Y-12434150D02*
X14592290Y-12434150D01*
X14592290Y-12434150D02*
X14611337Y-12443674D01*
X14611337Y-12443674D02*
X14620861Y-12462722D01*
X14620861Y-12462722D02*
X14620861Y-12567484D01*
X14716099Y-12567484D02*
X14716099Y-12434150D01*
X14716099Y-12453198D02*
X14725623Y-12443674D01*
X14725623Y-12443674D02*
X14744671Y-12434150D01*
X14744671Y-12434150D02*
X14773242Y-12434150D01*
X14773242Y-12434150D02*
X14792290Y-12443674D01*
X14792290Y-12443674D02*
X14801814Y-12462722D01*
X14801814Y-12462722D02*
X14801814Y-12567484D01*
X14801814Y-12462722D02*
X14811337Y-12443674D01*
X14811337Y-12443674D02*
X14830385Y-12434150D01*
X14830385Y-12434150D02*
X14858956Y-12434150D01*
X14858956Y-12434150D02*
X14878004Y-12443674D01*
X14878004Y-12443674D02*
X14887528Y-12462722D01*
X14887528Y-12462722D02*
X14887528Y-12567484D01*
X15278004Y-12357960D02*
X15106576Y-12615103D01*
X15535147Y-12367484D02*
X15554195Y-12367484D01*
X15554195Y-12367484D02*
X15573242Y-12377008D01*
X15573242Y-12377008D02*
X15582766Y-12386531D01*
X15582766Y-12386531D02*
X15592290Y-12405579D01*
X15592290Y-12405579D02*
X15601814Y-12443674D01*
X15601814Y-12443674D02*
X15601814Y-12491293D01*
X15601814Y-12491293D02*
X15592290Y-12529388D01*
X15592290Y-12529388D02*
X15582766Y-12548436D01*
X15582766Y-12548436D02*
X15573242Y-12557960D01*
X15573242Y-12557960D02*
X15554195Y-12567484D01*
X15554195Y-12567484D02*
X15535147Y-12567484D01*
X15535147Y-12567484D02*
X15516099Y-12557960D01*
X15516099Y-12557960D02*
X15506576Y-12548436D01*
X15506576Y-12548436D02*
X15497052Y-12529388D01*
X15497052Y-12529388D02*
X15487528Y-12491293D01*
X15487528Y-12491293D02*
X15487528Y-12443674D01*
X15487528Y-12443674D02*
X15497052Y-12405579D01*
X15497052Y-12405579D02*
X15506576Y-12386531D01*
X15506576Y-12386531D02*
X15516099Y-12377008D01*
X15516099Y-12377008D02*
X15535147Y-12367484D01*
X15687528Y-12548436D02*
X15697052Y-12557960D01*
X15697052Y-12557960D02*
X15687528Y-12567484D01*
X15687528Y-12567484D02*
X15678004Y-12557960D01*
X15678004Y-12557960D02*
X15687528Y-12548436D01*
X15687528Y-12548436D02*
X15687528Y-12567484D01*
X15820861Y-12367484D02*
X15839909Y-12367484D01*
X15839909Y-12367484D02*
X15858957Y-12377008D01*
X15858957Y-12377008D02*
X15868480Y-12386531D01*
X15868480Y-12386531D02*
X15878004Y-12405579D01*
X15878004Y-12405579D02*
X15887528Y-12443674D01*
X15887528Y-12443674D02*
X15887528Y-12491293D01*
X15887528Y-12491293D02*
X15878004Y-12529388D01*
X15878004Y-12529388D02*
X15868480Y-12548436D01*
X15868480Y-12548436D02*
X15858957Y-12557960D01*
X15858957Y-12557960D02*
X15839909Y-12567484D01*
X15839909Y-12567484D02*
X15820861Y-12567484D01*
X15820861Y-12567484D02*
X15801814Y-12557960D01*
X15801814Y-12557960D02*
X15792290Y-12548436D01*
X15792290Y-12548436D02*
X15782766Y-12529388D01*
X15782766Y-12529388D02*
X15773242Y-12491293D01*
X15773242Y-12491293D02*
X15773242Y-12443674D01*
X15773242Y-12443674D02*
X15782766Y-12405579D01*
X15782766Y-12405579D02*
X15792290Y-12386531D01*
X15792290Y-12386531D02*
X15801814Y-12377008D01*
X15801814Y-12377008D02*
X15820861Y-12367484D01*
X16058957Y-12434150D02*
X16058957Y-12567484D01*
X16011337Y-12357960D02*
X15963718Y-12500817D01*
X15963718Y-12500817D02*
X16087528Y-12500817D01*
X16144671Y-12367484D02*
X16268480Y-12367484D01*
X16268480Y-12367484D02*
X16201814Y-12443674D01*
X16201814Y-12443674D02*
X16230385Y-12443674D01*
X16230385Y-12443674D02*
X16249433Y-12453198D01*
X16249433Y-12453198D02*
X16258957Y-12462722D01*
X16258957Y-12462722D02*
X16268480Y-12481769D01*
X16268480Y-12481769D02*
X16268480Y-12529388D01*
X16268480Y-12529388D02*
X16258957Y-12548436D01*
X16258957Y-12548436D02*
X16249433Y-12557960D01*
X16249433Y-12557960D02*
X16230385Y-12567484D01*
X16230385Y-12567484D02*
X16173242Y-12567484D01*
X16173242Y-12567484D02*
X16154195Y-12557960D01*
X16154195Y-12557960D02*
X16144671Y-12548436D01*
X16335147Y-12367484D02*
X16458957Y-12367484D01*
X16458957Y-12367484D02*
X16392290Y-12443674D01*
X16392290Y-12443674D02*
X16420861Y-12443674D01*
X16420861Y-12443674D02*
X16439909Y-12453198D01*
X16439909Y-12453198D02*
X16449433Y-12462722D01*
X16449433Y-12462722D02*
X16458957Y-12481769D01*
X16458957Y-12481769D02*
X16458957Y-12529388D01*
X16458957Y-12529388D02*
X16449433Y-12548436D01*
X16449433Y-12548436D02*
X16439909Y-12557960D01*
X16439909Y-12557960D02*
X16420861Y-12567484D01*
X16420861Y-12567484D02*
X16363718Y-12567484D01*
X16363718Y-12567484D02*
X16344671Y-12557960D01*
X16344671Y-12557960D02*
X16335147Y-12548436D01*
X16535147Y-12367484D02*
X16535147Y-12405579D01*
X16611338Y-12367484D02*
X16611338Y-12405579D01*
X16906576Y-12643674D02*
X16897052Y-12634150D01*
X16897052Y-12634150D02*
X16878004Y-12605579D01*
X16878004Y-12605579D02*
X16868481Y-12586531D01*
X16868481Y-12586531D02*
X16858957Y-12557960D01*
X16858957Y-12557960D02*
X16849433Y-12510341D01*
X16849433Y-12510341D02*
X16849433Y-12472246D01*
X16849433Y-12472246D02*
X16858957Y-12424627D01*
X16858957Y-12424627D02*
X16868481Y-12396055D01*
X16868481Y-12396055D02*
X16878004Y-12377008D01*
X16878004Y-12377008D02*
X16897052Y-12348436D01*
X16897052Y-12348436D02*
X16906576Y-12338912D01*
X16963719Y-12367484D02*
X17087528Y-12367484D01*
X17087528Y-12367484D02*
X17020861Y-12443674D01*
X17020861Y-12443674D02*
X17049433Y-12443674D01*
X17049433Y-12443674D02*
X17068481Y-12453198D01*
X17068481Y-12453198D02*
X17078004Y-12462722D01*
X17078004Y-12462722D02*
X17087528Y-12481769D01*
X17087528Y-12481769D02*
X17087528Y-12529388D01*
X17087528Y-12529388D02*
X17078004Y-12548436D01*
X17078004Y-12548436D02*
X17068481Y-12557960D01*
X17068481Y-12557960D02*
X17049433Y-12567484D01*
X17049433Y-12567484D02*
X16992290Y-12567484D01*
X16992290Y-12567484D02*
X16973242Y-12557960D01*
X16973242Y-12557960D02*
X16963719Y-12548436D01*
X17325623Y-12567484D02*
X17325623Y-12367484D01*
X17411338Y-12567484D02*
X17411338Y-12462722D01*
X17411338Y-12462722D02*
X17401814Y-12443674D01*
X17401814Y-12443674D02*
X17382766Y-12434150D01*
X17382766Y-12434150D02*
X17354195Y-12434150D01*
X17354195Y-12434150D02*
X17335147Y-12443674D01*
X17335147Y-12443674D02*
X17325623Y-12453198D01*
X17535147Y-12567484D02*
X17516100Y-12557960D01*
X17516100Y-12557960D02*
X17506576Y-12548436D01*
X17506576Y-12548436D02*
X17497052Y-12529388D01*
X17497052Y-12529388D02*
X17497052Y-12472246D01*
X17497052Y-12472246D02*
X17506576Y-12453198D01*
X17506576Y-12453198D02*
X17516100Y-12443674D01*
X17516100Y-12443674D02*
X17535147Y-12434150D01*
X17535147Y-12434150D02*
X17563719Y-12434150D01*
X17563719Y-12434150D02*
X17582766Y-12443674D01*
X17582766Y-12443674D02*
X17592290Y-12453198D01*
X17592290Y-12453198D02*
X17601814Y-12472246D01*
X17601814Y-12472246D02*
X17601814Y-12529388D01*
X17601814Y-12529388D02*
X17592290Y-12548436D01*
X17592290Y-12548436D02*
X17582766Y-12557960D01*
X17582766Y-12557960D02*
X17563719Y-12567484D01*
X17563719Y-12567484D02*
X17535147Y-12567484D01*
X17716100Y-12567484D02*
X17697052Y-12557960D01*
X17697052Y-12557960D02*
X17687528Y-12538912D01*
X17687528Y-12538912D02*
X17687528Y-12367484D01*
X17868481Y-12557960D02*
X17849433Y-12567484D01*
X17849433Y-12567484D02*
X17811338Y-12567484D01*
X17811338Y-12567484D02*
X17792290Y-12557960D01*
X17792290Y-12557960D02*
X17782766Y-12538912D01*
X17782766Y-12538912D02*
X17782766Y-12462722D01*
X17782766Y-12462722D02*
X17792290Y-12443674D01*
X17792290Y-12443674D02*
X17811338Y-12434150D01*
X17811338Y-12434150D02*
X17849433Y-12434150D01*
X17849433Y-12434150D02*
X17868481Y-12443674D01*
X17868481Y-12443674D02*
X17878004Y-12462722D01*
X17878004Y-12462722D02*
X17878004Y-12481769D01*
X17878004Y-12481769D02*
X17782766Y-12500817D01*
X17954195Y-12557960D02*
X17973243Y-12567484D01*
X17973243Y-12567484D02*
X18011338Y-12567484D01*
X18011338Y-12567484D02*
X18030385Y-12557960D01*
X18030385Y-12557960D02*
X18039909Y-12538912D01*
X18039909Y-12538912D02*
X18039909Y-12529388D01*
X18039909Y-12529388D02*
X18030385Y-12510341D01*
X18030385Y-12510341D02*
X18011338Y-12500817D01*
X18011338Y-12500817D02*
X17982766Y-12500817D01*
X17982766Y-12500817D02*
X17963719Y-12491293D01*
X17963719Y-12491293D02*
X17954195Y-12472246D01*
X17954195Y-12472246D02*
X17954195Y-12462722D01*
X17954195Y-12462722D02*
X17963719Y-12443674D01*
X17963719Y-12443674D02*
X17982766Y-12434150D01*
X17982766Y-12434150D02*
X18011338Y-12434150D01*
X18011338Y-12434150D02*
X18030385Y-12443674D01*
X18106576Y-12643674D02*
X18116100Y-12634150D01*
X18116100Y-12634150D02*
X18135147Y-12605579D01*
X18135147Y-12605579D02*
X18144671Y-12586531D01*
X18144671Y-12586531D02*
X18154195Y-12557960D01*
X18154195Y-12557960D02*
X18163719Y-12510341D01*
X18163719Y-12510341D02*
X18163719Y-12472246D01*
X18163719Y-12472246D02*
X18154195Y-12424627D01*
X18154195Y-12424627D02*
X18144671Y-12396055D01*
X18144671Y-12396055D02*
X18135147Y-12377008D01*
X18135147Y-12377008D02*
X18116100Y-12348436D01*
X18116100Y-12348436D02*
X18106576Y-12338912D01*
D13*
X13313940Y-12782427D02*
X13313940Y-12697573D01*
X13229086Y-12697573D01*
X13229086Y-12782427D01*
X13313940Y-12782427D01*
D11*
X13697052Y-12831484D02*
X13582766Y-12831484D01*
X13639909Y-12831484D02*
X13639909Y-12631484D01*
X13639909Y-12631484D02*
X13620861Y-12660055D01*
X13620861Y-12660055D02*
X13601813Y-12679103D01*
X13601813Y-12679103D02*
X13582766Y-12688627D01*
X13782766Y-12812436D02*
X13792290Y-12821960D01*
X13792290Y-12821960D02*
X13782766Y-12831484D01*
X13782766Y-12831484D02*
X13773242Y-12821960D01*
X13773242Y-12821960D02*
X13782766Y-12812436D01*
X13782766Y-12812436D02*
X13782766Y-12831484D01*
X13868480Y-12650531D02*
X13878004Y-12641008D01*
X13878004Y-12641008D02*
X13897052Y-12631484D01*
X13897052Y-12631484D02*
X13944671Y-12631484D01*
X13944671Y-12631484D02*
X13963718Y-12641008D01*
X13963718Y-12641008D02*
X13973242Y-12650531D01*
X13973242Y-12650531D02*
X13982766Y-12669579D01*
X13982766Y-12669579D02*
X13982766Y-12688627D01*
X13982766Y-12688627D02*
X13973242Y-12717198D01*
X13973242Y-12717198D02*
X13858956Y-12831484D01*
X13858956Y-12831484D02*
X13982766Y-12831484D01*
X14106575Y-12631484D02*
X14125623Y-12631484D01*
X14125623Y-12631484D02*
X14144671Y-12641008D01*
X14144671Y-12641008D02*
X14154194Y-12650531D01*
X14154194Y-12650531D02*
X14163718Y-12669579D01*
X14163718Y-12669579D02*
X14173242Y-12707674D01*
X14173242Y-12707674D02*
X14173242Y-12755293D01*
X14173242Y-12755293D02*
X14163718Y-12793388D01*
X14163718Y-12793388D02*
X14154194Y-12812436D01*
X14154194Y-12812436D02*
X14144671Y-12821960D01*
X14144671Y-12821960D02*
X14125623Y-12831484D01*
X14125623Y-12831484D02*
X14106575Y-12831484D01*
X14106575Y-12831484D02*
X14087528Y-12821960D01*
X14087528Y-12821960D02*
X14078004Y-12812436D01*
X14078004Y-12812436D02*
X14068480Y-12793388D01*
X14068480Y-12793388D02*
X14058956Y-12755293D01*
X14058956Y-12755293D02*
X14058956Y-12707674D01*
X14058956Y-12707674D02*
X14068480Y-12669579D01*
X14068480Y-12669579D02*
X14078004Y-12650531D01*
X14078004Y-12650531D02*
X14087528Y-12641008D01*
X14087528Y-12641008D02*
X14106575Y-12631484D01*
X14297052Y-12631484D02*
X14316099Y-12631484D01*
X14316099Y-12631484D02*
X14335147Y-12641008D01*
X14335147Y-12641008D02*
X14344671Y-12650531D01*
X14344671Y-12650531D02*
X14354194Y-12669579D01*
X14354194Y-12669579D02*
X14363718Y-12707674D01*
X14363718Y-12707674D02*
X14363718Y-12755293D01*
X14363718Y-12755293D02*
X14354194Y-12793388D01*
X14354194Y-12793388D02*
X14344671Y-12812436D01*
X14344671Y-12812436D02*
X14335147Y-12821960D01*
X14335147Y-12821960D02*
X14316099Y-12831484D01*
X14316099Y-12831484D02*
X14297052Y-12831484D01*
X14297052Y-12831484D02*
X14278004Y-12821960D01*
X14278004Y-12821960D02*
X14268480Y-12812436D01*
X14268480Y-12812436D02*
X14258956Y-12793388D01*
X14258956Y-12793388D02*
X14249433Y-12755293D01*
X14249433Y-12755293D02*
X14249433Y-12707674D01*
X14249433Y-12707674D02*
X14258956Y-12669579D01*
X14258956Y-12669579D02*
X14268480Y-12650531D01*
X14268480Y-12650531D02*
X14278004Y-12641008D01*
X14278004Y-12641008D02*
X14297052Y-12631484D01*
X14449433Y-12831484D02*
X14449433Y-12698150D01*
X14449433Y-12717198D02*
X14458956Y-12707674D01*
X14458956Y-12707674D02*
X14478004Y-12698150D01*
X14478004Y-12698150D02*
X14506575Y-12698150D01*
X14506575Y-12698150D02*
X14525623Y-12707674D01*
X14525623Y-12707674D02*
X14535147Y-12726722D01*
X14535147Y-12726722D02*
X14535147Y-12831484D01*
X14535147Y-12726722D02*
X14544671Y-12707674D01*
X14544671Y-12707674D02*
X14563718Y-12698150D01*
X14563718Y-12698150D02*
X14592290Y-12698150D01*
X14592290Y-12698150D02*
X14611337Y-12707674D01*
X14611337Y-12707674D02*
X14620861Y-12726722D01*
X14620861Y-12726722D02*
X14620861Y-12831484D01*
X14716099Y-12831484D02*
X14716099Y-12698150D01*
X14716099Y-12717198D02*
X14725623Y-12707674D01*
X14725623Y-12707674D02*
X14744671Y-12698150D01*
X14744671Y-12698150D02*
X14773242Y-12698150D01*
X14773242Y-12698150D02*
X14792290Y-12707674D01*
X14792290Y-12707674D02*
X14801814Y-12726722D01*
X14801814Y-12726722D02*
X14801814Y-12831484D01*
X14801814Y-12726722D02*
X14811337Y-12707674D01*
X14811337Y-12707674D02*
X14830385Y-12698150D01*
X14830385Y-12698150D02*
X14858956Y-12698150D01*
X14858956Y-12698150D02*
X14878004Y-12707674D01*
X14878004Y-12707674D02*
X14887528Y-12726722D01*
X14887528Y-12726722D02*
X14887528Y-12831484D01*
X15278004Y-12621960D02*
X15106576Y-12879103D01*
X15535147Y-12631484D02*
X15554195Y-12631484D01*
X15554195Y-12631484D02*
X15573242Y-12641008D01*
X15573242Y-12641008D02*
X15582766Y-12650531D01*
X15582766Y-12650531D02*
X15592290Y-12669579D01*
X15592290Y-12669579D02*
X15601814Y-12707674D01*
X15601814Y-12707674D02*
X15601814Y-12755293D01*
X15601814Y-12755293D02*
X15592290Y-12793388D01*
X15592290Y-12793388D02*
X15582766Y-12812436D01*
X15582766Y-12812436D02*
X15573242Y-12821960D01*
X15573242Y-12821960D02*
X15554195Y-12831484D01*
X15554195Y-12831484D02*
X15535147Y-12831484D01*
X15535147Y-12831484D02*
X15516099Y-12821960D01*
X15516099Y-12821960D02*
X15506576Y-12812436D01*
X15506576Y-12812436D02*
X15497052Y-12793388D01*
X15497052Y-12793388D02*
X15487528Y-12755293D01*
X15487528Y-12755293D02*
X15487528Y-12707674D01*
X15487528Y-12707674D02*
X15497052Y-12669579D01*
X15497052Y-12669579D02*
X15506576Y-12650531D01*
X15506576Y-12650531D02*
X15516099Y-12641008D01*
X15516099Y-12641008D02*
X15535147Y-12631484D01*
X15687528Y-12812436D02*
X15697052Y-12821960D01*
X15697052Y-12821960D02*
X15687528Y-12831484D01*
X15687528Y-12831484D02*
X15678004Y-12821960D01*
X15678004Y-12821960D02*
X15687528Y-12812436D01*
X15687528Y-12812436D02*
X15687528Y-12831484D01*
X15820861Y-12631484D02*
X15839909Y-12631484D01*
X15839909Y-12631484D02*
X15858957Y-12641008D01*
X15858957Y-12641008D02*
X15868480Y-12650531D01*
X15868480Y-12650531D02*
X15878004Y-12669579D01*
X15878004Y-12669579D02*
X15887528Y-12707674D01*
X15887528Y-12707674D02*
X15887528Y-12755293D01*
X15887528Y-12755293D02*
X15878004Y-12793388D01*
X15878004Y-12793388D02*
X15868480Y-12812436D01*
X15868480Y-12812436D02*
X15858957Y-12821960D01*
X15858957Y-12821960D02*
X15839909Y-12831484D01*
X15839909Y-12831484D02*
X15820861Y-12831484D01*
X15820861Y-12831484D02*
X15801814Y-12821960D01*
X15801814Y-12821960D02*
X15792290Y-12812436D01*
X15792290Y-12812436D02*
X15782766Y-12793388D01*
X15782766Y-12793388D02*
X15773242Y-12755293D01*
X15773242Y-12755293D02*
X15773242Y-12707674D01*
X15773242Y-12707674D02*
X15782766Y-12669579D01*
X15782766Y-12669579D02*
X15792290Y-12650531D01*
X15792290Y-12650531D02*
X15801814Y-12641008D01*
X15801814Y-12641008D02*
X15820861Y-12631484D01*
X16058957Y-12698150D02*
X16058957Y-12831484D01*
X16011337Y-12621960D02*
X15963718Y-12764817D01*
X15963718Y-12764817D02*
X16087528Y-12764817D01*
X16144671Y-12631484D02*
X16278004Y-12631484D01*
X16278004Y-12631484D02*
X16192290Y-12831484D01*
X16344671Y-12650531D02*
X16354195Y-12641008D01*
X16354195Y-12641008D02*
X16373242Y-12631484D01*
X16373242Y-12631484D02*
X16420861Y-12631484D01*
X16420861Y-12631484D02*
X16439909Y-12641008D01*
X16439909Y-12641008D02*
X16449433Y-12650531D01*
X16449433Y-12650531D02*
X16458957Y-12669579D01*
X16458957Y-12669579D02*
X16458957Y-12688627D01*
X16458957Y-12688627D02*
X16449433Y-12717198D01*
X16449433Y-12717198D02*
X16335147Y-12831484D01*
X16335147Y-12831484D02*
X16458957Y-12831484D01*
X16535147Y-12631484D02*
X16535147Y-12669579D01*
X16611338Y-12631484D02*
X16611338Y-12669579D01*
X16906576Y-12907674D02*
X16897052Y-12898150D01*
X16897052Y-12898150D02*
X16878004Y-12869579D01*
X16878004Y-12869579D02*
X16868481Y-12850531D01*
X16868481Y-12850531D02*
X16858957Y-12821960D01*
X16858957Y-12821960D02*
X16849433Y-12774341D01*
X16849433Y-12774341D02*
X16849433Y-12736246D01*
X16849433Y-12736246D02*
X16858957Y-12688627D01*
X16858957Y-12688627D02*
X16868481Y-12660055D01*
X16868481Y-12660055D02*
X16878004Y-12641008D01*
X16878004Y-12641008D02*
X16897052Y-12612436D01*
X16897052Y-12612436D02*
X16906576Y-12602912D01*
X17068481Y-12698150D02*
X17068481Y-12831484D01*
X17020861Y-12621960D02*
X16973242Y-12764817D01*
X16973242Y-12764817D02*
X17097052Y-12764817D01*
X17325623Y-12831484D02*
X17325623Y-12631484D01*
X17411338Y-12831484D02*
X17411338Y-12726722D01*
X17411338Y-12726722D02*
X17401814Y-12707674D01*
X17401814Y-12707674D02*
X17382766Y-12698150D01*
X17382766Y-12698150D02*
X17354195Y-12698150D01*
X17354195Y-12698150D02*
X17335147Y-12707674D01*
X17335147Y-12707674D02*
X17325623Y-12717198D01*
X17535147Y-12831484D02*
X17516100Y-12821960D01*
X17516100Y-12821960D02*
X17506576Y-12812436D01*
X17506576Y-12812436D02*
X17497052Y-12793388D01*
X17497052Y-12793388D02*
X17497052Y-12736246D01*
X17497052Y-12736246D02*
X17506576Y-12717198D01*
X17506576Y-12717198D02*
X17516100Y-12707674D01*
X17516100Y-12707674D02*
X17535147Y-12698150D01*
X17535147Y-12698150D02*
X17563719Y-12698150D01*
X17563719Y-12698150D02*
X17582766Y-12707674D01*
X17582766Y-12707674D02*
X17592290Y-12717198D01*
X17592290Y-12717198D02*
X17601814Y-12736246D01*
X17601814Y-12736246D02*
X17601814Y-12793388D01*
X17601814Y-12793388D02*
X17592290Y-12812436D01*
X17592290Y-12812436D02*
X17582766Y-12821960D01*
X17582766Y-12821960D02*
X17563719Y-12831484D01*
X17563719Y-12831484D02*
X17535147Y-12831484D01*
X17716100Y-12831484D02*
X17697052Y-12821960D01*
X17697052Y-12821960D02*
X17687528Y-12802912D01*
X17687528Y-12802912D02*
X17687528Y-12631484D01*
X17868481Y-12821960D02*
X17849433Y-12831484D01*
X17849433Y-12831484D02*
X17811338Y-12831484D01*
X17811338Y-12831484D02*
X17792290Y-12821960D01*
X17792290Y-12821960D02*
X17782766Y-12802912D01*
X17782766Y-12802912D02*
X17782766Y-12726722D01*
X17782766Y-12726722D02*
X17792290Y-12707674D01*
X17792290Y-12707674D02*
X17811338Y-12698150D01*
X17811338Y-12698150D02*
X17849433Y-12698150D01*
X17849433Y-12698150D02*
X17868481Y-12707674D01*
X17868481Y-12707674D02*
X17878004Y-12726722D01*
X17878004Y-12726722D02*
X17878004Y-12745769D01*
X17878004Y-12745769D02*
X17782766Y-12764817D01*
X17954195Y-12821960D02*
X17973243Y-12831484D01*
X17973243Y-12831484D02*
X18011338Y-12831484D01*
X18011338Y-12831484D02*
X18030385Y-12821960D01*
X18030385Y-12821960D02*
X18039909Y-12802912D01*
X18039909Y-12802912D02*
X18039909Y-12793388D01*
X18039909Y-12793388D02*
X18030385Y-12774341D01*
X18030385Y-12774341D02*
X18011338Y-12764817D01*
X18011338Y-12764817D02*
X17982766Y-12764817D01*
X17982766Y-12764817D02*
X17963719Y-12755293D01*
X17963719Y-12755293D02*
X17954195Y-12736246D01*
X17954195Y-12736246D02*
X17954195Y-12726722D01*
X17954195Y-12726722D02*
X17963719Y-12707674D01*
X17963719Y-12707674D02*
X17982766Y-12698150D01*
X17982766Y-12698150D02*
X18011338Y-12698150D01*
X18011338Y-12698150D02*
X18030385Y-12707674D01*
X18106576Y-12907674D02*
X18116100Y-12898150D01*
X18116100Y-12898150D02*
X18135147Y-12869579D01*
X18135147Y-12869579D02*
X18144671Y-12850531D01*
X18144671Y-12850531D02*
X18154195Y-12821960D01*
X18154195Y-12821960D02*
X18163719Y-12774341D01*
X18163719Y-12774341D02*
X18163719Y-12736246D01*
X18163719Y-12736246D02*
X18154195Y-12688627D01*
X18154195Y-12688627D02*
X18144671Y-12660055D01*
X18144671Y-12660055D02*
X18135147Y-12641008D01*
X18135147Y-12641008D02*
X18116100Y-12612436D01*
X18116100Y-12612436D02*
X18106576Y-12602912D01*
M02*
