G04 #@! TF.GenerationSoftware,KiCad,Pcbnew,7.0.10*
G04 #@! TF.CreationDate,2024-02-09T12:47:37+11:00*
G04 #@! TF.ProjectId,PIC16F15214 Debugger,50494331-3646-4313-9532-313420446562,1.0-A*
G04 #@! TF.SameCoordinates,Original*
G04 #@! TF.FileFunction,Copper,L1,Top*
G04 #@! TF.FilePolarity,Positive*
%FSLAX46Y46*%
G04 Gerber Fmt 4.6, Leading zero omitted, Abs format (unit mm)*
G04 Created by KiCad (PCBNEW 7.0.10) date 2024-02-09 12:47:37*
%MOMM*%
%LPD*%
G01*
G04 APERTURE LIST*
G04 #@! TA.AperFunction,ComponentPad*
%ADD10R,1.700000X1.700000*%
G04 #@! TD*
G04 #@! TA.AperFunction,ComponentPad*
%ADD11O,1.700000X1.700000*%
G04 #@! TD*
G04 #@! TA.AperFunction,ComponentPad*
%ADD12R,2.400000X1.600000*%
G04 #@! TD*
G04 #@! TA.AperFunction,ComponentPad*
%ADD13O,2.400000X1.600000*%
G04 #@! TD*
G04 #@! TA.AperFunction,ComponentPad*
%ADD14R,1.800000X1.717500*%
G04 #@! TD*
G04 #@! TA.AperFunction,ComponentPad*
%ADD15O,1.800000X1.717500*%
G04 #@! TD*
G04 #@! TA.AperFunction,ComponentPad*
%ADD16C,2.100000*%
G04 #@! TD*
G04 #@! TA.AperFunction,Conductor*
%ADD17C,0.450000*%
G04 #@! TD*
G04 APERTURE END LIST*
D10*
X154701129Y-100076000D03*
D11*
X154701129Y-102616000D03*
X154701129Y-105156000D03*
X154701129Y-107696000D03*
X154701129Y-110236000D03*
D12*
X139461129Y-102870000D03*
D13*
X139461129Y-105410000D03*
X139461129Y-107950000D03*
X139461129Y-110490000D03*
X147081129Y-110490000D03*
X147081129Y-107950000D03*
X147081129Y-105410000D03*
X147081129Y-102870000D03*
D14*
X136039129Y-90928000D03*
D15*
X136039129Y-93218000D03*
X136039129Y-95508000D03*
D16*
X139905629Y-88519000D03*
X139905629Y-93599000D03*
X142445629Y-88519000D03*
X142445629Y-93599000D03*
D17*
X141216129Y-106418741D02*
X141216129Y-108735000D01*
X154701129Y-100076000D02*
X147558870Y-100076000D01*
X141216129Y-108735000D02*
X139461129Y-110490000D01*
X147558870Y-100076000D02*
X141216129Y-106418741D01*
G04 #@! TA.AperFunction,Conductor*
G36*
X157137668Y-82870185D02*
G01*
X157183423Y-82922989D01*
X157194629Y-82974500D01*
X157194629Y-112605500D01*
X157174944Y-112672539D01*
X157122140Y-112718294D01*
X157070629Y-112729500D01*
X133789629Y-112729500D01*
X133722590Y-112709815D01*
X133676835Y-112657011D01*
X133665629Y-112605500D01*
X133665629Y-110490001D01*
X137755661Y-110490001D01*
X137775493Y-110716686D01*
X137775495Y-110716697D01*
X137834387Y-110936488D01*
X137834390Y-110936497D01*
X137930560Y-111142732D01*
X137930561Y-111142734D01*
X138061083Y-111329141D01*
X138221987Y-111490045D01*
X138221990Y-111490047D01*
X138408395Y-111620568D01*
X138614633Y-111716739D01*
X138834437Y-111775635D01*
X139004343Y-111790499D01*
X139004344Y-111790500D01*
X139004345Y-111790500D01*
X139917914Y-111790500D01*
X139917914Y-111790499D01*
X140087821Y-111775635D01*
X140307625Y-111716739D01*
X140513863Y-111620568D01*
X140700268Y-111490047D01*
X140861176Y-111329139D01*
X140991697Y-111142734D01*
X141087868Y-110936496D01*
X141146764Y-110716692D01*
X141166597Y-110490000D01*
X141164970Y-110471408D01*
X141146764Y-110263313D01*
X141146764Y-110263308D01*
X141087868Y-110043504D01*
X141075513Y-110017008D01*
X141065022Y-109947931D01*
X141093543Y-109884147D01*
X141100202Y-109876937D01*
X141685375Y-109291764D01*
X141699001Y-109279988D01*
X141717387Y-109266302D01*
X141748062Y-109229743D01*
X141755370Y-109221770D01*
X141759015Y-109218126D01*
X141777586Y-109194637D01*
X141779811Y-109191906D01*
X141826402Y-109136383D01*
X141826406Y-109136374D01*
X141830377Y-109130340D01*
X141830459Y-109130394D01*
X141834106Y-109124670D01*
X141834022Y-109124618D01*
X141837812Y-109118472D01*
X141837813Y-109118468D01*
X141837818Y-109118463D01*
X141868469Y-109052729D01*
X141869982Y-109049605D01*
X141902517Y-108984825D01*
X141902519Y-108984812D01*
X141904986Y-108978039D01*
X141905079Y-108978072D01*
X141907315Y-108971640D01*
X141907222Y-108971610D01*
X141909492Y-108964759D01*
X141909493Y-108964756D01*
X141924156Y-108893735D01*
X141924911Y-108890331D01*
X141941629Y-108819799D01*
X141941629Y-108819797D01*
X141941630Y-108819793D01*
X141942468Y-108812626D01*
X141942564Y-108812637D01*
X141943256Y-108805867D01*
X141943160Y-108805859D01*
X141943789Y-108798668D01*
X141941681Y-108726219D01*
X141941629Y-108722612D01*
X141941629Y-106770614D01*
X141961314Y-106703575D01*
X141977943Y-106682938D01*
X145294565Y-103366316D01*
X145355884Y-103332834D01*
X145425576Y-103337818D01*
X145481509Y-103379690D01*
X145494624Y-103401595D01*
X145550994Y-103522482D01*
X145681471Y-103708820D01*
X145842308Y-103869657D01*
X146028647Y-104000134D01*
X146028649Y-104000135D01*
X146086994Y-104027342D01*
X146139434Y-104073514D01*
X146158586Y-104140707D01*
X146138371Y-104207589D01*
X146086996Y-104252105D01*
X146051517Y-104268650D01*
X146028393Y-104279433D01*
X145841987Y-104409954D01*
X145681083Y-104570858D01*
X145550561Y-104757265D01*
X145550560Y-104757267D01*
X145454390Y-104963502D01*
X145454387Y-104963511D01*
X145395495Y-105183302D01*
X145395493Y-105183313D01*
X145375661Y-105409998D01*
X145375661Y-105410001D01*
X145395493Y-105636686D01*
X145395495Y-105636697D01*
X145454387Y-105856488D01*
X145454390Y-105856497D01*
X145550560Y-106062732D01*
X145550561Y-106062734D01*
X145681083Y-106249141D01*
X145841987Y-106410045D01*
X145841990Y-106410047D01*
X146028395Y-106540568D01*
X146086404Y-106567618D01*
X146138843Y-106613791D01*
X146157995Y-106680984D01*
X146137779Y-106747865D01*
X146086404Y-106792382D01*
X146028396Y-106819431D01*
X146028394Y-106819432D01*
X145841987Y-106949954D01*
X145681083Y-107110858D01*
X145550561Y-107297265D01*
X145550560Y-107297267D01*
X145454390Y-107503502D01*
X145454387Y-107503511D01*
X145395495Y-107723302D01*
X145395493Y-107723313D01*
X145375661Y-107949998D01*
X145375661Y-107950001D01*
X145395493Y-108176686D01*
X145395495Y-108176697D01*
X145454387Y-108396488D01*
X145454390Y-108396497D01*
X145550560Y-108602732D01*
X145550561Y-108602734D01*
X145681083Y-108789141D01*
X145841987Y-108950045D01*
X145841990Y-108950047D01*
X146028395Y-109080568D01*
X146086404Y-109107618D01*
X146138843Y-109153791D01*
X146157995Y-109220984D01*
X146137779Y-109287865D01*
X146086404Y-109332382D01*
X146028396Y-109359431D01*
X146028394Y-109359432D01*
X145841987Y-109489954D01*
X145681083Y-109650858D01*
X145550561Y-109837265D01*
X145550560Y-109837267D01*
X145454390Y-110043502D01*
X145454387Y-110043511D01*
X145395495Y-110263302D01*
X145395493Y-110263313D01*
X145375661Y-110489998D01*
X145375661Y-110490001D01*
X145395493Y-110716686D01*
X145395495Y-110716697D01*
X145454387Y-110936488D01*
X145454390Y-110936497D01*
X145550560Y-111142732D01*
X145550561Y-111142734D01*
X145681083Y-111329141D01*
X145841987Y-111490045D01*
X145841990Y-111490047D01*
X146028395Y-111620568D01*
X146234633Y-111716739D01*
X146454437Y-111775635D01*
X146624343Y-111790499D01*
X146624344Y-111790500D01*
X146624345Y-111790500D01*
X147537914Y-111790500D01*
X147537914Y-111790499D01*
X147707821Y-111775635D01*
X147927625Y-111716739D01*
X148133863Y-111620568D01*
X148320268Y-111490047D01*
X148481176Y-111329139D01*
X148611697Y-111142734D01*
X148707868Y-110936496D01*
X148766764Y-110716692D01*
X148786597Y-110490000D01*
X148784970Y-110471408D01*
X148766764Y-110263313D01*
X148766764Y-110263308D01*
X148707868Y-110043504D01*
X148611697Y-109837266D01*
X148481176Y-109650861D01*
X148481174Y-109650858D01*
X148320270Y-109489954D01*
X148133863Y-109359432D01*
X148133857Y-109359429D01*
X148075854Y-109332382D01*
X148023414Y-109286210D01*
X148004262Y-109219017D01*
X148024477Y-109152135D01*
X148075854Y-109107618D01*
X148133863Y-109080568D01*
X148320268Y-108950047D01*
X148481176Y-108789139D01*
X148611697Y-108602734D01*
X148707868Y-108396496D01*
X148766764Y-108176692D01*
X148786597Y-107950000D01*
X148784970Y-107931408D01*
X148766764Y-107723313D01*
X148766764Y-107723308D01*
X148707868Y-107503504D01*
X148611697Y-107297266D01*
X148481176Y-107110861D01*
X148481174Y-107110858D01*
X148320270Y-106949954D01*
X148133863Y-106819432D01*
X148133857Y-106819429D01*
X148075854Y-106792382D01*
X148023414Y-106746210D01*
X148004262Y-106679017D01*
X148024477Y-106612135D01*
X148075854Y-106567618D01*
X148133863Y-106540568D01*
X148320268Y-106410047D01*
X148481176Y-106249139D01*
X148611697Y-106062734D01*
X148707868Y-105856496D01*
X148766764Y-105636692D01*
X148786597Y-105410000D01*
X148766764Y-105183308D01*
X148707868Y-104963504D01*
X148611697Y-104757266D01*
X148481176Y-104570861D01*
X148481174Y-104570858D01*
X148320270Y-104409954D01*
X148133863Y-104279432D01*
X148133861Y-104279431D01*
X148110741Y-104268650D01*
X148075261Y-104252105D01*
X148022823Y-104205934D01*
X148003671Y-104138740D01*
X148023887Y-104071859D01*
X148075263Y-104027341D01*
X148133613Y-104000132D01*
X148319949Y-103869657D01*
X148480786Y-103708820D01*
X148611263Y-103522482D01*
X148707394Y-103316326D01*
X148707398Y-103316317D01*
X148760001Y-103120000D01*
X147396815Y-103120000D01*
X147408770Y-103108045D01*
X147466294Y-102995148D01*
X147486115Y-102870000D01*
X147466294Y-102744852D01*
X147408770Y-102631955D01*
X147396815Y-102620000D01*
X148760001Y-102620000D01*
X148760001Y-102619999D01*
X148707398Y-102423682D01*
X148707394Y-102423673D01*
X148611263Y-102217517D01*
X148480786Y-102031179D01*
X148319949Y-101870342D01*
X148133611Y-101739865D01*
X147927455Y-101643734D01*
X147927446Y-101643730D01*
X147707739Y-101584860D01*
X147707728Y-101584858D01*
X147537895Y-101570000D01*
X147390244Y-101570000D01*
X147323205Y-101550315D01*
X147277450Y-101497511D01*
X147267506Y-101428353D01*
X147296531Y-101364797D01*
X147302563Y-101358319D01*
X147823063Y-100837819D01*
X147884386Y-100804334D01*
X147910744Y-100801500D01*
X153226630Y-100801500D01*
X153293669Y-100821185D01*
X153339424Y-100873989D01*
X153350630Y-100925500D01*
X153350630Y-100973876D01*
X153357037Y-101033483D01*
X153407331Y-101168328D01*
X153407335Y-101168335D01*
X153493581Y-101283544D01*
X153493584Y-101283547D01*
X153608793Y-101369793D01*
X153608800Y-101369797D01*
X153740210Y-101418810D01*
X153796144Y-101460681D01*
X153820561Y-101526145D01*
X153805709Y-101594418D01*
X153784559Y-101622673D01*
X153662632Y-101744600D01*
X153527094Y-101938169D01*
X153527093Y-101938171D01*
X153427227Y-102152335D01*
X153427223Y-102152344D01*
X153366067Y-102380586D01*
X153366065Y-102380596D01*
X153345470Y-102615999D01*
X153345470Y-102616000D01*
X153366065Y-102851403D01*
X153366067Y-102851413D01*
X153427223Y-103079655D01*
X153427225Y-103079659D01*
X153427226Y-103079663D01*
X153440461Y-103108045D01*
X153527094Y-103293830D01*
X153527096Y-103293834D01*
X153577851Y-103366319D01*
X153662634Y-103487401D01*
X153829728Y-103654495D01*
X154005371Y-103777482D01*
X154015723Y-103784730D01*
X154059348Y-103839307D01*
X154066542Y-103908805D01*
X154035019Y-103971160D01*
X154015724Y-103987880D01*
X153830051Y-104117890D01*
X153830049Y-104117891D01*
X153663020Y-104284920D01*
X153663015Y-104284926D01*
X153527529Y-104478420D01*
X153527528Y-104478422D01*
X153427699Y-104692507D01*
X153427696Y-104692513D01*
X153370493Y-104905999D01*
X153370493Y-104906000D01*
X154267443Y-104906000D01*
X154241636Y-104946156D01*
X154201129Y-105084111D01*
X154201129Y-105227889D01*
X154241636Y-105365844D01*
X154267443Y-105406000D01*
X153370493Y-105406000D01*
X153427696Y-105619486D01*
X153427699Y-105619492D01*
X153527528Y-105833578D01*
X153663023Y-106027082D01*
X153830046Y-106194105D01*
X154015724Y-106324119D01*
X154059348Y-106378696D01*
X154066541Y-106448195D01*
X154035019Y-106510549D01*
X154015724Y-106527269D01*
X153829723Y-106657508D01*
X153662634Y-106824597D01*
X153527094Y-107018169D01*
X153527093Y-107018171D01*
X153427227Y-107232335D01*
X153427223Y-107232344D01*
X153366067Y-107460586D01*
X153366065Y-107460596D01*
X153345470Y-107695999D01*
X153345470Y-107696000D01*
X153366065Y-107931403D01*
X153366067Y-107931413D01*
X153427223Y-108159655D01*
X153427225Y-108159659D01*
X153427226Y-108159663D01*
X153527094Y-108373830D01*
X153527096Y-108373834D01*
X153662630Y-108567395D01*
X153662635Y-108567402D01*
X153829726Y-108734493D01*
X153829732Y-108734498D01*
X154015287Y-108864425D01*
X154058912Y-108919002D01*
X154066106Y-108988500D01*
X154034583Y-109050855D01*
X154015287Y-109067575D01*
X153829726Y-109197505D01*
X153662634Y-109364597D01*
X153527094Y-109558169D01*
X153527093Y-109558171D01*
X153427227Y-109772335D01*
X153427223Y-109772344D01*
X153366067Y-110000586D01*
X153366065Y-110000596D01*
X153345470Y-110235999D01*
X153345470Y-110236000D01*
X153366065Y-110471403D01*
X153366067Y-110471413D01*
X153427223Y-110699655D01*
X153427225Y-110699659D01*
X153427226Y-110699663D01*
X153527094Y-110913830D01*
X153527096Y-110913834D01*
X153635410Y-111068521D01*
X153662634Y-111107401D01*
X153829728Y-111274495D01*
X153907768Y-111329139D01*
X154023294Y-111410032D01*
X154023296Y-111410033D01*
X154023299Y-111410035D01*
X154237466Y-111509903D01*
X154465721Y-111571063D01*
X154654047Y-111587539D01*
X154701128Y-111591659D01*
X154701129Y-111591659D01*
X154701130Y-111591659D01*
X154740363Y-111588226D01*
X154936537Y-111571063D01*
X155164792Y-111509903D01*
X155378959Y-111410035D01*
X155572530Y-111274495D01*
X155739624Y-111107401D01*
X155875164Y-110913830D01*
X155975032Y-110699663D01*
X156036192Y-110471408D01*
X156056788Y-110236000D01*
X156036192Y-110000592D01*
X155975032Y-109772337D01*
X155875164Y-109558171D01*
X155827399Y-109489954D01*
X155739623Y-109364597D01*
X155572531Y-109197506D01*
X155572525Y-109197501D01*
X155386971Y-109067575D01*
X155343346Y-109012998D01*
X155336152Y-108943500D01*
X155367675Y-108881145D01*
X155386971Y-108864425D01*
X155460947Y-108812626D01*
X155572530Y-108734495D01*
X155739624Y-108567401D01*
X155875164Y-108373830D01*
X155975032Y-108159663D01*
X156036192Y-107931408D01*
X156056788Y-107696000D01*
X156036192Y-107460592D01*
X155975032Y-107232337D01*
X155875164Y-107018171D01*
X155827399Y-106949954D01*
X155739623Y-106824597D01*
X155572531Y-106657506D01*
X155572530Y-106657505D01*
X155386534Y-106527269D01*
X155342910Y-106472692D01*
X155335717Y-106403193D01*
X155367239Y-106340839D01*
X155386534Y-106324119D01*
X155572211Y-106194105D01*
X155739234Y-106027082D01*
X155874729Y-105833578D01*
X155974558Y-105619492D01*
X155974561Y-105619486D01*
X156031765Y-105406000D01*
X155134815Y-105406000D01*
X155160622Y-105365844D01*
X155201129Y-105227889D01*
X155201129Y-105084111D01*
X155160622Y-104946156D01*
X155134815Y-104906000D01*
X156031765Y-104906000D01*
X156031764Y-104905999D01*
X155974561Y-104692513D01*
X155974558Y-104692507D01*
X155874729Y-104478422D01*
X155874728Y-104478420D01*
X155739242Y-104284926D01*
X155739237Y-104284920D01*
X155572207Y-104117890D01*
X155386534Y-103987879D01*
X155342909Y-103933302D01*
X155335717Y-103863804D01*
X155367239Y-103801449D01*
X155386535Y-103784730D01*
X155396885Y-103777483D01*
X155572530Y-103654495D01*
X155739624Y-103487401D01*
X155875164Y-103293830D01*
X155975032Y-103079663D01*
X156036192Y-102851408D01*
X156056788Y-102616000D01*
X156036192Y-102380592D01*
X155975032Y-102152337D01*
X155875164Y-101938171D01*
X155797791Y-101827671D01*
X155739625Y-101744600D01*
X155707477Y-101712452D01*
X155617696Y-101622671D01*
X155584213Y-101561351D01*
X155589197Y-101491659D01*
X155631068Y-101435725D01*
X155662044Y-101418810D01*
X155793460Y-101369796D01*
X155908675Y-101283546D01*
X155994925Y-101168331D01*
X156045220Y-101033483D01*
X156051629Y-100973873D01*
X156051628Y-99178128D01*
X156045220Y-99118517D01*
X155994925Y-98983669D01*
X155994924Y-98983668D01*
X155994922Y-98983664D01*
X155908676Y-98868455D01*
X155908673Y-98868452D01*
X155793464Y-98782206D01*
X155793457Y-98782202D01*
X155658611Y-98731908D01*
X155658612Y-98731908D01*
X155599012Y-98725501D01*
X155599010Y-98725500D01*
X155599002Y-98725500D01*
X155598993Y-98725500D01*
X153803258Y-98725500D01*
X153803252Y-98725501D01*
X153743645Y-98731908D01*
X153608800Y-98782202D01*
X153608793Y-98782206D01*
X153493584Y-98868452D01*
X153493581Y-98868455D01*
X153407335Y-98983664D01*
X153407331Y-98983671D01*
X153357037Y-99118517D01*
X153350630Y-99178116D01*
X153350630Y-99178123D01*
X153350629Y-99178135D01*
X153350629Y-99226500D01*
X153330944Y-99293539D01*
X153278140Y-99339294D01*
X153226629Y-99350500D01*
X147620757Y-99350500D01*
X147602788Y-99349191D01*
X147580111Y-99345869D01*
X147535159Y-99349802D01*
X147532585Y-99350028D01*
X147521779Y-99350500D01*
X147516607Y-99350500D01*
X147486911Y-99353971D01*
X147483326Y-99354337D01*
X147411160Y-99360650D01*
X147404094Y-99362110D01*
X147404075Y-99362017D01*
X147397419Y-99363493D01*
X147397441Y-99363586D01*
X147390416Y-99365250D01*
X147322348Y-99390025D01*
X147318943Y-99391208D01*
X147250174Y-99413996D01*
X147243630Y-99417048D01*
X147243589Y-99416962D01*
X147237454Y-99419932D01*
X147237497Y-99420018D01*
X147231048Y-99423256D01*
X147170535Y-99463055D01*
X147167499Y-99464989D01*
X147105828Y-99503030D01*
X147100159Y-99507513D01*
X147100100Y-99507438D01*
X147094823Y-99511737D01*
X147094884Y-99511809D01*
X147089353Y-99516449D01*
X147039617Y-99569165D01*
X147037106Y-99571750D01*
X141356986Y-105251871D01*
X141295663Y-105285356D01*
X141225971Y-105280372D01*
X141170038Y-105238500D01*
X141148385Y-105188478D01*
X141148165Y-105188537D01*
X141147765Y-105187047D01*
X141147187Y-105185710D01*
X141146763Y-105183305D01*
X141087870Y-104963511D01*
X141087867Y-104963502D01*
X140991697Y-104757267D01*
X140991696Y-104757265D01*
X140931517Y-104671320D01*
X140861176Y-104570861D01*
X140861174Y-104570858D01*
X140700272Y-104409956D01*
X140675665Y-104392726D01*
X140632041Y-104338149D01*
X140624848Y-104268650D01*
X140656370Y-104206296D01*
X140716600Y-104170882D01*
X140733533Y-104167861D01*
X140768612Y-104164091D01*
X140903460Y-104113796D01*
X141018675Y-104027546D01*
X141104925Y-103912331D01*
X141155220Y-103777483D01*
X141161629Y-103717873D01*
X141161628Y-102022128D01*
X141155220Y-101962517D01*
X141104925Y-101827669D01*
X141104924Y-101827668D01*
X141104922Y-101827664D01*
X141018676Y-101712455D01*
X141018673Y-101712452D01*
X140903464Y-101626206D01*
X140903457Y-101626202D01*
X140768611Y-101575908D01*
X140768612Y-101575908D01*
X140709012Y-101569501D01*
X140709010Y-101569500D01*
X140709002Y-101569500D01*
X140708993Y-101569500D01*
X138213258Y-101569500D01*
X138213252Y-101569501D01*
X138153645Y-101575908D01*
X138018800Y-101626202D01*
X138018793Y-101626206D01*
X137903584Y-101712452D01*
X137903581Y-101712455D01*
X137817335Y-101827664D01*
X137817331Y-101827671D01*
X137767037Y-101962517D01*
X137760630Y-102022116D01*
X137760630Y-102022123D01*
X137760629Y-102022135D01*
X137760629Y-103717870D01*
X137760630Y-103717876D01*
X137767037Y-103777483D01*
X137817331Y-103912328D01*
X137817335Y-103912335D01*
X137903581Y-104027544D01*
X137903584Y-104027547D01*
X138018793Y-104113793D01*
X138018800Y-104113797D01*
X138029777Y-104117891D01*
X138153646Y-104164091D01*
X138188725Y-104167862D01*
X138253273Y-104194599D01*
X138293122Y-104251991D01*
X138295617Y-104321816D01*
X138259965Y-104381905D01*
X138246593Y-104392725D01*
X138221987Y-104409954D01*
X138061083Y-104570858D01*
X137930561Y-104757265D01*
X137930560Y-104757267D01*
X137834390Y-104963502D01*
X137834387Y-104963511D01*
X137775495Y-105183302D01*
X137775493Y-105183313D01*
X137755661Y-105409998D01*
X137755661Y-105410001D01*
X137775493Y-105636686D01*
X137775495Y-105636697D01*
X137834387Y-105856488D01*
X137834390Y-105856497D01*
X137930560Y-106062732D01*
X137930561Y-106062734D01*
X138061083Y-106249141D01*
X138221987Y-106410045D01*
X138221990Y-106410047D01*
X138408395Y-106540568D01*
X138466404Y-106567618D01*
X138518843Y-106613791D01*
X138537995Y-106680984D01*
X138517779Y-106747865D01*
X138466404Y-106792382D01*
X138408396Y-106819431D01*
X138408394Y-106819432D01*
X138221987Y-106949954D01*
X138061083Y-107110858D01*
X137930561Y-107297265D01*
X137930560Y-107297267D01*
X137834390Y-107503502D01*
X137834387Y-107503511D01*
X137775495Y-107723302D01*
X137775493Y-107723313D01*
X137755661Y-107949998D01*
X137755661Y-107950001D01*
X137775493Y-108176686D01*
X137775495Y-108176697D01*
X137834387Y-108396488D01*
X137834390Y-108396497D01*
X137930560Y-108602732D01*
X137930561Y-108602734D01*
X138061083Y-108789141D01*
X138221987Y-108950045D01*
X138221990Y-108950047D01*
X138408395Y-109080568D01*
X138466404Y-109107618D01*
X138518843Y-109153791D01*
X138537995Y-109220984D01*
X138517779Y-109287865D01*
X138466404Y-109332382D01*
X138408396Y-109359431D01*
X138408394Y-109359432D01*
X138221987Y-109489954D01*
X138061083Y-109650858D01*
X137930561Y-109837265D01*
X137930560Y-109837267D01*
X137834390Y-110043502D01*
X137834387Y-110043511D01*
X137775495Y-110263302D01*
X137775493Y-110263313D01*
X137755661Y-110489998D01*
X137755661Y-110490001D01*
X133665629Y-110490001D01*
X133665629Y-95450103D01*
X134634944Y-95450103D01*
X134644763Y-95681269D01*
X134644763Y-95681270D01*
X134693511Y-95907460D01*
X134779780Y-96122148D01*
X134779782Y-96122152D01*
X134901095Y-96319177D01*
X134901099Y-96319181D01*
X135053957Y-96492863D01*
X135053964Y-96492870D01*
X135233975Y-96638218D01*
X135233981Y-96638223D01*
X135435975Y-96751064D01*
X135435978Y-96751065D01*
X135654140Y-96828146D01*
X135781394Y-96849966D01*
X135882181Y-96867249D01*
X135882190Y-96867250D01*
X136138114Y-96867250D01*
X136138115Y-96867250D01*
X136138116Y-96867249D01*
X136138133Y-96867249D01*
X136310919Y-96852543D01*
X136310922Y-96852542D01*
X136310924Y-96852542D01*
X136534836Y-96794239D01*
X136534837Y-96794238D01*
X136534839Y-96794238D01*
X136745665Y-96698939D01*
X136745668Y-96698936D01*
X136745675Y-96698934D01*
X136937374Y-96569368D01*
X137104419Y-96409269D01*
X137242004Y-96223241D01*
X137346172Y-96016637D01*
X137413925Y-95795401D01*
X137443314Y-95565897D01*
X137433494Y-95334727D01*
X137384747Y-95108542D01*
X137298476Y-94893848D01*
X137177163Y-94696823D01*
X137052991Y-94555736D01*
X137024300Y-94523136D01*
X137024298Y-94523134D01*
X137024297Y-94523133D01*
X136948694Y-94462088D01*
X136908901Y-94404658D01*
X136906474Y-94334830D01*
X136940790Y-94276093D01*
X137104419Y-94119269D01*
X137242004Y-93933241D01*
X137346172Y-93726637D01*
X137385261Y-93599000D01*
X138350335Y-93599000D01*
X138369482Y-93842297D01*
X138369482Y-93842300D01*
X138369483Y-93842302D01*
X138414349Y-94029181D01*
X138426459Y-94079619D01*
X138519851Y-94305089D01*
X138647366Y-94513173D01*
X138647367Y-94513176D01*
X138655874Y-94523136D01*
X138805870Y-94698759D01*
X138949526Y-94821453D01*
X138991452Y-94857261D01*
X138991455Y-94857262D01*
X139199539Y-94984777D01*
X139425010Y-95078169D01*
X139425007Y-95078169D01*
X139425013Y-95078170D01*
X139425017Y-95078172D01*
X139662327Y-95135146D01*
X139905629Y-95154294D01*
X140148931Y-95135146D01*
X140386241Y-95078172D01*
X140611718Y-94984777D01*
X140819808Y-94857259D01*
X141005388Y-94698759D01*
X141127543Y-94555733D01*
X141150001Y-94541072D01*
X141882855Y-93808219D01*
X141921530Y-93901588D01*
X142017704Y-94026925D01*
X142143041Y-94123099D01*
X142236408Y-94161772D01*
X141537686Y-94860494D01*
X141739767Y-94984331D01*
X141965171Y-95077696D01*
X142202409Y-95134651D01*
X142202408Y-95134651D01*
X142445629Y-95153792D01*
X142688848Y-95134651D01*
X142926086Y-95077696D01*
X143151490Y-94984331D01*
X143353570Y-94860495D01*
X143353570Y-94860494D01*
X142654849Y-94161772D01*
X142748217Y-94123099D01*
X142873554Y-94026925D01*
X142969728Y-93901589D01*
X143008402Y-93808220D01*
X143707123Y-94506941D01*
X143707124Y-94506941D01*
X143830960Y-94304861D01*
X143924325Y-94079457D01*
X143981280Y-93842219D01*
X144000421Y-93599000D01*
X143981280Y-93355780D01*
X143924325Y-93118542D01*
X143830960Y-92893138D01*
X143707123Y-92691057D01*
X143008401Y-93389779D01*
X142969728Y-93296412D01*
X142873554Y-93171075D01*
X142748217Y-93074901D01*
X142654848Y-93036226D01*
X143353570Y-92337504D01*
X143151490Y-92213668D01*
X142926086Y-92120303D01*
X142688848Y-92063348D01*
X142688849Y-92063348D01*
X142445629Y-92044207D01*
X142202409Y-92063348D01*
X141965171Y-92120303D01*
X141739767Y-92213668D01*
X141537686Y-92337504D01*
X142236409Y-93036226D01*
X142143041Y-93074901D01*
X142017704Y-93171075D01*
X141921530Y-93296411D01*
X141882855Y-93389780D01*
X141162048Y-92668973D01*
X141127540Y-92642263D01*
X141094733Y-92603851D01*
X141005388Y-92499241D01*
X140882692Y-92394449D01*
X140819805Y-92340738D01*
X140819802Y-92340737D01*
X140611718Y-92213222D01*
X140386247Y-92119830D01*
X140386250Y-92119830D01*
X140252741Y-92087777D01*
X140148931Y-92062854D01*
X140148929Y-92062853D01*
X140148926Y-92062853D01*
X139905629Y-92043706D01*
X139662331Y-92062853D01*
X139425009Y-92119830D01*
X139199539Y-92213222D01*
X138991455Y-92340737D01*
X138991452Y-92340738D01*
X138805870Y-92499241D01*
X138647367Y-92684823D01*
X138647366Y-92684826D01*
X138519851Y-92892910D01*
X138426459Y-93118380D01*
X138369482Y-93355702D01*
X138350335Y-93599000D01*
X137385261Y-93599000D01*
X137413925Y-93505401D01*
X137443314Y-93275897D01*
X137442020Y-93245446D01*
X137433494Y-93044730D01*
X137433494Y-93044729D01*
X137408897Y-92930600D01*
X137384747Y-92818542D01*
X137298476Y-92603848D01*
X137177163Y-92406823D01*
X137173691Y-92402878D01*
X137144174Y-92339549D01*
X137153582Y-92270316D01*
X137192461Y-92221685D01*
X137296320Y-92143936D01*
X137382479Y-92028843D01*
X137382483Y-92028836D01*
X137432725Y-91894129D01*
X137432727Y-91894122D01*
X137439128Y-91834594D01*
X137439129Y-91834577D01*
X137439129Y-91178000D01*
X136533981Y-91178000D01*
X136582688Y-91040953D01*
X136593006Y-90890114D01*
X136562245Y-90742085D01*
X136529039Y-90678000D01*
X137439129Y-90678000D01*
X137439129Y-90021422D01*
X137439128Y-90021405D01*
X137432727Y-89961877D01*
X137432725Y-89961870D01*
X137382483Y-89827163D01*
X137382479Y-89827156D01*
X137296319Y-89712062D01*
X137296316Y-89712059D01*
X137181222Y-89625899D01*
X137181215Y-89625895D01*
X137046508Y-89575653D01*
X137046501Y-89575651D01*
X136986973Y-89569250D01*
X136289129Y-89569250D01*
X136289129Y-90436316D01*
X136260310Y-90418791D01*
X136114725Y-90378000D01*
X136001507Y-90378000D01*
X135889346Y-90393416D01*
X135789129Y-90436946D01*
X135789129Y-89569250D01*
X135091284Y-89569250D01*
X135031756Y-89575651D01*
X135031749Y-89575653D01*
X134897042Y-89625895D01*
X134897035Y-89625899D01*
X134781941Y-89712059D01*
X134781938Y-89712062D01*
X134695778Y-89827156D01*
X134695774Y-89827163D01*
X134645532Y-89961870D01*
X134645530Y-89961877D01*
X134639129Y-90021405D01*
X134639129Y-90678000D01*
X135544277Y-90678000D01*
X135495570Y-90815047D01*
X135485252Y-90965886D01*
X135516013Y-91113915D01*
X135549219Y-91178000D01*
X134639129Y-91178000D01*
X134639129Y-91834594D01*
X134645530Y-91894122D01*
X134645532Y-91894129D01*
X134695774Y-92028836D01*
X134695778Y-92028843D01*
X134781938Y-92143936D01*
X134889015Y-92224095D01*
X134930886Y-92280029D01*
X134935870Y-92349721D01*
X134914401Y-92397095D01*
X134836255Y-92502757D01*
X134836253Y-92502760D01*
X134732086Y-92709361D01*
X134664332Y-92930600D01*
X134634944Y-93160103D01*
X134644763Y-93391269D01*
X134644763Y-93391270D01*
X134693511Y-93617460D01*
X134749033Y-93755631D01*
X134779782Y-93832152D01*
X134901095Y-94029177D01*
X134977528Y-94116022D01*
X135053957Y-94202863D01*
X135053959Y-94202865D01*
X135129563Y-94263911D01*
X135169355Y-94321342D01*
X135171781Y-94391169D01*
X135137463Y-94449909D01*
X134973842Y-94606726D01*
X134973838Y-94606730D01*
X134836256Y-94792756D01*
X134836253Y-94792760D01*
X134732086Y-94999361D01*
X134664332Y-95220600D01*
X134634944Y-95450103D01*
X133665629Y-95450103D01*
X133665629Y-88519000D01*
X138350335Y-88519000D01*
X138369482Y-88762297D01*
X138369482Y-88762300D01*
X138369483Y-88762302D01*
X138395952Y-88872553D01*
X138426459Y-88999619D01*
X138519851Y-89225089D01*
X138647366Y-89433173D01*
X138647367Y-89433176D01*
X138647370Y-89433179D01*
X138805870Y-89618759D01*
X138915114Y-89712062D01*
X138991452Y-89777261D01*
X138991455Y-89777262D01*
X139199539Y-89904777D01*
X139425010Y-89998169D01*
X139425007Y-89998169D01*
X139425013Y-89998170D01*
X139425017Y-89998172D01*
X139662327Y-90055146D01*
X139905629Y-90074294D01*
X140148931Y-90055146D01*
X140386241Y-89998172D01*
X140611718Y-89904777D01*
X140819808Y-89777259D01*
X141005388Y-89618759D01*
X141127543Y-89475733D01*
X141150001Y-89461072D01*
X141882855Y-88728219D01*
X141921530Y-88821588D01*
X142017704Y-88946925D01*
X142143041Y-89043099D01*
X142236408Y-89081772D01*
X141537686Y-89780494D01*
X141739767Y-89904331D01*
X141965171Y-89997696D01*
X142202409Y-90054651D01*
X142202408Y-90054651D01*
X142445629Y-90073792D01*
X142688848Y-90054651D01*
X142926086Y-89997696D01*
X143151490Y-89904331D01*
X143353570Y-89780495D01*
X143353570Y-89780494D01*
X142654849Y-89081772D01*
X142748217Y-89043099D01*
X142873554Y-88946925D01*
X142969728Y-88821589D01*
X143008402Y-88728220D01*
X143707123Y-89426941D01*
X143707124Y-89426941D01*
X143830960Y-89224861D01*
X143924325Y-88999457D01*
X143981280Y-88762219D01*
X144000421Y-88519000D01*
X143981280Y-88275780D01*
X143924325Y-88038542D01*
X143830960Y-87813138D01*
X143707123Y-87611057D01*
X143008401Y-88309779D01*
X142969728Y-88216412D01*
X142873554Y-88091075D01*
X142748217Y-87994901D01*
X142654848Y-87956226D01*
X143353570Y-87257504D01*
X143151490Y-87133668D01*
X142926086Y-87040303D01*
X142688848Y-86983348D01*
X142688849Y-86983348D01*
X142445629Y-86964207D01*
X142202409Y-86983348D01*
X141965171Y-87040303D01*
X141739767Y-87133668D01*
X141537686Y-87257504D01*
X142236409Y-87956226D01*
X142143041Y-87994901D01*
X142017704Y-88091075D01*
X141921530Y-88216411D01*
X141882855Y-88309780D01*
X141162048Y-87588973D01*
X141127540Y-87562263D01*
X141005388Y-87419241D01*
X140882692Y-87314449D01*
X140819805Y-87260738D01*
X140819802Y-87260737D01*
X140611718Y-87133222D01*
X140386247Y-87039830D01*
X140386250Y-87039830D01*
X140280621Y-87014470D01*
X140148931Y-86982854D01*
X140148929Y-86982853D01*
X140148926Y-86982853D01*
X139905629Y-86963706D01*
X139662331Y-86982853D01*
X139425009Y-87039830D01*
X139199539Y-87133222D01*
X138991455Y-87260737D01*
X138991452Y-87260738D01*
X138805870Y-87419241D01*
X138647367Y-87604823D01*
X138647366Y-87604826D01*
X138519851Y-87812910D01*
X138426459Y-88038380D01*
X138369482Y-88275702D01*
X138350335Y-88519000D01*
X133665629Y-88519000D01*
X133665629Y-82974500D01*
X133685314Y-82907461D01*
X133738118Y-82861706D01*
X133789629Y-82850500D01*
X157070629Y-82850500D01*
X157137668Y-82870185D01*
G37*
G04 #@! TD.AperFunction*
M02*
