G04 #@! TF.GenerationSoftware,KiCad,Pcbnew,7.0.10*
G04 #@! TF.CreationDate,2024-02-09T12:47:37+11:00*
G04 #@! TF.ProjectId,PIC16F15214 Debugger,50494331-3646-4313-9532-313420446562,1.0-A*
G04 #@! TF.SameCoordinates,Original*
G04 #@! TF.FileFunction,Legend,Top*
G04 #@! TF.FilePolarity,Positive*
%FSLAX46Y46*%
G04 Gerber Fmt 4.6, Leading zero omitted, Abs format (unit mm)*
G04 Created by KiCad (PCBNEW 7.0.10) date 2024-02-09 12:47:37*
%MOMM*%
%LPD*%
G01*
G04 APERTURE LIST*
%ADD10C,0.300000*%
%ADD11C,0.153000*%
%ADD12C,0.150000*%
%ADD13C,0.100000*%
%ADD14C,0.120000*%
%ADD15R,1.700000X1.700000*%
%ADD16O,1.700000X1.700000*%
%ADD17R,2.400000X1.600000*%
%ADD18O,2.400000X1.600000*%
%ADD19R,1.800000X1.717500*%
%ADD20O,1.800000X1.717500*%
%ADD21C,2.100000*%
G04 APERTURE END LIST*
D10*
X141793639Y-83811400D02*
X142936497Y-83811400D01*
X139253639Y-83811400D02*
X140396497Y-83811400D01*
X139825068Y-84382828D02*
X139825068Y-83239971D01*
X152485354Y-100638828D02*
X151628211Y-100638828D01*
X152056782Y-100638828D02*
X152056782Y-99138828D01*
X152056782Y-99138828D02*
X151913925Y-99353114D01*
X151913925Y-99353114D02*
X151771068Y-99495971D01*
X151771068Y-99495971D02*
X151628211Y-99567400D01*
D11*
X144426792Y-95387533D02*
X145141077Y-95387533D01*
X145141077Y-95387533D02*
X145283934Y-95435152D01*
X145283934Y-95435152D02*
X145379173Y-95530390D01*
X145379173Y-95530390D02*
X145426792Y-95673247D01*
X145426792Y-95673247D02*
X145426792Y-95768485D01*
X145426792Y-94435152D02*
X145426792Y-94911342D01*
X145426792Y-94911342D02*
X144426792Y-94911342D01*
X145331553Y-93530390D02*
X145379173Y-93578009D01*
X145379173Y-93578009D02*
X145426792Y-93720866D01*
X145426792Y-93720866D02*
X145426792Y-93816104D01*
X145426792Y-93816104D02*
X145379173Y-93958961D01*
X145379173Y-93958961D02*
X145283934Y-94054199D01*
X145283934Y-94054199D02*
X145188696Y-94101818D01*
X145188696Y-94101818D02*
X144998220Y-94149437D01*
X144998220Y-94149437D02*
X144855363Y-94149437D01*
X144855363Y-94149437D02*
X144664887Y-94101818D01*
X144664887Y-94101818D02*
X144569649Y-94054199D01*
X144569649Y-94054199D02*
X144474411Y-93958961D01*
X144474411Y-93958961D02*
X144426792Y-93816104D01*
X144426792Y-93816104D02*
X144426792Y-93720866D01*
X144426792Y-93720866D02*
X144474411Y-93578009D01*
X144474411Y-93578009D02*
X144522030Y-93530390D01*
X144426792Y-92816104D02*
X145141077Y-92816104D01*
X145141077Y-92816104D02*
X145283934Y-92863723D01*
X145283934Y-92863723D02*
X145379173Y-92958961D01*
X145379173Y-92958961D02*
X145426792Y-93101818D01*
X145426792Y-93101818D02*
X145426792Y-93197056D01*
X145426792Y-91863723D02*
X145426792Y-92339913D01*
X145426792Y-92339913D02*
X144426792Y-92339913D01*
X145331553Y-90958961D02*
X145379173Y-91006580D01*
X145379173Y-91006580D02*
X145426792Y-91149437D01*
X145426792Y-91149437D02*
X145426792Y-91244675D01*
X145426792Y-91244675D02*
X145379173Y-91387532D01*
X145379173Y-91387532D02*
X145283934Y-91482770D01*
X145283934Y-91482770D02*
X145188696Y-91530389D01*
X145188696Y-91530389D02*
X144998220Y-91578008D01*
X144998220Y-91578008D02*
X144855363Y-91578008D01*
X144855363Y-91578008D02*
X144664887Y-91530389D01*
X144664887Y-91530389D02*
X144569649Y-91482770D01*
X144569649Y-91482770D02*
X144474411Y-91387532D01*
X144474411Y-91387532D02*
X144426792Y-91244675D01*
X144426792Y-91244675D02*
X144426792Y-91149437D01*
X144426792Y-91149437D02*
X144474411Y-91006580D01*
X144474411Y-91006580D02*
X144522030Y-90958961D01*
X144426792Y-90244675D02*
X145141077Y-90244675D01*
X145141077Y-90244675D02*
X145283934Y-90292294D01*
X145283934Y-90292294D02*
X145379173Y-90387532D01*
X145379173Y-90387532D02*
X145426792Y-90530389D01*
X145426792Y-90530389D02*
X145426792Y-90625627D01*
X145426792Y-89292294D02*
X145426792Y-89768484D01*
X145426792Y-89768484D02*
X144426792Y-89768484D01*
X145331553Y-88387532D02*
X145379173Y-88435151D01*
X145379173Y-88435151D02*
X145426792Y-88578008D01*
X145426792Y-88578008D02*
X145426792Y-88673246D01*
X145426792Y-88673246D02*
X145379173Y-88816103D01*
X145379173Y-88816103D02*
X145283934Y-88911341D01*
X145283934Y-88911341D02*
X145188696Y-88958960D01*
X145188696Y-88958960D02*
X144998220Y-89006579D01*
X144998220Y-89006579D02*
X144855363Y-89006579D01*
X144855363Y-89006579D02*
X144664887Y-88958960D01*
X144664887Y-88958960D02*
X144569649Y-88911341D01*
X144569649Y-88911341D02*
X144474411Y-88816103D01*
X144474411Y-88816103D02*
X144426792Y-88673246D01*
X144426792Y-88673246D02*
X144426792Y-88578008D01*
X144426792Y-88578008D02*
X144474411Y-88435151D01*
X144474411Y-88435151D02*
X144522030Y-88387532D01*
X144426792Y-87673246D02*
X145141077Y-87673246D01*
X145141077Y-87673246D02*
X145283934Y-87720865D01*
X145283934Y-87720865D02*
X145379173Y-87816103D01*
X145379173Y-87816103D02*
X145426792Y-87958960D01*
X145426792Y-87958960D02*
X145426792Y-88054198D01*
X145426792Y-86720865D02*
X145426792Y-87197055D01*
X145426792Y-87197055D02*
X144426792Y-87197055D01*
X145331553Y-85816103D02*
X145379173Y-85863722D01*
X145379173Y-85863722D02*
X145426792Y-86006579D01*
X145426792Y-86006579D02*
X145426792Y-86101817D01*
X145426792Y-86101817D02*
X145379173Y-86244674D01*
X145379173Y-86244674D02*
X145283934Y-86339912D01*
X145283934Y-86339912D02*
X145188696Y-86387531D01*
X145188696Y-86387531D02*
X144998220Y-86435150D01*
X144998220Y-86435150D02*
X144855363Y-86435150D01*
X144855363Y-86435150D02*
X144664887Y-86387531D01*
X144664887Y-86387531D02*
X144569649Y-86339912D01*
X144569649Y-86339912D02*
X144474411Y-86244674D01*
X144474411Y-86244674D02*
X144426792Y-86101817D01*
X144426792Y-86101817D02*
X144426792Y-86006579D01*
X144426792Y-86006579D02*
X144474411Y-85863722D01*
X144474411Y-85863722D02*
X144522030Y-85816103D01*
D12*
X151573795Y-110706819D02*
X151573795Y-111421104D01*
X151573795Y-111421104D02*
X151526176Y-111563961D01*
X151526176Y-111563961D02*
X151430938Y-111659200D01*
X151430938Y-111659200D02*
X151288081Y-111706819D01*
X151288081Y-111706819D02*
X151192843Y-111706819D01*
X152002367Y-110802057D02*
X152049986Y-110754438D01*
X152049986Y-110754438D02*
X152145224Y-110706819D01*
X152145224Y-110706819D02*
X152383319Y-110706819D01*
X152383319Y-110706819D02*
X152478557Y-110754438D01*
X152478557Y-110754438D02*
X152526176Y-110802057D01*
X152526176Y-110802057D02*
X152573795Y-110897295D01*
X152573795Y-110897295D02*
X152573795Y-110992533D01*
X152573795Y-110992533D02*
X152526176Y-111135390D01*
X152526176Y-111135390D02*
X151954748Y-111706819D01*
X151954748Y-111706819D02*
X152573795Y-111706819D01*
X142509224Y-99994819D02*
X142509224Y-100804342D01*
X142509224Y-100804342D02*
X142556843Y-100899580D01*
X142556843Y-100899580D02*
X142604462Y-100947200D01*
X142604462Y-100947200D02*
X142699700Y-100994819D01*
X142699700Y-100994819D02*
X142890176Y-100994819D01*
X142890176Y-100994819D02*
X142985414Y-100947200D01*
X142985414Y-100947200D02*
X143033033Y-100899580D01*
X143033033Y-100899580D02*
X143080652Y-100804342D01*
X143080652Y-100804342D02*
X143080652Y-99994819D01*
X144080652Y-100994819D02*
X143509224Y-100994819D01*
X143794938Y-100994819D02*
X143794938Y-99994819D01*
X143794938Y-99994819D02*
X143699700Y-100137676D01*
X143699700Y-100137676D02*
X143604462Y-100232914D01*
X143604462Y-100232914D02*
X143509224Y-100280533D01*
X135555890Y-89450057D02*
X135460652Y-89402438D01*
X135460652Y-89402438D02*
X135365414Y-89307200D01*
X135365414Y-89307200D02*
X135222557Y-89164342D01*
X135222557Y-89164342D02*
X135127319Y-89116723D01*
X135127319Y-89116723D02*
X135032081Y-89116723D01*
X135079700Y-89354819D02*
X134984462Y-89307200D01*
X134984462Y-89307200D02*
X134889224Y-89211961D01*
X134889224Y-89211961D02*
X134841605Y-89021485D01*
X134841605Y-89021485D02*
X134841605Y-88688152D01*
X134841605Y-88688152D02*
X134889224Y-88497676D01*
X134889224Y-88497676D02*
X134984462Y-88402438D01*
X134984462Y-88402438D02*
X135079700Y-88354819D01*
X135079700Y-88354819D02*
X135270176Y-88354819D01*
X135270176Y-88354819D02*
X135365414Y-88402438D01*
X135365414Y-88402438D02*
X135460652Y-88497676D01*
X135460652Y-88497676D02*
X135508271Y-88688152D01*
X135508271Y-88688152D02*
X135508271Y-89021485D01*
X135508271Y-89021485D02*
X135460652Y-89211961D01*
X135460652Y-89211961D02*
X135365414Y-89307200D01*
X135365414Y-89307200D02*
X135270176Y-89354819D01*
X135270176Y-89354819D02*
X135079700Y-89354819D01*
X136460652Y-89354819D02*
X135889224Y-89354819D01*
X136174938Y-89354819D02*
X136174938Y-88354819D01*
X136174938Y-88354819D02*
X136079700Y-88497676D01*
X136079700Y-88497676D02*
X135984462Y-88592914D01*
X135984462Y-88592914D02*
X135889224Y-88640533D01*
D13*
X147509795Y-95723419D02*
X147509795Y-96437704D01*
X147509795Y-96437704D02*
X147462176Y-96580561D01*
X147462176Y-96580561D02*
X147366938Y-96675800D01*
X147366938Y-96675800D02*
X147224081Y-96723419D01*
X147224081Y-96723419D02*
X147128843Y-96723419D01*
X148509795Y-96723419D02*
X147938367Y-96723419D01*
X148224081Y-96723419D02*
X148224081Y-95723419D01*
X148224081Y-95723419D02*
X148128843Y-95866276D01*
X148128843Y-95866276D02*
X148033605Y-95961514D01*
X148033605Y-95961514D02*
X147938367Y-96009133D01*
D14*
X153371129Y-98746000D02*
X154701129Y-98746000D01*
X153371129Y-100076000D02*
X153371129Y-98746000D01*
X153371129Y-101346000D02*
X153371129Y-111566000D01*
X153371129Y-101346000D02*
X156031129Y-101346000D01*
X153371129Y-111566000D02*
X156031129Y-111566000D01*
X156031129Y-101346000D02*
X156031129Y-111566000D01*
X138021129Y-101480000D02*
X138021129Y-111880000D01*
X138021129Y-111880000D02*
X148521129Y-111880000D01*
X141021129Y-101540000D02*
X141021129Y-111820000D01*
X141021129Y-111820000D02*
X145521129Y-111820000D01*
X142271129Y-101540000D02*
X141021129Y-101540000D01*
X145521129Y-101540000D02*
X144271129Y-101540000D01*
X145521129Y-111820000D02*
X145521129Y-101540000D01*
X148521129Y-101480000D02*
X138021129Y-101480000D01*
X148521129Y-111880000D02*
X148521129Y-101480000D01*
X142271129Y-101540000D02*
G75*
G03*
X144271129Y-101540000I1000000J0D01*
G01*
X137429129Y-89808000D02*
X134889129Y-89808000D01*
X137429129Y-89808000D02*
X137429129Y-96628000D01*
X136690129Y-89808000D02*
X136690129Y-89919000D01*
X134889129Y-89808000D02*
X134889129Y-96628000D01*
X136690129Y-91937000D02*
X136690129Y-92210000D01*
X136690129Y-94227000D02*
X136690129Y-94500000D01*
X136690129Y-96517000D02*
X136690129Y-96628000D01*
X137429129Y-96628000D02*
X134889129Y-96628000D01*
G36*
X134225664Y-111816268D02*
G01*
X134240061Y-111817590D01*
X134250615Y-111819656D01*
X134268800Y-111825954D01*
X134284697Y-111834649D01*
X134298168Y-111845581D01*
X134309078Y-111858590D01*
X134317290Y-111873516D01*
X134322669Y-111890200D01*
X134324988Y-111906803D01*
X134324571Y-111925578D01*
X134321048Y-111943065D01*
X134314556Y-111959063D01*
X134305230Y-111973369D01*
X134293205Y-111985782D01*
X134278619Y-111996099D01*
X134261605Y-112004117D01*
X134258972Y-112005068D01*
X134252401Y-112007227D01*
X134246653Y-112008714D01*
X134240738Y-112009675D01*
X134233667Y-112010259D01*
X134224448Y-112010614D01*
X134221298Y-112010694D01*
X134206330Y-112010708D01*
X134194695Y-112009967D01*
X134187971Y-112008875D01*
X134169503Y-112003097D01*
X134153102Y-111994837D01*
X134138953Y-111984266D01*
X134127242Y-111971558D01*
X134118151Y-111956887D01*
X134111867Y-111940425D01*
X134110867Y-111936528D01*
X134109202Y-111925477D01*
X134108781Y-111912829D01*
X134109542Y-111899886D01*
X134111424Y-111887947D01*
X134113492Y-111880557D01*
X134120834Y-111864915D01*
X134130981Y-111851002D01*
X134143665Y-111839052D01*
X134158616Y-111829300D01*
X134175566Y-111821980D01*
X134183185Y-111819696D01*
X134195910Y-111817322D01*
X134210508Y-111816179D01*
X134225664Y-111816268D01*
G37*
G36*
X136095811Y-107740051D02*
G01*
X136110687Y-107744039D01*
X136125147Y-107751090D01*
X136139032Y-107761117D01*
X136152179Y-107774033D01*
X136164425Y-107789752D01*
X136175609Y-107808187D01*
X136180009Y-107816839D01*
X136189377Y-107839176D01*
X136197219Y-107863956D01*
X136203339Y-107890475D01*
X136207140Y-107914646D01*
X136208023Y-107924660D01*
X136208581Y-107937156D01*
X136208823Y-107951212D01*
X136208755Y-107965908D01*
X136208384Y-107980323D01*
X136207717Y-107993537D01*
X136206760Y-108004628D01*
X136206444Y-108007213D01*
X136201953Y-108033509D01*
X136195748Y-108058296D01*
X136187960Y-108081356D01*
X136178716Y-108102474D01*
X136168147Y-108121433D01*
X136156381Y-108138015D01*
X136143548Y-108152005D01*
X136129776Y-108163185D01*
X136115195Y-108171339D01*
X136106758Y-108174492D01*
X136096398Y-108176749D01*
X136085007Y-108177698D01*
X136073954Y-108177307D01*
X136064613Y-108175546D01*
X136064425Y-108175487D01*
X136048817Y-108168842D01*
X136034033Y-108159041D01*
X136020205Y-108146279D01*
X136007461Y-108130745D01*
X135995934Y-108112634D01*
X135985752Y-108092136D01*
X135977046Y-108069444D01*
X135969947Y-108044750D01*
X135967107Y-108032038D01*
X135962270Y-108001587D01*
X135960001Y-107970867D01*
X135960240Y-107940269D01*
X135962925Y-107910183D01*
X135967996Y-107880999D01*
X135975392Y-107853107D01*
X135985053Y-107826898D01*
X135996917Y-107802762D01*
X136004841Y-107789780D01*
X136011945Y-107780337D01*
X136020696Y-107770698D01*
X136030289Y-107761616D01*
X136039921Y-107753842D01*
X136048787Y-107748125D01*
X136050320Y-107747333D01*
X136065466Y-107741611D01*
X136080684Y-107739213D01*
X136095811Y-107740051D01*
G37*
G36*
X135132738Y-107723144D02*
G01*
X135147526Y-107727255D01*
X135162030Y-107734754D01*
X135176298Y-107745652D01*
X135183063Y-107752080D01*
X135196405Y-107767747D01*
X135208417Y-107786296D01*
X135218973Y-107807411D01*
X135227947Y-107830775D01*
X135235214Y-107856072D01*
X135240648Y-107882985D01*
X135243471Y-107904290D01*
X135244311Y-107916001D01*
X135244709Y-107929886D01*
X135244691Y-107945040D01*
X135244282Y-107960559D01*
X135243509Y-107975538D01*
X135242397Y-107989073D01*
X135240971Y-108000258D01*
X135240701Y-108001853D01*
X135234796Y-108029296D01*
X135227166Y-108055062D01*
X135217981Y-108078660D01*
X135207409Y-108099601D01*
X135206201Y-108101667D01*
X135198044Y-108113688D01*
X135188176Y-108125473D01*
X135177314Y-108136319D01*
X135166173Y-108145520D01*
X135155470Y-108152374D01*
X135153744Y-108153256D01*
X135147195Y-108156344D01*
X135142004Y-108158321D01*
X135136961Y-108159467D01*
X135130859Y-108160063D01*
X135122981Y-108160372D01*
X135113385Y-108160445D01*
X135106156Y-108159954D01*
X135100275Y-108158798D01*
X135097167Y-108157814D01*
X135081622Y-108150494D01*
X135066986Y-108140058D01*
X135053374Y-108126719D01*
X135040902Y-108110687D01*
X135029686Y-108092171D01*
X135019843Y-108071384D01*
X135011488Y-108048536D01*
X135004737Y-108023836D01*
X134999708Y-107997496D01*
X134997079Y-107976217D01*
X134996168Y-107962122D01*
X134995844Y-107946062D01*
X134996077Y-107929112D01*
X134996835Y-107912349D01*
X134998087Y-107896848D01*
X134999761Y-107883928D01*
X135005077Y-107857940D01*
X135012240Y-107832850D01*
X135021006Y-107809377D01*
X135031129Y-107788239D01*
X135034172Y-107782839D01*
X135042086Y-107770963D01*
X135051602Y-107759339D01*
X135062046Y-107748638D01*
X135072745Y-107739529D01*
X135083026Y-107732684D01*
X135086200Y-107731042D01*
X135102122Y-107725048D01*
X135117619Y-107722412D01*
X135132738Y-107723144D01*
G37*
G36*
X135587688Y-109321631D02*
G01*
X136486652Y-109322099D01*
X136497761Y-109327544D01*
X136511120Y-109335785D01*
X136521742Y-109346073D01*
X136529635Y-109358416D01*
X136533604Y-109368492D01*
X136536447Y-109381078D01*
X136536667Y-109392826D01*
X136534267Y-109405085D01*
X136533694Y-109407010D01*
X136527703Y-109421053D01*
X136519066Y-109432937D01*
X136507767Y-109442678D01*
X136496561Y-109449053D01*
X136486652Y-109453696D01*
X135586834Y-109454031D01*
X135520588Y-109454055D01*
X135457674Y-109454078D01*
X135398003Y-109454099D01*
X135341490Y-109454117D01*
X135288047Y-109454133D01*
X135237587Y-109454145D01*
X135190024Y-109454155D01*
X135145270Y-109454161D01*
X135103238Y-109454163D01*
X135063841Y-109454162D01*
X135026993Y-109454155D01*
X134992607Y-109454145D01*
X134960595Y-109454129D01*
X134930870Y-109454109D01*
X134903346Y-109454082D01*
X134877935Y-109454051D01*
X134854551Y-109454013D01*
X134833107Y-109453968D01*
X134813515Y-109453918D01*
X134795689Y-109453860D01*
X134779542Y-109453795D01*
X134764986Y-109453723D01*
X134751935Y-109453643D01*
X134740302Y-109453555D01*
X134730000Y-109453459D01*
X134720941Y-109453354D01*
X134713039Y-109453240D01*
X134706208Y-109453117D01*
X134700359Y-109452985D01*
X134695406Y-109452843D01*
X134691262Y-109452692D01*
X134687840Y-109452529D01*
X134685053Y-109452357D01*
X134682815Y-109452173D01*
X134681037Y-109451979D01*
X134679633Y-109451773D01*
X134678517Y-109451555D01*
X134677601Y-109451325D01*
X134676798Y-109451083D01*
X134676761Y-109451072D01*
X134669408Y-109448041D01*
X134661826Y-109443895D01*
X134658071Y-109441337D01*
X134647376Y-109431252D01*
X134639473Y-109419773D01*
X134634290Y-109407323D01*
X134631756Y-109394323D01*
X134631802Y-109381195D01*
X134634358Y-109368362D01*
X134639353Y-109356246D01*
X134646717Y-109345267D01*
X134656379Y-109335850D01*
X134668269Y-109328415D01*
X134677490Y-109324739D01*
X134688725Y-109321163D01*
X135587688Y-109321631D01*
G37*
G36*
X135037610Y-111258622D02*
G01*
X135045959Y-111261677D01*
X135058893Y-111269108D01*
X135068809Y-111278117D01*
X135075664Y-111288594D01*
X135079411Y-111300429D01*
X135080005Y-111313512D01*
X135077401Y-111327733D01*
X135075474Y-111333658D01*
X135074383Y-111336224D01*
X135071925Y-111341713D01*
X135068180Y-111349951D01*
X135063229Y-111360763D01*
X135057154Y-111373978D01*
X135050034Y-111389421D01*
X135041952Y-111406919D01*
X135032987Y-111426297D01*
X135023221Y-111447383D01*
X135012734Y-111470003D01*
X135001608Y-111493983D01*
X134989923Y-111519150D01*
X134977760Y-111545330D01*
X134965199Y-111572349D01*
X134952323Y-111600035D01*
X134939211Y-111628212D01*
X134925945Y-111656709D01*
X134912604Y-111685350D01*
X134899272Y-111713963D01*
X134886027Y-111742375D01*
X134872951Y-111770410D01*
X134860124Y-111797896D01*
X134847629Y-111824660D01*
X134835545Y-111850527D01*
X134823953Y-111875324D01*
X134812934Y-111898878D01*
X134802569Y-111921015D01*
X134792940Y-111941561D01*
X134784126Y-111960342D01*
X134776208Y-111977186D01*
X134769268Y-111991918D01*
X134763387Y-112004365D01*
X134758644Y-112014354D01*
X134755122Y-112021710D01*
X134752900Y-112026261D01*
X134752438Y-112027172D01*
X134748139Y-112034671D01*
X134743143Y-112042224D01*
X134738435Y-112048357D01*
X134737829Y-112049048D01*
X134729264Y-112057146D01*
X134720499Y-112062229D01*
X134710773Y-112064570D01*
X134699323Y-112064443D01*
X134696074Y-112064053D01*
X134684724Y-112061159D01*
X134673617Y-112055926D01*
X134663572Y-112048912D01*
X134655408Y-112040676D01*
X134650473Y-112032951D01*
X134647296Y-112024511D01*
X134645886Y-112015837D01*
X134646298Y-112006375D01*
X134648584Y-111995570D01*
X134652797Y-111982869D01*
X134656061Y-111974616D01*
X134657320Y-111971766D01*
X134659945Y-111965997D01*
X134663850Y-111957488D01*
X134668955Y-111946416D01*
X134675174Y-111932959D01*
X134682426Y-111917296D01*
X134690628Y-111899604D01*
X134699696Y-111880062D01*
X134709548Y-111858847D01*
X134720100Y-111836138D01*
X134731271Y-111812112D01*
X134742975Y-111786948D01*
X134755132Y-111760823D01*
X134767658Y-111733916D01*
X134780469Y-111706404D01*
X134793483Y-111678466D01*
X134806618Y-111650279D01*
X134819789Y-111622022D01*
X134832914Y-111593872D01*
X134845910Y-111566008D01*
X134858694Y-111538607D01*
X134871184Y-111511848D01*
X134883295Y-111485909D01*
X134894946Y-111460967D01*
X134906053Y-111437200D01*
X134916533Y-111414787D01*
X134926304Y-111393906D01*
X134935282Y-111374734D01*
X134943384Y-111357450D01*
X134950528Y-111342231D01*
X134956630Y-111329256D01*
X134961607Y-111318703D01*
X134965378Y-111310749D01*
X134967857Y-111305573D01*
X134968329Y-111304605D01*
X134976213Y-111289595D01*
X134983715Y-111277696D01*
X134991115Y-111268664D01*
X134998697Y-111262257D01*
X135006743Y-111258232D01*
X135015534Y-111256346D01*
X135024485Y-111256288D01*
X135037610Y-111258622D01*
G37*
G36*
X135412413Y-111385985D02*
G01*
X135441429Y-111386027D01*
X135473559Y-111386086D01*
X135501381Y-111386142D01*
X135535051Y-111386212D01*
X135565473Y-111386277D01*
X135592820Y-111386343D01*
X135617263Y-111386409D01*
X135638971Y-111386481D01*
X135658118Y-111386559D01*
X135674874Y-111386648D01*
X135689409Y-111386749D01*
X135701896Y-111386865D01*
X135712505Y-111387000D01*
X135721408Y-111387154D01*
X135728775Y-111387332D01*
X135734779Y-111387537D01*
X135739589Y-111387769D01*
X135743378Y-111388033D01*
X135746316Y-111388332D01*
X135748574Y-111388666D01*
X135750324Y-111389041D01*
X135751737Y-111389457D01*
X135752985Y-111389918D01*
X135753424Y-111390095D01*
X135759838Y-111393435D01*
X135764816Y-111397913D01*
X135768604Y-111404015D01*
X135771451Y-111412228D01*
X135773605Y-111423038D01*
X135774779Y-111431929D01*
X135775246Y-111437295D01*
X135775763Y-111445462D01*
X135776317Y-111456019D01*
X135776895Y-111468553D01*
X135777483Y-111482654D01*
X135778070Y-111497910D01*
X135778640Y-111513909D01*
X135779182Y-111530240D01*
X135779683Y-111546493D01*
X135780128Y-111562254D01*
X135780506Y-111577113D01*
X135780802Y-111590659D01*
X135781005Y-111602479D01*
X135781100Y-111612164D01*
X135781075Y-111619300D01*
X135780916Y-111623477D01*
X135780891Y-111623731D01*
X135778994Y-111635696D01*
X135776100Y-111645129D01*
X135771876Y-111652852D01*
X135766528Y-111659153D01*
X135757834Y-111665960D01*
X135747576Y-111670368D01*
X135735358Y-111672496D01*
X135721460Y-111672504D01*
X135708100Y-111670775D01*
X135697434Y-111667259D01*
X135689084Y-111661667D01*
X135682672Y-111653710D01*
X135677820Y-111643099D01*
X135676182Y-111637871D01*
X135675282Y-111632982D01*
X135674441Y-111624888D01*
X135673656Y-111613538D01*
X135672923Y-111598882D01*
X135672240Y-111580870D01*
X135672092Y-111576345D01*
X135671639Y-111562646D01*
X135671172Y-111549550D01*
X135670711Y-111537585D01*
X135670279Y-111527279D01*
X135669896Y-111519162D01*
X135669586Y-111513761D01*
X135669504Y-111512682D01*
X135668597Y-111502001D01*
X135614897Y-111502001D01*
X135561198Y-111502001D01*
X135561198Y-111695124D01*
X135561198Y-111888247D01*
X135606915Y-111888300D01*
X135619850Y-111888376D01*
X135632345Y-111888561D01*
X135643783Y-111888838D01*
X135653547Y-111889189D01*
X135661020Y-111889596D01*
X135665025Y-111889963D01*
X135679471Y-111893042D01*
X135691258Y-111898230D01*
X135700456Y-111905607D01*
X135707131Y-111915251D01*
X135711353Y-111927243D01*
X135713188Y-111941662D01*
X135713284Y-111946467D01*
X135712125Y-111961756D01*
X135708726Y-111974652D01*
X135703125Y-111985068D01*
X135695361Y-111992914D01*
X135692173Y-111995018D01*
X135689595Y-111996507D01*
X135687100Y-111997831D01*
X135684482Y-111998997D01*
X135681532Y-112000016D01*
X135678042Y-112000898D01*
X135673805Y-112001651D01*
X135668613Y-112002286D01*
X135662257Y-112002813D01*
X135654530Y-112003241D01*
X135645224Y-112003579D01*
X135634131Y-112003838D01*
X135621044Y-112004026D01*
X135605754Y-112004155D01*
X135588054Y-112004232D01*
X135567735Y-112004268D01*
X135544590Y-112004273D01*
X135518411Y-112004257D01*
X135493690Y-112004233D01*
X135469883Y-112004195D01*
X135446929Y-112004133D01*
X135425073Y-112004049D01*
X135404560Y-112003945D01*
X135385637Y-112003822D01*
X135368550Y-112003684D01*
X135353544Y-112003532D01*
X135340864Y-112003368D01*
X135330756Y-112003194D01*
X135323467Y-112003013D01*
X135319241Y-112002826D01*
X135318413Y-112002742D01*
X135307527Y-111999874D01*
X135297564Y-111995341D01*
X135289547Y-111989652D01*
X135287077Y-111987123D01*
X135281827Y-111979422D01*
X135278308Y-111970334D01*
X135276352Y-111959246D01*
X135275786Y-111946469D01*
X135276353Y-111933226D01*
X135278172Y-111922586D01*
X135281416Y-111913909D01*
X135286258Y-111906555D01*
X135286782Y-111905933D01*
X135291040Y-111901592D01*
X135295939Y-111897993D01*
X135301814Y-111895072D01*
X135309003Y-111892766D01*
X135317844Y-111891013D01*
X135328672Y-111889748D01*
X135341827Y-111888908D01*
X135357643Y-111888431D01*
X135376460Y-111888253D01*
X135381016Y-111888247D01*
X135426183Y-111888247D01*
X135426183Y-111695124D01*
X135426183Y-111502001D01*
X135372576Y-111502001D01*
X135318970Y-111502001D01*
X135317908Y-111528064D01*
X135317528Y-111538065D01*
X135317101Y-111550451D01*
X135316659Y-111564186D01*
X135316237Y-111578239D01*
X135315866Y-111591575D01*
X135315840Y-111592581D01*
X135315385Y-111607593D01*
X135314820Y-111619652D01*
X135314038Y-111629221D01*
X135312932Y-111636764D01*
X135311396Y-111642745D01*
X135309322Y-111647628D01*
X135306604Y-111651878D01*
X135303136Y-111655959D01*
X135300678Y-111658491D01*
X135292530Y-111665365D01*
X135283878Y-111669854D01*
X135273953Y-111672207D01*
X135261988Y-111672675D01*
X135257789Y-111672479D01*
X135243427Y-111670390D01*
X135231581Y-111666011D01*
X135222143Y-111659243D01*
X135215006Y-111649989D01*
X135210062Y-111638148D01*
X135207566Y-111626415D01*
X135207366Y-111622892D01*
X135207296Y-111616352D01*
X135207344Y-111607197D01*
X135207498Y-111595826D01*
X135207747Y-111582638D01*
X135208077Y-111568032D01*
X135208477Y-111552409D01*
X135208936Y-111536167D01*
X135209440Y-111519708D01*
X135209979Y-111503429D01*
X135210539Y-111487731D01*
X135211109Y-111473013D01*
X135211677Y-111459675D01*
X135212230Y-111448117D01*
X135212758Y-111438737D01*
X135213247Y-111431936D01*
X135213504Y-111429366D01*
X135215702Y-111416071D01*
X135218783Y-111405843D01*
X135222864Y-111398416D01*
X135228060Y-111393526D01*
X135229624Y-111392630D01*
X135231540Y-111391686D01*
X135233523Y-111390831D01*
X135235741Y-111390062D01*
X135238363Y-111389373D01*
X135241560Y-111388762D01*
X135245500Y-111388224D01*
X135250353Y-111387754D01*
X135256288Y-111387350D01*
X135263474Y-111387006D01*
X135272082Y-111386719D01*
X135282279Y-111386485D01*
X135294236Y-111386300D01*
X135308122Y-111386159D01*
X135324106Y-111386059D01*
X135342358Y-111385996D01*
X135363047Y-111385965D01*
X135386342Y-111385963D01*
X135412413Y-111385985D01*
G37*
G36*
X136119893Y-111387738D02*
G01*
X136141583Y-111387835D01*
X136159936Y-111387995D01*
X136174975Y-111388219D01*
X136186720Y-111388507D01*
X136195190Y-111388859D01*
X136199531Y-111389177D01*
X136228950Y-111393309D01*
X136255773Y-111399524D01*
X136279973Y-111407806D01*
X136301522Y-111418140D01*
X136320390Y-111430508D01*
X136336551Y-111444897D01*
X136349976Y-111461289D01*
X136360280Y-111478928D01*
X136367037Y-111494957D01*
X136371763Y-111511391D01*
X136374691Y-111529209D01*
X136375876Y-111544727D01*
X136375733Y-111567287D01*
X136373094Y-111587819D01*
X136367874Y-111606720D01*
X136359983Y-111624387D01*
X136357310Y-111629123D01*
X136350137Y-111639488D01*
X136340891Y-111650248D01*
X136330589Y-111660339D01*
X136320251Y-111668696D01*
X136317892Y-111670316D01*
X136308075Y-111676796D01*
X136320990Y-111682410D01*
X136335747Y-111689268D01*
X136348095Y-111696108D01*
X136358983Y-111703557D01*
X136369361Y-111712240D01*
X136376492Y-111719051D01*
X136388301Y-111731949D01*
X136397456Y-111744781D01*
X136404545Y-111758563D01*
X136410155Y-111774314D01*
X136411803Y-111780194D01*
X136413553Y-111787227D01*
X136414780Y-111793513D01*
X136415577Y-111799953D01*
X136416035Y-111807449D01*
X136416248Y-111816901D01*
X136416296Y-111824158D01*
X136415976Y-111840681D01*
X136414781Y-111854824D01*
X136412535Y-111867550D01*
X136409067Y-111879824D01*
X136404202Y-111892611D01*
X136403802Y-111893555D01*
X136393660Y-111913194D01*
X136380608Y-111931692D01*
X136365068Y-111948687D01*
X136347457Y-111963817D01*
X136328197Y-111976720D01*
X136307705Y-111987033D01*
X136287368Y-111994132D01*
X136282115Y-111995566D01*
X136277264Y-111996841D01*
X136272591Y-111997966D01*
X136267871Y-111998952D01*
X136262879Y-111999810D01*
X136257389Y-112000548D01*
X136251177Y-112001177D01*
X136244017Y-112001707D01*
X136235686Y-112002148D01*
X136225957Y-112002510D01*
X136214606Y-112002803D01*
X136201409Y-112003037D01*
X136186139Y-112003222D01*
X136168572Y-112003369D01*
X136148483Y-112003486D01*
X136125646Y-112003585D01*
X136099838Y-112003675D01*
X136071351Y-112003765D01*
X136042508Y-112003848D01*
X136016887Y-112003905D01*
X135994292Y-112003935D01*
X135974528Y-112003935D01*
X135957399Y-112003903D01*
X135942710Y-112003838D01*
X135930264Y-112003737D01*
X135919865Y-112003599D01*
X135911319Y-112003421D01*
X135904430Y-112003202D01*
X135899000Y-112002939D01*
X135894836Y-112002631D01*
X135891741Y-112002275D01*
X135889705Y-112001911D01*
X135877056Y-111997925D01*
X135866998Y-111992054D01*
X135859398Y-111984111D01*
X135854125Y-111973909D01*
X135851046Y-111961262D01*
X135850029Y-111945982D01*
X135850029Y-111945727D01*
X135851312Y-111930747D01*
X135855129Y-111918024D01*
X135861427Y-111907617D01*
X135870153Y-111899584D01*
X135881257Y-111893984D01*
X135894687Y-111890873D01*
X135899345Y-111890422D01*
X135913264Y-111889468D01*
X135913264Y-111734432D01*
X136043152Y-111734432D01*
X136043152Y-111814125D01*
X136043152Y-111893818D01*
X136105105Y-111892850D01*
X136120003Y-111892571D01*
X136134396Y-111892215D01*
X136147783Y-111891802D01*
X136159663Y-111891348D01*
X136169537Y-111890875D01*
X136176904Y-111890399D01*
X136180731Y-111890020D01*
X136201837Y-111886307D01*
X136219866Y-111881289D01*
X136234935Y-111874875D01*
X136247161Y-111866976D01*
X136256662Y-111857503D01*
X136263554Y-111846365D01*
X136267956Y-111833474D01*
X136269750Y-111821979D01*
X136269786Y-111806593D01*
X136267254Y-111791980D01*
X136262340Y-111778738D01*
X136255230Y-111767466D01*
X136251671Y-111763500D01*
X136244595Y-111757464D01*
X136236118Y-111752230D01*
X136226022Y-111747758D01*
X136214085Y-111744008D01*
X136200087Y-111740940D01*
X136183809Y-111738515D01*
X136165028Y-111736693D01*
X136143527Y-111735435D01*
X136119083Y-111734699D01*
X136091477Y-111734448D01*
X136090578Y-111734447D01*
X136043152Y-111734432D01*
X135913264Y-111734432D01*
X135913264Y-111695954D01*
X135913264Y-111502440D01*
X135900018Y-111501638D01*
X135886041Y-111499606D01*
X135883315Y-111498582D01*
X136043152Y-111498582D01*
X136043152Y-111564381D01*
X136043152Y-111630180D01*
X136084597Y-111630162D01*
X136097615Y-111630079D01*
X136110820Y-111629858D01*
X136123393Y-111629521D01*
X136134516Y-111629093D01*
X136143371Y-111628597D01*
X136146125Y-111628382D01*
X136164998Y-111626136D01*
X136180857Y-111622899D01*
X136193998Y-111618535D01*
X136204715Y-111612911D01*
X136213305Y-111605889D01*
X136220062Y-111597335D01*
X136222328Y-111593435D01*
X136224283Y-111589501D01*
X136225581Y-111585878D01*
X136226357Y-111581721D01*
X136226742Y-111576185D01*
X136226868Y-111568425D01*
X136226876Y-111564381D01*
X136226557Y-111552515D01*
X136225441Y-111543256D01*
X136223282Y-111535838D01*
X136219836Y-111529497D01*
X136214862Y-111523465D01*
X136213364Y-111521929D01*
X136207330Y-111516654D01*
X136200419Y-111512179D01*
X136192337Y-111508448D01*
X136182793Y-111505408D01*
X136171493Y-111503003D01*
X136158144Y-111501180D01*
X136142454Y-111499883D01*
X136124130Y-111499058D01*
X136102879Y-111498651D01*
X136088015Y-111498584D01*
X136043152Y-111498582D01*
X135883315Y-111498582D01*
X135874478Y-111495263D01*
X135865101Y-111488464D01*
X135857681Y-111479067D01*
X135854487Y-111473033D01*
X135852884Y-111469026D01*
X135851831Y-111464734D01*
X135851223Y-111459319D01*
X135850955Y-111451946D01*
X135850912Y-111444747D01*
X135851003Y-111435531D01*
X135851338Y-111428845D01*
X135852040Y-111423804D01*
X135853230Y-111419520D01*
X135854994Y-111415192D01*
X135861230Y-111405315D01*
X135870020Y-111397170D01*
X135880564Y-111391438D01*
X135882138Y-111390894D01*
X135884031Y-111390415D01*
X135886466Y-111389998D01*
X135889666Y-111389635D01*
X135893858Y-111389323D01*
X135899265Y-111389056D01*
X135906111Y-111388829D01*
X135914621Y-111388635D01*
X135925019Y-111388472D01*
X135937529Y-111388332D01*
X135952376Y-111388210D01*
X135969784Y-111388102D01*
X135989978Y-111388002D01*
X136013182Y-111387905D01*
X136034607Y-111387824D01*
X136066426Y-111387733D01*
X136094848Y-111387704D01*
X136119893Y-111387738D01*
G37*
G36*
X136831566Y-111387493D02*
G01*
X136858868Y-111387502D01*
X136883268Y-111387527D01*
X136904937Y-111387573D01*
X136924047Y-111387648D01*
X136940771Y-111387758D01*
X136955279Y-111387910D01*
X136967744Y-111388111D01*
X136978337Y-111388367D01*
X136987231Y-111388685D01*
X136994597Y-111389071D01*
X137000608Y-111389533D01*
X137005434Y-111390077D01*
X137009248Y-111390709D01*
X137012222Y-111391437D01*
X137014527Y-111392267D01*
X137016336Y-111393205D01*
X137017820Y-111394259D01*
X137019152Y-111395435D01*
X137020502Y-111396739D01*
X137021129Y-111397340D01*
X137023531Y-111399700D01*
X137025544Y-111402063D01*
X137027203Y-111404741D01*
X137028542Y-111408042D01*
X137029595Y-111412278D01*
X137030396Y-111417758D01*
X137030981Y-111424793D01*
X137031382Y-111433693D01*
X137031634Y-111444768D01*
X137031772Y-111458327D01*
X137031830Y-111474682D01*
X137031841Y-111494143D01*
X137031841Y-111494310D01*
X137031832Y-111512746D01*
X137031795Y-111528106D01*
X137031719Y-111540735D01*
X137031590Y-111550976D01*
X137031396Y-111559170D01*
X137031124Y-111565662D01*
X137030761Y-111570794D01*
X137030295Y-111574910D01*
X137029712Y-111578353D01*
X137029001Y-111581465D01*
X137028549Y-111583167D01*
X137023746Y-111594762D01*
X137016470Y-111604153D01*
X137006958Y-111611217D01*
X136995449Y-111615833D01*
X136982178Y-111617877D01*
X136967384Y-111617229D01*
X136963432Y-111616625D01*
X136950933Y-111613456D01*
X136941120Y-111608612D01*
X136933541Y-111601771D01*
X136927745Y-111592614D01*
X136926853Y-111590687D01*
X136924492Y-111584209D01*
X136922681Y-111576471D01*
X136921369Y-111567023D01*
X136920507Y-111555418D01*
X136920046Y-111541207D01*
X136919932Y-111528064D01*
X136919898Y-111496873D01*
X136799410Y-111496873D01*
X136678921Y-111496873D01*
X136678921Y-111563527D01*
X136678921Y-111630180D01*
X136723966Y-111630180D01*
X136769010Y-111630180D01*
X136770125Y-111617789D01*
X136772569Y-111602422D01*
X136776915Y-111589844D01*
X136783222Y-111579967D01*
X136791545Y-111572705D01*
X136801942Y-111567969D01*
X136802672Y-111567752D01*
X136812718Y-111565884D01*
X136823986Y-111565441D01*
X136835179Y-111566363D01*
X136844999Y-111568592D01*
X136848270Y-111569844D01*
X136857796Y-111575725D01*
X136866193Y-111583974D01*
X136872408Y-111593541D01*
X136872689Y-111594137D01*
X136873532Y-111596053D01*
X136874233Y-111598045D01*
X136874806Y-111600427D01*
X136875262Y-111603519D01*
X136875616Y-111607635D01*
X136875881Y-111613093D01*
X136876069Y-111620211D01*
X136876193Y-111629304D01*
X136876267Y-111640690D01*
X136876304Y-111654686D01*
X136876316Y-111671608D01*
X136876317Y-111682306D01*
X136876313Y-111700970D01*
X136876293Y-111716542D01*
X136876243Y-111729347D01*
X136876148Y-111739711D01*
X136875995Y-111747958D01*
X136875771Y-111754415D01*
X136875462Y-111759407D01*
X136875054Y-111763260D01*
X136874532Y-111766299D01*
X136873885Y-111768849D01*
X136873097Y-111771237D01*
X136872491Y-111772886D01*
X136866760Y-111784036D01*
X136858855Y-111792565D01*
X136848762Y-111798481D01*
X136836466Y-111801794D01*
X136821951Y-111802511D01*
X136820074Y-111802424D01*
X136805958Y-111800523D01*
X136794365Y-111796447D01*
X136785162Y-111790061D01*
X136778219Y-111781229D01*
X136773401Y-111769816D01*
X136770577Y-111755685D01*
X136770129Y-111751275D01*
X136769010Y-111737850D01*
X136723965Y-111737850D01*
X136678921Y-111737850D01*
X136678921Y-111815612D01*
X136678921Y-111893375D01*
X136799410Y-111893375D01*
X136919898Y-111893375D01*
X136919932Y-111858766D01*
X136920132Y-111840665D01*
X136920748Y-111825591D01*
X136921862Y-111813169D01*
X136923556Y-111803026D01*
X136925912Y-111794786D01*
X136929011Y-111788076D01*
X136932935Y-111782520D01*
X136937612Y-111777876D01*
X136944796Y-111772868D01*
X136953032Y-111769502D01*
X136962959Y-111767621D01*
X136975215Y-111767069D01*
X136981205Y-111767195D01*
X136989727Y-111767595D01*
X136995821Y-111768205D01*
X137000480Y-111769235D01*
X137004695Y-111770890D01*
X137008645Y-111772931D01*
X137017641Y-111779407D01*
X137022599Y-111785383D01*
X137024608Y-111788664D01*
X137026302Y-111791868D01*
X137027710Y-111795305D01*
X137028856Y-111799285D01*
X137029769Y-111804120D01*
X137030474Y-111810120D01*
X137030999Y-111817596D01*
X137031369Y-111826859D01*
X137031612Y-111838220D01*
X137031754Y-111851989D01*
X137031821Y-111868476D01*
X137031841Y-111887994D01*
X137031841Y-111893375D01*
X137031841Y-111976264D01*
X137027569Y-111984807D01*
X137022628Y-111992393D01*
X137016232Y-111997695D01*
X137007688Y-112001183D01*
X137001376Y-112002577D01*
X136998265Y-112002819D01*
X136991985Y-112003043D01*
X136982785Y-112003248D01*
X136970911Y-112003435D01*
X136956614Y-112003604D01*
X136940141Y-112003755D01*
X136921741Y-112003887D01*
X136901663Y-112004001D01*
X136880155Y-112004096D01*
X136857465Y-112004174D01*
X136833843Y-112004233D01*
X136809536Y-112004273D01*
X136784794Y-112004296D01*
X136759864Y-112004300D01*
X136734996Y-112004286D01*
X136710437Y-112004253D01*
X136686437Y-112004203D01*
X136663243Y-112004134D01*
X136641105Y-112004046D01*
X136620271Y-112003941D01*
X136600989Y-112003817D01*
X136583508Y-112003675D01*
X136568076Y-112003515D01*
X136554942Y-112003336D01*
X136544355Y-112003140D01*
X136536563Y-112002925D01*
X136531814Y-112002691D01*
X136530677Y-112002571D01*
X136517906Y-111999015D01*
X136507174Y-111993069D01*
X136498774Y-111984971D01*
X136493002Y-111974957D01*
X136491741Y-111971328D01*
X136490214Y-111963502D01*
X136489416Y-111953616D01*
X136489346Y-111942951D01*
X136490004Y-111932786D01*
X136491389Y-111924402D01*
X136491771Y-111922988D01*
X136496667Y-111912196D01*
X136504232Y-111903356D01*
X136514219Y-111896638D01*
X136526383Y-111892214D01*
X136539206Y-111890319D01*
X136552451Y-111889517D01*
X136552451Y-111695978D01*
X136552451Y-111502440D01*
X136538969Y-111501659D01*
X136524797Y-111499522D01*
X136512968Y-111494899D01*
X136503500Y-111487811D01*
X136496411Y-111478280D01*
X136491720Y-111466328D01*
X136489446Y-111451973D01*
X136489216Y-111444993D01*
X136489890Y-111431308D01*
X136492015Y-111420244D01*
X136495745Y-111411260D01*
X136500732Y-111404359D01*
X136508524Y-111397341D01*
X136517607Y-111392486D01*
X136528181Y-111389413D01*
X136530823Y-111389110D01*
X136535812Y-111388836D01*
X136543238Y-111388589D01*
X136553192Y-111388369D01*
X136565762Y-111388176D01*
X136581040Y-111388009D01*
X136599114Y-111387866D01*
X136620076Y-111387748D01*
X136644015Y-111387653D01*
X136671020Y-111387581D01*
X136701183Y-111387531D01*
X136734592Y-111387502D01*
X136767566Y-111387494D01*
X136801189Y-111387492D01*
X136831566Y-111387493D01*
G37*
G36*
X135636319Y-106427646D02*
G01*
X135688255Y-106432791D01*
X135690232Y-106433054D01*
X135742555Y-106441809D01*
X135794639Y-106453968D01*
X135846472Y-106469528D01*
X135898044Y-106488481D01*
X135949344Y-106510823D01*
X136000361Y-106536549D01*
X136051084Y-106565652D01*
X136101502Y-106598128D01*
X136151604Y-106633971D01*
X136201380Y-106673175D01*
X136243966Y-106709619D01*
X136264943Y-106728741D01*
X136287357Y-106750094D01*
X136310666Y-106773123D01*
X136334330Y-106797271D01*
X136357806Y-106821983D01*
X136380554Y-106846702D01*
X136402031Y-106870874D01*
X136409894Y-106879971D01*
X136459075Y-106939589D01*
X136507139Y-107002314D01*
X136554030Y-107068002D01*
X136599691Y-107136512D01*
X136644069Y-107207700D01*
X136687107Y-107281425D01*
X136728750Y-107357544D01*
X136768942Y-107435913D01*
X136807628Y-107516392D01*
X136844753Y-107598836D01*
X136880260Y-107683104D01*
X136914095Y-107769054D01*
X136946202Y-107856542D01*
X136976526Y-107945426D01*
X137005010Y-108035563D01*
X137031600Y-108126812D01*
X137056241Y-108219029D01*
X137078875Y-108312073D01*
X137099449Y-108405799D01*
X137117906Y-108500067D01*
X137134192Y-108594733D01*
X137148250Y-108689655D01*
X137160025Y-108784691D01*
X137163329Y-108815363D01*
X137172421Y-108916077D01*
X137178660Y-109015374D01*
X137182051Y-109113207D01*
X137182595Y-109209529D01*
X137180298Y-109304292D01*
X137175161Y-109397449D01*
X137167189Y-109488953D01*
X137156384Y-109578756D01*
X137142750Y-109666810D01*
X137126291Y-109753068D01*
X137107010Y-109837483D01*
X137084910Y-109920007D01*
X137084893Y-109920065D01*
X137061270Y-109996641D01*
X137035144Y-110071193D01*
X137006551Y-110143670D01*
X136975526Y-110214022D01*
X136942104Y-110282196D01*
X136906321Y-110348142D01*
X136868212Y-110411808D01*
X136827813Y-110473144D01*
X136785158Y-110532099D01*
X136740284Y-110588621D01*
X136693226Y-110642660D01*
X136644018Y-110694163D01*
X136592697Y-110743081D01*
X136539298Y-110789362D01*
X136483857Y-110832955D01*
X136426407Y-110873809D01*
X136422563Y-110876397D01*
X136363083Y-110914252D01*
X136302118Y-110949033D01*
X136239703Y-110980730D01*
X136175874Y-111009330D01*
X136110667Y-111034821D01*
X136044117Y-111057191D01*
X135976262Y-111076428D01*
X135907136Y-111092519D01*
X135836775Y-111105452D01*
X135765216Y-111115217D01*
X135694504Y-111121661D01*
X135682656Y-111122365D01*
X135668365Y-111123024D01*
X135652252Y-111123625D01*
X135634937Y-111124156D01*
X135617041Y-111124602D01*
X135599184Y-111124951D01*
X135581985Y-111125190D01*
X135566065Y-111125307D01*
X135552045Y-111125286D01*
X135540543Y-111125117D01*
X135536417Y-111124991D01*
X135467533Y-111121174D01*
X135400801Y-111114938D01*
X135335901Y-111106228D01*
X135272519Y-111094989D01*
X135210335Y-111081168D01*
X135149034Y-111064709D01*
X135103171Y-111050510D01*
X135036338Y-111026874D01*
X134971178Y-111000258D01*
X134907683Y-110970657D01*
X134845841Y-110938066D01*
X134785644Y-110902480D01*
X134727080Y-110863893D01*
X134683352Y-110832327D01*
X134652635Y-110808764D01*
X134623923Y-110785598D01*
X134596417Y-110762134D01*
X134569319Y-110737676D01*
X134541829Y-110711527D01*
X134520382Y-110690295D01*
X134470483Y-110637729D01*
X134422909Y-110582684D01*
X134377677Y-110525208D01*
X134334806Y-110465346D01*
X134294317Y-110403143D01*
X134256227Y-110338647D01*
X134220555Y-110271902D01*
X134187320Y-110202955D01*
X134156540Y-110131851D01*
X134128235Y-110058636D01*
X134102424Y-109983356D01*
X134079124Y-109906058D01*
X134058356Y-109826786D01*
X134040137Y-109745587D01*
X134024487Y-109662507D01*
X134011424Y-109577591D01*
X134000967Y-109490886D01*
X133993196Y-109403279D01*
X133989786Y-109348405D01*
X133987374Y-109291045D01*
X133985963Y-109231983D01*
X133985556Y-109172005D01*
X133985649Y-109162668D01*
X134136769Y-109162668D01*
X134136771Y-109181102D01*
X134136813Y-109209049D01*
X134136918Y-109234020D01*
X134137101Y-109256457D01*
X134137378Y-109276801D01*
X134137765Y-109295494D01*
X134138277Y-109312978D01*
X134138931Y-109329695D01*
X134139741Y-109346085D01*
X134140724Y-109362592D01*
X134141894Y-109379656D01*
X134143269Y-109397720D01*
X134144862Y-109417224D01*
X134145343Y-109422923D01*
X134153949Y-109508121D01*
X134165144Y-109591478D01*
X134178912Y-109672950D01*
X134195235Y-109752493D01*
X134214097Y-109830061D01*
X134235480Y-109905608D01*
X134259367Y-109979091D01*
X134285742Y-110050464D01*
X134314586Y-110119683D01*
X134345884Y-110186701D01*
X134379618Y-110251475D01*
X134415771Y-110313960D01*
X134454327Y-110374109D01*
X134495267Y-110431880D01*
X134538575Y-110487225D01*
X134556861Y-110509029D01*
X134577916Y-110532929D01*
X134600819Y-110557648D01*
X134624873Y-110582484D01*
X134649380Y-110606738D01*
X134673642Y-110629706D01*
X134696962Y-110650690D01*
X134703252Y-110656135D01*
X134755526Y-110698741D01*
X134809528Y-110738404D01*
X134865203Y-110775097D01*
X134922495Y-110808794D01*
X134981350Y-110839467D01*
X135041712Y-110867090D01*
X135103528Y-110891637D01*
X135166741Y-110913081D01*
X135231298Y-110931395D01*
X135297144Y-110946553D01*
X135304839Y-110948101D01*
X135344184Y-110955326D01*
X135383538Y-110961368D01*
X135423622Y-110966308D01*
X135465157Y-110970231D01*
X135508861Y-110973216D01*
X135536417Y-110974593D01*
X135544151Y-110974799D01*
X135554705Y-110974891D01*
X135567480Y-110974878D01*
X135581880Y-110974770D01*
X135597308Y-110974578D01*
X135613167Y-110974312D01*
X135628861Y-110973982D01*
X135643791Y-110973598D01*
X135657361Y-110973171D01*
X135668975Y-110972710D01*
X135678034Y-110972227D01*
X135679123Y-110972154D01*
X135737116Y-110967016D01*
X135794541Y-110959734D01*
X135850736Y-110950412D01*
X135905038Y-110939154D01*
X135933772Y-110932196D01*
X135998511Y-110913934D01*
X136061824Y-110892579D01*
X136123650Y-110868170D01*
X136183932Y-110840749D01*
X136242609Y-110810355D01*
X136299623Y-110777028D01*
X136354914Y-110740807D01*
X136408423Y-110701733D01*
X136460091Y-110659846D01*
X136509859Y-110615185D01*
X136557667Y-110567791D01*
X136603456Y-110517703D01*
X136647166Y-110464961D01*
X136668700Y-110436973D01*
X136710316Y-110378740D01*
X136749399Y-110318357D01*
X136785961Y-110255794D01*
X136820016Y-110191022D01*
X136851577Y-110124012D01*
X136880655Y-110054734D01*
X136907265Y-109983159D01*
X136931420Y-109909258D01*
X136953131Y-109833001D01*
X136972413Y-109754360D01*
X136975248Y-109741672D01*
X136990977Y-109663496D01*
X137004192Y-109583133D01*
X137014883Y-109500715D01*
X137023045Y-109416379D01*
X137028670Y-109330259D01*
X137031751Y-109242488D01*
X137032280Y-109153202D01*
X137030250Y-109062535D01*
X137025653Y-108970622D01*
X137020649Y-108902525D01*
X137010172Y-108795823D01*
X136996480Y-108688377D01*
X136979625Y-108580440D01*
X136959662Y-108472267D01*
X136936644Y-108364111D01*
X136910624Y-108256227D01*
X136881656Y-108148869D01*
X136849794Y-108042290D01*
X136820699Y-107953163D01*
X136787181Y-107858327D01*
X136751817Y-107766039D01*
X136714424Y-107675858D01*
X136674821Y-107587348D01*
X136632825Y-107500069D01*
X136631634Y-107497681D01*
X136595179Y-107426656D01*
X136558293Y-107358814D01*
X136520828Y-107293932D01*
X136482637Y-107231789D01*
X136443575Y-107172161D01*
X136403493Y-107114826D01*
X136362247Y-107059560D01*
X136319689Y-107006141D01*
X136275672Y-106954346D01*
X136269070Y-106946856D01*
X136260079Y-106936945D01*
X136249160Y-106925302D01*
X136236759Y-106912372D01*
X136223323Y-106898603D01*
X136209297Y-106884439D01*
X136195128Y-106870327D01*
X136181263Y-106856712D01*
X136168146Y-106844041D01*
X136156225Y-106832759D01*
X136145946Y-106823313D01*
X136141423Y-106819296D01*
X136095843Y-106781036D01*
X136050492Y-106746150D01*
X136005303Y-106714606D01*
X135960210Y-106686373D01*
X135915146Y-106661419D01*
X135870046Y-106639713D01*
X135824842Y-106621224D01*
X135779469Y-106605919D01*
X135733860Y-106593767D01*
X135687948Y-106584737D01*
X135641668Y-106578798D01*
X135633268Y-106578052D01*
X135620586Y-106577299D01*
X135605453Y-106576879D01*
X135588686Y-106576776D01*
X135571101Y-106576972D01*
X135553513Y-106577451D01*
X135536739Y-106578196D01*
X135521597Y-106579190D01*
X135508900Y-106580417D01*
X135506919Y-106580663D01*
X135460225Y-106588242D01*
X135414082Y-106598803D01*
X135368399Y-106612392D01*
X135323084Y-106629052D01*
X135278046Y-106648830D01*
X135233193Y-106671769D01*
X135188436Y-106697914D01*
X135143682Y-106727310D01*
X135098839Y-106760003D01*
X135053818Y-106796035D01*
X135034809Y-106812198D01*
X135016550Y-106828455D01*
X134996741Y-106846937D01*
X134975882Y-106867134D01*
X134954474Y-106888538D01*
X134933017Y-106910638D01*
X134912013Y-106932927D01*
X134891963Y-106954895D01*
X134873367Y-106976032D01*
X134871566Y-106978128D01*
X134824614Y-107035099D01*
X134778714Y-107095190D01*
X134733923Y-107158250D01*
X134690294Y-107224129D01*
X134647884Y-107292678D01*
X134606748Y-107363745D01*
X134566942Y-107437182D01*
X134528521Y-107512837D01*
X134491540Y-107590561D01*
X134456054Y-107670204D01*
X134422120Y-107751616D01*
X134389791Y-107834646D01*
X134359125Y-107919145D01*
X134330176Y-108004962D01*
X134303000Y-108091947D01*
X134277651Y-108179951D01*
X134254186Y-108268823D01*
X134232660Y-108358413D01*
X134213127Y-108448571D01*
X134195645Y-108539148D01*
X134180267Y-108629992D01*
X134167049Y-108720953D01*
X134156048Y-108811883D01*
X134147317Y-108902630D01*
X134143645Y-108950379D01*
X134142284Y-108970107D01*
X134141110Y-108987955D01*
X134140112Y-109004375D01*
X134139275Y-109019820D01*
X134138586Y-109034744D01*
X134138031Y-109049599D01*
X134137597Y-109064839D01*
X134137271Y-109080917D01*
X134137038Y-109098285D01*
X134136886Y-109117398D01*
X134136801Y-109138708D01*
X134136769Y-109162668D01*
X133985649Y-109162668D01*
X133986156Y-109111894D01*
X133987767Y-109052434D01*
X133990391Y-108994411D01*
X133991513Y-108975160D01*
X133999917Y-108865290D01*
X134011549Y-108754861D01*
X134026349Y-108644107D01*
X134044260Y-108533261D01*
X134065224Y-108422556D01*
X134089182Y-108312224D01*
X134116076Y-108202499D01*
X134145847Y-108093613D01*
X134178437Y-107985799D01*
X134213788Y-107879290D01*
X134251842Y-107774319D01*
X134292540Y-107671118D01*
X134335824Y-107569921D01*
X134353019Y-107531862D01*
X134359171Y-107518655D01*
X134366597Y-107503048D01*
X134375037Y-107485566D01*
X134384230Y-107466735D01*
X134393912Y-107447081D01*
X134403823Y-107427130D01*
X134413701Y-107407408D01*
X134423285Y-107388439D01*
X134432312Y-107370751D01*
X134440521Y-107354869D01*
X134447650Y-107341319D01*
X134450408Y-107336175D01*
X134491547Y-107262365D01*
X134533747Y-107191290D01*
X134576963Y-107123005D01*
X134621148Y-107057568D01*
X134666257Y-106995035D01*
X134712245Y-106935462D01*
X134759066Y-106878905D01*
X134806674Y-106825420D01*
X134855025Y-106775064D01*
X134904071Y-106727893D01*
X134953769Y-106683963D01*
X135004071Y-106643331D01*
X135022845Y-106629131D01*
X135072588Y-106593984D01*
X135122687Y-106562143D01*
X135173110Y-106533618D01*
X135223825Y-106508419D01*
X135274802Y-106486554D01*
X135326009Y-106468033D01*
X135377414Y-106452865D01*
X135428987Y-106441060D01*
X135480695Y-106432626D01*
X135532507Y-106427573D01*
X135584392Y-106425910D01*
X135636319Y-106427646D01*
G37*
D13*
X138416429Y-85254000D02*
X146620629Y-85254000D01*
X146620629Y-85254000D02*
X146620629Y-96599000D01*
X146620629Y-96599000D02*
X138416429Y-96599000D01*
X138416429Y-96599000D02*
X138416429Y-85254000D01*
%LPC*%
D15*
X154701129Y-100076000D03*
D16*
X154701129Y-102616000D03*
X154701129Y-105156000D03*
X154701129Y-107696000D03*
X154701129Y-110236000D03*
D17*
X139461129Y-102870000D03*
D18*
X139461129Y-105410000D03*
X139461129Y-107950000D03*
X139461129Y-110490000D03*
X147081129Y-110490000D03*
X147081129Y-107950000D03*
X147081129Y-105410000D03*
X147081129Y-102870000D03*
D19*
X136039129Y-90928000D03*
D20*
X136039129Y-93218000D03*
X136039129Y-95508000D03*
D21*
X139905629Y-88519000D03*
X139905629Y-93599000D03*
X142445629Y-88519000D03*
X142445629Y-93599000D03*
%LPD*%
M02*
