%TF.GenerationSoftware,KiCad,Pcbnew,7.0.10*%
%TF.CreationDate,2024-02-08T17:52:36+11:00*%
%TF.ProjectId,Desktop Thermometer USB-C,4465736b-746f-4702-9054-6865726d6f6d,rev?*%
%TF.SameCoordinates,Original*%
%TF.FileFunction,Drillmap*%
%TF.FilePolarity,Positive*%
%FSLAX45Y45*%
G04 Gerber Fmt 4.5, Leading zero omitted, Abs format (unit mm)*
G04 Created by KiCad (PCBNEW 7.0.10) date 2024-02-08 17:52:36*
%MOMM*%
%LPD*%
G01*
G04 APERTURE LIST*
%ADD10C,0.100000*%
%ADD11C,0.200000*%
G04 APERTURE END LIST*
D10*
X9829800Y-4800600D02*
X17703800Y-4800600D01*
X17703800Y-13563600D01*
X9829800Y-13563600D01*
X9829800Y-4800600D01*
D11*
D10*
X12687000Y-9234000D02*
X12717000Y-9264000D01*
X12717000Y-9234000D02*
X12687000Y-9264000D01*
X14427000Y-9236000D02*
X14457000Y-9266000D01*
X14457000Y-9236000D02*
X14427000Y-9266000D01*
X10992800Y-10287000D02*
G75*
G03*
X10952800Y-10287000I-20000J0D01*
G01*
X10952800Y-10287000D02*
G75*
G03*
X10992800Y-10287000I20000J0D01*
G01*
X11780200Y-9931400D02*
G75*
G03*
X11740200Y-9931400I-20000J0D01*
G01*
X11740200Y-9931400D02*
G75*
G03*
X11780200Y-9931400I20000J0D01*
G01*
X13913800Y-9398000D02*
G75*
G03*
X13873800Y-9398000I-20000J0D01*
G01*
X13873800Y-9398000D02*
G75*
G03*
X13913800Y-9398000I20000J0D01*
G01*
X14269400Y-9398000D02*
G75*
G03*
X14229400Y-9398000I-20000J0D01*
G01*
X14229400Y-9398000D02*
G75*
G03*
X14269400Y-9398000I20000J0D01*
G01*
X10111000Y-10255000D02*
X10111000Y-10315000D01*
X10081000Y-10285000D02*
X10141000Y-10285000D01*
X10081000Y-10315000D02*
X10141000Y-10315000D01*
X10141000Y-10315000D02*
G75*
G03*
X10141000Y-10255000I0J30000D01*
G01*
X10141000Y-10255000D02*
X10081000Y-10255000D01*
X10081000Y-10255000D02*
G75*
G03*
X10081000Y-10315000I0J-30000D01*
G01*
X10111000Y-11119000D02*
X10111000Y-11179000D01*
X10081000Y-11149000D02*
X10141000Y-11149000D01*
X10081000Y-11179000D02*
X10141000Y-11179000D01*
X10141000Y-11179000D02*
G75*
G03*
X10141000Y-11119000I0J30000D01*
G01*
X10141000Y-11119000D02*
X10081000Y-11119000D01*
X10081000Y-11119000D02*
G75*
G03*
X10081000Y-11179000I0J-30000D01*
G01*
X10491000Y-10255000D02*
X10491000Y-10315000D01*
X10461000Y-10285000D02*
X10521000Y-10285000D01*
X10461000Y-10315000D02*
X10521000Y-10315000D01*
X10521000Y-10315000D02*
G75*
G03*
X10521000Y-10255000I0J30000D01*
G01*
X10521000Y-10255000D02*
X10461000Y-10255000D01*
X10461000Y-10255000D02*
G75*
G03*
X10461000Y-10315000I0J-30000D01*
G01*
X10491000Y-11119000D02*
X10491000Y-11179000D01*
X10461000Y-11149000D02*
X10521000Y-11149000D01*
X10461000Y-11179000D02*
X10521000Y-11179000D01*
X10521000Y-11179000D02*
G75*
G03*
X10521000Y-11119000I0J30000D01*
G01*
X10521000Y-11119000D02*
X10461000Y-11119000D01*
X10461000Y-11119000D02*
G75*
G03*
X10461000Y-11179000I0J-30000D01*
G01*
X10189785Y-8868985D02*
X10189785Y-8812416D01*
X10133216Y-8812416D01*
X10133216Y-8868985D01*
X10189785Y-8868985D01*
X10189785Y-9630985D02*
X10189785Y-9574416D01*
X10133216Y-9574416D01*
X10133216Y-9630985D01*
X10189785Y-9630985D01*
X10443785Y-8868985D02*
X10443785Y-8812416D01*
X10387216Y-8812416D01*
X10387216Y-8868985D01*
X10443785Y-8868985D01*
X10443785Y-9630985D02*
X10443785Y-9574416D01*
X10387216Y-9574416D01*
X10387216Y-9630985D01*
X10443785Y-9630985D01*
X10646985Y-5516185D02*
X10646985Y-5459616D01*
X10590416Y-5459616D01*
X10590416Y-5516185D01*
X10646985Y-5516185D01*
X10646985Y-6532184D02*
X10646985Y-6475615D01*
X10590416Y-6475615D01*
X10590416Y-6532184D01*
X10646985Y-6532184D01*
X10697785Y-8868985D02*
X10697785Y-8812416D01*
X10641216Y-8812416D01*
X10641216Y-8868985D01*
X10697785Y-8868985D01*
X10697785Y-9630985D02*
X10697785Y-9574416D01*
X10641216Y-9574416D01*
X10641216Y-9630985D01*
X10697785Y-9630985D01*
X10924885Y-10645485D02*
X10924885Y-10588916D01*
X10868316Y-10588916D01*
X10868316Y-10645485D01*
X10924885Y-10645485D01*
X10924885Y-11661484D02*
X10924885Y-11604915D01*
X10868316Y-11604915D01*
X10868316Y-11661484D01*
X10924885Y-11661484D01*
X10951785Y-8868985D02*
X10951785Y-8812416D01*
X10895216Y-8812416D01*
X10895216Y-8868985D01*
X10951785Y-8868985D01*
X10951785Y-9630985D02*
X10951785Y-9574416D01*
X10895216Y-9574416D01*
X10895216Y-9630985D01*
X10951785Y-9630985D01*
X10964485Y-5516185D02*
X10964485Y-5459616D01*
X10907916Y-5459616D01*
X10907916Y-5516185D01*
X10964485Y-5516185D01*
X10964485Y-6532184D02*
X10964485Y-6475615D01*
X10907916Y-6475615D01*
X10907916Y-6532184D01*
X10964485Y-6532184D01*
X11205784Y-8868985D02*
X11205784Y-8812416D01*
X11149216Y-8812416D01*
X11149216Y-8868985D01*
X11205784Y-8868985D01*
X11205784Y-9630985D02*
X11205784Y-9574416D01*
X11149216Y-9574416D01*
X11149216Y-9630985D01*
X11205784Y-9630985D01*
X11255084Y-10797885D02*
X11255084Y-10741316D01*
X11198515Y-10741316D01*
X11198515Y-10797885D01*
X11255084Y-10797885D01*
X11255084Y-11813884D02*
X11255084Y-11757315D01*
X11198515Y-11757315D01*
X11198515Y-11813884D01*
X11255084Y-11813884D01*
X11281984Y-5516185D02*
X11281984Y-5459616D01*
X11225415Y-5459616D01*
X11225415Y-5516185D01*
X11281984Y-5516185D01*
X11281984Y-6532184D02*
X11281984Y-6475615D01*
X11225415Y-6475615D01*
X11225415Y-6532184D01*
X11281984Y-6532184D01*
X11459784Y-8868985D02*
X11459784Y-8812416D01*
X11403215Y-8812416D01*
X11403215Y-8868985D01*
X11459784Y-8868985D01*
X11459784Y-9630985D02*
X11459784Y-9574416D01*
X11403215Y-9574416D01*
X11403215Y-9630985D01*
X11459784Y-9630985D01*
X11599484Y-5516185D02*
X11599484Y-5459616D01*
X11542915Y-5459616D01*
X11542915Y-5516185D01*
X11599484Y-5516185D01*
X11599484Y-6532184D02*
X11599484Y-6475615D01*
X11542915Y-6475615D01*
X11542915Y-6532184D01*
X11599484Y-6532184D01*
X11701084Y-7319584D02*
X11701084Y-7263015D01*
X11644515Y-7263015D01*
X11644515Y-7319584D01*
X11701084Y-7319584D01*
X11701084Y-8335584D02*
X11701084Y-8279015D01*
X11644515Y-8279015D01*
X11644515Y-8335584D01*
X11701084Y-8335584D01*
X11713784Y-8868985D02*
X11713784Y-8812416D01*
X11657215Y-8812416D01*
X11657215Y-8868985D01*
X11713784Y-8868985D01*
X11713784Y-9630985D02*
X11713784Y-9574416D01*
X11657215Y-9574416D01*
X11657215Y-9630985D01*
X11713784Y-9630985D01*
X11916184Y-5262185D02*
X11916184Y-5205616D01*
X11859615Y-5205616D01*
X11859615Y-5262185D01*
X11916184Y-5262185D01*
X11916184Y-6786184D02*
X11916184Y-6729615D01*
X11859615Y-6729615D01*
X11859615Y-6786184D01*
X11916184Y-6786184D01*
X11967784Y-8868985D02*
X11967784Y-8812416D01*
X11911215Y-8812416D01*
X11911215Y-8868985D01*
X11967784Y-8868985D01*
X11967784Y-9630985D02*
X11967784Y-9574416D01*
X11911215Y-9574416D01*
X11911215Y-9630985D01*
X11967784Y-9630985D01*
X12018584Y-7319584D02*
X12018584Y-7263015D01*
X11962015Y-7263015D01*
X11962015Y-7319584D01*
X12018584Y-7319584D01*
X12018584Y-8335584D02*
X12018584Y-8279015D01*
X11962015Y-8279015D01*
X11962015Y-8335584D01*
X12018584Y-8335584D01*
X12170184Y-5262185D02*
X12170184Y-5205616D01*
X12113615Y-5205616D01*
X12113615Y-5262185D01*
X12170184Y-5262185D01*
X12170184Y-6786184D02*
X12170184Y-6729615D01*
X12113615Y-6729615D01*
X12113615Y-6786184D01*
X12170184Y-6786184D01*
X12336084Y-7319584D02*
X12336084Y-7263015D01*
X12279515Y-7263015D01*
X12279515Y-7319584D01*
X12336084Y-7319584D01*
X12336084Y-8335584D02*
X12336084Y-8279015D01*
X12279515Y-8279015D01*
X12279515Y-8335584D01*
X12336084Y-8335584D01*
X12348784Y-8999985D02*
X12348784Y-8943416D01*
X12292215Y-8943416D01*
X12292215Y-8999985D01*
X12348784Y-8999985D01*
X12348784Y-9499985D02*
X12348784Y-9443416D01*
X12292215Y-9443416D01*
X12292215Y-9499985D01*
X12348784Y-9499985D01*
X12424184Y-5262185D02*
X12424184Y-5205616D01*
X12367615Y-5205616D01*
X12367615Y-5262185D01*
X12424184Y-5262185D01*
X12424184Y-6786184D02*
X12424184Y-6729615D01*
X12367615Y-6729615D01*
X12367615Y-6786184D01*
X12424184Y-6786184D01*
X12653584Y-7319584D02*
X12653584Y-7263015D01*
X12597015Y-7263015D01*
X12597015Y-7319584D01*
X12653584Y-7319584D01*
X12653584Y-8335584D02*
X12653584Y-8279015D01*
X12597015Y-8279015D01*
X12597015Y-8335584D01*
X12653584Y-8335584D01*
X12678184Y-5262185D02*
X12678184Y-5205616D01*
X12621615Y-5205616D01*
X12621615Y-5262185D01*
X12678184Y-5262185D01*
X12678184Y-6786184D02*
X12678184Y-6729615D01*
X12621615Y-6729615D01*
X12621615Y-6786184D01*
X12678184Y-6786184D01*
X12728284Y-8867485D02*
X12728284Y-8810916D01*
X12671715Y-8810916D01*
X12671715Y-8867485D01*
X12728284Y-8867485D01*
X12728284Y-9629485D02*
X12728284Y-9572916D01*
X12671715Y-9572916D01*
X12671715Y-9629485D01*
X12728284Y-9629485D01*
X12932184Y-5262185D02*
X12932184Y-5205616D01*
X12875615Y-5205616D01*
X12875615Y-5262185D01*
X12932184Y-5262185D01*
X12932184Y-6786184D02*
X12932184Y-6729615D01*
X12875615Y-6729615D01*
X12875615Y-6786184D01*
X12932184Y-6786184D01*
X12971084Y-7319584D02*
X12971084Y-7263015D01*
X12914515Y-7263015D01*
X12914515Y-7319584D01*
X12971084Y-7319584D01*
X12971084Y-8335584D02*
X12971084Y-8279015D01*
X12914515Y-8279015D01*
X12914515Y-8335584D01*
X12971084Y-8335584D01*
X12982284Y-8867485D02*
X12982284Y-8810916D01*
X12925715Y-8810916D01*
X12925715Y-8867485D01*
X12982284Y-8867485D01*
X12982284Y-9629485D02*
X12982284Y-9572916D01*
X12925715Y-9572916D01*
X12925715Y-9629485D01*
X12982284Y-9629485D01*
X13236284Y-8867485D02*
X13236284Y-8810916D01*
X13179715Y-8810916D01*
X13179715Y-8867485D01*
X13236284Y-8867485D01*
X13236284Y-9629485D02*
X13236284Y-9572916D01*
X13179715Y-9572916D01*
X13179715Y-9629485D01*
X13236284Y-9629485D01*
X13262384Y-5262185D02*
X13262384Y-5205616D01*
X13205815Y-5205616D01*
X13205815Y-5262185D01*
X13262384Y-5262185D01*
X13262384Y-6786184D02*
X13262384Y-6729615D01*
X13205815Y-6729615D01*
X13205815Y-6786184D01*
X13262384Y-6786184D01*
X13288584Y-7319584D02*
X13288584Y-7263015D01*
X13232015Y-7263015D01*
X13232015Y-7319584D01*
X13288584Y-7319584D01*
X13288584Y-8335584D02*
X13288584Y-8279015D01*
X13232015Y-8279015D01*
X13232015Y-8335584D01*
X13288584Y-8335584D01*
X13490284Y-8867485D02*
X13490284Y-8810916D01*
X13433715Y-8810916D01*
X13433715Y-8867485D01*
X13490284Y-8867485D01*
X13490284Y-9629485D02*
X13490284Y-9572916D01*
X13433715Y-9572916D01*
X13433715Y-9629485D01*
X13490284Y-9629485D01*
X13516384Y-5262185D02*
X13516384Y-5205616D01*
X13459815Y-5205616D01*
X13459815Y-5262185D01*
X13516384Y-5262185D01*
X13516384Y-6786184D02*
X13516384Y-6729615D01*
X13459815Y-6729615D01*
X13459815Y-6786184D01*
X13516384Y-6786184D01*
X13606084Y-7319584D02*
X13606084Y-7263015D01*
X13549515Y-7263015D01*
X13549515Y-7319584D01*
X13606084Y-7319584D01*
X13606084Y-8335584D02*
X13606084Y-8279015D01*
X13549515Y-8279015D01*
X13549515Y-8335584D01*
X13606084Y-8335584D01*
X13744284Y-8867485D02*
X13744284Y-8810916D01*
X13687715Y-8810916D01*
X13687715Y-8867485D01*
X13744284Y-8867485D01*
X13744284Y-9629485D02*
X13744284Y-9572916D01*
X13687715Y-9572916D01*
X13687715Y-9629485D01*
X13744284Y-9629485D01*
X13746384Y-10340685D02*
X13746384Y-10284116D01*
X13689815Y-10284116D01*
X13689815Y-10340685D01*
X13746384Y-10340685D01*
X13746384Y-10594685D02*
X13746384Y-10538116D01*
X13689815Y-10538116D01*
X13689815Y-10594685D01*
X13746384Y-10594685D01*
X13746384Y-10848685D02*
X13746384Y-10792116D01*
X13689815Y-10792116D01*
X13689815Y-10848685D01*
X13746384Y-10848685D01*
X13770384Y-5262185D02*
X13770384Y-5205616D01*
X13713815Y-5205616D01*
X13713815Y-5262185D01*
X13770384Y-5262185D01*
X13770384Y-6786184D02*
X13770384Y-6729615D01*
X13713815Y-6729615D01*
X13713815Y-6786184D01*
X13770384Y-6786184D01*
X13923584Y-7319584D02*
X13923584Y-7263015D01*
X13867015Y-7263015D01*
X13867015Y-7319584D01*
X13923584Y-7319584D01*
X13923584Y-8335584D02*
X13923584Y-8279015D01*
X13867015Y-8279015D01*
X13867015Y-8335584D01*
X13923584Y-8335584D01*
X13998284Y-8867485D02*
X13998284Y-8810916D01*
X13941715Y-8810916D01*
X13941715Y-8867485D01*
X13998284Y-8867485D01*
X13998284Y-9629485D02*
X13998284Y-9572916D01*
X13941715Y-9572916D01*
X13941715Y-9629485D01*
X13998284Y-9629485D01*
X14024384Y-5262185D02*
X14024384Y-5205616D01*
X13967815Y-5205616D01*
X13967815Y-5262185D01*
X14024384Y-5262185D01*
X14024384Y-6786184D02*
X14024384Y-6729615D01*
X13967815Y-6729615D01*
X13967815Y-6786184D01*
X14024384Y-6786184D01*
X14228384Y-10346185D02*
X14228384Y-10289616D01*
X14171815Y-10289616D01*
X14171815Y-10346185D01*
X14228384Y-10346185D01*
X14228384Y-10846185D02*
X14228384Y-10789616D01*
X14171815Y-10789616D01*
X14171815Y-10846185D01*
X14228384Y-10846185D01*
X14241084Y-7319584D02*
X14241084Y-7263015D01*
X14184515Y-7263015D01*
X14184515Y-7319584D01*
X14241084Y-7319584D01*
X14241084Y-8335584D02*
X14241084Y-8279015D01*
X14184515Y-8279015D01*
X14184515Y-8335584D01*
X14241084Y-8335584D01*
X14252284Y-8867485D02*
X14252284Y-8810916D01*
X14195715Y-8810916D01*
X14195715Y-8867485D01*
X14252284Y-8867485D01*
X14252284Y-9629485D02*
X14252284Y-9572916D01*
X14195715Y-9572916D01*
X14195715Y-9629485D01*
X14252284Y-9629485D01*
X14278384Y-5262185D02*
X14278384Y-5205616D01*
X14221815Y-5205616D01*
X14221815Y-5262185D01*
X14278384Y-5262185D01*
X14278384Y-6786184D02*
X14278384Y-6729615D01*
X14221815Y-6729615D01*
X14221815Y-6786184D01*
X14278384Y-6786184D01*
X14506284Y-8867485D02*
X14506284Y-8810916D01*
X14449715Y-8810916D01*
X14449715Y-8867485D01*
X14506284Y-8867485D01*
X14506284Y-9629485D02*
X14506284Y-9572916D01*
X14449715Y-9572916D01*
X14449715Y-9629485D01*
X14506284Y-9629485D01*
X14558584Y-7318084D02*
X14558584Y-7261515D01*
X14502015Y-7261515D01*
X14502015Y-7318084D01*
X14558584Y-7318084D01*
X14558584Y-8334084D02*
X14558584Y-8277515D01*
X14502015Y-8277515D01*
X14502015Y-8334084D01*
X14558584Y-8334084D01*
X14609384Y-5262185D02*
X14609384Y-5205616D01*
X14552815Y-5205616D01*
X14552815Y-5262185D01*
X14609384Y-5262185D01*
X14609384Y-6786184D02*
X14609384Y-6729615D01*
X14552815Y-6729615D01*
X14552815Y-6786184D01*
X14609384Y-6786184D01*
X14863384Y-5262185D02*
X14863384Y-5205616D01*
X14806815Y-5205616D01*
X14806815Y-5262185D01*
X14863384Y-5262185D01*
X14863384Y-6786184D02*
X14863384Y-6729615D01*
X14806815Y-6729615D01*
X14806815Y-6786184D01*
X14863384Y-6786184D01*
X14876084Y-7319584D02*
X14876084Y-7263015D01*
X14819515Y-7263015D01*
X14819515Y-7319584D01*
X14876084Y-7319584D01*
X14876084Y-8335584D02*
X14876084Y-8279015D01*
X14819515Y-8279015D01*
X14819515Y-8335584D01*
X14876084Y-8335584D01*
X14888784Y-8999985D02*
X14888784Y-8943416D01*
X14832215Y-8943416D01*
X14832215Y-8999985D01*
X14888784Y-8999985D01*
X14888784Y-9499985D02*
X14888784Y-9443416D01*
X14832215Y-9443416D01*
X14832215Y-9499985D01*
X14888784Y-9499985D01*
X15117384Y-5262185D02*
X15117384Y-5205616D01*
X15060815Y-5205616D01*
X15060815Y-5262185D01*
X15117384Y-5262185D01*
X15117384Y-6786184D02*
X15117384Y-6729615D01*
X15060815Y-6729615D01*
X15060815Y-6786184D01*
X15117384Y-6786184D01*
X15168184Y-10088185D02*
X15168184Y-10031616D01*
X15111615Y-10031616D01*
X15111615Y-10088185D01*
X15168184Y-10088185D01*
X15168184Y-11104185D02*
X15168184Y-11047616D01*
X15111615Y-11047616D01*
X15111615Y-11104185D01*
X15168184Y-11104185D01*
X15193584Y-7319584D02*
X15193584Y-7263015D01*
X15137015Y-7263015D01*
X15137015Y-7319584D01*
X15193584Y-7319584D01*
X15193584Y-8335584D02*
X15193584Y-8279015D01*
X15137015Y-8279015D01*
X15137015Y-8335584D01*
X15193584Y-8335584D01*
X15269784Y-8868985D02*
X15269784Y-8812416D01*
X15213215Y-8812416D01*
X15213215Y-8868985D01*
X15269784Y-8868985D01*
X15269784Y-9630985D02*
X15269784Y-9574416D01*
X15213215Y-9574416D01*
X15213215Y-9630985D01*
X15269784Y-9630985D01*
X15371384Y-5262185D02*
X15371384Y-5205616D01*
X15314815Y-5205616D01*
X15314815Y-5262185D01*
X15371384Y-5262185D01*
X15371384Y-6786184D02*
X15371384Y-6729615D01*
X15314815Y-6729615D01*
X15314815Y-6786184D01*
X15371384Y-6786184D01*
X15511084Y-7319584D02*
X15511084Y-7263015D01*
X15454515Y-7263015D01*
X15454515Y-7319584D01*
X15511084Y-7319584D01*
X15511084Y-8335584D02*
X15511084Y-8279015D01*
X15454515Y-8279015D01*
X15454515Y-8335584D01*
X15511084Y-8335584D01*
X15522784Y-10213685D02*
X15522784Y-10157116D01*
X15466215Y-10157116D01*
X15466215Y-10213685D01*
X15522784Y-10213685D01*
X15522784Y-10975685D02*
X15522784Y-10919116D01*
X15466215Y-10919116D01*
X15466215Y-10975685D01*
X15522784Y-10975685D01*
X15523784Y-8868985D02*
X15523784Y-8812416D01*
X15467215Y-8812416D01*
X15467215Y-8868985D01*
X15523784Y-8868985D01*
X15523784Y-9630985D02*
X15523784Y-9574416D01*
X15467215Y-9574416D01*
X15467215Y-9630985D01*
X15523784Y-9630985D01*
X15625384Y-5262185D02*
X15625384Y-5205616D01*
X15568815Y-5205616D01*
X15568815Y-5262185D01*
X15625384Y-5262185D01*
X15625384Y-6786184D02*
X15625384Y-6729615D01*
X15568815Y-6729615D01*
X15568815Y-6786184D01*
X15625384Y-6786184D01*
X15776784Y-10213685D02*
X15776784Y-10157116D01*
X15720215Y-10157116D01*
X15720215Y-10213685D01*
X15776784Y-10213685D01*
X15776784Y-10975685D02*
X15776784Y-10919116D01*
X15720215Y-10919116D01*
X15720215Y-10975685D01*
X15776784Y-10975685D01*
X15777784Y-8868985D02*
X15777784Y-8812416D01*
X15721215Y-8812416D01*
X15721215Y-8868985D01*
X15777784Y-8868985D01*
X15777784Y-9630985D02*
X15777784Y-9574416D01*
X15721215Y-9574416D01*
X15721215Y-9630985D01*
X15777784Y-9630985D01*
X15828584Y-7319584D02*
X15828584Y-7263015D01*
X15772015Y-7263015D01*
X15772015Y-7319584D01*
X15828584Y-7319584D01*
X15828584Y-8335584D02*
X15828584Y-8279015D01*
X15772015Y-8279015D01*
X15772015Y-8335584D01*
X15828584Y-8335584D01*
X15942884Y-5516185D02*
X15942884Y-5459616D01*
X15886315Y-5459616D01*
X15886315Y-5516185D01*
X15942884Y-5516185D01*
X15942884Y-6532184D02*
X15942884Y-6475615D01*
X15886315Y-6475615D01*
X15886315Y-6532184D01*
X15942884Y-6532184D01*
X16030784Y-10213685D02*
X16030784Y-10157116D01*
X15974215Y-10157116D01*
X15974215Y-10213685D01*
X16030784Y-10213685D01*
X16030784Y-10975685D02*
X16030784Y-10919116D01*
X15974215Y-10919116D01*
X15974215Y-10975685D01*
X16030784Y-10975685D01*
X16031784Y-8868985D02*
X16031784Y-8812416D01*
X15975215Y-8812416D01*
X15975215Y-8868985D01*
X16031784Y-8868985D01*
X16031784Y-9630985D02*
X16031784Y-9574416D01*
X15975215Y-9574416D01*
X15975215Y-9630985D01*
X16031784Y-9630985D01*
X16260384Y-5516185D02*
X16260384Y-5459616D01*
X16203815Y-5459616D01*
X16203815Y-5516185D01*
X16260384Y-5516185D01*
X16260384Y-6532184D02*
X16260384Y-6475615D01*
X16203815Y-6475615D01*
X16203815Y-6532184D01*
X16260384Y-6532184D01*
X16284784Y-10213685D02*
X16284784Y-10157116D01*
X16228215Y-10157116D01*
X16228215Y-10213685D01*
X16284784Y-10213685D01*
X16284784Y-10975685D02*
X16284784Y-10919116D01*
X16228215Y-10919116D01*
X16228215Y-10975685D01*
X16284784Y-10975685D01*
X16285784Y-8868985D02*
X16285784Y-8812416D01*
X16229215Y-8812416D01*
X16229215Y-8868985D01*
X16285784Y-8868985D01*
X16285784Y-9630985D02*
X16285784Y-9574416D01*
X16229215Y-9574416D01*
X16229215Y-9630985D01*
X16285784Y-9630985D01*
X16539784Y-8868985D02*
X16539784Y-8812416D01*
X16483215Y-8812416D01*
X16483215Y-8868985D01*
X16539784Y-8868985D01*
X16539784Y-9630985D02*
X16539784Y-9574416D01*
X16483215Y-9574416D01*
X16483215Y-9630985D01*
X16539784Y-9630985D01*
X16577884Y-5516185D02*
X16577884Y-5459616D01*
X16521315Y-5459616D01*
X16521315Y-5516185D01*
X16577884Y-5516185D01*
X16577884Y-6532184D02*
X16577884Y-6475615D01*
X16521315Y-6475615D01*
X16521315Y-6532184D01*
X16577884Y-6532184D01*
X16666784Y-10346185D02*
X16666784Y-10289616D01*
X16610215Y-10289616D01*
X16610215Y-10346185D01*
X16666784Y-10346185D01*
X16666784Y-10846185D02*
X16666784Y-10789616D01*
X16610215Y-10789616D01*
X16610215Y-10846185D01*
X16666784Y-10846185D01*
X16793785Y-8868985D02*
X16793785Y-8812416D01*
X16737215Y-8812416D01*
X16737215Y-8868985D01*
X16793785Y-8868985D01*
X16793785Y-9630985D02*
X16793785Y-9574416D01*
X16737215Y-9574416D01*
X16737215Y-9630985D01*
X16793785Y-9630985D01*
X16895385Y-5516185D02*
X16895385Y-5459616D01*
X16838816Y-5459616D01*
X16838816Y-5516185D01*
X16895385Y-5516185D01*
X16895385Y-6532184D02*
X16895385Y-6475615D01*
X16838816Y-6475615D01*
X16838816Y-6532184D01*
X16895385Y-6532184D01*
X17047785Y-8868985D02*
X17047785Y-8812416D01*
X16991216Y-8812416D01*
X16991216Y-8868985D01*
X17047785Y-8868985D01*
X17047785Y-9630985D02*
X17047785Y-9574416D01*
X16991216Y-9574416D01*
X16991216Y-9630985D01*
X17047785Y-9630985D01*
X17428785Y-8999985D02*
X17428785Y-8943416D01*
X17372216Y-8943416D01*
X17372216Y-8999985D01*
X17428785Y-8999985D01*
X17428785Y-9499985D02*
X17428785Y-9443416D01*
X17372216Y-9443416D01*
X17372216Y-9499985D01*
X17428785Y-9499985D01*
D11*
X10085577Y-13880084D02*
X10085577Y-13680084D01*
X10085577Y-13680084D02*
X10133196Y-13680084D01*
X10133196Y-13680084D02*
X10161767Y-13689608D01*
X10161767Y-13689608D02*
X10180815Y-13708655D01*
X10180815Y-13708655D02*
X10190339Y-13727703D01*
X10190339Y-13727703D02*
X10199863Y-13765798D01*
X10199863Y-13765798D02*
X10199863Y-13794369D01*
X10199863Y-13794369D02*
X10190339Y-13832465D01*
X10190339Y-13832465D02*
X10180815Y-13851512D01*
X10180815Y-13851512D02*
X10161767Y-13870560D01*
X10161767Y-13870560D02*
X10133196Y-13880084D01*
X10133196Y-13880084D02*
X10085577Y-13880084D01*
X10285577Y-13880084D02*
X10285577Y-13746750D01*
X10285577Y-13784846D02*
X10295101Y-13765798D01*
X10295101Y-13765798D02*
X10304624Y-13756274D01*
X10304624Y-13756274D02*
X10323672Y-13746750D01*
X10323672Y-13746750D02*
X10342720Y-13746750D01*
X10409386Y-13880084D02*
X10409386Y-13746750D01*
X10409386Y-13680084D02*
X10399863Y-13689608D01*
X10399863Y-13689608D02*
X10409386Y-13699131D01*
X10409386Y-13699131D02*
X10418910Y-13689608D01*
X10418910Y-13689608D02*
X10409386Y-13680084D01*
X10409386Y-13680084D02*
X10409386Y-13699131D01*
X10533196Y-13880084D02*
X10514148Y-13870560D01*
X10514148Y-13870560D02*
X10504624Y-13851512D01*
X10504624Y-13851512D02*
X10504624Y-13680084D01*
X10637958Y-13880084D02*
X10618910Y-13870560D01*
X10618910Y-13870560D02*
X10609386Y-13851512D01*
X10609386Y-13851512D02*
X10609386Y-13680084D01*
X10866529Y-13880084D02*
X10866529Y-13680084D01*
X10866529Y-13680084D02*
X10933196Y-13822941D01*
X10933196Y-13822941D02*
X10999863Y-13680084D01*
X10999863Y-13680084D02*
X10999863Y-13880084D01*
X11180815Y-13880084D02*
X11180815Y-13775322D01*
X11180815Y-13775322D02*
X11171291Y-13756274D01*
X11171291Y-13756274D02*
X11152244Y-13746750D01*
X11152244Y-13746750D02*
X11114148Y-13746750D01*
X11114148Y-13746750D02*
X11095101Y-13756274D01*
X11180815Y-13870560D02*
X11161767Y-13880084D01*
X11161767Y-13880084D02*
X11114148Y-13880084D01*
X11114148Y-13880084D02*
X11095101Y-13870560D01*
X11095101Y-13870560D02*
X11085577Y-13851512D01*
X11085577Y-13851512D02*
X11085577Y-13832465D01*
X11085577Y-13832465D02*
X11095101Y-13813417D01*
X11095101Y-13813417D02*
X11114148Y-13803893D01*
X11114148Y-13803893D02*
X11161767Y-13803893D01*
X11161767Y-13803893D02*
X11180815Y-13794369D01*
X11276053Y-13746750D02*
X11276053Y-13946750D01*
X11276053Y-13756274D02*
X11295101Y-13746750D01*
X11295101Y-13746750D02*
X11333196Y-13746750D01*
X11333196Y-13746750D02*
X11352243Y-13756274D01*
X11352243Y-13756274D02*
X11361767Y-13765798D01*
X11361767Y-13765798D02*
X11371291Y-13784846D01*
X11371291Y-13784846D02*
X11371291Y-13841988D01*
X11371291Y-13841988D02*
X11361767Y-13861036D01*
X11361767Y-13861036D02*
X11352243Y-13870560D01*
X11352243Y-13870560D02*
X11333196Y-13880084D01*
X11333196Y-13880084D02*
X11295101Y-13880084D01*
X11295101Y-13880084D02*
X11276053Y-13870560D01*
X11457005Y-13861036D02*
X11466529Y-13870560D01*
X11466529Y-13870560D02*
X11457005Y-13880084D01*
X11457005Y-13880084D02*
X11447482Y-13870560D01*
X11447482Y-13870560D02*
X11457005Y-13861036D01*
X11457005Y-13861036D02*
X11457005Y-13880084D01*
X11457005Y-13756274D02*
X11466529Y-13765798D01*
X11466529Y-13765798D02*
X11457005Y-13775322D01*
X11457005Y-13775322D02*
X11447482Y-13765798D01*
X11447482Y-13765798D02*
X11457005Y-13756274D01*
X11457005Y-13756274D02*
X11457005Y-13775322D01*
D10*
X9794800Y-14193600D02*
X9824800Y-14223600D01*
X9824800Y-14193600D02*
X9794800Y-14223600D01*
D11*
X10123672Y-14100084D02*
X10142720Y-14100084D01*
X10142720Y-14100084D02*
X10161767Y-14109608D01*
X10161767Y-14109608D02*
X10171291Y-14119131D01*
X10171291Y-14119131D02*
X10180815Y-14138179D01*
X10180815Y-14138179D02*
X10190339Y-14176274D01*
X10190339Y-14176274D02*
X10190339Y-14223893D01*
X10190339Y-14223893D02*
X10180815Y-14261988D01*
X10180815Y-14261988D02*
X10171291Y-14281036D01*
X10171291Y-14281036D02*
X10161767Y-14290560D01*
X10161767Y-14290560D02*
X10142720Y-14300084D01*
X10142720Y-14300084D02*
X10123672Y-14300084D01*
X10123672Y-14300084D02*
X10104624Y-14290560D01*
X10104624Y-14290560D02*
X10095101Y-14281036D01*
X10095101Y-14281036D02*
X10085577Y-14261988D01*
X10085577Y-14261988D02*
X10076053Y-14223893D01*
X10076053Y-14223893D02*
X10076053Y-14176274D01*
X10076053Y-14176274D02*
X10085577Y-14138179D01*
X10085577Y-14138179D02*
X10095101Y-14119131D01*
X10095101Y-14119131D02*
X10104624Y-14109608D01*
X10104624Y-14109608D02*
X10123672Y-14100084D01*
X10276053Y-14281036D02*
X10285577Y-14290560D01*
X10285577Y-14290560D02*
X10276053Y-14300084D01*
X10276053Y-14300084D02*
X10266529Y-14290560D01*
X10266529Y-14290560D02*
X10276053Y-14281036D01*
X10276053Y-14281036D02*
X10276053Y-14300084D01*
X10352244Y-14100084D02*
X10476053Y-14100084D01*
X10476053Y-14100084D02*
X10409386Y-14176274D01*
X10409386Y-14176274D02*
X10437958Y-14176274D01*
X10437958Y-14176274D02*
X10457005Y-14185798D01*
X10457005Y-14185798D02*
X10466529Y-14195322D01*
X10466529Y-14195322D02*
X10476053Y-14214369D01*
X10476053Y-14214369D02*
X10476053Y-14261988D01*
X10476053Y-14261988D02*
X10466529Y-14281036D01*
X10466529Y-14281036D02*
X10457005Y-14290560D01*
X10457005Y-14290560D02*
X10437958Y-14300084D01*
X10437958Y-14300084D02*
X10380815Y-14300084D01*
X10380815Y-14300084D02*
X10361767Y-14290560D01*
X10361767Y-14290560D02*
X10352244Y-14281036D01*
X10599863Y-14100084D02*
X10618910Y-14100084D01*
X10618910Y-14100084D02*
X10637958Y-14109608D01*
X10637958Y-14109608D02*
X10647482Y-14119131D01*
X10647482Y-14119131D02*
X10657005Y-14138179D01*
X10657005Y-14138179D02*
X10666529Y-14176274D01*
X10666529Y-14176274D02*
X10666529Y-14223893D01*
X10666529Y-14223893D02*
X10657005Y-14261988D01*
X10657005Y-14261988D02*
X10647482Y-14281036D01*
X10647482Y-14281036D02*
X10637958Y-14290560D01*
X10637958Y-14290560D02*
X10618910Y-14300084D01*
X10618910Y-14300084D02*
X10599863Y-14300084D01*
X10599863Y-14300084D02*
X10580815Y-14290560D01*
X10580815Y-14290560D02*
X10571291Y-14281036D01*
X10571291Y-14281036D02*
X10561767Y-14261988D01*
X10561767Y-14261988D02*
X10552244Y-14223893D01*
X10552244Y-14223893D02*
X10552244Y-14176274D01*
X10552244Y-14176274D02*
X10561767Y-14138179D01*
X10561767Y-14138179D02*
X10571291Y-14119131D01*
X10571291Y-14119131D02*
X10580815Y-14109608D01*
X10580815Y-14109608D02*
X10599863Y-14100084D01*
X10790339Y-14100084D02*
X10809386Y-14100084D01*
X10809386Y-14100084D02*
X10828434Y-14109608D01*
X10828434Y-14109608D02*
X10837958Y-14119131D01*
X10837958Y-14119131D02*
X10847482Y-14138179D01*
X10847482Y-14138179D02*
X10857005Y-14176274D01*
X10857005Y-14176274D02*
X10857005Y-14223893D01*
X10857005Y-14223893D02*
X10847482Y-14261988D01*
X10847482Y-14261988D02*
X10837958Y-14281036D01*
X10837958Y-14281036D02*
X10828434Y-14290560D01*
X10828434Y-14290560D02*
X10809386Y-14300084D01*
X10809386Y-14300084D02*
X10790339Y-14300084D01*
X10790339Y-14300084D02*
X10771291Y-14290560D01*
X10771291Y-14290560D02*
X10761767Y-14281036D01*
X10761767Y-14281036D02*
X10752244Y-14261988D01*
X10752244Y-14261988D02*
X10742720Y-14223893D01*
X10742720Y-14223893D02*
X10742720Y-14176274D01*
X10742720Y-14176274D02*
X10752244Y-14138179D01*
X10752244Y-14138179D02*
X10761767Y-14119131D01*
X10761767Y-14119131D02*
X10771291Y-14109608D01*
X10771291Y-14109608D02*
X10790339Y-14100084D01*
X10942720Y-14300084D02*
X10942720Y-14166750D01*
X10942720Y-14185798D02*
X10952244Y-14176274D01*
X10952244Y-14176274D02*
X10971291Y-14166750D01*
X10971291Y-14166750D02*
X10999863Y-14166750D01*
X10999863Y-14166750D02*
X11018910Y-14176274D01*
X11018910Y-14176274D02*
X11028434Y-14195322D01*
X11028434Y-14195322D02*
X11028434Y-14300084D01*
X11028434Y-14195322D02*
X11037958Y-14176274D01*
X11037958Y-14176274D02*
X11057005Y-14166750D01*
X11057005Y-14166750D02*
X11085577Y-14166750D01*
X11085577Y-14166750D02*
X11104625Y-14176274D01*
X11104625Y-14176274D02*
X11114148Y-14195322D01*
X11114148Y-14195322D02*
X11114148Y-14300084D01*
X11209386Y-14300084D02*
X11209386Y-14166750D01*
X11209386Y-14185798D02*
X11218910Y-14176274D01*
X11218910Y-14176274D02*
X11237958Y-14166750D01*
X11237958Y-14166750D02*
X11266529Y-14166750D01*
X11266529Y-14166750D02*
X11285577Y-14176274D01*
X11285577Y-14176274D02*
X11295101Y-14195322D01*
X11295101Y-14195322D02*
X11295101Y-14300084D01*
X11295101Y-14195322D02*
X11304624Y-14176274D01*
X11304624Y-14176274D02*
X11323672Y-14166750D01*
X11323672Y-14166750D02*
X11352243Y-14166750D01*
X11352243Y-14166750D02*
X11371291Y-14176274D01*
X11371291Y-14176274D02*
X11380815Y-14195322D01*
X11380815Y-14195322D02*
X11380815Y-14300084D01*
X11771291Y-14090560D02*
X11599863Y-14347703D01*
X12028434Y-14100084D02*
X12047482Y-14100084D01*
X12047482Y-14100084D02*
X12066529Y-14109608D01*
X12066529Y-14109608D02*
X12076053Y-14119131D01*
X12076053Y-14119131D02*
X12085577Y-14138179D01*
X12085577Y-14138179D02*
X12095101Y-14176274D01*
X12095101Y-14176274D02*
X12095101Y-14223893D01*
X12095101Y-14223893D02*
X12085577Y-14261988D01*
X12085577Y-14261988D02*
X12076053Y-14281036D01*
X12076053Y-14281036D02*
X12066529Y-14290560D01*
X12066529Y-14290560D02*
X12047482Y-14300084D01*
X12047482Y-14300084D02*
X12028434Y-14300084D01*
X12028434Y-14300084D02*
X12009386Y-14290560D01*
X12009386Y-14290560D02*
X11999863Y-14281036D01*
X11999863Y-14281036D02*
X11990339Y-14261988D01*
X11990339Y-14261988D02*
X11980815Y-14223893D01*
X11980815Y-14223893D02*
X11980815Y-14176274D01*
X11980815Y-14176274D02*
X11990339Y-14138179D01*
X11990339Y-14138179D02*
X11999863Y-14119131D01*
X11999863Y-14119131D02*
X12009386Y-14109608D01*
X12009386Y-14109608D02*
X12028434Y-14100084D01*
X12180815Y-14281036D02*
X12190339Y-14290560D01*
X12190339Y-14290560D02*
X12180815Y-14300084D01*
X12180815Y-14300084D02*
X12171291Y-14290560D01*
X12171291Y-14290560D02*
X12180815Y-14281036D01*
X12180815Y-14281036D02*
X12180815Y-14300084D01*
X12314148Y-14100084D02*
X12333196Y-14100084D01*
X12333196Y-14100084D02*
X12352244Y-14109608D01*
X12352244Y-14109608D02*
X12361767Y-14119131D01*
X12361767Y-14119131D02*
X12371291Y-14138179D01*
X12371291Y-14138179D02*
X12380815Y-14176274D01*
X12380815Y-14176274D02*
X12380815Y-14223893D01*
X12380815Y-14223893D02*
X12371291Y-14261988D01*
X12371291Y-14261988D02*
X12361767Y-14281036D01*
X12361767Y-14281036D02*
X12352244Y-14290560D01*
X12352244Y-14290560D02*
X12333196Y-14300084D01*
X12333196Y-14300084D02*
X12314148Y-14300084D01*
X12314148Y-14300084D02*
X12295101Y-14290560D01*
X12295101Y-14290560D02*
X12285577Y-14281036D01*
X12285577Y-14281036D02*
X12276053Y-14261988D01*
X12276053Y-14261988D02*
X12266529Y-14223893D01*
X12266529Y-14223893D02*
X12266529Y-14176274D01*
X12266529Y-14176274D02*
X12276053Y-14138179D01*
X12276053Y-14138179D02*
X12285577Y-14119131D01*
X12285577Y-14119131D02*
X12295101Y-14109608D01*
X12295101Y-14109608D02*
X12314148Y-14100084D01*
X12571291Y-14300084D02*
X12457006Y-14300084D01*
X12514148Y-14300084D02*
X12514148Y-14100084D01*
X12514148Y-14100084D02*
X12495101Y-14128655D01*
X12495101Y-14128655D02*
X12476053Y-14147703D01*
X12476053Y-14147703D02*
X12457006Y-14157227D01*
X12761767Y-14300084D02*
X12647482Y-14300084D01*
X12704625Y-14300084D02*
X12704625Y-14100084D01*
X12704625Y-14100084D02*
X12685577Y-14128655D01*
X12685577Y-14128655D02*
X12666529Y-14147703D01*
X12666529Y-14147703D02*
X12647482Y-14157227D01*
X12876053Y-14185798D02*
X12857006Y-14176274D01*
X12857006Y-14176274D02*
X12847482Y-14166750D01*
X12847482Y-14166750D02*
X12837958Y-14147703D01*
X12837958Y-14147703D02*
X12837958Y-14138179D01*
X12837958Y-14138179D02*
X12847482Y-14119131D01*
X12847482Y-14119131D02*
X12857006Y-14109608D01*
X12857006Y-14109608D02*
X12876053Y-14100084D01*
X12876053Y-14100084D02*
X12914148Y-14100084D01*
X12914148Y-14100084D02*
X12933196Y-14109608D01*
X12933196Y-14109608D02*
X12942720Y-14119131D01*
X12942720Y-14119131D02*
X12952244Y-14138179D01*
X12952244Y-14138179D02*
X12952244Y-14147703D01*
X12952244Y-14147703D02*
X12942720Y-14166750D01*
X12942720Y-14166750D02*
X12933196Y-14176274D01*
X12933196Y-14176274D02*
X12914148Y-14185798D01*
X12914148Y-14185798D02*
X12876053Y-14185798D01*
X12876053Y-14185798D02*
X12857006Y-14195322D01*
X12857006Y-14195322D02*
X12847482Y-14204846D01*
X12847482Y-14204846D02*
X12837958Y-14223893D01*
X12837958Y-14223893D02*
X12837958Y-14261988D01*
X12837958Y-14261988D02*
X12847482Y-14281036D01*
X12847482Y-14281036D02*
X12857006Y-14290560D01*
X12857006Y-14290560D02*
X12876053Y-14300084D01*
X12876053Y-14300084D02*
X12914148Y-14300084D01*
X12914148Y-14300084D02*
X12933196Y-14290560D01*
X12933196Y-14290560D02*
X12942720Y-14281036D01*
X12942720Y-14281036D02*
X12952244Y-14261988D01*
X12952244Y-14261988D02*
X12952244Y-14223893D01*
X12952244Y-14223893D02*
X12942720Y-14204846D01*
X12942720Y-14204846D02*
X12933196Y-14195322D01*
X12933196Y-14195322D02*
X12914148Y-14185798D01*
X13028434Y-14100084D02*
X13028434Y-14138179D01*
X13104625Y-14100084D02*
X13104625Y-14138179D01*
X13399863Y-14376274D02*
X13390339Y-14366750D01*
X13390339Y-14366750D02*
X13371291Y-14338179D01*
X13371291Y-14338179D02*
X13361768Y-14319131D01*
X13361768Y-14319131D02*
X13352244Y-14290560D01*
X13352244Y-14290560D02*
X13342720Y-14242941D01*
X13342720Y-14242941D02*
X13342720Y-14204846D01*
X13342720Y-14204846D02*
X13352244Y-14157227D01*
X13352244Y-14157227D02*
X13361768Y-14128655D01*
X13361768Y-14128655D02*
X13371291Y-14109608D01*
X13371291Y-14109608D02*
X13390339Y-14081036D01*
X13390339Y-14081036D02*
X13399863Y-14071512D01*
X13466529Y-14119131D02*
X13476053Y-14109608D01*
X13476053Y-14109608D02*
X13495101Y-14100084D01*
X13495101Y-14100084D02*
X13542720Y-14100084D01*
X13542720Y-14100084D02*
X13561768Y-14109608D01*
X13561768Y-14109608D02*
X13571291Y-14119131D01*
X13571291Y-14119131D02*
X13580815Y-14138179D01*
X13580815Y-14138179D02*
X13580815Y-14157227D01*
X13580815Y-14157227D02*
X13571291Y-14185798D01*
X13571291Y-14185798D02*
X13457006Y-14300084D01*
X13457006Y-14300084D02*
X13580815Y-14300084D01*
X13818910Y-14300084D02*
X13818910Y-14100084D01*
X13904625Y-14300084D02*
X13904625Y-14195322D01*
X13904625Y-14195322D02*
X13895101Y-14176274D01*
X13895101Y-14176274D02*
X13876053Y-14166750D01*
X13876053Y-14166750D02*
X13847482Y-14166750D01*
X13847482Y-14166750D02*
X13828434Y-14176274D01*
X13828434Y-14176274D02*
X13818910Y-14185798D01*
X14028434Y-14300084D02*
X14009387Y-14290560D01*
X14009387Y-14290560D02*
X13999863Y-14281036D01*
X13999863Y-14281036D02*
X13990339Y-14261988D01*
X13990339Y-14261988D02*
X13990339Y-14204846D01*
X13990339Y-14204846D02*
X13999863Y-14185798D01*
X13999863Y-14185798D02*
X14009387Y-14176274D01*
X14009387Y-14176274D02*
X14028434Y-14166750D01*
X14028434Y-14166750D02*
X14057006Y-14166750D01*
X14057006Y-14166750D02*
X14076053Y-14176274D01*
X14076053Y-14176274D02*
X14085577Y-14185798D01*
X14085577Y-14185798D02*
X14095101Y-14204846D01*
X14095101Y-14204846D02*
X14095101Y-14261988D01*
X14095101Y-14261988D02*
X14085577Y-14281036D01*
X14085577Y-14281036D02*
X14076053Y-14290560D01*
X14076053Y-14290560D02*
X14057006Y-14300084D01*
X14057006Y-14300084D02*
X14028434Y-14300084D01*
X14209387Y-14300084D02*
X14190339Y-14290560D01*
X14190339Y-14290560D02*
X14180815Y-14271512D01*
X14180815Y-14271512D02*
X14180815Y-14100084D01*
X14361768Y-14290560D02*
X14342720Y-14300084D01*
X14342720Y-14300084D02*
X14304625Y-14300084D01*
X14304625Y-14300084D02*
X14285577Y-14290560D01*
X14285577Y-14290560D02*
X14276053Y-14271512D01*
X14276053Y-14271512D02*
X14276053Y-14195322D01*
X14276053Y-14195322D02*
X14285577Y-14176274D01*
X14285577Y-14176274D02*
X14304625Y-14166750D01*
X14304625Y-14166750D02*
X14342720Y-14166750D01*
X14342720Y-14166750D02*
X14361768Y-14176274D01*
X14361768Y-14176274D02*
X14371291Y-14195322D01*
X14371291Y-14195322D02*
X14371291Y-14214369D01*
X14371291Y-14214369D02*
X14276053Y-14233417D01*
X14447482Y-14290560D02*
X14466530Y-14300084D01*
X14466530Y-14300084D02*
X14504625Y-14300084D01*
X14504625Y-14300084D02*
X14523672Y-14290560D01*
X14523672Y-14290560D02*
X14533196Y-14271512D01*
X14533196Y-14271512D02*
X14533196Y-14261988D01*
X14533196Y-14261988D02*
X14523672Y-14242941D01*
X14523672Y-14242941D02*
X14504625Y-14233417D01*
X14504625Y-14233417D02*
X14476053Y-14233417D01*
X14476053Y-14233417D02*
X14457006Y-14223893D01*
X14457006Y-14223893D02*
X14447482Y-14204846D01*
X14447482Y-14204846D02*
X14447482Y-14195322D01*
X14447482Y-14195322D02*
X14457006Y-14176274D01*
X14457006Y-14176274D02*
X14476053Y-14166750D01*
X14476053Y-14166750D02*
X14504625Y-14166750D01*
X14504625Y-14166750D02*
X14523672Y-14176274D01*
X14599863Y-14376274D02*
X14609387Y-14366750D01*
X14609387Y-14366750D02*
X14628434Y-14338179D01*
X14628434Y-14338179D02*
X14637958Y-14319131D01*
X14637958Y-14319131D02*
X14647482Y-14290560D01*
X14647482Y-14290560D02*
X14657006Y-14242941D01*
X14657006Y-14242941D02*
X14657006Y-14204846D01*
X14657006Y-14204846D02*
X14647482Y-14157227D01*
X14647482Y-14157227D02*
X14637958Y-14128655D01*
X14637958Y-14128655D02*
X14628434Y-14109608D01*
X14628434Y-14109608D02*
X14609387Y-14081036D01*
X14609387Y-14081036D02*
X14599863Y-14071512D01*
D10*
X9824800Y-14472600D02*
G75*
G03*
X9784800Y-14472600I-20000J0D01*
G01*
X9784800Y-14472600D02*
G75*
G03*
X9824800Y-14472600I20000J0D01*
G01*
D11*
X10123672Y-14364084D02*
X10142720Y-14364084D01*
X10142720Y-14364084D02*
X10161767Y-14373608D01*
X10161767Y-14373608D02*
X10171291Y-14383131D01*
X10171291Y-14383131D02*
X10180815Y-14402179D01*
X10180815Y-14402179D02*
X10190339Y-14440274D01*
X10190339Y-14440274D02*
X10190339Y-14487893D01*
X10190339Y-14487893D02*
X10180815Y-14525988D01*
X10180815Y-14525988D02*
X10171291Y-14545036D01*
X10171291Y-14545036D02*
X10161767Y-14554560D01*
X10161767Y-14554560D02*
X10142720Y-14564084D01*
X10142720Y-14564084D02*
X10123672Y-14564084D01*
X10123672Y-14564084D02*
X10104624Y-14554560D01*
X10104624Y-14554560D02*
X10095101Y-14545036D01*
X10095101Y-14545036D02*
X10085577Y-14525988D01*
X10085577Y-14525988D02*
X10076053Y-14487893D01*
X10076053Y-14487893D02*
X10076053Y-14440274D01*
X10076053Y-14440274D02*
X10085577Y-14402179D01*
X10085577Y-14402179D02*
X10095101Y-14383131D01*
X10095101Y-14383131D02*
X10104624Y-14373608D01*
X10104624Y-14373608D02*
X10123672Y-14364084D01*
X10276053Y-14545036D02*
X10285577Y-14554560D01*
X10285577Y-14554560D02*
X10276053Y-14564084D01*
X10276053Y-14564084D02*
X10266529Y-14554560D01*
X10266529Y-14554560D02*
X10276053Y-14545036D01*
X10276053Y-14545036D02*
X10276053Y-14564084D01*
X10457005Y-14430750D02*
X10457005Y-14564084D01*
X10409386Y-14354560D02*
X10361767Y-14497417D01*
X10361767Y-14497417D02*
X10485577Y-14497417D01*
X10599863Y-14364084D02*
X10618910Y-14364084D01*
X10618910Y-14364084D02*
X10637958Y-14373608D01*
X10637958Y-14373608D02*
X10647482Y-14383131D01*
X10647482Y-14383131D02*
X10657005Y-14402179D01*
X10657005Y-14402179D02*
X10666529Y-14440274D01*
X10666529Y-14440274D02*
X10666529Y-14487893D01*
X10666529Y-14487893D02*
X10657005Y-14525988D01*
X10657005Y-14525988D02*
X10647482Y-14545036D01*
X10647482Y-14545036D02*
X10637958Y-14554560D01*
X10637958Y-14554560D02*
X10618910Y-14564084D01*
X10618910Y-14564084D02*
X10599863Y-14564084D01*
X10599863Y-14564084D02*
X10580815Y-14554560D01*
X10580815Y-14554560D02*
X10571291Y-14545036D01*
X10571291Y-14545036D02*
X10561767Y-14525988D01*
X10561767Y-14525988D02*
X10552244Y-14487893D01*
X10552244Y-14487893D02*
X10552244Y-14440274D01*
X10552244Y-14440274D02*
X10561767Y-14402179D01*
X10561767Y-14402179D02*
X10571291Y-14383131D01*
X10571291Y-14383131D02*
X10580815Y-14373608D01*
X10580815Y-14373608D02*
X10599863Y-14364084D01*
X10790339Y-14364084D02*
X10809386Y-14364084D01*
X10809386Y-14364084D02*
X10828434Y-14373608D01*
X10828434Y-14373608D02*
X10837958Y-14383131D01*
X10837958Y-14383131D02*
X10847482Y-14402179D01*
X10847482Y-14402179D02*
X10857005Y-14440274D01*
X10857005Y-14440274D02*
X10857005Y-14487893D01*
X10857005Y-14487893D02*
X10847482Y-14525988D01*
X10847482Y-14525988D02*
X10837958Y-14545036D01*
X10837958Y-14545036D02*
X10828434Y-14554560D01*
X10828434Y-14554560D02*
X10809386Y-14564084D01*
X10809386Y-14564084D02*
X10790339Y-14564084D01*
X10790339Y-14564084D02*
X10771291Y-14554560D01*
X10771291Y-14554560D02*
X10761767Y-14545036D01*
X10761767Y-14545036D02*
X10752244Y-14525988D01*
X10752244Y-14525988D02*
X10742720Y-14487893D01*
X10742720Y-14487893D02*
X10742720Y-14440274D01*
X10742720Y-14440274D02*
X10752244Y-14402179D01*
X10752244Y-14402179D02*
X10761767Y-14383131D01*
X10761767Y-14383131D02*
X10771291Y-14373608D01*
X10771291Y-14373608D02*
X10790339Y-14364084D01*
X10942720Y-14564084D02*
X10942720Y-14430750D01*
X10942720Y-14449798D02*
X10952244Y-14440274D01*
X10952244Y-14440274D02*
X10971291Y-14430750D01*
X10971291Y-14430750D02*
X10999863Y-14430750D01*
X10999863Y-14430750D02*
X11018910Y-14440274D01*
X11018910Y-14440274D02*
X11028434Y-14459322D01*
X11028434Y-14459322D02*
X11028434Y-14564084D01*
X11028434Y-14459322D02*
X11037958Y-14440274D01*
X11037958Y-14440274D02*
X11057005Y-14430750D01*
X11057005Y-14430750D02*
X11085577Y-14430750D01*
X11085577Y-14430750D02*
X11104625Y-14440274D01*
X11104625Y-14440274D02*
X11114148Y-14459322D01*
X11114148Y-14459322D02*
X11114148Y-14564084D01*
X11209386Y-14564084D02*
X11209386Y-14430750D01*
X11209386Y-14449798D02*
X11218910Y-14440274D01*
X11218910Y-14440274D02*
X11237958Y-14430750D01*
X11237958Y-14430750D02*
X11266529Y-14430750D01*
X11266529Y-14430750D02*
X11285577Y-14440274D01*
X11285577Y-14440274D02*
X11295101Y-14459322D01*
X11295101Y-14459322D02*
X11295101Y-14564084D01*
X11295101Y-14459322D02*
X11304624Y-14440274D01*
X11304624Y-14440274D02*
X11323672Y-14430750D01*
X11323672Y-14430750D02*
X11352243Y-14430750D01*
X11352243Y-14430750D02*
X11371291Y-14440274D01*
X11371291Y-14440274D02*
X11380815Y-14459322D01*
X11380815Y-14459322D02*
X11380815Y-14564084D01*
X11771291Y-14354560D02*
X11599863Y-14611703D01*
X12028434Y-14364084D02*
X12047482Y-14364084D01*
X12047482Y-14364084D02*
X12066529Y-14373608D01*
X12066529Y-14373608D02*
X12076053Y-14383131D01*
X12076053Y-14383131D02*
X12085577Y-14402179D01*
X12085577Y-14402179D02*
X12095101Y-14440274D01*
X12095101Y-14440274D02*
X12095101Y-14487893D01*
X12095101Y-14487893D02*
X12085577Y-14525988D01*
X12085577Y-14525988D02*
X12076053Y-14545036D01*
X12076053Y-14545036D02*
X12066529Y-14554560D01*
X12066529Y-14554560D02*
X12047482Y-14564084D01*
X12047482Y-14564084D02*
X12028434Y-14564084D01*
X12028434Y-14564084D02*
X12009386Y-14554560D01*
X12009386Y-14554560D02*
X11999863Y-14545036D01*
X11999863Y-14545036D02*
X11990339Y-14525988D01*
X11990339Y-14525988D02*
X11980815Y-14487893D01*
X11980815Y-14487893D02*
X11980815Y-14440274D01*
X11980815Y-14440274D02*
X11990339Y-14402179D01*
X11990339Y-14402179D02*
X11999863Y-14383131D01*
X11999863Y-14383131D02*
X12009386Y-14373608D01*
X12009386Y-14373608D02*
X12028434Y-14364084D01*
X12180815Y-14545036D02*
X12190339Y-14554560D01*
X12190339Y-14554560D02*
X12180815Y-14564084D01*
X12180815Y-14564084D02*
X12171291Y-14554560D01*
X12171291Y-14554560D02*
X12180815Y-14545036D01*
X12180815Y-14545036D02*
X12180815Y-14564084D01*
X12314148Y-14364084D02*
X12333196Y-14364084D01*
X12333196Y-14364084D02*
X12352244Y-14373608D01*
X12352244Y-14373608D02*
X12361767Y-14383131D01*
X12361767Y-14383131D02*
X12371291Y-14402179D01*
X12371291Y-14402179D02*
X12380815Y-14440274D01*
X12380815Y-14440274D02*
X12380815Y-14487893D01*
X12380815Y-14487893D02*
X12371291Y-14525988D01*
X12371291Y-14525988D02*
X12361767Y-14545036D01*
X12361767Y-14545036D02*
X12352244Y-14554560D01*
X12352244Y-14554560D02*
X12333196Y-14564084D01*
X12333196Y-14564084D02*
X12314148Y-14564084D01*
X12314148Y-14564084D02*
X12295101Y-14554560D01*
X12295101Y-14554560D02*
X12285577Y-14545036D01*
X12285577Y-14545036D02*
X12276053Y-14525988D01*
X12276053Y-14525988D02*
X12266529Y-14487893D01*
X12266529Y-14487893D02*
X12266529Y-14440274D01*
X12266529Y-14440274D02*
X12276053Y-14402179D01*
X12276053Y-14402179D02*
X12285577Y-14383131D01*
X12285577Y-14383131D02*
X12295101Y-14373608D01*
X12295101Y-14373608D02*
X12314148Y-14364084D01*
X12571291Y-14564084D02*
X12457006Y-14564084D01*
X12514148Y-14564084D02*
X12514148Y-14364084D01*
X12514148Y-14364084D02*
X12495101Y-14392655D01*
X12495101Y-14392655D02*
X12476053Y-14411703D01*
X12476053Y-14411703D02*
X12457006Y-14421227D01*
X12752244Y-14364084D02*
X12657006Y-14364084D01*
X12657006Y-14364084D02*
X12647482Y-14459322D01*
X12647482Y-14459322D02*
X12657006Y-14449798D01*
X12657006Y-14449798D02*
X12676053Y-14440274D01*
X12676053Y-14440274D02*
X12723672Y-14440274D01*
X12723672Y-14440274D02*
X12742720Y-14449798D01*
X12742720Y-14449798D02*
X12752244Y-14459322D01*
X12752244Y-14459322D02*
X12761767Y-14478369D01*
X12761767Y-14478369D02*
X12761767Y-14525988D01*
X12761767Y-14525988D02*
X12752244Y-14545036D01*
X12752244Y-14545036D02*
X12742720Y-14554560D01*
X12742720Y-14554560D02*
X12723672Y-14564084D01*
X12723672Y-14564084D02*
X12676053Y-14564084D01*
X12676053Y-14564084D02*
X12657006Y-14554560D01*
X12657006Y-14554560D02*
X12647482Y-14545036D01*
X12828434Y-14364084D02*
X12961767Y-14364084D01*
X12961767Y-14364084D02*
X12876053Y-14564084D01*
X13028434Y-14364084D02*
X13028434Y-14402179D01*
X13104625Y-14364084D02*
X13104625Y-14402179D01*
X13399863Y-14640274D02*
X13390339Y-14630750D01*
X13390339Y-14630750D02*
X13371291Y-14602179D01*
X13371291Y-14602179D02*
X13361768Y-14583131D01*
X13361768Y-14583131D02*
X13352244Y-14554560D01*
X13352244Y-14554560D02*
X13342720Y-14506941D01*
X13342720Y-14506941D02*
X13342720Y-14468846D01*
X13342720Y-14468846D02*
X13352244Y-14421227D01*
X13352244Y-14421227D02*
X13361768Y-14392655D01*
X13361768Y-14392655D02*
X13371291Y-14373608D01*
X13371291Y-14373608D02*
X13390339Y-14345036D01*
X13390339Y-14345036D02*
X13399863Y-14335512D01*
X13561768Y-14430750D02*
X13561768Y-14564084D01*
X13514148Y-14354560D02*
X13466529Y-14497417D01*
X13466529Y-14497417D02*
X13590339Y-14497417D01*
X13818910Y-14564084D02*
X13818910Y-14364084D01*
X13904625Y-14564084D02*
X13904625Y-14459322D01*
X13904625Y-14459322D02*
X13895101Y-14440274D01*
X13895101Y-14440274D02*
X13876053Y-14430750D01*
X13876053Y-14430750D02*
X13847482Y-14430750D01*
X13847482Y-14430750D02*
X13828434Y-14440274D01*
X13828434Y-14440274D02*
X13818910Y-14449798D01*
X14028434Y-14564084D02*
X14009387Y-14554560D01*
X14009387Y-14554560D02*
X13999863Y-14545036D01*
X13999863Y-14545036D02*
X13990339Y-14525988D01*
X13990339Y-14525988D02*
X13990339Y-14468846D01*
X13990339Y-14468846D02*
X13999863Y-14449798D01*
X13999863Y-14449798D02*
X14009387Y-14440274D01*
X14009387Y-14440274D02*
X14028434Y-14430750D01*
X14028434Y-14430750D02*
X14057006Y-14430750D01*
X14057006Y-14430750D02*
X14076053Y-14440274D01*
X14076053Y-14440274D02*
X14085577Y-14449798D01*
X14085577Y-14449798D02*
X14095101Y-14468846D01*
X14095101Y-14468846D02*
X14095101Y-14525988D01*
X14095101Y-14525988D02*
X14085577Y-14545036D01*
X14085577Y-14545036D02*
X14076053Y-14554560D01*
X14076053Y-14554560D02*
X14057006Y-14564084D01*
X14057006Y-14564084D02*
X14028434Y-14564084D01*
X14209387Y-14564084D02*
X14190339Y-14554560D01*
X14190339Y-14554560D02*
X14180815Y-14535512D01*
X14180815Y-14535512D02*
X14180815Y-14364084D01*
X14361768Y-14554560D02*
X14342720Y-14564084D01*
X14342720Y-14564084D02*
X14304625Y-14564084D01*
X14304625Y-14564084D02*
X14285577Y-14554560D01*
X14285577Y-14554560D02*
X14276053Y-14535512D01*
X14276053Y-14535512D02*
X14276053Y-14459322D01*
X14276053Y-14459322D02*
X14285577Y-14440274D01*
X14285577Y-14440274D02*
X14304625Y-14430750D01*
X14304625Y-14430750D02*
X14342720Y-14430750D01*
X14342720Y-14430750D02*
X14361768Y-14440274D01*
X14361768Y-14440274D02*
X14371291Y-14459322D01*
X14371291Y-14459322D02*
X14371291Y-14478369D01*
X14371291Y-14478369D02*
X14276053Y-14497417D01*
X14447482Y-14554560D02*
X14466530Y-14564084D01*
X14466530Y-14564084D02*
X14504625Y-14564084D01*
X14504625Y-14564084D02*
X14523672Y-14554560D01*
X14523672Y-14554560D02*
X14533196Y-14535512D01*
X14533196Y-14535512D02*
X14533196Y-14525988D01*
X14533196Y-14525988D02*
X14523672Y-14506941D01*
X14523672Y-14506941D02*
X14504625Y-14497417D01*
X14504625Y-14497417D02*
X14476053Y-14497417D01*
X14476053Y-14497417D02*
X14457006Y-14487893D01*
X14457006Y-14487893D02*
X14447482Y-14468846D01*
X14447482Y-14468846D02*
X14447482Y-14459322D01*
X14447482Y-14459322D02*
X14457006Y-14440274D01*
X14457006Y-14440274D02*
X14476053Y-14430750D01*
X14476053Y-14430750D02*
X14504625Y-14430750D01*
X14504625Y-14430750D02*
X14523672Y-14440274D01*
X14599863Y-14640274D02*
X14609387Y-14630750D01*
X14609387Y-14630750D02*
X14628434Y-14602179D01*
X14628434Y-14602179D02*
X14637958Y-14583131D01*
X14637958Y-14583131D02*
X14647482Y-14554560D01*
X14647482Y-14554560D02*
X14657006Y-14506941D01*
X14657006Y-14506941D02*
X14657006Y-14468846D01*
X14657006Y-14468846D02*
X14647482Y-14421227D01*
X14647482Y-14421227D02*
X14637958Y-14392655D01*
X14637958Y-14392655D02*
X14628434Y-14373608D01*
X14628434Y-14373608D02*
X14609387Y-14345036D01*
X14609387Y-14345036D02*
X14599863Y-14335512D01*
D10*
X9794800Y-14706600D02*
X9794800Y-14766600D01*
X9764800Y-14736600D02*
X9824800Y-14736600D01*
D11*
X10123672Y-14628084D02*
X10142720Y-14628084D01*
X10142720Y-14628084D02*
X10161767Y-14637608D01*
X10161767Y-14637608D02*
X10171291Y-14647131D01*
X10171291Y-14647131D02*
X10180815Y-14666179D01*
X10180815Y-14666179D02*
X10190339Y-14704274D01*
X10190339Y-14704274D02*
X10190339Y-14751893D01*
X10190339Y-14751893D02*
X10180815Y-14789988D01*
X10180815Y-14789988D02*
X10171291Y-14809036D01*
X10171291Y-14809036D02*
X10161767Y-14818560D01*
X10161767Y-14818560D02*
X10142720Y-14828084D01*
X10142720Y-14828084D02*
X10123672Y-14828084D01*
X10123672Y-14828084D02*
X10104624Y-14818560D01*
X10104624Y-14818560D02*
X10095101Y-14809036D01*
X10095101Y-14809036D02*
X10085577Y-14789988D01*
X10085577Y-14789988D02*
X10076053Y-14751893D01*
X10076053Y-14751893D02*
X10076053Y-14704274D01*
X10076053Y-14704274D02*
X10085577Y-14666179D01*
X10085577Y-14666179D02*
X10095101Y-14647131D01*
X10095101Y-14647131D02*
X10104624Y-14637608D01*
X10104624Y-14637608D02*
X10123672Y-14628084D01*
X10276053Y-14809036D02*
X10285577Y-14818560D01*
X10285577Y-14818560D02*
X10276053Y-14828084D01*
X10276053Y-14828084D02*
X10266529Y-14818560D01*
X10266529Y-14818560D02*
X10276053Y-14809036D01*
X10276053Y-14809036D02*
X10276053Y-14828084D01*
X10457005Y-14628084D02*
X10418910Y-14628084D01*
X10418910Y-14628084D02*
X10399863Y-14637608D01*
X10399863Y-14637608D02*
X10390339Y-14647131D01*
X10390339Y-14647131D02*
X10371291Y-14675703D01*
X10371291Y-14675703D02*
X10361767Y-14713798D01*
X10361767Y-14713798D02*
X10361767Y-14789988D01*
X10361767Y-14789988D02*
X10371291Y-14809036D01*
X10371291Y-14809036D02*
X10380815Y-14818560D01*
X10380815Y-14818560D02*
X10399863Y-14828084D01*
X10399863Y-14828084D02*
X10437958Y-14828084D01*
X10437958Y-14828084D02*
X10457005Y-14818560D01*
X10457005Y-14818560D02*
X10466529Y-14809036D01*
X10466529Y-14809036D02*
X10476053Y-14789988D01*
X10476053Y-14789988D02*
X10476053Y-14742369D01*
X10476053Y-14742369D02*
X10466529Y-14723322D01*
X10466529Y-14723322D02*
X10457005Y-14713798D01*
X10457005Y-14713798D02*
X10437958Y-14704274D01*
X10437958Y-14704274D02*
X10399863Y-14704274D01*
X10399863Y-14704274D02*
X10380815Y-14713798D01*
X10380815Y-14713798D02*
X10371291Y-14723322D01*
X10371291Y-14723322D02*
X10361767Y-14742369D01*
X10599863Y-14628084D02*
X10618910Y-14628084D01*
X10618910Y-14628084D02*
X10637958Y-14637608D01*
X10637958Y-14637608D02*
X10647482Y-14647131D01*
X10647482Y-14647131D02*
X10657005Y-14666179D01*
X10657005Y-14666179D02*
X10666529Y-14704274D01*
X10666529Y-14704274D02*
X10666529Y-14751893D01*
X10666529Y-14751893D02*
X10657005Y-14789988D01*
X10657005Y-14789988D02*
X10647482Y-14809036D01*
X10647482Y-14809036D02*
X10637958Y-14818560D01*
X10637958Y-14818560D02*
X10618910Y-14828084D01*
X10618910Y-14828084D02*
X10599863Y-14828084D01*
X10599863Y-14828084D02*
X10580815Y-14818560D01*
X10580815Y-14818560D02*
X10571291Y-14809036D01*
X10571291Y-14809036D02*
X10561767Y-14789988D01*
X10561767Y-14789988D02*
X10552244Y-14751893D01*
X10552244Y-14751893D02*
X10552244Y-14704274D01*
X10552244Y-14704274D02*
X10561767Y-14666179D01*
X10561767Y-14666179D02*
X10571291Y-14647131D01*
X10571291Y-14647131D02*
X10580815Y-14637608D01*
X10580815Y-14637608D02*
X10599863Y-14628084D01*
X10790339Y-14628084D02*
X10809386Y-14628084D01*
X10809386Y-14628084D02*
X10828434Y-14637608D01*
X10828434Y-14637608D02*
X10837958Y-14647131D01*
X10837958Y-14647131D02*
X10847482Y-14666179D01*
X10847482Y-14666179D02*
X10857005Y-14704274D01*
X10857005Y-14704274D02*
X10857005Y-14751893D01*
X10857005Y-14751893D02*
X10847482Y-14789988D01*
X10847482Y-14789988D02*
X10837958Y-14809036D01*
X10837958Y-14809036D02*
X10828434Y-14818560D01*
X10828434Y-14818560D02*
X10809386Y-14828084D01*
X10809386Y-14828084D02*
X10790339Y-14828084D01*
X10790339Y-14828084D02*
X10771291Y-14818560D01*
X10771291Y-14818560D02*
X10761767Y-14809036D01*
X10761767Y-14809036D02*
X10752244Y-14789988D01*
X10752244Y-14789988D02*
X10742720Y-14751893D01*
X10742720Y-14751893D02*
X10742720Y-14704274D01*
X10742720Y-14704274D02*
X10752244Y-14666179D01*
X10752244Y-14666179D02*
X10761767Y-14647131D01*
X10761767Y-14647131D02*
X10771291Y-14637608D01*
X10771291Y-14637608D02*
X10790339Y-14628084D01*
X10942720Y-14828084D02*
X10942720Y-14694750D01*
X10942720Y-14713798D02*
X10952244Y-14704274D01*
X10952244Y-14704274D02*
X10971291Y-14694750D01*
X10971291Y-14694750D02*
X10999863Y-14694750D01*
X10999863Y-14694750D02*
X11018910Y-14704274D01*
X11018910Y-14704274D02*
X11028434Y-14723322D01*
X11028434Y-14723322D02*
X11028434Y-14828084D01*
X11028434Y-14723322D02*
X11037958Y-14704274D01*
X11037958Y-14704274D02*
X11057005Y-14694750D01*
X11057005Y-14694750D02*
X11085577Y-14694750D01*
X11085577Y-14694750D02*
X11104625Y-14704274D01*
X11104625Y-14704274D02*
X11114148Y-14723322D01*
X11114148Y-14723322D02*
X11114148Y-14828084D01*
X11209386Y-14828084D02*
X11209386Y-14694750D01*
X11209386Y-14713798D02*
X11218910Y-14704274D01*
X11218910Y-14704274D02*
X11237958Y-14694750D01*
X11237958Y-14694750D02*
X11266529Y-14694750D01*
X11266529Y-14694750D02*
X11285577Y-14704274D01*
X11285577Y-14704274D02*
X11295101Y-14723322D01*
X11295101Y-14723322D02*
X11295101Y-14828084D01*
X11295101Y-14723322D02*
X11304624Y-14704274D01*
X11304624Y-14704274D02*
X11323672Y-14694750D01*
X11323672Y-14694750D02*
X11352243Y-14694750D01*
X11352243Y-14694750D02*
X11371291Y-14704274D01*
X11371291Y-14704274D02*
X11380815Y-14723322D01*
X11380815Y-14723322D02*
X11380815Y-14828084D01*
X11771291Y-14618560D02*
X11599863Y-14875703D01*
X12028434Y-14628084D02*
X12047482Y-14628084D01*
X12047482Y-14628084D02*
X12066529Y-14637608D01*
X12066529Y-14637608D02*
X12076053Y-14647131D01*
X12076053Y-14647131D02*
X12085577Y-14666179D01*
X12085577Y-14666179D02*
X12095101Y-14704274D01*
X12095101Y-14704274D02*
X12095101Y-14751893D01*
X12095101Y-14751893D02*
X12085577Y-14789988D01*
X12085577Y-14789988D02*
X12076053Y-14809036D01*
X12076053Y-14809036D02*
X12066529Y-14818560D01*
X12066529Y-14818560D02*
X12047482Y-14828084D01*
X12047482Y-14828084D02*
X12028434Y-14828084D01*
X12028434Y-14828084D02*
X12009386Y-14818560D01*
X12009386Y-14818560D02*
X11999863Y-14809036D01*
X11999863Y-14809036D02*
X11990339Y-14789988D01*
X11990339Y-14789988D02*
X11980815Y-14751893D01*
X11980815Y-14751893D02*
X11980815Y-14704274D01*
X11980815Y-14704274D02*
X11990339Y-14666179D01*
X11990339Y-14666179D02*
X11999863Y-14647131D01*
X11999863Y-14647131D02*
X12009386Y-14637608D01*
X12009386Y-14637608D02*
X12028434Y-14628084D01*
X12180815Y-14809036D02*
X12190339Y-14818560D01*
X12190339Y-14818560D02*
X12180815Y-14828084D01*
X12180815Y-14828084D02*
X12171291Y-14818560D01*
X12171291Y-14818560D02*
X12180815Y-14809036D01*
X12180815Y-14809036D02*
X12180815Y-14828084D01*
X12314148Y-14628084D02*
X12333196Y-14628084D01*
X12333196Y-14628084D02*
X12352244Y-14637608D01*
X12352244Y-14637608D02*
X12361767Y-14647131D01*
X12361767Y-14647131D02*
X12371291Y-14666179D01*
X12371291Y-14666179D02*
X12380815Y-14704274D01*
X12380815Y-14704274D02*
X12380815Y-14751893D01*
X12380815Y-14751893D02*
X12371291Y-14789988D01*
X12371291Y-14789988D02*
X12361767Y-14809036D01*
X12361767Y-14809036D02*
X12352244Y-14818560D01*
X12352244Y-14818560D02*
X12333196Y-14828084D01*
X12333196Y-14828084D02*
X12314148Y-14828084D01*
X12314148Y-14828084D02*
X12295101Y-14818560D01*
X12295101Y-14818560D02*
X12285577Y-14809036D01*
X12285577Y-14809036D02*
X12276053Y-14789988D01*
X12276053Y-14789988D02*
X12266529Y-14751893D01*
X12266529Y-14751893D02*
X12266529Y-14704274D01*
X12266529Y-14704274D02*
X12276053Y-14666179D01*
X12276053Y-14666179D02*
X12285577Y-14647131D01*
X12285577Y-14647131D02*
X12295101Y-14637608D01*
X12295101Y-14637608D02*
X12314148Y-14628084D01*
X12457006Y-14647131D02*
X12466529Y-14637608D01*
X12466529Y-14637608D02*
X12485577Y-14628084D01*
X12485577Y-14628084D02*
X12533196Y-14628084D01*
X12533196Y-14628084D02*
X12552244Y-14637608D01*
X12552244Y-14637608D02*
X12561767Y-14647131D01*
X12561767Y-14647131D02*
X12571291Y-14666179D01*
X12571291Y-14666179D02*
X12571291Y-14685227D01*
X12571291Y-14685227D02*
X12561767Y-14713798D01*
X12561767Y-14713798D02*
X12447482Y-14828084D01*
X12447482Y-14828084D02*
X12571291Y-14828084D01*
X12637958Y-14628084D02*
X12761767Y-14628084D01*
X12761767Y-14628084D02*
X12695101Y-14704274D01*
X12695101Y-14704274D02*
X12723672Y-14704274D01*
X12723672Y-14704274D02*
X12742720Y-14713798D01*
X12742720Y-14713798D02*
X12752244Y-14723322D01*
X12752244Y-14723322D02*
X12761767Y-14742369D01*
X12761767Y-14742369D02*
X12761767Y-14789988D01*
X12761767Y-14789988D02*
X12752244Y-14809036D01*
X12752244Y-14809036D02*
X12742720Y-14818560D01*
X12742720Y-14818560D02*
X12723672Y-14828084D01*
X12723672Y-14828084D02*
X12666529Y-14828084D01*
X12666529Y-14828084D02*
X12647482Y-14818560D01*
X12647482Y-14818560D02*
X12637958Y-14809036D01*
X12933196Y-14628084D02*
X12895101Y-14628084D01*
X12895101Y-14628084D02*
X12876053Y-14637608D01*
X12876053Y-14637608D02*
X12866529Y-14647131D01*
X12866529Y-14647131D02*
X12847482Y-14675703D01*
X12847482Y-14675703D02*
X12837958Y-14713798D01*
X12837958Y-14713798D02*
X12837958Y-14789988D01*
X12837958Y-14789988D02*
X12847482Y-14809036D01*
X12847482Y-14809036D02*
X12857006Y-14818560D01*
X12857006Y-14818560D02*
X12876053Y-14828084D01*
X12876053Y-14828084D02*
X12914148Y-14828084D01*
X12914148Y-14828084D02*
X12933196Y-14818560D01*
X12933196Y-14818560D02*
X12942720Y-14809036D01*
X12942720Y-14809036D02*
X12952244Y-14789988D01*
X12952244Y-14789988D02*
X12952244Y-14742369D01*
X12952244Y-14742369D02*
X12942720Y-14723322D01*
X12942720Y-14723322D02*
X12933196Y-14713798D01*
X12933196Y-14713798D02*
X12914148Y-14704274D01*
X12914148Y-14704274D02*
X12876053Y-14704274D01*
X12876053Y-14704274D02*
X12857006Y-14713798D01*
X12857006Y-14713798D02*
X12847482Y-14723322D01*
X12847482Y-14723322D02*
X12837958Y-14742369D01*
X13028434Y-14628084D02*
X13028434Y-14666179D01*
X13104625Y-14628084D02*
X13104625Y-14666179D01*
X13399863Y-14904274D02*
X13390339Y-14894750D01*
X13390339Y-14894750D02*
X13371291Y-14866179D01*
X13371291Y-14866179D02*
X13361768Y-14847131D01*
X13361768Y-14847131D02*
X13352244Y-14818560D01*
X13352244Y-14818560D02*
X13342720Y-14770941D01*
X13342720Y-14770941D02*
X13342720Y-14732846D01*
X13342720Y-14732846D02*
X13352244Y-14685227D01*
X13352244Y-14685227D02*
X13361768Y-14656655D01*
X13361768Y-14656655D02*
X13371291Y-14637608D01*
X13371291Y-14637608D02*
X13390339Y-14609036D01*
X13390339Y-14609036D02*
X13399863Y-14599512D01*
X13514148Y-14628084D02*
X13533196Y-14628084D01*
X13533196Y-14628084D02*
X13552244Y-14637608D01*
X13552244Y-14637608D02*
X13561768Y-14647131D01*
X13561768Y-14647131D02*
X13571291Y-14666179D01*
X13571291Y-14666179D02*
X13580815Y-14704274D01*
X13580815Y-14704274D02*
X13580815Y-14751893D01*
X13580815Y-14751893D02*
X13571291Y-14789988D01*
X13571291Y-14789988D02*
X13561768Y-14809036D01*
X13561768Y-14809036D02*
X13552244Y-14818560D01*
X13552244Y-14818560D02*
X13533196Y-14828084D01*
X13533196Y-14828084D02*
X13514148Y-14828084D01*
X13514148Y-14828084D02*
X13495101Y-14818560D01*
X13495101Y-14818560D02*
X13485577Y-14809036D01*
X13485577Y-14809036D02*
X13476053Y-14789988D01*
X13476053Y-14789988D02*
X13466529Y-14751893D01*
X13466529Y-14751893D02*
X13466529Y-14704274D01*
X13466529Y-14704274D02*
X13476053Y-14666179D01*
X13476053Y-14666179D02*
X13485577Y-14647131D01*
X13485577Y-14647131D02*
X13495101Y-14637608D01*
X13495101Y-14637608D02*
X13514148Y-14628084D01*
X13818910Y-14828084D02*
X13818910Y-14628084D01*
X13904625Y-14828084D02*
X13904625Y-14723322D01*
X13904625Y-14723322D02*
X13895101Y-14704274D01*
X13895101Y-14704274D02*
X13876053Y-14694750D01*
X13876053Y-14694750D02*
X13847482Y-14694750D01*
X13847482Y-14694750D02*
X13828434Y-14704274D01*
X13828434Y-14704274D02*
X13818910Y-14713798D01*
X14028434Y-14828084D02*
X14009387Y-14818560D01*
X14009387Y-14818560D02*
X13999863Y-14809036D01*
X13999863Y-14809036D02*
X13990339Y-14789988D01*
X13990339Y-14789988D02*
X13990339Y-14732846D01*
X13990339Y-14732846D02*
X13999863Y-14713798D01*
X13999863Y-14713798D02*
X14009387Y-14704274D01*
X14009387Y-14704274D02*
X14028434Y-14694750D01*
X14028434Y-14694750D02*
X14057006Y-14694750D01*
X14057006Y-14694750D02*
X14076053Y-14704274D01*
X14076053Y-14704274D02*
X14085577Y-14713798D01*
X14085577Y-14713798D02*
X14095101Y-14732846D01*
X14095101Y-14732846D02*
X14095101Y-14789988D01*
X14095101Y-14789988D02*
X14085577Y-14809036D01*
X14085577Y-14809036D02*
X14076053Y-14818560D01*
X14076053Y-14818560D02*
X14057006Y-14828084D01*
X14057006Y-14828084D02*
X14028434Y-14828084D01*
X14209387Y-14828084D02*
X14190339Y-14818560D01*
X14190339Y-14818560D02*
X14180815Y-14799512D01*
X14180815Y-14799512D02*
X14180815Y-14628084D01*
X14361768Y-14818560D02*
X14342720Y-14828084D01*
X14342720Y-14828084D02*
X14304625Y-14828084D01*
X14304625Y-14828084D02*
X14285577Y-14818560D01*
X14285577Y-14818560D02*
X14276053Y-14799512D01*
X14276053Y-14799512D02*
X14276053Y-14723322D01*
X14276053Y-14723322D02*
X14285577Y-14704274D01*
X14285577Y-14704274D02*
X14304625Y-14694750D01*
X14304625Y-14694750D02*
X14342720Y-14694750D01*
X14342720Y-14694750D02*
X14361768Y-14704274D01*
X14361768Y-14704274D02*
X14371291Y-14723322D01*
X14371291Y-14723322D02*
X14371291Y-14742369D01*
X14371291Y-14742369D02*
X14276053Y-14761417D01*
X14447482Y-14818560D02*
X14466530Y-14828084D01*
X14466530Y-14828084D02*
X14504625Y-14828084D01*
X14504625Y-14828084D02*
X14523672Y-14818560D01*
X14523672Y-14818560D02*
X14533196Y-14799512D01*
X14533196Y-14799512D02*
X14533196Y-14789988D01*
X14533196Y-14789988D02*
X14523672Y-14770941D01*
X14523672Y-14770941D02*
X14504625Y-14761417D01*
X14504625Y-14761417D02*
X14476053Y-14761417D01*
X14476053Y-14761417D02*
X14457006Y-14751893D01*
X14457006Y-14751893D02*
X14447482Y-14732846D01*
X14447482Y-14732846D02*
X14447482Y-14723322D01*
X14447482Y-14723322D02*
X14457006Y-14704274D01*
X14457006Y-14704274D02*
X14476053Y-14694750D01*
X14476053Y-14694750D02*
X14504625Y-14694750D01*
X14504625Y-14694750D02*
X14523672Y-14704274D01*
X14771292Y-14751893D02*
X14923673Y-14751893D01*
X14847482Y-14828084D02*
X14847482Y-14675703D01*
X15257006Y-14694750D02*
X15257006Y-14828084D01*
X15209387Y-14618560D02*
X15161768Y-14761417D01*
X15161768Y-14761417D02*
X15285577Y-14761417D01*
X15504625Y-14818560D02*
X15523673Y-14828084D01*
X15523673Y-14828084D02*
X15561768Y-14828084D01*
X15561768Y-14828084D02*
X15580815Y-14818560D01*
X15580815Y-14818560D02*
X15590339Y-14799512D01*
X15590339Y-14799512D02*
X15590339Y-14789988D01*
X15590339Y-14789988D02*
X15580815Y-14770941D01*
X15580815Y-14770941D02*
X15561768Y-14761417D01*
X15561768Y-14761417D02*
X15533196Y-14761417D01*
X15533196Y-14761417D02*
X15514149Y-14751893D01*
X15514149Y-14751893D02*
X15504625Y-14732846D01*
X15504625Y-14732846D02*
X15504625Y-14723322D01*
X15504625Y-14723322D02*
X15514149Y-14704274D01*
X15514149Y-14704274D02*
X15533196Y-14694750D01*
X15533196Y-14694750D02*
X15561768Y-14694750D01*
X15561768Y-14694750D02*
X15580815Y-14704274D01*
X15704625Y-14828084D02*
X15685577Y-14818560D01*
X15685577Y-14818560D02*
X15676054Y-14799512D01*
X15676054Y-14799512D02*
X15676054Y-14628084D01*
X15809387Y-14828084D02*
X15790339Y-14818560D01*
X15790339Y-14818560D02*
X15780815Y-14809036D01*
X15780815Y-14809036D02*
X15771292Y-14789988D01*
X15771292Y-14789988D02*
X15771292Y-14732846D01*
X15771292Y-14732846D02*
X15780815Y-14713798D01*
X15780815Y-14713798D02*
X15790339Y-14704274D01*
X15790339Y-14704274D02*
X15809387Y-14694750D01*
X15809387Y-14694750D02*
X15837958Y-14694750D01*
X15837958Y-14694750D02*
X15857006Y-14704274D01*
X15857006Y-14704274D02*
X15866530Y-14713798D01*
X15866530Y-14713798D02*
X15876054Y-14732846D01*
X15876054Y-14732846D02*
X15876054Y-14789988D01*
X15876054Y-14789988D02*
X15866530Y-14809036D01*
X15866530Y-14809036D02*
X15857006Y-14818560D01*
X15857006Y-14818560D02*
X15837958Y-14828084D01*
X15837958Y-14828084D02*
X15809387Y-14828084D01*
X15933196Y-14694750D02*
X16009387Y-14694750D01*
X15961768Y-14628084D02*
X15961768Y-14799512D01*
X15961768Y-14799512D02*
X15971292Y-14818560D01*
X15971292Y-14818560D02*
X15990339Y-14828084D01*
X15990339Y-14828084D02*
X16009387Y-14828084D01*
X16066530Y-14818560D02*
X16085577Y-14828084D01*
X16085577Y-14828084D02*
X16123673Y-14828084D01*
X16123673Y-14828084D02*
X16142720Y-14818560D01*
X16142720Y-14818560D02*
X16152244Y-14799512D01*
X16152244Y-14799512D02*
X16152244Y-14789988D01*
X16152244Y-14789988D02*
X16142720Y-14770941D01*
X16142720Y-14770941D02*
X16123673Y-14761417D01*
X16123673Y-14761417D02*
X16095101Y-14761417D01*
X16095101Y-14761417D02*
X16076054Y-14751893D01*
X16076054Y-14751893D02*
X16066530Y-14732846D01*
X16066530Y-14732846D02*
X16066530Y-14723322D01*
X16066530Y-14723322D02*
X16076054Y-14704274D01*
X16076054Y-14704274D02*
X16095101Y-14694750D01*
X16095101Y-14694750D02*
X16123673Y-14694750D01*
X16123673Y-14694750D02*
X16142720Y-14704274D01*
X16218911Y-14904274D02*
X16228435Y-14894750D01*
X16228435Y-14894750D02*
X16247482Y-14866179D01*
X16247482Y-14866179D02*
X16257006Y-14847131D01*
X16257006Y-14847131D02*
X16266530Y-14818560D01*
X16266530Y-14818560D02*
X16276054Y-14770941D01*
X16276054Y-14770941D02*
X16276054Y-14732846D01*
X16276054Y-14732846D02*
X16266530Y-14685227D01*
X16266530Y-14685227D02*
X16257006Y-14656655D01*
X16257006Y-14656655D02*
X16247482Y-14637608D01*
X16247482Y-14637608D02*
X16228435Y-14609036D01*
X16228435Y-14609036D02*
X16218911Y-14599512D01*
D10*
X9813085Y-15028884D02*
X9813085Y-14972315D01*
X9756516Y-14972315D01*
X9756516Y-15028884D01*
X9813085Y-15028884D01*
D11*
X10123672Y-14892084D02*
X10142720Y-14892084D01*
X10142720Y-14892084D02*
X10161767Y-14901608D01*
X10161767Y-14901608D02*
X10171291Y-14911131D01*
X10171291Y-14911131D02*
X10180815Y-14930179D01*
X10180815Y-14930179D02*
X10190339Y-14968274D01*
X10190339Y-14968274D02*
X10190339Y-15015893D01*
X10190339Y-15015893D02*
X10180815Y-15053988D01*
X10180815Y-15053988D02*
X10171291Y-15073036D01*
X10171291Y-15073036D02*
X10161767Y-15082560D01*
X10161767Y-15082560D02*
X10142720Y-15092084D01*
X10142720Y-15092084D02*
X10123672Y-15092084D01*
X10123672Y-15092084D02*
X10104624Y-15082560D01*
X10104624Y-15082560D02*
X10095101Y-15073036D01*
X10095101Y-15073036D02*
X10085577Y-15053988D01*
X10085577Y-15053988D02*
X10076053Y-15015893D01*
X10076053Y-15015893D02*
X10076053Y-14968274D01*
X10076053Y-14968274D02*
X10085577Y-14930179D01*
X10085577Y-14930179D02*
X10095101Y-14911131D01*
X10095101Y-14911131D02*
X10104624Y-14901608D01*
X10104624Y-14901608D02*
X10123672Y-14892084D01*
X10276053Y-15073036D02*
X10285577Y-15082560D01*
X10285577Y-15082560D02*
X10276053Y-15092084D01*
X10276053Y-15092084D02*
X10266529Y-15082560D01*
X10266529Y-15082560D02*
X10276053Y-15073036D01*
X10276053Y-15073036D02*
X10276053Y-15092084D01*
X10399863Y-14977798D02*
X10380815Y-14968274D01*
X10380815Y-14968274D02*
X10371291Y-14958750D01*
X10371291Y-14958750D02*
X10361767Y-14939703D01*
X10361767Y-14939703D02*
X10361767Y-14930179D01*
X10361767Y-14930179D02*
X10371291Y-14911131D01*
X10371291Y-14911131D02*
X10380815Y-14901608D01*
X10380815Y-14901608D02*
X10399863Y-14892084D01*
X10399863Y-14892084D02*
X10437958Y-14892084D01*
X10437958Y-14892084D02*
X10457005Y-14901608D01*
X10457005Y-14901608D02*
X10466529Y-14911131D01*
X10466529Y-14911131D02*
X10476053Y-14930179D01*
X10476053Y-14930179D02*
X10476053Y-14939703D01*
X10476053Y-14939703D02*
X10466529Y-14958750D01*
X10466529Y-14958750D02*
X10457005Y-14968274D01*
X10457005Y-14968274D02*
X10437958Y-14977798D01*
X10437958Y-14977798D02*
X10399863Y-14977798D01*
X10399863Y-14977798D02*
X10380815Y-14987322D01*
X10380815Y-14987322D02*
X10371291Y-14996846D01*
X10371291Y-14996846D02*
X10361767Y-15015893D01*
X10361767Y-15015893D02*
X10361767Y-15053988D01*
X10361767Y-15053988D02*
X10371291Y-15073036D01*
X10371291Y-15073036D02*
X10380815Y-15082560D01*
X10380815Y-15082560D02*
X10399863Y-15092084D01*
X10399863Y-15092084D02*
X10437958Y-15092084D01*
X10437958Y-15092084D02*
X10457005Y-15082560D01*
X10457005Y-15082560D02*
X10466529Y-15073036D01*
X10466529Y-15073036D02*
X10476053Y-15053988D01*
X10476053Y-15053988D02*
X10476053Y-15015893D01*
X10476053Y-15015893D02*
X10466529Y-14996846D01*
X10466529Y-14996846D02*
X10457005Y-14987322D01*
X10457005Y-14987322D02*
X10437958Y-14977798D01*
X10599863Y-14892084D02*
X10618910Y-14892084D01*
X10618910Y-14892084D02*
X10637958Y-14901608D01*
X10637958Y-14901608D02*
X10647482Y-14911131D01*
X10647482Y-14911131D02*
X10657005Y-14930179D01*
X10657005Y-14930179D02*
X10666529Y-14968274D01*
X10666529Y-14968274D02*
X10666529Y-15015893D01*
X10666529Y-15015893D02*
X10657005Y-15053988D01*
X10657005Y-15053988D02*
X10647482Y-15073036D01*
X10647482Y-15073036D02*
X10637958Y-15082560D01*
X10637958Y-15082560D02*
X10618910Y-15092084D01*
X10618910Y-15092084D02*
X10599863Y-15092084D01*
X10599863Y-15092084D02*
X10580815Y-15082560D01*
X10580815Y-15082560D02*
X10571291Y-15073036D01*
X10571291Y-15073036D02*
X10561767Y-15053988D01*
X10561767Y-15053988D02*
X10552244Y-15015893D01*
X10552244Y-15015893D02*
X10552244Y-14968274D01*
X10552244Y-14968274D02*
X10561767Y-14930179D01*
X10561767Y-14930179D02*
X10571291Y-14911131D01*
X10571291Y-14911131D02*
X10580815Y-14901608D01*
X10580815Y-14901608D02*
X10599863Y-14892084D01*
X10790339Y-14892084D02*
X10809386Y-14892084D01*
X10809386Y-14892084D02*
X10828434Y-14901608D01*
X10828434Y-14901608D02*
X10837958Y-14911131D01*
X10837958Y-14911131D02*
X10847482Y-14930179D01*
X10847482Y-14930179D02*
X10857005Y-14968274D01*
X10857005Y-14968274D02*
X10857005Y-15015893D01*
X10857005Y-15015893D02*
X10847482Y-15053988D01*
X10847482Y-15053988D02*
X10837958Y-15073036D01*
X10837958Y-15073036D02*
X10828434Y-15082560D01*
X10828434Y-15082560D02*
X10809386Y-15092084D01*
X10809386Y-15092084D02*
X10790339Y-15092084D01*
X10790339Y-15092084D02*
X10771291Y-15082560D01*
X10771291Y-15082560D02*
X10761767Y-15073036D01*
X10761767Y-15073036D02*
X10752244Y-15053988D01*
X10752244Y-15053988D02*
X10742720Y-15015893D01*
X10742720Y-15015893D02*
X10742720Y-14968274D01*
X10742720Y-14968274D02*
X10752244Y-14930179D01*
X10752244Y-14930179D02*
X10761767Y-14911131D01*
X10761767Y-14911131D02*
X10771291Y-14901608D01*
X10771291Y-14901608D02*
X10790339Y-14892084D01*
X10942720Y-15092084D02*
X10942720Y-14958750D01*
X10942720Y-14977798D02*
X10952244Y-14968274D01*
X10952244Y-14968274D02*
X10971291Y-14958750D01*
X10971291Y-14958750D02*
X10999863Y-14958750D01*
X10999863Y-14958750D02*
X11018910Y-14968274D01*
X11018910Y-14968274D02*
X11028434Y-14987322D01*
X11028434Y-14987322D02*
X11028434Y-15092084D01*
X11028434Y-14987322D02*
X11037958Y-14968274D01*
X11037958Y-14968274D02*
X11057005Y-14958750D01*
X11057005Y-14958750D02*
X11085577Y-14958750D01*
X11085577Y-14958750D02*
X11104625Y-14968274D01*
X11104625Y-14968274D02*
X11114148Y-14987322D01*
X11114148Y-14987322D02*
X11114148Y-15092084D01*
X11209386Y-15092084D02*
X11209386Y-14958750D01*
X11209386Y-14977798D02*
X11218910Y-14968274D01*
X11218910Y-14968274D02*
X11237958Y-14958750D01*
X11237958Y-14958750D02*
X11266529Y-14958750D01*
X11266529Y-14958750D02*
X11285577Y-14968274D01*
X11285577Y-14968274D02*
X11295101Y-14987322D01*
X11295101Y-14987322D02*
X11295101Y-15092084D01*
X11295101Y-14987322D02*
X11304624Y-14968274D01*
X11304624Y-14968274D02*
X11323672Y-14958750D01*
X11323672Y-14958750D02*
X11352243Y-14958750D01*
X11352243Y-14958750D02*
X11371291Y-14968274D01*
X11371291Y-14968274D02*
X11380815Y-14987322D01*
X11380815Y-14987322D02*
X11380815Y-15092084D01*
X11771291Y-14882560D02*
X11599863Y-15139703D01*
X12028434Y-14892084D02*
X12047482Y-14892084D01*
X12047482Y-14892084D02*
X12066529Y-14901608D01*
X12066529Y-14901608D02*
X12076053Y-14911131D01*
X12076053Y-14911131D02*
X12085577Y-14930179D01*
X12085577Y-14930179D02*
X12095101Y-14968274D01*
X12095101Y-14968274D02*
X12095101Y-15015893D01*
X12095101Y-15015893D02*
X12085577Y-15053988D01*
X12085577Y-15053988D02*
X12076053Y-15073036D01*
X12076053Y-15073036D02*
X12066529Y-15082560D01*
X12066529Y-15082560D02*
X12047482Y-15092084D01*
X12047482Y-15092084D02*
X12028434Y-15092084D01*
X12028434Y-15092084D02*
X12009386Y-15082560D01*
X12009386Y-15082560D02*
X11999863Y-15073036D01*
X11999863Y-15073036D02*
X11990339Y-15053988D01*
X11990339Y-15053988D02*
X11980815Y-15015893D01*
X11980815Y-15015893D02*
X11980815Y-14968274D01*
X11980815Y-14968274D02*
X11990339Y-14930179D01*
X11990339Y-14930179D02*
X11999863Y-14911131D01*
X11999863Y-14911131D02*
X12009386Y-14901608D01*
X12009386Y-14901608D02*
X12028434Y-14892084D01*
X12180815Y-15073036D02*
X12190339Y-15082560D01*
X12190339Y-15082560D02*
X12180815Y-15092084D01*
X12180815Y-15092084D02*
X12171291Y-15082560D01*
X12171291Y-15082560D02*
X12180815Y-15073036D01*
X12180815Y-15073036D02*
X12180815Y-15092084D01*
X12314148Y-14892084D02*
X12333196Y-14892084D01*
X12333196Y-14892084D02*
X12352244Y-14901608D01*
X12352244Y-14901608D02*
X12361767Y-14911131D01*
X12361767Y-14911131D02*
X12371291Y-14930179D01*
X12371291Y-14930179D02*
X12380815Y-14968274D01*
X12380815Y-14968274D02*
X12380815Y-15015893D01*
X12380815Y-15015893D02*
X12371291Y-15053988D01*
X12371291Y-15053988D02*
X12361767Y-15073036D01*
X12361767Y-15073036D02*
X12352244Y-15082560D01*
X12352244Y-15082560D02*
X12333196Y-15092084D01*
X12333196Y-15092084D02*
X12314148Y-15092084D01*
X12314148Y-15092084D02*
X12295101Y-15082560D01*
X12295101Y-15082560D02*
X12285577Y-15073036D01*
X12285577Y-15073036D02*
X12276053Y-15053988D01*
X12276053Y-15053988D02*
X12266529Y-15015893D01*
X12266529Y-15015893D02*
X12266529Y-14968274D01*
X12266529Y-14968274D02*
X12276053Y-14930179D01*
X12276053Y-14930179D02*
X12285577Y-14911131D01*
X12285577Y-14911131D02*
X12295101Y-14901608D01*
X12295101Y-14901608D02*
X12314148Y-14892084D01*
X12447482Y-14892084D02*
X12571291Y-14892084D01*
X12571291Y-14892084D02*
X12504625Y-14968274D01*
X12504625Y-14968274D02*
X12533196Y-14968274D01*
X12533196Y-14968274D02*
X12552244Y-14977798D01*
X12552244Y-14977798D02*
X12561767Y-14987322D01*
X12561767Y-14987322D02*
X12571291Y-15006369D01*
X12571291Y-15006369D02*
X12571291Y-15053988D01*
X12571291Y-15053988D02*
X12561767Y-15073036D01*
X12561767Y-15073036D02*
X12552244Y-15082560D01*
X12552244Y-15082560D02*
X12533196Y-15092084D01*
X12533196Y-15092084D02*
X12476053Y-15092084D01*
X12476053Y-15092084D02*
X12457006Y-15082560D01*
X12457006Y-15082560D02*
X12447482Y-15073036D01*
X12761767Y-15092084D02*
X12647482Y-15092084D01*
X12704625Y-15092084D02*
X12704625Y-14892084D01*
X12704625Y-14892084D02*
X12685577Y-14920655D01*
X12685577Y-14920655D02*
X12666529Y-14939703D01*
X12666529Y-14939703D02*
X12647482Y-14949227D01*
X12942720Y-14892084D02*
X12847482Y-14892084D01*
X12847482Y-14892084D02*
X12837958Y-14987322D01*
X12837958Y-14987322D02*
X12847482Y-14977798D01*
X12847482Y-14977798D02*
X12866529Y-14968274D01*
X12866529Y-14968274D02*
X12914148Y-14968274D01*
X12914148Y-14968274D02*
X12933196Y-14977798D01*
X12933196Y-14977798D02*
X12942720Y-14987322D01*
X12942720Y-14987322D02*
X12952244Y-15006369D01*
X12952244Y-15006369D02*
X12952244Y-15053988D01*
X12952244Y-15053988D02*
X12942720Y-15073036D01*
X12942720Y-15073036D02*
X12933196Y-15082560D01*
X12933196Y-15082560D02*
X12914148Y-15092084D01*
X12914148Y-15092084D02*
X12866529Y-15092084D01*
X12866529Y-15092084D02*
X12847482Y-15082560D01*
X12847482Y-15082560D02*
X12837958Y-15073036D01*
X13028434Y-14892084D02*
X13028434Y-14930179D01*
X13104625Y-14892084D02*
X13104625Y-14930179D01*
X13399863Y-15168274D02*
X13390339Y-15158750D01*
X13390339Y-15158750D02*
X13371291Y-15130179D01*
X13371291Y-15130179D02*
X13361768Y-15111131D01*
X13361768Y-15111131D02*
X13352244Y-15082560D01*
X13352244Y-15082560D02*
X13342720Y-15034941D01*
X13342720Y-15034941D02*
X13342720Y-14996846D01*
X13342720Y-14996846D02*
X13352244Y-14949227D01*
X13352244Y-14949227D02*
X13361768Y-14920655D01*
X13361768Y-14920655D02*
X13371291Y-14901608D01*
X13371291Y-14901608D02*
X13390339Y-14873036D01*
X13390339Y-14873036D02*
X13399863Y-14863512D01*
X13580815Y-15092084D02*
X13466529Y-15092084D01*
X13523672Y-15092084D02*
X13523672Y-14892084D01*
X13523672Y-14892084D02*
X13504625Y-14920655D01*
X13504625Y-14920655D02*
X13485577Y-14939703D01*
X13485577Y-14939703D02*
X13466529Y-14949227D01*
X13752244Y-14958750D02*
X13752244Y-15092084D01*
X13704625Y-14882560D02*
X13657006Y-15025417D01*
X13657006Y-15025417D02*
X13780815Y-15025417D01*
X13866529Y-15092084D02*
X13904625Y-15092084D01*
X13904625Y-15092084D02*
X13923672Y-15082560D01*
X13923672Y-15082560D02*
X13933196Y-15073036D01*
X13933196Y-15073036D02*
X13952244Y-15044465D01*
X13952244Y-15044465D02*
X13961768Y-15006369D01*
X13961768Y-15006369D02*
X13961768Y-14930179D01*
X13961768Y-14930179D02*
X13952244Y-14911131D01*
X13952244Y-14911131D02*
X13942720Y-14901608D01*
X13942720Y-14901608D02*
X13923672Y-14892084D01*
X13923672Y-14892084D02*
X13885577Y-14892084D01*
X13885577Y-14892084D02*
X13866529Y-14901608D01*
X13866529Y-14901608D02*
X13857006Y-14911131D01*
X13857006Y-14911131D02*
X13847482Y-14930179D01*
X13847482Y-14930179D02*
X13847482Y-14977798D01*
X13847482Y-14977798D02*
X13857006Y-14996846D01*
X13857006Y-14996846D02*
X13866529Y-15006369D01*
X13866529Y-15006369D02*
X13885577Y-15015893D01*
X13885577Y-15015893D02*
X13923672Y-15015893D01*
X13923672Y-15015893D02*
X13942720Y-15006369D01*
X13942720Y-15006369D02*
X13952244Y-14996846D01*
X13952244Y-14996846D02*
X13961768Y-14977798D01*
X14199863Y-15092084D02*
X14199863Y-14892084D01*
X14285577Y-15092084D02*
X14285577Y-14987322D01*
X14285577Y-14987322D02*
X14276053Y-14968274D01*
X14276053Y-14968274D02*
X14257006Y-14958750D01*
X14257006Y-14958750D02*
X14228434Y-14958750D01*
X14228434Y-14958750D02*
X14209387Y-14968274D01*
X14209387Y-14968274D02*
X14199863Y-14977798D01*
X14409387Y-15092084D02*
X14390339Y-15082560D01*
X14390339Y-15082560D02*
X14380815Y-15073036D01*
X14380815Y-15073036D02*
X14371291Y-15053988D01*
X14371291Y-15053988D02*
X14371291Y-14996846D01*
X14371291Y-14996846D02*
X14380815Y-14977798D01*
X14380815Y-14977798D02*
X14390339Y-14968274D01*
X14390339Y-14968274D02*
X14409387Y-14958750D01*
X14409387Y-14958750D02*
X14437958Y-14958750D01*
X14437958Y-14958750D02*
X14457006Y-14968274D01*
X14457006Y-14968274D02*
X14466530Y-14977798D01*
X14466530Y-14977798D02*
X14476053Y-14996846D01*
X14476053Y-14996846D02*
X14476053Y-15053988D01*
X14476053Y-15053988D02*
X14466530Y-15073036D01*
X14466530Y-15073036D02*
X14457006Y-15082560D01*
X14457006Y-15082560D02*
X14437958Y-15092084D01*
X14437958Y-15092084D02*
X14409387Y-15092084D01*
X14590339Y-15092084D02*
X14571291Y-15082560D01*
X14571291Y-15082560D02*
X14561768Y-15063512D01*
X14561768Y-15063512D02*
X14561768Y-14892084D01*
X14742720Y-15082560D02*
X14723672Y-15092084D01*
X14723672Y-15092084D02*
X14685577Y-15092084D01*
X14685577Y-15092084D02*
X14666530Y-15082560D01*
X14666530Y-15082560D02*
X14657006Y-15063512D01*
X14657006Y-15063512D02*
X14657006Y-14987322D01*
X14657006Y-14987322D02*
X14666530Y-14968274D01*
X14666530Y-14968274D02*
X14685577Y-14958750D01*
X14685577Y-14958750D02*
X14723672Y-14958750D01*
X14723672Y-14958750D02*
X14742720Y-14968274D01*
X14742720Y-14968274D02*
X14752244Y-14987322D01*
X14752244Y-14987322D02*
X14752244Y-15006369D01*
X14752244Y-15006369D02*
X14657006Y-15025417D01*
X14828434Y-15082560D02*
X14847482Y-15092084D01*
X14847482Y-15092084D02*
X14885577Y-15092084D01*
X14885577Y-15092084D02*
X14904625Y-15082560D01*
X14904625Y-15082560D02*
X14914149Y-15063512D01*
X14914149Y-15063512D02*
X14914149Y-15053988D01*
X14914149Y-15053988D02*
X14904625Y-15034941D01*
X14904625Y-15034941D02*
X14885577Y-15025417D01*
X14885577Y-15025417D02*
X14857006Y-15025417D01*
X14857006Y-15025417D02*
X14837958Y-15015893D01*
X14837958Y-15015893D02*
X14828434Y-14996846D01*
X14828434Y-14996846D02*
X14828434Y-14987322D01*
X14828434Y-14987322D02*
X14837958Y-14968274D01*
X14837958Y-14968274D02*
X14857006Y-14958750D01*
X14857006Y-14958750D02*
X14885577Y-14958750D01*
X14885577Y-14958750D02*
X14904625Y-14968274D01*
X14980815Y-15168274D02*
X14990339Y-15158750D01*
X14990339Y-15158750D02*
X15009387Y-15130179D01*
X15009387Y-15130179D02*
X15018911Y-15111131D01*
X15018911Y-15111131D02*
X15028434Y-15082560D01*
X15028434Y-15082560D02*
X15037958Y-15034941D01*
X15037958Y-15034941D02*
X15037958Y-14996846D01*
X15037958Y-14996846D02*
X15028434Y-14949227D01*
X15028434Y-14949227D02*
X15018911Y-14920655D01*
X15018911Y-14920655D02*
X15009387Y-14901608D01*
X15009387Y-14901608D02*
X14990339Y-14873036D01*
X14990339Y-14873036D02*
X14980815Y-14863512D01*
M02*
