%TF.GenerationSoftware,KiCad,Pcbnew,7.0.10*%
%TF.CreationDate,2024-02-08T16:52:54+11:00*%
%TF.ProjectId,Desktop Thermometer USB-C,4465736b-746f-4702-9054-6865726d6f6d,rev?*%
%TF.SameCoordinates,Original*%
%TF.FileFunction,Legend,Top*%
%TF.FilePolarity,Positive*%
%FSLAX46Y46*%
G04 Gerber Fmt 4.6, Leading zero omitted, Abs format (unit mm)*
G04 Created by KiCad (PCBNEW 7.0.10) date 2024-02-08 16:52:54*
%MOMM*%
%LPD*%
G01*
G04 APERTURE LIST*
%ADD10C,0.250000*%
%ADD11C,0.150000*%
%ADD12C,0.120000*%
%ADD13C,1.600000*%
%ADD14O,1.600000X1.600000*%
%ADD15R,1.600000X2.400000*%
%ADD16O,1.600000X2.400000*%
%ADD17R,1.524000X2.524000*%
%ADD18O,1.524000X2.524000*%
%ADD19C,3.200000*%
%ADD20C,1.500000*%
%ADD21R,1.500000X1.500000*%
%ADD22O,2.204000X1.204000*%
G04 APERTURE END LIST*
D10*
X105898282Y-91814619D02*
X105898282Y-92528904D01*
X105898282Y-92528904D02*
X105850663Y-92671761D01*
X105850663Y-92671761D02*
X105755425Y-92767000D01*
X105755425Y-92767000D02*
X105612568Y-92814619D01*
X105612568Y-92814619D02*
X105517330Y-92814619D01*
X106850663Y-92814619D02*
X106374473Y-92814619D01*
X106374473Y-92814619D02*
X106374473Y-91814619D01*
X107755425Y-92719380D02*
X107707806Y-92767000D01*
X107707806Y-92767000D02*
X107564949Y-92814619D01*
X107564949Y-92814619D02*
X107469711Y-92814619D01*
X107469711Y-92814619D02*
X107326854Y-92767000D01*
X107326854Y-92767000D02*
X107231616Y-92671761D01*
X107231616Y-92671761D02*
X107183997Y-92576523D01*
X107183997Y-92576523D02*
X107136378Y-92386047D01*
X107136378Y-92386047D02*
X107136378Y-92243190D01*
X107136378Y-92243190D02*
X107183997Y-92052714D01*
X107183997Y-92052714D02*
X107231616Y-91957476D01*
X107231616Y-91957476D02*
X107326854Y-91862238D01*
X107326854Y-91862238D02*
X107469711Y-91814619D01*
X107469711Y-91814619D02*
X107564949Y-91814619D01*
X107564949Y-91814619D02*
X107707806Y-91862238D01*
X107707806Y-91862238D02*
X107755425Y-91909857D01*
X108469711Y-91814619D02*
X108469711Y-92528904D01*
X108469711Y-92528904D02*
X108422092Y-92671761D01*
X108422092Y-92671761D02*
X108326854Y-92767000D01*
X108326854Y-92767000D02*
X108183997Y-92814619D01*
X108183997Y-92814619D02*
X108088759Y-92814619D01*
X109422092Y-92814619D02*
X108945902Y-92814619D01*
X108945902Y-92814619D02*
X108945902Y-91814619D01*
X110326854Y-92719380D02*
X110279235Y-92767000D01*
X110279235Y-92767000D02*
X110136378Y-92814619D01*
X110136378Y-92814619D02*
X110041140Y-92814619D01*
X110041140Y-92814619D02*
X109898283Y-92767000D01*
X109898283Y-92767000D02*
X109803045Y-92671761D01*
X109803045Y-92671761D02*
X109755426Y-92576523D01*
X109755426Y-92576523D02*
X109707807Y-92386047D01*
X109707807Y-92386047D02*
X109707807Y-92243190D01*
X109707807Y-92243190D02*
X109755426Y-92052714D01*
X109755426Y-92052714D02*
X109803045Y-91957476D01*
X109803045Y-91957476D02*
X109898283Y-91862238D01*
X109898283Y-91862238D02*
X110041140Y-91814619D01*
X110041140Y-91814619D02*
X110136378Y-91814619D01*
X110136378Y-91814619D02*
X110279235Y-91862238D01*
X110279235Y-91862238D02*
X110326854Y-91909857D01*
X111041140Y-91814619D02*
X111041140Y-92528904D01*
X111041140Y-92528904D02*
X110993521Y-92671761D01*
X110993521Y-92671761D02*
X110898283Y-92767000D01*
X110898283Y-92767000D02*
X110755426Y-92814619D01*
X110755426Y-92814619D02*
X110660188Y-92814619D01*
X111993521Y-92814619D02*
X111517331Y-92814619D01*
X111517331Y-92814619D02*
X111517331Y-91814619D01*
X112898283Y-92719380D02*
X112850664Y-92767000D01*
X112850664Y-92767000D02*
X112707807Y-92814619D01*
X112707807Y-92814619D02*
X112612569Y-92814619D01*
X112612569Y-92814619D02*
X112469712Y-92767000D01*
X112469712Y-92767000D02*
X112374474Y-92671761D01*
X112374474Y-92671761D02*
X112326855Y-92576523D01*
X112326855Y-92576523D02*
X112279236Y-92386047D01*
X112279236Y-92386047D02*
X112279236Y-92243190D01*
X112279236Y-92243190D02*
X112326855Y-92052714D01*
X112326855Y-92052714D02*
X112374474Y-91957476D01*
X112374474Y-91957476D02*
X112469712Y-91862238D01*
X112469712Y-91862238D02*
X112612569Y-91814619D01*
X112612569Y-91814619D02*
X112707807Y-91814619D01*
X112707807Y-91814619D02*
X112850664Y-91862238D01*
X112850664Y-91862238D02*
X112898283Y-91909857D01*
X113612569Y-91814619D02*
X113612569Y-92528904D01*
X113612569Y-92528904D02*
X113564950Y-92671761D01*
X113564950Y-92671761D02*
X113469712Y-92767000D01*
X113469712Y-92767000D02*
X113326855Y-92814619D01*
X113326855Y-92814619D02*
X113231617Y-92814619D01*
X114564950Y-92814619D02*
X114088760Y-92814619D01*
X114088760Y-92814619D02*
X114088760Y-91814619D01*
X115469712Y-92719380D02*
X115422093Y-92767000D01*
X115422093Y-92767000D02*
X115279236Y-92814619D01*
X115279236Y-92814619D02*
X115183998Y-92814619D01*
X115183998Y-92814619D02*
X115041141Y-92767000D01*
X115041141Y-92767000D02*
X114945903Y-92671761D01*
X114945903Y-92671761D02*
X114898284Y-92576523D01*
X114898284Y-92576523D02*
X114850665Y-92386047D01*
X114850665Y-92386047D02*
X114850665Y-92243190D01*
X114850665Y-92243190D02*
X114898284Y-92052714D01*
X114898284Y-92052714D02*
X114945903Y-91957476D01*
X114945903Y-91957476D02*
X115041141Y-91862238D01*
X115041141Y-91862238D02*
X115183998Y-91814619D01*
X115183998Y-91814619D02*
X115279236Y-91814619D01*
X115279236Y-91814619D02*
X115422093Y-91862238D01*
X115422093Y-91862238D02*
X115469712Y-91909857D01*
D11*
X141819333Y-101705580D02*
X141771714Y-101753200D01*
X141771714Y-101753200D02*
X141628857Y-101800819D01*
X141628857Y-101800819D02*
X141533619Y-101800819D01*
X141533619Y-101800819D02*
X141390762Y-101753200D01*
X141390762Y-101753200D02*
X141295524Y-101657961D01*
X141295524Y-101657961D02*
X141247905Y-101562723D01*
X141247905Y-101562723D02*
X141200286Y-101372247D01*
X141200286Y-101372247D02*
X141200286Y-101229390D01*
X141200286Y-101229390D02*
X141247905Y-101038914D01*
X141247905Y-101038914D02*
X141295524Y-100943676D01*
X141295524Y-100943676D02*
X141390762Y-100848438D01*
X141390762Y-100848438D02*
X141533619Y-100800819D01*
X141533619Y-100800819D02*
X141628857Y-100800819D01*
X141628857Y-100800819D02*
X141771714Y-100848438D01*
X141771714Y-100848438D02*
X141819333Y-100896057D01*
X142676476Y-101134152D02*
X142676476Y-101800819D01*
X142438381Y-100753200D02*
X142200286Y-101467485D01*
X142200286Y-101467485D02*
X142819333Y-101467485D01*
X123023333Y-88243580D02*
X122975714Y-88291200D01*
X122975714Y-88291200D02*
X122832857Y-88338819D01*
X122832857Y-88338819D02*
X122737619Y-88338819D01*
X122737619Y-88338819D02*
X122594762Y-88291200D01*
X122594762Y-88291200D02*
X122499524Y-88195961D01*
X122499524Y-88195961D02*
X122451905Y-88100723D01*
X122451905Y-88100723D02*
X122404286Y-87910247D01*
X122404286Y-87910247D02*
X122404286Y-87767390D01*
X122404286Y-87767390D02*
X122451905Y-87576914D01*
X122451905Y-87576914D02*
X122499524Y-87481676D01*
X122499524Y-87481676D02*
X122594762Y-87386438D01*
X122594762Y-87386438D02*
X122737619Y-87338819D01*
X122737619Y-87338819D02*
X122832857Y-87338819D01*
X122832857Y-87338819D02*
X122975714Y-87386438D01*
X122975714Y-87386438D02*
X123023333Y-87434057D01*
X123975714Y-88338819D02*
X123404286Y-88338819D01*
X123690000Y-88338819D02*
X123690000Y-87338819D01*
X123690000Y-87338819D02*
X123594762Y-87481676D01*
X123594762Y-87481676D02*
X123499524Y-87576914D01*
X123499524Y-87576914D02*
X123404286Y-87624533D01*
X125563333Y-71574819D02*
X125230000Y-71098628D01*
X124991905Y-71574819D02*
X124991905Y-70574819D01*
X124991905Y-70574819D02*
X125372857Y-70574819D01*
X125372857Y-70574819D02*
X125468095Y-70622438D01*
X125468095Y-70622438D02*
X125515714Y-70670057D01*
X125515714Y-70670057D02*
X125563333Y-70765295D01*
X125563333Y-70765295D02*
X125563333Y-70908152D01*
X125563333Y-70908152D02*
X125515714Y-71003390D01*
X125515714Y-71003390D02*
X125468095Y-71051009D01*
X125468095Y-71051009D02*
X125372857Y-71098628D01*
X125372857Y-71098628D02*
X124991905Y-71098628D01*
X126134762Y-71003390D02*
X126039524Y-70955771D01*
X126039524Y-70955771D02*
X125991905Y-70908152D01*
X125991905Y-70908152D02*
X125944286Y-70812914D01*
X125944286Y-70812914D02*
X125944286Y-70765295D01*
X125944286Y-70765295D02*
X125991905Y-70670057D01*
X125991905Y-70670057D02*
X126039524Y-70622438D01*
X126039524Y-70622438D02*
X126134762Y-70574819D01*
X126134762Y-70574819D02*
X126325238Y-70574819D01*
X126325238Y-70574819D02*
X126420476Y-70622438D01*
X126420476Y-70622438D02*
X126468095Y-70670057D01*
X126468095Y-70670057D02*
X126515714Y-70765295D01*
X126515714Y-70765295D02*
X126515714Y-70812914D01*
X126515714Y-70812914D02*
X126468095Y-70908152D01*
X126468095Y-70908152D02*
X126420476Y-70955771D01*
X126420476Y-70955771D02*
X126325238Y-71003390D01*
X126325238Y-71003390D02*
X126134762Y-71003390D01*
X126134762Y-71003390D02*
X126039524Y-71051009D01*
X126039524Y-71051009D02*
X125991905Y-71098628D01*
X125991905Y-71098628D02*
X125944286Y-71193866D01*
X125944286Y-71193866D02*
X125944286Y-71384342D01*
X125944286Y-71384342D02*
X125991905Y-71479580D01*
X125991905Y-71479580D02*
X126039524Y-71527200D01*
X126039524Y-71527200D02*
X126134762Y-71574819D01*
X126134762Y-71574819D02*
X126325238Y-71574819D01*
X126325238Y-71574819D02*
X126420476Y-71527200D01*
X126420476Y-71527200D02*
X126468095Y-71479580D01*
X126468095Y-71479580D02*
X126515714Y-71384342D01*
X126515714Y-71384342D02*
X126515714Y-71193866D01*
X126515714Y-71193866D02*
X126468095Y-71098628D01*
X126468095Y-71098628D02*
X126420476Y-71051009D01*
X126420476Y-71051009D02*
X126325238Y-71003390D01*
X125476095Y-85560819D02*
X125476095Y-86370342D01*
X125476095Y-86370342D02*
X125523714Y-86465580D01*
X125523714Y-86465580D02*
X125571333Y-86513200D01*
X125571333Y-86513200D02*
X125666571Y-86560819D01*
X125666571Y-86560819D02*
X125857047Y-86560819D01*
X125857047Y-86560819D02*
X125952285Y-86513200D01*
X125952285Y-86513200D02*
X125999904Y-86465580D01*
X125999904Y-86465580D02*
X126047523Y-86370342D01*
X126047523Y-86370342D02*
X126047523Y-85560819D01*
X126476095Y-85656057D02*
X126523714Y-85608438D01*
X126523714Y-85608438D02*
X126618952Y-85560819D01*
X126618952Y-85560819D02*
X126857047Y-85560819D01*
X126857047Y-85560819D02*
X126952285Y-85608438D01*
X126952285Y-85608438D02*
X126999904Y-85656057D01*
X126999904Y-85656057D02*
X127047523Y-85751295D01*
X127047523Y-85751295D02*
X127047523Y-85846533D01*
X127047523Y-85846533D02*
X126999904Y-85989390D01*
X126999904Y-85989390D02*
X126428476Y-86560819D01*
X126428476Y-86560819D02*
X127047523Y-86560819D01*
X164711142Y-53540819D02*
X164377809Y-53064628D01*
X164139714Y-53540819D02*
X164139714Y-52540819D01*
X164139714Y-52540819D02*
X164520666Y-52540819D01*
X164520666Y-52540819D02*
X164615904Y-52588438D01*
X164615904Y-52588438D02*
X164663523Y-52636057D01*
X164663523Y-52636057D02*
X164711142Y-52731295D01*
X164711142Y-52731295D02*
X164711142Y-52874152D01*
X164711142Y-52874152D02*
X164663523Y-52969390D01*
X164663523Y-52969390D02*
X164615904Y-53017009D01*
X164615904Y-53017009D02*
X164520666Y-53064628D01*
X164520666Y-53064628D02*
X164139714Y-53064628D01*
X165092095Y-52636057D02*
X165139714Y-52588438D01*
X165139714Y-52588438D02*
X165234952Y-52540819D01*
X165234952Y-52540819D02*
X165473047Y-52540819D01*
X165473047Y-52540819D02*
X165568285Y-52588438D01*
X165568285Y-52588438D02*
X165615904Y-52636057D01*
X165615904Y-52636057D02*
X165663523Y-52731295D01*
X165663523Y-52731295D02*
X165663523Y-52826533D01*
X165663523Y-52826533D02*
X165615904Y-52969390D01*
X165615904Y-52969390D02*
X165044476Y-53540819D01*
X165044476Y-53540819D02*
X165663523Y-53540819D01*
X166615904Y-53540819D02*
X166044476Y-53540819D01*
X166330190Y-53540819D02*
X166330190Y-52540819D01*
X166330190Y-52540819D02*
X166234952Y-52683676D01*
X166234952Y-52683676D02*
X166139714Y-52778914D01*
X166139714Y-52778914D02*
X166044476Y-52826533D01*
X117625905Y-49984819D02*
X117625905Y-48984819D01*
X117625905Y-48984819D02*
X117864000Y-48984819D01*
X117864000Y-48984819D02*
X118006857Y-49032438D01*
X118006857Y-49032438D02*
X118102095Y-49127676D01*
X118102095Y-49127676D02*
X118149714Y-49222914D01*
X118149714Y-49222914D02*
X118197333Y-49413390D01*
X118197333Y-49413390D02*
X118197333Y-49556247D01*
X118197333Y-49556247D02*
X118149714Y-49746723D01*
X118149714Y-49746723D02*
X118102095Y-49841961D01*
X118102095Y-49841961D02*
X118006857Y-49937200D01*
X118006857Y-49937200D02*
X117864000Y-49984819D01*
X117864000Y-49984819D02*
X117625905Y-49984819D01*
X119149714Y-49984819D02*
X118578286Y-49984819D01*
X118864000Y-49984819D02*
X118864000Y-48984819D01*
X118864000Y-48984819D02*
X118768762Y-49127676D01*
X118768762Y-49127676D02*
X118673524Y-49222914D01*
X118673524Y-49222914D02*
X118578286Y-49270533D01*
X115657333Y-53540819D02*
X115324000Y-53064628D01*
X115085905Y-53540819D02*
X115085905Y-52540819D01*
X115085905Y-52540819D02*
X115466857Y-52540819D01*
X115466857Y-52540819D02*
X115562095Y-52588438D01*
X115562095Y-52588438D02*
X115609714Y-52636057D01*
X115609714Y-52636057D02*
X115657333Y-52731295D01*
X115657333Y-52731295D02*
X115657333Y-52874152D01*
X115657333Y-52874152D02*
X115609714Y-52969390D01*
X115609714Y-52969390D02*
X115562095Y-53017009D01*
X115562095Y-53017009D02*
X115466857Y-53064628D01*
X115466857Y-53064628D02*
X115085905Y-53064628D01*
X116514476Y-52874152D02*
X116514476Y-53540819D01*
X116276381Y-52493200D02*
X116038286Y-53207485D01*
X116038286Y-53207485D02*
X116657333Y-53207485D01*
X100076095Y-85560819D02*
X100076095Y-86370342D01*
X100076095Y-86370342D02*
X100123714Y-86465580D01*
X100123714Y-86465580D02*
X100171333Y-86513200D01*
X100171333Y-86513200D02*
X100266571Y-86560819D01*
X100266571Y-86560819D02*
X100457047Y-86560819D01*
X100457047Y-86560819D02*
X100552285Y-86513200D01*
X100552285Y-86513200D02*
X100599904Y-86465580D01*
X100599904Y-86465580D02*
X100647523Y-86370342D01*
X100647523Y-86370342D02*
X100647523Y-85560819D01*
X101647523Y-86560819D02*
X101076095Y-86560819D01*
X101361809Y-86560819D02*
X101361809Y-85560819D01*
X101361809Y-85560819D02*
X101266571Y-85703676D01*
X101266571Y-85703676D02*
X101171333Y-85798914D01*
X101171333Y-85798914D02*
X101076095Y-85846533D01*
X141343142Y-71574819D02*
X141009809Y-71098628D01*
X140771714Y-71574819D02*
X140771714Y-70574819D01*
X140771714Y-70574819D02*
X141152666Y-70574819D01*
X141152666Y-70574819D02*
X141247904Y-70622438D01*
X141247904Y-70622438D02*
X141295523Y-70670057D01*
X141295523Y-70670057D02*
X141343142Y-70765295D01*
X141343142Y-70765295D02*
X141343142Y-70908152D01*
X141343142Y-70908152D02*
X141295523Y-71003390D01*
X141295523Y-71003390D02*
X141247904Y-71051009D01*
X141247904Y-71051009D02*
X141152666Y-71098628D01*
X141152666Y-71098628D02*
X140771714Y-71098628D01*
X142295523Y-71574819D02*
X141724095Y-71574819D01*
X142009809Y-71574819D02*
X142009809Y-70574819D01*
X142009809Y-70574819D02*
X141914571Y-70717676D01*
X141914571Y-70717676D02*
X141819333Y-70812914D01*
X141819333Y-70812914D02*
X141724095Y-70860533D01*
X142628857Y-70574819D02*
X143247904Y-70574819D01*
X143247904Y-70574819D02*
X142914571Y-70955771D01*
X142914571Y-70955771D02*
X143057428Y-70955771D01*
X143057428Y-70955771D02*
X143152666Y-71003390D01*
X143152666Y-71003390D02*
X143200285Y-71051009D01*
X143200285Y-71051009D02*
X143247904Y-71146247D01*
X143247904Y-71146247D02*
X143247904Y-71384342D01*
X143247904Y-71384342D02*
X143200285Y-71479580D01*
X143200285Y-71479580D02*
X143152666Y-71527200D01*
X143152666Y-71527200D02*
X143057428Y-71574819D01*
X143057428Y-71574819D02*
X142771714Y-71574819D01*
X142771714Y-71574819D02*
X142676476Y-71527200D01*
X142676476Y-71527200D02*
X142628857Y-71479580D01*
X103666666Y-126654819D02*
X103333333Y-126178628D01*
X103095238Y-126654819D02*
X103095238Y-125654819D01*
X103095238Y-125654819D02*
X103476190Y-125654819D01*
X103476190Y-125654819D02*
X103571428Y-125702438D01*
X103571428Y-125702438D02*
X103619047Y-125750057D01*
X103619047Y-125750057D02*
X103666666Y-125845295D01*
X103666666Y-125845295D02*
X103666666Y-125988152D01*
X103666666Y-125988152D02*
X103619047Y-126083390D01*
X103619047Y-126083390D02*
X103571428Y-126131009D01*
X103571428Y-126131009D02*
X103476190Y-126178628D01*
X103476190Y-126178628D02*
X103095238Y-126178628D01*
X104095238Y-126131009D02*
X104428571Y-126131009D01*
X104571428Y-126654819D02*
X104095238Y-126654819D01*
X104095238Y-126654819D02*
X104095238Y-125654819D01*
X104095238Y-125654819D02*
X104571428Y-125654819D01*
X105333333Y-126131009D02*
X105000000Y-126131009D01*
X105000000Y-126654819D02*
X105000000Y-125654819D01*
X105000000Y-125654819D02*
X105476190Y-125654819D01*
X106000000Y-125654819D02*
X106000000Y-125892914D01*
X105761905Y-125797676D02*
X106000000Y-125892914D01*
X106000000Y-125892914D02*
X106238095Y-125797676D01*
X105857143Y-126083390D02*
X106000000Y-125892914D01*
X106000000Y-125892914D02*
X106142857Y-126083390D01*
X106761905Y-125654819D02*
X106761905Y-125892914D01*
X106523810Y-125797676D02*
X106761905Y-125892914D01*
X106761905Y-125892914D02*
X107000000Y-125797676D01*
X106619048Y-126083390D02*
X106761905Y-125892914D01*
X106761905Y-125892914D02*
X106904762Y-126083390D01*
X108069142Y-104848819D02*
X107735809Y-104372628D01*
X107497714Y-104848819D02*
X107497714Y-103848819D01*
X107497714Y-103848819D02*
X107878666Y-103848819D01*
X107878666Y-103848819D02*
X107973904Y-103896438D01*
X107973904Y-103896438D02*
X108021523Y-103944057D01*
X108021523Y-103944057D02*
X108069142Y-104039295D01*
X108069142Y-104039295D02*
X108069142Y-104182152D01*
X108069142Y-104182152D02*
X108021523Y-104277390D01*
X108021523Y-104277390D02*
X107973904Y-104325009D01*
X107973904Y-104325009D02*
X107878666Y-104372628D01*
X107878666Y-104372628D02*
X107497714Y-104372628D01*
X108450095Y-103944057D02*
X108497714Y-103896438D01*
X108497714Y-103896438D02*
X108592952Y-103848819D01*
X108592952Y-103848819D02*
X108831047Y-103848819D01*
X108831047Y-103848819D02*
X108926285Y-103896438D01*
X108926285Y-103896438D02*
X108973904Y-103944057D01*
X108973904Y-103944057D02*
X109021523Y-104039295D01*
X109021523Y-104039295D02*
X109021523Y-104134533D01*
X109021523Y-104134533D02*
X108973904Y-104277390D01*
X108973904Y-104277390D02*
X108402476Y-104848819D01*
X108402476Y-104848819D02*
X109021523Y-104848819D01*
X109878666Y-104182152D02*
X109878666Y-104848819D01*
X109640571Y-103801200D02*
X109402476Y-104515485D01*
X109402476Y-104515485D02*
X110021523Y-104515485D01*
X168013142Y-53540819D02*
X167679809Y-53064628D01*
X167441714Y-53540819D02*
X167441714Y-52540819D01*
X167441714Y-52540819D02*
X167822666Y-52540819D01*
X167822666Y-52540819D02*
X167917904Y-52588438D01*
X167917904Y-52588438D02*
X167965523Y-52636057D01*
X167965523Y-52636057D02*
X168013142Y-52731295D01*
X168013142Y-52731295D02*
X168013142Y-52874152D01*
X168013142Y-52874152D02*
X167965523Y-52969390D01*
X167965523Y-52969390D02*
X167917904Y-53017009D01*
X167917904Y-53017009D02*
X167822666Y-53064628D01*
X167822666Y-53064628D02*
X167441714Y-53064628D01*
X168394095Y-52636057D02*
X168441714Y-52588438D01*
X168441714Y-52588438D02*
X168536952Y-52540819D01*
X168536952Y-52540819D02*
X168775047Y-52540819D01*
X168775047Y-52540819D02*
X168870285Y-52588438D01*
X168870285Y-52588438D02*
X168917904Y-52636057D01*
X168917904Y-52636057D02*
X168965523Y-52731295D01*
X168965523Y-52731295D02*
X168965523Y-52826533D01*
X168965523Y-52826533D02*
X168917904Y-52969390D01*
X168917904Y-52969390D02*
X168346476Y-53540819D01*
X168346476Y-53540819D02*
X168965523Y-53540819D01*
X169346476Y-52636057D02*
X169394095Y-52588438D01*
X169394095Y-52588438D02*
X169489333Y-52540819D01*
X169489333Y-52540819D02*
X169727428Y-52540819D01*
X169727428Y-52540819D02*
X169822666Y-52588438D01*
X169822666Y-52588438D02*
X169870285Y-52636057D01*
X169870285Y-52636057D02*
X169917904Y-52731295D01*
X169917904Y-52731295D02*
X169917904Y-52826533D01*
X169917904Y-52826533D02*
X169870285Y-52969390D01*
X169870285Y-52969390D02*
X169298857Y-53540819D01*
X169298857Y-53540819D02*
X169917904Y-53540819D01*
X150741142Y-99260819D02*
X150407809Y-98784628D01*
X150169714Y-99260819D02*
X150169714Y-98260819D01*
X150169714Y-98260819D02*
X150550666Y-98260819D01*
X150550666Y-98260819D02*
X150645904Y-98308438D01*
X150645904Y-98308438D02*
X150693523Y-98356057D01*
X150693523Y-98356057D02*
X150741142Y-98451295D01*
X150741142Y-98451295D02*
X150741142Y-98594152D01*
X150741142Y-98594152D02*
X150693523Y-98689390D01*
X150693523Y-98689390D02*
X150645904Y-98737009D01*
X150645904Y-98737009D02*
X150550666Y-98784628D01*
X150550666Y-98784628D02*
X150169714Y-98784628D01*
X151122095Y-98356057D02*
X151169714Y-98308438D01*
X151169714Y-98308438D02*
X151264952Y-98260819D01*
X151264952Y-98260819D02*
X151503047Y-98260819D01*
X151503047Y-98260819D02*
X151598285Y-98308438D01*
X151598285Y-98308438D02*
X151645904Y-98356057D01*
X151645904Y-98356057D02*
X151693523Y-98451295D01*
X151693523Y-98451295D02*
X151693523Y-98546533D01*
X151693523Y-98546533D02*
X151645904Y-98689390D01*
X151645904Y-98689390D02*
X151074476Y-99260819D01*
X151074476Y-99260819D02*
X151693523Y-99260819D01*
X152026857Y-98260819D02*
X152645904Y-98260819D01*
X152645904Y-98260819D02*
X152312571Y-98641771D01*
X152312571Y-98641771D02*
X152455428Y-98641771D01*
X152455428Y-98641771D02*
X152550666Y-98689390D01*
X152550666Y-98689390D02*
X152598285Y-98737009D01*
X152598285Y-98737009D02*
X152645904Y-98832247D01*
X152645904Y-98832247D02*
X152645904Y-99070342D01*
X152645904Y-99070342D02*
X152598285Y-99165580D01*
X152598285Y-99165580D02*
X152550666Y-99213200D01*
X152550666Y-99213200D02*
X152455428Y-99260819D01*
X152455428Y-99260819D02*
X152169714Y-99260819D01*
X152169714Y-99260819D02*
X152074476Y-99213200D01*
X152074476Y-99213200D02*
X152026857Y-99165580D01*
X150995142Y-71574819D02*
X150661809Y-71098628D01*
X150423714Y-71574819D02*
X150423714Y-70574819D01*
X150423714Y-70574819D02*
X150804666Y-70574819D01*
X150804666Y-70574819D02*
X150899904Y-70622438D01*
X150899904Y-70622438D02*
X150947523Y-70670057D01*
X150947523Y-70670057D02*
X150995142Y-70765295D01*
X150995142Y-70765295D02*
X150995142Y-70908152D01*
X150995142Y-70908152D02*
X150947523Y-71003390D01*
X150947523Y-71003390D02*
X150899904Y-71051009D01*
X150899904Y-71051009D02*
X150804666Y-71098628D01*
X150804666Y-71098628D02*
X150423714Y-71098628D01*
X151947523Y-71574819D02*
X151376095Y-71574819D01*
X151661809Y-71574819D02*
X151661809Y-70574819D01*
X151661809Y-70574819D02*
X151566571Y-70717676D01*
X151566571Y-70717676D02*
X151471333Y-70812914D01*
X151471333Y-70812914D02*
X151376095Y-70860533D01*
X152804666Y-70574819D02*
X152614190Y-70574819D01*
X152614190Y-70574819D02*
X152518952Y-70622438D01*
X152518952Y-70622438D02*
X152471333Y-70670057D01*
X152471333Y-70670057D02*
X152376095Y-70812914D01*
X152376095Y-70812914D02*
X152328476Y-71003390D01*
X152328476Y-71003390D02*
X152328476Y-71384342D01*
X152328476Y-71384342D02*
X152376095Y-71479580D01*
X152376095Y-71479580D02*
X152423714Y-71527200D01*
X152423714Y-71527200D02*
X152518952Y-71574819D01*
X152518952Y-71574819D02*
X152709428Y-71574819D01*
X152709428Y-71574819D02*
X152804666Y-71527200D01*
X152804666Y-71527200D02*
X152852285Y-71479580D01*
X152852285Y-71479580D02*
X152899904Y-71384342D01*
X152899904Y-71384342D02*
X152899904Y-71146247D01*
X152899904Y-71146247D02*
X152852285Y-71051009D01*
X152852285Y-71051009D02*
X152804666Y-71003390D01*
X152804666Y-71003390D02*
X152709428Y-70955771D01*
X152709428Y-70955771D02*
X152518952Y-70955771D01*
X152518952Y-70955771D02*
X152423714Y-71003390D01*
X152423714Y-71003390D02*
X152376095Y-71051009D01*
X152376095Y-71051009D02*
X152328476Y-71146247D01*
X138295142Y-71574819D02*
X137961809Y-71098628D01*
X137723714Y-71574819D02*
X137723714Y-70574819D01*
X137723714Y-70574819D02*
X138104666Y-70574819D01*
X138104666Y-70574819D02*
X138199904Y-70622438D01*
X138199904Y-70622438D02*
X138247523Y-70670057D01*
X138247523Y-70670057D02*
X138295142Y-70765295D01*
X138295142Y-70765295D02*
X138295142Y-70908152D01*
X138295142Y-70908152D02*
X138247523Y-71003390D01*
X138247523Y-71003390D02*
X138199904Y-71051009D01*
X138199904Y-71051009D02*
X138104666Y-71098628D01*
X138104666Y-71098628D02*
X137723714Y-71098628D01*
X139247523Y-71574819D02*
X138676095Y-71574819D01*
X138961809Y-71574819D02*
X138961809Y-70574819D01*
X138961809Y-70574819D02*
X138866571Y-70717676D01*
X138866571Y-70717676D02*
X138771333Y-70812914D01*
X138771333Y-70812914D02*
X138676095Y-70860533D01*
X139628476Y-70670057D02*
X139676095Y-70622438D01*
X139676095Y-70622438D02*
X139771333Y-70574819D01*
X139771333Y-70574819D02*
X140009428Y-70574819D01*
X140009428Y-70574819D02*
X140104666Y-70622438D01*
X140104666Y-70622438D02*
X140152285Y-70670057D01*
X140152285Y-70670057D02*
X140199904Y-70765295D01*
X140199904Y-70765295D02*
X140199904Y-70860533D01*
X140199904Y-70860533D02*
X140152285Y-71003390D01*
X140152285Y-71003390D02*
X139580857Y-71574819D01*
X139580857Y-71574819D02*
X140199904Y-71574819D01*
X153416095Y-99022819D02*
X153416095Y-99832342D01*
X153416095Y-99832342D02*
X153463714Y-99927580D01*
X153463714Y-99927580D02*
X153511333Y-99975200D01*
X153511333Y-99975200D02*
X153606571Y-100022819D01*
X153606571Y-100022819D02*
X153797047Y-100022819D01*
X153797047Y-100022819D02*
X153892285Y-99975200D01*
X153892285Y-99975200D02*
X153939904Y-99927580D01*
X153939904Y-99927580D02*
X153987523Y-99832342D01*
X153987523Y-99832342D02*
X153987523Y-99022819D01*
X154939904Y-99022819D02*
X154463714Y-99022819D01*
X154463714Y-99022819D02*
X154416095Y-99499009D01*
X154416095Y-99499009D02*
X154463714Y-99451390D01*
X154463714Y-99451390D02*
X154558952Y-99403771D01*
X154558952Y-99403771D02*
X154797047Y-99403771D01*
X154797047Y-99403771D02*
X154892285Y-99451390D01*
X154892285Y-99451390D02*
X154939904Y-99499009D01*
X154939904Y-99499009D02*
X154987523Y-99594247D01*
X154987523Y-99594247D02*
X154987523Y-99832342D01*
X154987523Y-99832342D02*
X154939904Y-99927580D01*
X154939904Y-99927580D02*
X154892285Y-99975200D01*
X154892285Y-99975200D02*
X154797047Y-100022819D01*
X154797047Y-100022819D02*
X154558952Y-100022819D01*
X154558952Y-100022819D02*
X154463714Y-99975200D01*
X154463714Y-99975200D02*
X154416095Y-99927580D01*
X112355333Y-53540819D02*
X112022000Y-53064628D01*
X111783905Y-53540819D02*
X111783905Y-52540819D01*
X111783905Y-52540819D02*
X112164857Y-52540819D01*
X112164857Y-52540819D02*
X112260095Y-52588438D01*
X112260095Y-52588438D02*
X112307714Y-52636057D01*
X112307714Y-52636057D02*
X112355333Y-52731295D01*
X112355333Y-52731295D02*
X112355333Y-52874152D01*
X112355333Y-52874152D02*
X112307714Y-52969390D01*
X112307714Y-52969390D02*
X112260095Y-53017009D01*
X112260095Y-53017009D02*
X112164857Y-53064628D01*
X112164857Y-53064628D02*
X111783905Y-53064628D01*
X112688667Y-52540819D02*
X113307714Y-52540819D01*
X113307714Y-52540819D02*
X112974381Y-52921771D01*
X112974381Y-52921771D02*
X113117238Y-52921771D01*
X113117238Y-52921771D02*
X113212476Y-52969390D01*
X113212476Y-52969390D02*
X113260095Y-53017009D01*
X113260095Y-53017009D02*
X113307714Y-53112247D01*
X113307714Y-53112247D02*
X113307714Y-53350342D01*
X113307714Y-53350342D02*
X113260095Y-53445580D01*
X113260095Y-53445580D02*
X113212476Y-53493200D01*
X113212476Y-53493200D02*
X113117238Y-53540819D01*
X113117238Y-53540819D02*
X112831524Y-53540819D01*
X112831524Y-53540819D02*
X112736286Y-53493200D01*
X112736286Y-53493200D02*
X112688667Y-53445580D01*
X116165333Y-71574819D02*
X115832000Y-71098628D01*
X115593905Y-71574819D02*
X115593905Y-70574819D01*
X115593905Y-70574819D02*
X115974857Y-70574819D01*
X115974857Y-70574819D02*
X116070095Y-70622438D01*
X116070095Y-70622438D02*
X116117714Y-70670057D01*
X116117714Y-70670057D02*
X116165333Y-70765295D01*
X116165333Y-70765295D02*
X116165333Y-70908152D01*
X116165333Y-70908152D02*
X116117714Y-71003390D01*
X116117714Y-71003390D02*
X116070095Y-71051009D01*
X116070095Y-71051009D02*
X115974857Y-71098628D01*
X115974857Y-71098628D02*
X115593905Y-71098628D01*
X117070095Y-70574819D02*
X116593905Y-70574819D01*
X116593905Y-70574819D02*
X116546286Y-71051009D01*
X116546286Y-71051009D02*
X116593905Y-71003390D01*
X116593905Y-71003390D02*
X116689143Y-70955771D01*
X116689143Y-70955771D02*
X116927238Y-70955771D01*
X116927238Y-70955771D02*
X117022476Y-71003390D01*
X117022476Y-71003390D02*
X117070095Y-71051009D01*
X117070095Y-71051009D02*
X117117714Y-71146247D01*
X117117714Y-71146247D02*
X117117714Y-71384342D01*
X117117714Y-71384342D02*
X117070095Y-71479580D01*
X117070095Y-71479580D02*
X117022476Y-71527200D01*
X117022476Y-71527200D02*
X116927238Y-71574819D01*
X116927238Y-71574819D02*
X116689143Y-71574819D01*
X116689143Y-71574819D02*
X116593905Y-71527200D01*
X116593905Y-71527200D02*
X116546286Y-71479580D01*
X128611333Y-71574819D02*
X128278000Y-71098628D01*
X128039905Y-71574819D02*
X128039905Y-70574819D01*
X128039905Y-70574819D02*
X128420857Y-70574819D01*
X128420857Y-70574819D02*
X128516095Y-70622438D01*
X128516095Y-70622438D02*
X128563714Y-70670057D01*
X128563714Y-70670057D02*
X128611333Y-70765295D01*
X128611333Y-70765295D02*
X128611333Y-70908152D01*
X128611333Y-70908152D02*
X128563714Y-71003390D01*
X128563714Y-71003390D02*
X128516095Y-71051009D01*
X128516095Y-71051009D02*
X128420857Y-71098628D01*
X128420857Y-71098628D02*
X128039905Y-71098628D01*
X129087524Y-71574819D02*
X129278000Y-71574819D01*
X129278000Y-71574819D02*
X129373238Y-71527200D01*
X129373238Y-71527200D02*
X129420857Y-71479580D01*
X129420857Y-71479580D02*
X129516095Y-71336723D01*
X129516095Y-71336723D02*
X129563714Y-71146247D01*
X129563714Y-71146247D02*
X129563714Y-70765295D01*
X129563714Y-70765295D02*
X129516095Y-70670057D01*
X129516095Y-70670057D02*
X129468476Y-70622438D01*
X129468476Y-70622438D02*
X129373238Y-70574819D01*
X129373238Y-70574819D02*
X129182762Y-70574819D01*
X129182762Y-70574819D02*
X129087524Y-70622438D01*
X129087524Y-70622438D02*
X129039905Y-70670057D01*
X129039905Y-70670057D02*
X128992286Y-70765295D01*
X128992286Y-70765295D02*
X128992286Y-71003390D01*
X128992286Y-71003390D02*
X129039905Y-71098628D01*
X129039905Y-71098628D02*
X129087524Y-71146247D01*
X129087524Y-71146247D02*
X129182762Y-71193866D01*
X129182762Y-71193866D02*
X129373238Y-71193866D01*
X129373238Y-71193866D02*
X129468476Y-71146247D01*
X129468476Y-71146247D02*
X129516095Y-71098628D01*
X129516095Y-71098628D02*
X129563714Y-71003390D01*
X134993142Y-71574819D02*
X134659809Y-71098628D01*
X134421714Y-71574819D02*
X134421714Y-70574819D01*
X134421714Y-70574819D02*
X134802666Y-70574819D01*
X134802666Y-70574819D02*
X134897904Y-70622438D01*
X134897904Y-70622438D02*
X134945523Y-70670057D01*
X134945523Y-70670057D02*
X134993142Y-70765295D01*
X134993142Y-70765295D02*
X134993142Y-70908152D01*
X134993142Y-70908152D02*
X134945523Y-71003390D01*
X134945523Y-71003390D02*
X134897904Y-71051009D01*
X134897904Y-71051009D02*
X134802666Y-71098628D01*
X134802666Y-71098628D02*
X134421714Y-71098628D01*
X135945523Y-71574819D02*
X135374095Y-71574819D01*
X135659809Y-71574819D02*
X135659809Y-70574819D01*
X135659809Y-70574819D02*
X135564571Y-70717676D01*
X135564571Y-70717676D02*
X135469333Y-70812914D01*
X135469333Y-70812914D02*
X135374095Y-70860533D01*
X136897904Y-71574819D02*
X136326476Y-71574819D01*
X136612190Y-71574819D02*
X136612190Y-70574819D01*
X136612190Y-70574819D02*
X136516952Y-70717676D01*
X136516952Y-70717676D02*
X136421714Y-70812914D01*
X136421714Y-70812914D02*
X136326476Y-70860533D01*
X150876095Y-85560819D02*
X150876095Y-86370342D01*
X150876095Y-86370342D02*
X150923714Y-86465580D01*
X150923714Y-86465580D02*
X150971333Y-86513200D01*
X150971333Y-86513200D02*
X151066571Y-86560819D01*
X151066571Y-86560819D02*
X151257047Y-86560819D01*
X151257047Y-86560819D02*
X151352285Y-86513200D01*
X151352285Y-86513200D02*
X151399904Y-86465580D01*
X151399904Y-86465580D02*
X151447523Y-86370342D01*
X151447523Y-86370342D02*
X151447523Y-85560819D01*
X151828476Y-85560819D02*
X152447523Y-85560819D01*
X152447523Y-85560819D02*
X152114190Y-85941771D01*
X152114190Y-85941771D02*
X152257047Y-85941771D01*
X152257047Y-85941771D02*
X152352285Y-85989390D01*
X152352285Y-85989390D02*
X152399904Y-86037009D01*
X152399904Y-86037009D02*
X152447523Y-86132247D01*
X152447523Y-86132247D02*
X152447523Y-86370342D01*
X152447523Y-86370342D02*
X152399904Y-86465580D01*
X152399904Y-86465580D02*
X152352285Y-86513200D01*
X152352285Y-86513200D02*
X152257047Y-86560819D01*
X152257047Y-86560819D02*
X151971333Y-86560819D01*
X151971333Y-86560819D02*
X151876095Y-86513200D01*
X151876095Y-86513200D02*
X151828476Y-86465580D01*
X135382095Y-100800819D02*
X135382095Y-101610342D01*
X135382095Y-101610342D02*
X135429714Y-101705580D01*
X135429714Y-101705580D02*
X135477333Y-101753200D01*
X135477333Y-101753200D02*
X135572571Y-101800819D01*
X135572571Y-101800819D02*
X135763047Y-101800819D01*
X135763047Y-101800819D02*
X135858285Y-101753200D01*
X135858285Y-101753200D02*
X135905904Y-101705580D01*
X135905904Y-101705580D02*
X135953523Y-101610342D01*
X135953523Y-101610342D02*
X135953523Y-100800819D01*
X136858285Y-101134152D02*
X136858285Y-101800819D01*
X136620190Y-100753200D02*
X136382095Y-101467485D01*
X136382095Y-101467485D02*
X137001142Y-101467485D01*
X158361142Y-53540819D02*
X158027809Y-53064628D01*
X157789714Y-53540819D02*
X157789714Y-52540819D01*
X157789714Y-52540819D02*
X158170666Y-52540819D01*
X158170666Y-52540819D02*
X158265904Y-52588438D01*
X158265904Y-52588438D02*
X158313523Y-52636057D01*
X158313523Y-52636057D02*
X158361142Y-52731295D01*
X158361142Y-52731295D02*
X158361142Y-52874152D01*
X158361142Y-52874152D02*
X158313523Y-52969390D01*
X158313523Y-52969390D02*
X158265904Y-53017009D01*
X158265904Y-53017009D02*
X158170666Y-53064628D01*
X158170666Y-53064628D02*
X157789714Y-53064628D01*
X159313523Y-53540819D02*
X158742095Y-53540819D01*
X159027809Y-53540819D02*
X159027809Y-52540819D01*
X159027809Y-52540819D02*
X158932571Y-52683676D01*
X158932571Y-52683676D02*
X158837333Y-52778914D01*
X158837333Y-52778914D02*
X158742095Y-52826533D01*
X159789714Y-53540819D02*
X159980190Y-53540819D01*
X159980190Y-53540819D02*
X160075428Y-53493200D01*
X160075428Y-53493200D02*
X160123047Y-53445580D01*
X160123047Y-53445580D02*
X160218285Y-53302723D01*
X160218285Y-53302723D02*
X160265904Y-53112247D01*
X160265904Y-53112247D02*
X160265904Y-52731295D01*
X160265904Y-52731295D02*
X160218285Y-52636057D01*
X160218285Y-52636057D02*
X160170666Y-52588438D01*
X160170666Y-52588438D02*
X160075428Y-52540819D01*
X160075428Y-52540819D02*
X159884952Y-52540819D01*
X159884952Y-52540819D02*
X159789714Y-52588438D01*
X159789714Y-52588438D02*
X159742095Y-52636057D01*
X159742095Y-52636057D02*
X159694476Y-52731295D01*
X159694476Y-52731295D02*
X159694476Y-52969390D01*
X159694476Y-52969390D02*
X159742095Y-53064628D01*
X159742095Y-53064628D02*
X159789714Y-53112247D01*
X159789714Y-53112247D02*
X159884952Y-53159866D01*
X159884952Y-53159866D02*
X160075428Y-53159866D01*
X160075428Y-53159866D02*
X160170666Y-53112247D01*
X160170666Y-53112247D02*
X160218285Y-53064628D01*
X160218285Y-53064628D02*
X160265904Y-52969390D01*
X144549905Y-49984819D02*
X144549905Y-48984819D01*
X144549905Y-48984819D02*
X144788000Y-48984819D01*
X144788000Y-48984819D02*
X144930857Y-49032438D01*
X144930857Y-49032438D02*
X145026095Y-49127676D01*
X145026095Y-49127676D02*
X145073714Y-49222914D01*
X145073714Y-49222914D02*
X145121333Y-49413390D01*
X145121333Y-49413390D02*
X145121333Y-49556247D01*
X145121333Y-49556247D02*
X145073714Y-49746723D01*
X145073714Y-49746723D02*
X145026095Y-49841961D01*
X145026095Y-49841961D02*
X144930857Y-49937200D01*
X144930857Y-49937200D02*
X144788000Y-49984819D01*
X144788000Y-49984819D02*
X144549905Y-49984819D01*
X145454667Y-48984819D02*
X146073714Y-48984819D01*
X146073714Y-48984819D02*
X145740381Y-49365771D01*
X145740381Y-49365771D02*
X145883238Y-49365771D01*
X145883238Y-49365771D02*
X145978476Y-49413390D01*
X145978476Y-49413390D02*
X146026095Y-49461009D01*
X146026095Y-49461009D02*
X146073714Y-49556247D01*
X146073714Y-49556247D02*
X146073714Y-49794342D01*
X146073714Y-49794342D02*
X146026095Y-49889580D01*
X146026095Y-49889580D02*
X145978476Y-49937200D01*
X145978476Y-49937200D02*
X145883238Y-49984819D01*
X145883238Y-49984819D02*
X145597524Y-49984819D01*
X145597524Y-49984819D02*
X145502286Y-49937200D01*
X145502286Y-49937200D02*
X145454667Y-49889580D01*
X148423333Y-88243580D02*
X148375714Y-88291200D01*
X148375714Y-88291200D02*
X148232857Y-88338819D01*
X148232857Y-88338819D02*
X148137619Y-88338819D01*
X148137619Y-88338819D02*
X147994762Y-88291200D01*
X147994762Y-88291200D02*
X147899524Y-88195961D01*
X147899524Y-88195961D02*
X147851905Y-88100723D01*
X147851905Y-88100723D02*
X147804286Y-87910247D01*
X147804286Y-87910247D02*
X147804286Y-87767390D01*
X147804286Y-87767390D02*
X147851905Y-87576914D01*
X147851905Y-87576914D02*
X147899524Y-87481676D01*
X147899524Y-87481676D02*
X147994762Y-87386438D01*
X147994762Y-87386438D02*
X148137619Y-87338819D01*
X148137619Y-87338819D02*
X148232857Y-87338819D01*
X148232857Y-87338819D02*
X148375714Y-87386438D01*
X148375714Y-87386438D02*
X148423333Y-87434057D01*
X148804286Y-87434057D02*
X148851905Y-87386438D01*
X148851905Y-87386438D02*
X148947143Y-87338819D01*
X148947143Y-87338819D02*
X149185238Y-87338819D01*
X149185238Y-87338819D02*
X149280476Y-87386438D01*
X149280476Y-87386438D02*
X149328095Y-87434057D01*
X149328095Y-87434057D02*
X149375714Y-87529295D01*
X149375714Y-87529295D02*
X149375714Y-87624533D01*
X149375714Y-87624533D02*
X149328095Y-87767390D01*
X149328095Y-87767390D02*
X148756667Y-88338819D01*
X148756667Y-88338819D02*
X149375714Y-88338819D01*
X144645142Y-71574819D02*
X144311809Y-71098628D01*
X144073714Y-71574819D02*
X144073714Y-70574819D01*
X144073714Y-70574819D02*
X144454666Y-70574819D01*
X144454666Y-70574819D02*
X144549904Y-70622438D01*
X144549904Y-70622438D02*
X144597523Y-70670057D01*
X144597523Y-70670057D02*
X144645142Y-70765295D01*
X144645142Y-70765295D02*
X144645142Y-70908152D01*
X144645142Y-70908152D02*
X144597523Y-71003390D01*
X144597523Y-71003390D02*
X144549904Y-71051009D01*
X144549904Y-71051009D02*
X144454666Y-71098628D01*
X144454666Y-71098628D02*
X144073714Y-71098628D01*
X145597523Y-71574819D02*
X145026095Y-71574819D01*
X145311809Y-71574819D02*
X145311809Y-70574819D01*
X145311809Y-70574819D02*
X145216571Y-70717676D01*
X145216571Y-70717676D02*
X145121333Y-70812914D01*
X145121333Y-70812914D02*
X145026095Y-70860533D01*
X146454666Y-70908152D02*
X146454666Y-71574819D01*
X146216571Y-70527200D02*
X145978476Y-71241485D01*
X145978476Y-71241485D02*
X146597523Y-71241485D01*
X119213333Y-71574819D02*
X118880000Y-71098628D01*
X118641905Y-71574819D02*
X118641905Y-70574819D01*
X118641905Y-70574819D02*
X119022857Y-70574819D01*
X119022857Y-70574819D02*
X119118095Y-70622438D01*
X119118095Y-70622438D02*
X119165714Y-70670057D01*
X119165714Y-70670057D02*
X119213333Y-70765295D01*
X119213333Y-70765295D02*
X119213333Y-70908152D01*
X119213333Y-70908152D02*
X119165714Y-71003390D01*
X119165714Y-71003390D02*
X119118095Y-71051009D01*
X119118095Y-71051009D02*
X119022857Y-71098628D01*
X119022857Y-71098628D02*
X118641905Y-71098628D01*
X120070476Y-70574819D02*
X119880000Y-70574819D01*
X119880000Y-70574819D02*
X119784762Y-70622438D01*
X119784762Y-70622438D02*
X119737143Y-70670057D01*
X119737143Y-70670057D02*
X119641905Y-70812914D01*
X119641905Y-70812914D02*
X119594286Y-71003390D01*
X119594286Y-71003390D02*
X119594286Y-71384342D01*
X119594286Y-71384342D02*
X119641905Y-71479580D01*
X119641905Y-71479580D02*
X119689524Y-71527200D01*
X119689524Y-71527200D02*
X119784762Y-71574819D01*
X119784762Y-71574819D02*
X119975238Y-71574819D01*
X119975238Y-71574819D02*
X120070476Y-71527200D01*
X120070476Y-71527200D02*
X120118095Y-71479580D01*
X120118095Y-71479580D02*
X120165714Y-71384342D01*
X120165714Y-71384342D02*
X120165714Y-71146247D01*
X120165714Y-71146247D02*
X120118095Y-71051009D01*
X120118095Y-71051009D02*
X120070476Y-71003390D01*
X120070476Y-71003390D02*
X119975238Y-70955771D01*
X119975238Y-70955771D02*
X119784762Y-70955771D01*
X119784762Y-70955771D02*
X119689524Y-71003390D01*
X119689524Y-71003390D02*
X119641905Y-71051009D01*
X119641905Y-71051009D02*
X119594286Y-71146247D01*
X131087905Y-49984819D02*
X131087905Y-48984819D01*
X131087905Y-48984819D02*
X131326000Y-48984819D01*
X131326000Y-48984819D02*
X131468857Y-49032438D01*
X131468857Y-49032438D02*
X131564095Y-49127676D01*
X131564095Y-49127676D02*
X131611714Y-49222914D01*
X131611714Y-49222914D02*
X131659333Y-49413390D01*
X131659333Y-49413390D02*
X131659333Y-49556247D01*
X131659333Y-49556247D02*
X131611714Y-49746723D01*
X131611714Y-49746723D02*
X131564095Y-49841961D01*
X131564095Y-49841961D02*
X131468857Y-49937200D01*
X131468857Y-49937200D02*
X131326000Y-49984819D01*
X131326000Y-49984819D02*
X131087905Y-49984819D01*
X132040286Y-49080057D02*
X132087905Y-49032438D01*
X132087905Y-49032438D02*
X132183143Y-48984819D01*
X132183143Y-48984819D02*
X132421238Y-48984819D01*
X132421238Y-48984819D02*
X132516476Y-49032438D01*
X132516476Y-49032438D02*
X132564095Y-49080057D01*
X132564095Y-49080057D02*
X132611714Y-49175295D01*
X132611714Y-49175295D02*
X132611714Y-49270533D01*
X132611714Y-49270533D02*
X132564095Y-49413390D01*
X132564095Y-49413390D02*
X131992667Y-49984819D01*
X131992667Y-49984819D02*
X132611714Y-49984819D01*
X161663142Y-53540819D02*
X161329809Y-53064628D01*
X161091714Y-53540819D02*
X161091714Y-52540819D01*
X161091714Y-52540819D02*
X161472666Y-52540819D01*
X161472666Y-52540819D02*
X161567904Y-52588438D01*
X161567904Y-52588438D02*
X161615523Y-52636057D01*
X161615523Y-52636057D02*
X161663142Y-52731295D01*
X161663142Y-52731295D02*
X161663142Y-52874152D01*
X161663142Y-52874152D02*
X161615523Y-52969390D01*
X161615523Y-52969390D02*
X161567904Y-53017009D01*
X161567904Y-53017009D02*
X161472666Y-53064628D01*
X161472666Y-53064628D02*
X161091714Y-53064628D01*
X162044095Y-52636057D02*
X162091714Y-52588438D01*
X162091714Y-52588438D02*
X162186952Y-52540819D01*
X162186952Y-52540819D02*
X162425047Y-52540819D01*
X162425047Y-52540819D02*
X162520285Y-52588438D01*
X162520285Y-52588438D02*
X162567904Y-52636057D01*
X162567904Y-52636057D02*
X162615523Y-52731295D01*
X162615523Y-52731295D02*
X162615523Y-52826533D01*
X162615523Y-52826533D02*
X162567904Y-52969390D01*
X162567904Y-52969390D02*
X161996476Y-53540819D01*
X161996476Y-53540819D02*
X162615523Y-53540819D01*
X163234571Y-52540819D02*
X163329809Y-52540819D01*
X163329809Y-52540819D02*
X163425047Y-52588438D01*
X163425047Y-52588438D02*
X163472666Y-52636057D01*
X163472666Y-52636057D02*
X163520285Y-52731295D01*
X163520285Y-52731295D02*
X163567904Y-52921771D01*
X163567904Y-52921771D02*
X163567904Y-53159866D01*
X163567904Y-53159866D02*
X163520285Y-53350342D01*
X163520285Y-53350342D02*
X163472666Y-53445580D01*
X163472666Y-53445580D02*
X163425047Y-53493200D01*
X163425047Y-53493200D02*
X163329809Y-53540819D01*
X163329809Y-53540819D02*
X163234571Y-53540819D01*
X163234571Y-53540819D02*
X163139333Y-53493200D01*
X163139333Y-53493200D02*
X163091714Y-53445580D01*
X163091714Y-53445580D02*
X163044095Y-53350342D01*
X163044095Y-53350342D02*
X162996476Y-53159866D01*
X162996476Y-53159866D02*
X162996476Y-52921771D01*
X162996476Y-52921771D02*
X163044095Y-52731295D01*
X163044095Y-52731295D02*
X163091714Y-52636057D01*
X163091714Y-52636057D02*
X163139333Y-52588438D01*
X163139333Y-52588438D02*
X163234571Y-52540819D01*
X131945142Y-71574819D02*
X131611809Y-71098628D01*
X131373714Y-71574819D02*
X131373714Y-70574819D01*
X131373714Y-70574819D02*
X131754666Y-70574819D01*
X131754666Y-70574819D02*
X131849904Y-70622438D01*
X131849904Y-70622438D02*
X131897523Y-70670057D01*
X131897523Y-70670057D02*
X131945142Y-70765295D01*
X131945142Y-70765295D02*
X131945142Y-70908152D01*
X131945142Y-70908152D02*
X131897523Y-71003390D01*
X131897523Y-71003390D02*
X131849904Y-71051009D01*
X131849904Y-71051009D02*
X131754666Y-71098628D01*
X131754666Y-71098628D02*
X131373714Y-71098628D01*
X132897523Y-71574819D02*
X132326095Y-71574819D01*
X132611809Y-71574819D02*
X132611809Y-70574819D01*
X132611809Y-70574819D02*
X132516571Y-70717676D01*
X132516571Y-70717676D02*
X132421333Y-70812914D01*
X132421333Y-70812914D02*
X132326095Y-70860533D01*
X133516571Y-70574819D02*
X133611809Y-70574819D01*
X133611809Y-70574819D02*
X133707047Y-70622438D01*
X133707047Y-70622438D02*
X133754666Y-70670057D01*
X133754666Y-70670057D02*
X133802285Y-70765295D01*
X133802285Y-70765295D02*
X133849904Y-70955771D01*
X133849904Y-70955771D02*
X133849904Y-71193866D01*
X133849904Y-71193866D02*
X133802285Y-71384342D01*
X133802285Y-71384342D02*
X133754666Y-71479580D01*
X133754666Y-71479580D02*
X133707047Y-71527200D01*
X133707047Y-71527200D02*
X133611809Y-71574819D01*
X133611809Y-71574819D02*
X133516571Y-71574819D01*
X133516571Y-71574819D02*
X133421333Y-71527200D01*
X133421333Y-71527200D02*
X133373714Y-71479580D01*
X133373714Y-71479580D02*
X133326095Y-71384342D01*
X133326095Y-71384342D02*
X133278476Y-71193866D01*
X133278476Y-71193866D02*
X133278476Y-70955771D01*
X133278476Y-70955771D02*
X133326095Y-70765295D01*
X133326095Y-70765295D02*
X133373714Y-70670057D01*
X133373714Y-70670057D02*
X133421333Y-70622438D01*
X133421333Y-70622438D02*
X133516571Y-70574819D01*
X109307333Y-53540819D02*
X108974000Y-53064628D01*
X108735905Y-53540819D02*
X108735905Y-52540819D01*
X108735905Y-52540819D02*
X109116857Y-52540819D01*
X109116857Y-52540819D02*
X109212095Y-52588438D01*
X109212095Y-52588438D02*
X109259714Y-52636057D01*
X109259714Y-52636057D02*
X109307333Y-52731295D01*
X109307333Y-52731295D02*
X109307333Y-52874152D01*
X109307333Y-52874152D02*
X109259714Y-52969390D01*
X109259714Y-52969390D02*
X109212095Y-53017009D01*
X109212095Y-53017009D02*
X109116857Y-53064628D01*
X109116857Y-53064628D02*
X108735905Y-53064628D01*
X109688286Y-52636057D02*
X109735905Y-52588438D01*
X109735905Y-52588438D02*
X109831143Y-52540819D01*
X109831143Y-52540819D02*
X110069238Y-52540819D01*
X110069238Y-52540819D02*
X110164476Y-52588438D01*
X110164476Y-52588438D02*
X110212095Y-52636057D01*
X110212095Y-52636057D02*
X110259714Y-52731295D01*
X110259714Y-52731295D02*
X110259714Y-52826533D01*
X110259714Y-52826533D02*
X110212095Y-52969390D01*
X110212095Y-52969390D02*
X109640667Y-53540819D01*
X109640667Y-53540819D02*
X110259714Y-53540819D01*
X157345142Y-71574819D02*
X157011809Y-71098628D01*
X156773714Y-71574819D02*
X156773714Y-70574819D01*
X156773714Y-70574819D02*
X157154666Y-70574819D01*
X157154666Y-70574819D02*
X157249904Y-70622438D01*
X157249904Y-70622438D02*
X157297523Y-70670057D01*
X157297523Y-70670057D02*
X157345142Y-70765295D01*
X157345142Y-70765295D02*
X157345142Y-70908152D01*
X157345142Y-70908152D02*
X157297523Y-71003390D01*
X157297523Y-71003390D02*
X157249904Y-71051009D01*
X157249904Y-71051009D02*
X157154666Y-71098628D01*
X157154666Y-71098628D02*
X156773714Y-71098628D01*
X158297523Y-71574819D02*
X157726095Y-71574819D01*
X158011809Y-71574819D02*
X158011809Y-70574819D01*
X158011809Y-70574819D02*
X157916571Y-70717676D01*
X157916571Y-70717676D02*
X157821333Y-70812914D01*
X157821333Y-70812914D02*
X157726095Y-70860533D01*
X158868952Y-71003390D02*
X158773714Y-70955771D01*
X158773714Y-70955771D02*
X158726095Y-70908152D01*
X158726095Y-70908152D02*
X158678476Y-70812914D01*
X158678476Y-70812914D02*
X158678476Y-70765295D01*
X158678476Y-70765295D02*
X158726095Y-70670057D01*
X158726095Y-70670057D02*
X158773714Y-70622438D01*
X158773714Y-70622438D02*
X158868952Y-70574819D01*
X158868952Y-70574819D02*
X159059428Y-70574819D01*
X159059428Y-70574819D02*
X159154666Y-70622438D01*
X159154666Y-70622438D02*
X159202285Y-70670057D01*
X159202285Y-70670057D02*
X159249904Y-70765295D01*
X159249904Y-70765295D02*
X159249904Y-70812914D01*
X159249904Y-70812914D02*
X159202285Y-70908152D01*
X159202285Y-70908152D02*
X159154666Y-70955771D01*
X159154666Y-70955771D02*
X159059428Y-71003390D01*
X159059428Y-71003390D02*
X158868952Y-71003390D01*
X158868952Y-71003390D02*
X158773714Y-71051009D01*
X158773714Y-71051009D02*
X158726095Y-71098628D01*
X158726095Y-71098628D02*
X158678476Y-71193866D01*
X158678476Y-71193866D02*
X158678476Y-71384342D01*
X158678476Y-71384342D02*
X158726095Y-71479580D01*
X158726095Y-71479580D02*
X158773714Y-71527200D01*
X158773714Y-71527200D02*
X158868952Y-71574819D01*
X158868952Y-71574819D02*
X159059428Y-71574819D01*
X159059428Y-71574819D02*
X159154666Y-71527200D01*
X159154666Y-71527200D02*
X159202285Y-71479580D01*
X159202285Y-71479580D02*
X159249904Y-71384342D01*
X159249904Y-71384342D02*
X159249904Y-71193866D01*
X159249904Y-71193866D02*
X159202285Y-71098628D01*
X159202285Y-71098628D02*
X159154666Y-71051009D01*
X159154666Y-71051009D02*
X159059428Y-71003390D01*
X173823333Y-88243580D02*
X173775714Y-88291200D01*
X173775714Y-88291200D02*
X173632857Y-88338819D01*
X173632857Y-88338819D02*
X173537619Y-88338819D01*
X173537619Y-88338819D02*
X173394762Y-88291200D01*
X173394762Y-88291200D02*
X173299524Y-88195961D01*
X173299524Y-88195961D02*
X173251905Y-88100723D01*
X173251905Y-88100723D02*
X173204286Y-87910247D01*
X173204286Y-87910247D02*
X173204286Y-87767390D01*
X173204286Y-87767390D02*
X173251905Y-87576914D01*
X173251905Y-87576914D02*
X173299524Y-87481676D01*
X173299524Y-87481676D02*
X173394762Y-87386438D01*
X173394762Y-87386438D02*
X173537619Y-87338819D01*
X173537619Y-87338819D02*
X173632857Y-87338819D01*
X173632857Y-87338819D02*
X173775714Y-87386438D01*
X173775714Y-87386438D02*
X173823333Y-87434057D01*
X174156667Y-87338819D02*
X174775714Y-87338819D01*
X174775714Y-87338819D02*
X174442381Y-87719771D01*
X174442381Y-87719771D02*
X174585238Y-87719771D01*
X174585238Y-87719771D02*
X174680476Y-87767390D01*
X174680476Y-87767390D02*
X174728095Y-87815009D01*
X174728095Y-87815009D02*
X174775714Y-87910247D01*
X174775714Y-87910247D02*
X174775714Y-88148342D01*
X174775714Y-88148342D02*
X174728095Y-88243580D01*
X174728095Y-88243580D02*
X174680476Y-88291200D01*
X174680476Y-88291200D02*
X174585238Y-88338819D01*
X174585238Y-88338819D02*
X174299524Y-88338819D01*
X174299524Y-88338819D02*
X174204286Y-88291200D01*
X174204286Y-88291200D02*
X174156667Y-88243580D01*
X147693142Y-71574819D02*
X147359809Y-71098628D01*
X147121714Y-71574819D02*
X147121714Y-70574819D01*
X147121714Y-70574819D02*
X147502666Y-70574819D01*
X147502666Y-70574819D02*
X147597904Y-70622438D01*
X147597904Y-70622438D02*
X147645523Y-70670057D01*
X147645523Y-70670057D02*
X147693142Y-70765295D01*
X147693142Y-70765295D02*
X147693142Y-70908152D01*
X147693142Y-70908152D02*
X147645523Y-71003390D01*
X147645523Y-71003390D02*
X147597904Y-71051009D01*
X147597904Y-71051009D02*
X147502666Y-71098628D01*
X147502666Y-71098628D02*
X147121714Y-71098628D01*
X148645523Y-71574819D02*
X148074095Y-71574819D01*
X148359809Y-71574819D02*
X148359809Y-70574819D01*
X148359809Y-70574819D02*
X148264571Y-70717676D01*
X148264571Y-70717676D02*
X148169333Y-70812914D01*
X148169333Y-70812914D02*
X148074095Y-70860533D01*
X149550285Y-70574819D02*
X149074095Y-70574819D01*
X149074095Y-70574819D02*
X149026476Y-71051009D01*
X149026476Y-71051009D02*
X149074095Y-71003390D01*
X149074095Y-71003390D02*
X149169333Y-70955771D01*
X149169333Y-70955771D02*
X149407428Y-70955771D01*
X149407428Y-70955771D02*
X149502666Y-71003390D01*
X149502666Y-71003390D02*
X149550285Y-71051009D01*
X149550285Y-71051009D02*
X149597904Y-71146247D01*
X149597904Y-71146247D02*
X149597904Y-71384342D01*
X149597904Y-71384342D02*
X149550285Y-71479580D01*
X149550285Y-71479580D02*
X149502666Y-71527200D01*
X149502666Y-71527200D02*
X149407428Y-71574819D01*
X149407428Y-71574819D02*
X149169333Y-71574819D01*
X149169333Y-71574819D02*
X149074095Y-71527200D01*
X149074095Y-71527200D02*
X149026476Y-71479580D01*
X154043142Y-71574819D02*
X153709809Y-71098628D01*
X153471714Y-71574819D02*
X153471714Y-70574819D01*
X153471714Y-70574819D02*
X153852666Y-70574819D01*
X153852666Y-70574819D02*
X153947904Y-70622438D01*
X153947904Y-70622438D02*
X153995523Y-70670057D01*
X153995523Y-70670057D02*
X154043142Y-70765295D01*
X154043142Y-70765295D02*
X154043142Y-70908152D01*
X154043142Y-70908152D02*
X153995523Y-71003390D01*
X153995523Y-71003390D02*
X153947904Y-71051009D01*
X153947904Y-71051009D02*
X153852666Y-71098628D01*
X153852666Y-71098628D02*
X153471714Y-71098628D01*
X154995523Y-71574819D02*
X154424095Y-71574819D01*
X154709809Y-71574819D02*
X154709809Y-70574819D01*
X154709809Y-70574819D02*
X154614571Y-70717676D01*
X154614571Y-70717676D02*
X154519333Y-70812914D01*
X154519333Y-70812914D02*
X154424095Y-70860533D01*
X155328857Y-70574819D02*
X155995523Y-70574819D01*
X155995523Y-70574819D02*
X155566952Y-71574819D01*
X122261333Y-71574819D02*
X121928000Y-71098628D01*
X121689905Y-71574819D02*
X121689905Y-70574819D01*
X121689905Y-70574819D02*
X122070857Y-70574819D01*
X122070857Y-70574819D02*
X122166095Y-70622438D01*
X122166095Y-70622438D02*
X122213714Y-70670057D01*
X122213714Y-70670057D02*
X122261333Y-70765295D01*
X122261333Y-70765295D02*
X122261333Y-70908152D01*
X122261333Y-70908152D02*
X122213714Y-71003390D01*
X122213714Y-71003390D02*
X122166095Y-71051009D01*
X122166095Y-71051009D02*
X122070857Y-71098628D01*
X122070857Y-71098628D02*
X121689905Y-71098628D01*
X122594667Y-70574819D02*
X123261333Y-70574819D01*
X123261333Y-70574819D02*
X122832762Y-71574819D01*
X115092819Y-113418857D02*
X114616628Y-113752190D01*
X115092819Y-113990285D02*
X114092819Y-113990285D01*
X114092819Y-113990285D02*
X114092819Y-113609333D01*
X114092819Y-113609333D02*
X114140438Y-113514095D01*
X114140438Y-113514095D02*
X114188057Y-113466476D01*
X114188057Y-113466476D02*
X114283295Y-113418857D01*
X114283295Y-113418857D02*
X114426152Y-113418857D01*
X114426152Y-113418857D02*
X114521390Y-113466476D01*
X114521390Y-113466476D02*
X114569009Y-113514095D01*
X114569009Y-113514095D02*
X114616628Y-113609333D01*
X114616628Y-113609333D02*
X114616628Y-113990285D01*
X114188057Y-113037904D02*
X114140438Y-112990285D01*
X114140438Y-112990285D02*
X114092819Y-112895047D01*
X114092819Y-112895047D02*
X114092819Y-112656952D01*
X114092819Y-112656952D02*
X114140438Y-112561714D01*
X114140438Y-112561714D02*
X114188057Y-112514095D01*
X114188057Y-112514095D02*
X114283295Y-112466476D01*
X114283295Y-112466476D02*
X114378533Y-112466476D01*
X114378533Y-112466476D02*
X114521390Y-112514095D01*
X114521390Y-112514095D02*
X115092819Y-113085523D01*
X115092819Y-113085523D02*
X115092819Y-112466476D01*
X114092819Y-111561714D02*
X114092819Y-112037904D01*
X114092819Y-112037904D02*
X114569009Y-112085523D01*
X114569009Y-112085523D02*
X114521390Y-112037904D01*
X114521390Y-112037904D02*
X114473771Y-111942666D01*
X114473771Y-111942666D02*
X114473771Y-111704571D01*
X114473771Y-111704571D02*
X114521390Y-111609333D01*
X114521390Y-111609333D02*
X114569009Y-111561714D01*
X114569009Y-111561714D02*
X114664247Y-111514095D01*
X114664247Y-111514095D02*
X114902342Y-111514095D01*
X114902342Y-111514095D02*
X114997580Y-111561714D01*
X114997580Y-111561714D02*
X115045200Y-111609333D01*
X115045200Y-111609333D02*
X115092819Y-111704571D01*
X115092819Y-111704571D02*
X115092819Y-111942666D01*
X115092819Y-111942666D02*
X115045200Y-112037904D01*
X115045200Y-112037904D02*
X114997580Y-112085523D01*
X166203333Y-101705580D02*
X166155714Y-101753200D01*
X166155714Y-101753200D02*
X166012857Y-101800819D01*
X166012857Y-101800819D02*
X165917619Y-101800819D01*
X165917619Y-101800819D02*
X165774762Y-101753200D01*
X165774762Y-101753200D02*
X165679524Y-101657961D01*
X165679524Y-101657961D02*
X165631905Y-101562723D01*
X165631905Y-101562723D02*
X165584286Y-101372247D01*
X165584286Y-101372247D02*
X165584286Y-101229390D01*
X165584286Y-101229390D02*
X165631905Y-101038914D01*
X165631905Y-101038914D02*
X165679524Y-100943676D01*
X165679524Y-100943676D02*
X165774762Y-100848438D01*
X165774762Y-100848438D02*
X165917619Y-100800819D01*
X165917619Y-100800819D02*
X166012857Y-100800819D01*
X166012857Y-100800819D02*
X166155714Y-100848438D01*
X166155714Y-100848438D02*
X166203333Y-100896057D01*
X167108095Y-100800819D02*
X166631905Y-100800819D01*
X166631905Y-100800819D02*
X166584286Y-101277009D01*
X166584286Y-101277009D02*
X166631905Y-101229390D01*
X166631905Y-101229390D02*
X166727143Y-101181771D01*
X166727143Y-101181771D02*
X166965238Y-101181771D01*
X166965238Y-101181771D02*
X167060476Y-101229390D01*
X167060476Y-101229390D02*
X167108095Y-101277009D01*
X167108095Y-101277009D02*
X167155714Y-101372247D01*
X167155714Y-101372247D02*
X167155714Y-101610342D01*
X167155714Y-101610342D02*
X167108095Y-101705580D01*
X167108095Y-101705580D02*
X167060476Y-101753200D01*
X167060476Y-101753200D02*
X166965238Y-101800819D01*
X166965238Y-101800819D02*
X166727143Y-101800819D01*
X166727143Y-101800819D02*
X166631905Y-101753200D01*
X166631905Y-101753200D02*
X166584286Y-101705580D01*
X168666666Y-126654819D02*
X168333333Y-126178628D01*
X168095238Y-126654819D02*
X168095238Y-125654819D01*
X168095238Y-125654819D02*
X168476190Y-125654819D01*
X168476190Y-125654819D02*
X168571428Y-125702438D01*
X168571428Y-125702438D02*
X168619047Y-125750057D01*
X168619047Y-125750057D02*
X168666666Y-125845295D01*
X168666666Y-125845295D02*
X168666666Y-125988152D01*
X168666666Y-125988152D02*
X168619047Y-126083390D01*
X168619047Y-126083390D02*
X168571428Y-126131009D01*
X168571428Y-126131009D02*
X168476190Y-126178628D01*
X168476190Y-126178628D02*
X168095238Y-126178628D01*
X169095238Y-126131009D02*
X169428571Y-126131009D01*
X169571428Y-126654819D02*
X169095238Y-126654819D01*
X169095238Y-126654819D02*
X169095238Y-125654819D01*
X169095238Y-125654819D02*
X169571428Y-125654819D01*
X170333333Y-126131009D02*
X170000000Y-126131009D01*
X170000000Y-126654819D02*
X170000000Y-125654819D01*
X170000000Y-125654819D02*
X170476190Y-125654819D01*
X171000000Y-125654819D02*
X171000000Y-125892914D01*
X170761905Y-125797676D02*
X171000000Y-125892914D01*
X171000000Y-125892914D02*
X171238095Y-125797676D01*
X170857143Y-126083390D02*
X171000000Y-125892914D01*
X171000000Y-125892914D02*
X171142857Y-126083390D01*
X171761905Y-125654819D02*
X171761905Y-125892914D01*
X171523810Y-125797676D02*
X171761905Y-125892914D01*
X171761905Y-125892914D02*
X172000000Y-125797676D01*
X171619048Y-126083390D02*
X171761905Y-125892914D01*
X171761905Y-125892914D02*
X171904762Y-126083390D01*
X106005333Y-53540819D02*
X105672000Y-53064628D01*
X105433905Y-53540819D02*
X105433905Y-52540819D01*
X105433905Y-52540819D02*
X105814857Y-52540819D01*
X105814857Y-52540819D02*
X105910095Y-52588438D01*
X105910095Y-52588438D02*
X105957714Y-52636057D01*
X105957714Y-52636057D02*
X106005333Y-52731295D01*
X106005333Y-52731295D02*
X106005333Y-52874152D01*
X106005333Y-52874152D02*
X105957714Y-52969390D01*
X105957714Y-52969390D02*
X105910095Y-53017009D01*
X105910095Y-53017009D02*
X105814857Y-53064628D01*
X105814857Y-53064628D02*
X105433905Y-53064628D01*
X106957714Y-53540819D02*
X106386286Y-53540819D01*
X106672000Y-53540819D02*
X106672000Y-52540819D01*
X106672000Y-52540819D02*
X106576762Y-52683676D01*
X106576762Y-52683676D02*
X106481524Y-52778914D01*
X106481524Y-52778914D02*
X106386286Y-52826533D01*
D12*
%TO.C,C4*%
X143722000Y-103009000D02*
X143056000Y-103009000D01*
X143722000Y-103009000D02*
X143722000Y-108349000D01*
X140946000Y-103009000D02*
X140280000Y-103009000D01*
X140280000Y-103009000D02*
X140280000Y-108349000D01*
X143722000Y-108349000D02*
X143056000Y-108349000D01*
X140946000Y-108349000D02*
X140280000Y-108349000D01*
%TO.C,C1*%
X121484000Y-94887000D02*
X122150000Y-94887000D01*
X121484000Y-94887000D02*
X121484000Y-89547000D01*
X124260000Y-94887000D02*
X124926000Y-94887000D01*
X124926000Y-94887000D02*
X124926000Y-89547000D01*
X121484000Y-89547000D02*
X122150000Y-89547000D01*
X124260000Y-89547000D02*
X124926000Y-89547000D01*
%TO.C,R8*%
X126253000Y-82033000D02*
X126253000Y-81263000D01*
X124883000Y-81263000D02*
X127623000Y-81263000D01*
X127623000Y-81263000D02*
X127623000Y-74723000D01*
X124883000Y-74723000D02*
X124883000Y-81263000D01*
X127623000Y-74723000D02*
X124883000Y-74723000D01*
X126253000Y-73953000D02*
X126253000Y-74723000D01*
%TO.C,U2*%
X146110000Y-89952000D02*
X125670000Y-89952000D01*
X125670000Y-89952000D02*
X125670000Y-94452000D01*
X146110000Y-91202000D02*
X146110000Y-89952000D01*
X146110000Y-94452000D02*
X146110000Y-93202000D01*
X125670000Y-94452000D02*
X146110000Y-94452000D01*
X146110000Y-91202000D02*
G75*
G03*
X146110000Y-93202000I0J-1000000D01*
G01*
%TO.C,R21*%
X165496000Y-63999000D02*
X165496000Y-63229000D01*
X164126000Y-63229000D02*
X166866000Y-63229000D01*
X166866000Y-63229000D02*
X166866000Y-56689000D01*
X164126000Y-56689000D02*
X164126000Y-63229000D01*
X166866000Y-56689000D02*
X164126000Y-56689000D01*
X165496000Y-55919000D02*
X165496000Y-56689000D01*
%TO.C,D1*%
X117549000Y-65674000D02*
X117549000Y-54244000D01*
X118659000Y-69594000D02*
X130259000Y-69594000D01*
X118959000Y-64959000D02*
X125959000Y-64959000D01*
X119959000Y-59959000D02*
X118959000Y-64959000D01*
X120959000Y-54959000D02*
X119959000Y-59959000D01*
X120959000Y-54959000D02*
X127959000Y-54959000D01*
X125959000Y-64959000D02*
X126959000Y-59959000D01*
X126959000Y-59959000D02*
X119959000Y-59959000D01*
X127959000Y-54959000D02*
X126959000Y-59959000D01*
X130259000Y-50324000D02*
X117659000Y-50324000D01*
X130369000Y-65674000D02*
X130369000Y-54244000D01*
X128406214Y-64959000D02*
G75*
G03*
X127511786Y-64959000I-447214J0D01*
G01*
X127511786Y-64959000D02*
G75*
G03*
X128406214Y-64959000I447214J0D01*
G01*
%TO.C,R4*%
X115712000Y-63999000D02*
X115712000Y-63229000D01*
X114342000Y-63229000D02*
X117082000Y-63229000D01*
X117082000Y-63229000D02*
X117082000Y-56689000D01*
X114342000Y-56689000D02*
X114342000Y-63229000D01*
X117082000Y-56689000D02*
X114342000Y-56689000D01*
X115712000Y-55919000D02*
X115712000Y-56689000D01*
%TO.C,U1*%
X120725000Y-89967000D02*
X100285000Y-89967000D01*
X100285000Y-89967000D02*
X100285000Y-94467000D01*
X120725000Y-91217000D02*
X120725000Y-89967000D01*
X120725000Y-94467000D02*
X120725000Y-93217000D01*
X100285000Y-94467000D02*
X120725000Y-94467000D01*
X120725000Y-91217000D02*
G75*
G03*
X120725000Y-93217000I0J-1000000D01*
G01*
%TO.C,R13*%
X142128000Y-82033000D02*
X142128000Y-81263000D01*
X140758000Y-81263000D02*
X143498000Y-81263000D01*
X143498000Y-81263000D02*
X143498000Y-74723000D01*
X140758000Y-74723000D02*
X140758000Y-81263000D01*
X143498000Y-74723000D02*
X140758000Y-74723000D01*
X142128000Y-73953000D02*
X142128000Y-74723000D01*
%TO.C,R24*%
X108966000Y-107212000D02*
X108966000Y-107982000D01*
X110336000Y-107982000D02*
X107596000Y-107982000D01*
X107596000Y-107982000D02*
X107596000Y-114522000D01*
X110336000Y-114522000D02*
X110336000Y-107982000D01*
X107596000Y-114522000D02*
X110336000Y-114522000D01*
X108966000Y-115292000D02*
X108966000Y-114522000D01*
%TO.C,R22*%
X168671000Y-63999000D02*
X168671000Y-63229000D01*
X167301000Y-63229000D02*
X170041000Y-63229000D01*
X170041000Y-63229000D02*
X170041000Y-56689000D01*
X167301000Y-56689000D02*
X167301000Y-63229000D01*
X170041000Y-56689000D02*
X167301000Y-56689000D01*
X168671000Y-55919000D02*
X168671000Y-56689000D01*
%TO.C,R23*%
X151399000Y-109719000D02*
X151399000Y-108949000D01*
X150029000Y-108949000D02*
X152769000Y-108949000D01*
X152769000Y-108949000D02*
X152769000Y-102409000D01*
X150029000Y-102409000D02*
X150029000Y-108949000D01*
X152769000Y-102409000D02*
X150029000Y-102409000D01*
X151399000Y-101639000D02*
X151399000Y-102409000D01*
%TO.C,R16*%
X151653000Y-82033000D02*
X151653000Y-81263000D01*
X150283000Y-81263000D02*
X153023000Y-81263000D01*
X153023000Y-81263000D02*
X153023000Y-74723000D01*
X150283000Y-74723000D02*
X150283000Y-81263000D01*
X153023000Y-74723000D02*
X150283000Y-74723000D01*
X151653000Y-73953000D02*
X151653000Y-74723000D01*
%TO.C,R12*%
X138953000Y-82033000D02*
X138953000Y-81263000D01*
X137583000Y-81263000D02*
X140323000Y-81263000D01*
X140323000Y-81263000D02*
X140323000Y-74723000D01*
X137583000Y-74723000D02*
X137583000Y-81263000D01*
X140323000Y-74723000D02*
X137583000Y-74723000D01*
X138953000Y-73953000D02*
X138953000Y-74723000D01*
%TO.C,U5*%
X163895000Y-103414000D02*
X153615000Y-103414000D01*
X153615000Y-103414000D02*
X153615000Y-107914000D01*
X163895000Y-104664000D02*
X163895000Y-103414000D01*
X163895000Y-107914000D02*
X163895000Y-106664000D01*
X153615000Y-107914000D02*
X163895000Y-107914000D01*
X163895000Y-104664000D02*
G75*
G03*
X163895000Y-106664000I0J-1000000D01*
G01*
%TO.C,R3*%
X112537000Y-63999000D02*
X112537000Y-63229000D01*
X111167000Y-63229000D02*
X113907000Y-63229000D01*
X113907000Y-63229000D02*
X113907000Y-56689000D01*
X111167000Y-56689000D02*
X111167000Y-63229000D01*
X113907000Y-56689000D02*
X111167000Y-56689000D01*
X112537000Y-55919000D02*
X112537000Y-56689000D01*
%TO.C,R5*%
X116728000Y-82033000D02*
X116728000Y-81263000D01*
X115358000Y-81263000D02*
X118098000Y-81263000D01*
X118098000Y-81263000D02*
X118098000Y-74723000D01*
X115358000Y-74723000D02*
X115358000Y-81263000D01*
X118098000Y-74723000D02*
X115358000Y-74723000D01*
X116728000Y-73953000D02*
X116728000Y-74723000D01*
%TO.C,R9*%
X129428000Y-82033000D02*
X129428000Y-81263000D01*
X128058000Y-81263000D02*
X130798000Y-81263000D01*
X130798000Y-81263000D02*
X130798000Y-74723000D01*
X128058000Y-74723000D02*
X128058000Y-81263000D01*
X130798000Y-74723000D02*
X128058000Y-74723000D01*
X129428000Y-73953000D02*
X129428000Y-74723000D01*
%TO.C,R11*%
X135778000Y-82033000D02*
X135778000Y-81263000D01*
X134408000Y-81263000D02*
X137148000Y-81263000D01*
X137148000Y-81263000D02*
X137148000Y-74723000D01*
X134408000Y-74723000D02*
X134408000Y-81263000D01*
X137148000Y-74723000D02*
X134408000Y-74723000D01*
X135778000Y-73953000D02*
X135778000Y-74723000D01*
%TO.C,U3*%
X171525000Y-89967000D02*
X151085000Y-89967000D01*
X151085000Y-89967000D02*
X151085000Y-94467000D01*
X171525000Y-91217000D02*
X171525000Y-89967000D01*
X171525000Y-94467000D02*
X171525000Y-93217000D01*
X151085000Y-94467000D02*
X171525000Y-94467000D01*
X171525000Y-91217000D02*
G75*
G03*
X171525000Y-93217000I0J-1000000D01*
G01*
%TO.C,U4*%
X135331000Y-103864000D02*
X135331000Y-107464000D01*
X139780999Y-105664000D02*
G75*
G03*
X138279807Y-103307601I-2599999J0D01*
G01*
X136058205Y-103339817D02*
G75*
G03*
X135331001Y-103864001I1122795J-2324183D01*
G01*
X138279807Y-108020400D02*
G75*
G03*
X139781000Y-105664000I-1098807J2356400D01*
G01*
X135331001Y-107463999D02*
G75*
G03*
X136058205Y-107988183I1849999J1799999D01*
G01*
%TO.C,R19*%
X159146000Y-63999000D02*
X159146000Y-63229000D01*
X157776000Y-63229000D02*
X160516000Y-63229000D01*
X160516000Y-63229000D02*
X160516000Y-56689000D01*
X157776000Y-56689000D02*
X157776000Y-63229000D01*
X160516000Y-56689000D02*
X157776000Y-56689000D01*
X159146000Y-55919000D02*
X159146000Y-56689000D01*
%TO.C,D3*%
X144481000Y-65674000D02*
X144481000Y-54244000D01*
X145591000Y-69594000D02*
X157191000Y-69594000D01*
X145891000Y-64959000D02*
X152891000Y-64959000D01*
X146891000Y-59959000D02*
X145891000Y-64959000D01*
X147891000Y-54959000D02*
X146891000Y-59959000D01*
X147891000Y-54959000D02*
X154891000Y-54959000D01*
X152891000Y-64959000D02*
X153891000Y-59959000D01*
X153891000Y-59959000D02*
X146891000Y-59959000D01*
X154891000Y-54959000D02*
X153891000Y-59959000D01*
X157191000Y-50324000D02*
X144591000Y-50324000D01*
X157301000Y-65674000D02*
X157301000Y-54244000D01*
X155338214Y-64959000D02*
G75*
G03*
X154443786Y-64959000I-447214J0D01*
G01*
X154443786Y-64959000D02*
G75*
G03*
X155338214Y-64959000I447214J0D01*
G01*
%TO.C,C2*%
X146884000Y-94887000D02*
X147550000Y-94887000D01*
X146884000Y-94887000D02*
X146884000Y-89547000D01*
X149660000Y-94887000D02*
X150326000Y-94887000D01*
X150326000Y-94887000D02*
X150326000Y-89547000D01*
X146884000Y-89547000D02*
X147550000Y-89547000D01*
X149660000Y-89547000D02*
X150326000Y-89547000D01*
%TO.C,R14*%
X145303000Y-73938000D02*
X145303000Y-74708000D01*
X146673000Y-74708000D02*
X143933000Y-74708000D01*
X143933000Y-74708000D02*
X143933000Y-81248000D01*
X146673000Y-81248000D02*
X146673000Y-74708000D01*
X143933000Y-81248000D02*
X146673000Y-81248000D01*
X145303000Y-82018000D02*
X145303000Y-81248000D01*
%TO.C,R6*%
X119903000Y-82033000D02*
X119903000Y-81263000D01*
X118533000Y-81263000D02*
X121273000Y-81263000D01*
X121273000Y-81263000D02*
X121273000Y-74723000D01*
X118533000Y-74723000D02*
X118533000Y-81263000D01*
X121273000Y-74723000D02*
X118533000Y-74723000D01*
X119903000Y-73953000D02*
X119903000Y-74723000D01*
%TO.C,D2*%
X131011000Y-65674000D02*
X131011000Y-54244000D01*
X132121000Y-69594000D02*
X143721000Y-69594000D01*
X132421000Y-64959000D02*
X139421000Y-64959000D01*
X133421000Y-59959000D02*
X132421000Y-64959000D01*
X134421000Y-54959000D02*
X133421000Y-59959000D01*
X134421000Y-54959000D02*
X141421000Y-54959000D01*
X139421000Y-64959000D02*
X140421000Y-59959000D01*
X140421000Y-59959000D02*
X133421000Y-59959000D01*
X141421000Y-54959000D02*
X140421000Y-59959000D01*
X143721000Y-50324000D02*
X131121000Y-50324000D01*
X143831000Y-65674000D02*
X143831000Y-54244000D01*
X141868214Y-64959000D02*
G75*
G03*
X140973786Y-64959000I-447214J0D01*
G01*
X140973786Y-64959000D02*
G75*
G03*
X141868214Y-64959000I447214J0D01*
G01*
%TO.C,R20*%
X162321000Y-63999000D02*
X162321000Y-63229000D01*
X160951000Y-63229000D02*
X163691000Y-63229000D01*
X163691000Y-63229000D02*
X163691000Y-56689000D01*
X160951000Y-56689000D02*
X160951000Y-63229000D01*
X163691000Y-56689000D02*
X160951000Y-56689000D01*
X162321000Y-55919000D02*
X162321000Y-56689000D01*
%TO.C,R10*%
X132603000Y-82033000D02*
X132603000Y-81263000D01*
X131233000Y-81263000D02*
X133973000Y-81263000D01*
X133973000Y-81263000D02*
X133973000Y-74723000D01*
X131233000Y-74723000D02*
X131233000Y-81263000D01*
X133973000Y-74723000D02*
X131233000Y-74723000D01*
X132603000Y-73953000D02*
X132603000Y-74723000D01*
%TO.C,R2*%
X109362000Y-63999000D02*
X109362000Y-63229000D01*
X107992000Y-63229000D02*
X110732000Y-63229000D01*
X110732000Y-63229000D02*
X110732000Y-56689000D01*
X107992000Y-56689000D02*
X107992000Y-63229000D01*
X110732000Y-56689000D02*
X107992000Y-56689000D01*
X109362000Y-55919000D02*
X109362000Y-56689000D01*
%TO.C,R18*%
X158003000Y-82033000D02*
X158003000Y-81263000D01*
X156633000Y-81263000D02*
X159373000Y-81263000D01*
X159373000Y-81263000D02*
X159373000Y-74723000D01*
X156633000Y-74723000D02*
X156633000Y-81263000D01*
X159373000Y-74723000D02*
X156633000Y-74723000D01*
X158003000Y-73953000D02*
X158003000Y-74723000D01*
%TO.C,C3*%
X172284000Y-94887000D02*
X172950000Y-94887000D01*
X172284000Y-94887000D02*
X172284000Y-89547000D01*
X175060000Y-94887000D02*
X175726000Y-94887000D01*
X175726000Y-94887000D02*
X175726000Y-89547000D01*
X172284000Y-89547000D02*
X172950000Y-89547000D01*
X175060000Y-89547000D02*
X175726000Y-89547000D01*
%TO.C,R15*%
X148478000Y-82033000D02*
X148478000Y-81263000D01*
X147108000Y-81263000D02*
X149848000Y-81263000D01*
X149848000Y-81263000D02*
X149848000Y-74723000D01*
X147108000Y-74723000D02*
X147108000Y-81263000D01*
X149848000Y-74723000D02*
X147108000Y-74723000D01*
X148478000Y-73953000D02*
X148478000Y-74723000D01*
%TO.C,R17*%
X154828000Y-82033000D02*
X154828000Y-81263000D01*
X153458000Y-81263000D02*
X156198000Y-81263000D01*
X156198000Y-81263000D02*
X156198000Y-74723000D01*
X153458000Y-74723000D02*
X153458000Y-81263000D01*
X156198000Y-74723000D02*
X153458000Y-74723000D01*
X154828000Y-73953000D02*
X154828000Y-74723000D01*
%TO.C,R7*%
X123078000Y-82033000D02*
X123078000Y-81263000D01*
X121708000Y-81263000D02*
X124448000Y-81263000D01*
X124448000Y-81263000D02*
X124448000Y-74723000D01*
X121708000Y-74723000D02*
X121708000Y-81263000D01*
X124448000Y-74723000D02*
X121708000Y-74723000D01*
X123078000Y-73953000D02*
X123078000Y-74723000D01*
%TO.C,R25*%
X112268000Y-108736000D02*
X112268000Y-109506000D01*
X113638000Y-109506000D02*
X110898000Y-109506000D01*
X110898000Y-109506000D02*
X110898000Y-116046000D01*
X113638000Y-116046000D02*
X113638000Y-109506000D01*
X110898000Y-116046000D02*
X113638000Y-116046000D01*
X112268000Y-116816000D02*
X112268000Y-116046000D01*
%TO.C,C5*%
X168106000Y-103009000D02*
X167440000Y-103009000D01*
X168106000Y-103009000D02*
X168106000Y-108349000D01*
X165330000Y-103009000D02*
X164664000Y-103009000D01*
X164664000Y-103009000D02*
X164664000Y-108349000D01*
X168106000Y-108349000D02*
X167440000Y-108349000D01*
X165330000Y-108349000D02*
X164664000Y-108349000D01*
%TO.C,R1*%
X106187000Y-63999000D02*
X106187000Y-63229000D01*
X104817000Y-63229000D02*
X107557000Y-63229000D01*
X107557000Y-63229000D02*
X107557000Y-56689000D01*
X104817000Y-56689000D02*
X104817000Y-63229000D01*
X107557000Y-56689000D02*
X104817000Y-56689000D01*
X106187000Y-55919000D02*
X106187000Y-56689000D01*
%TD*%
%LPC*%
D13*
%TO.C,C4*%
X142001000Y-103179000D03*
X142001000Y-108179000D03*
%TD*%
%TO.C,C1*%
X123205000Y-94717000D03*
X123205000Y-89717000D03*
%TD*%
%TO.C,R8*%
X126253000Y-83073000D03*
D14*
X126253000Y-72913000D03*
%TD*%
D15*
%TO.C,U2*%
X144780000Y-88392000D03*
D16*
X142240000Y-88392000D03*
X139700000Y-88392000D03*
X137160000Y-88392000D03*
X134620000Y-88392000D03*
X132080000Y-88392000D03*
X129540000Y-88392000D03*
X127000000Y-88392000D03*
X127000000Y-96012000D03*
X129540000Y-96012000D03*
X132080000Y-96012000D03*
X134620000Y-96012000D03*
X137160000Y-96012000D03*
X139700000Y-96012000D03*
X142240000Y-96012000D03*
X144780000Y-96012000D03*
%TD*%
D13*
%TO.C,R21*%
X165496000Y-65039000D03*
D14*
X165496000Y-54879000D03*
%TD*%
D17*
%TO.C,D1*%
X118879000Y-67579000D03*
D18*
X121419000Y-67579000D03*
X123959000Y-67579000D03*
X126499000Y-67579000D03*
X129039000Y-67579000D03*
X129039000Y-52339000D03*
X126499000Y-52339000D03*
X123959000Y-52339000D03*
X121419000Y-52339000D03*
X118879000Y-52339000D03*
%TD*%
D13*
%TO.C,R4*%
X115712000Y-65039000D03*
D14*
X115712000Y-54879000D03*
%TD*%
D15*
%TO.C,U1*%
X119395000Y-88407000D03*
D16*
X116855000Y-88407000D03*
X114315000Y-88407000D03*
X111775000Y-88407000D03*
X109235000Y-88407000D03*
X106695000Y-88407000D03*
X104155000Y-88407000D03*
X101615000Y-88407000D03*
X101615000Y-96027000D03*
X104155000Y-96027000D03*
X106695000Y-96027000D03*
X109235000Y-96027000D03*
X111775000Y-96027000D03*
X114315000Y-96027000D03*
X116855000Y-96027000D03*
X119395000Y-96027000D03*
%TD*%
D13*
%TO.C,R13*%
X142128000Y-83073000D03*
D14*
X142128000Y-72913000D03*
%TD*%
D19*
%TO.C,REF\u002A\u002A*%
X105000000Y-130000000D03*
%TD*%
D13*
%TO.C,R24*%
X108966000Y-106172000D03*
D14*
X108966000Y-116332000D03*
%TD*%
D13*
%TO.C,R22*%
X168671000Y-65039000D03*
D14*
X168671000Y-54879000D03*
%TD*%
D13*
%TO.C,R23*%
X151399000Y-110759000D03*
D14*
X151399000Y-100599000D03*
%TD*%
D13*
%TO.C,R16*%
X151653000Y-83073000D03*
D14*
X151653000Y-72913000D03*
%TD*%
D13*
%TO.C,R12*%
X138953000Y-83073000D03*
D14*
X138953000Y-72913000D03*
%TD*%
D15*
%TO.C,U5*%
X162565000Y-101854000D03*
D16*
X160025000Y-101854000D03*
X157485000Y-101854000D03*
X154945000Y-101854000D03*
X154945000Y-109474000D03*
X157485000Y-109474000D03*
X160025000Y-109474000D03*
X162565000Y-109474000D03*
%TD*%
D13*
%TO.C,R3*%
X112537000Y-65039000D03*
D14*
X112537000Y-54879000D03*
%TD*%
D13*
%TO.C,R5*%
X116728000Y-83073000D03*
D14*
X116728000Y-72913000D03*
%TD*%
D13*
%TO.C,R9*%
X129428000Y-83073000D03*
D14*
X129428000Y-72913000D03*
%TD*%
D13*
%TO.C,R11*%
X135778000Y-83073000D03*
D14*
X135778000Y-72913000D03*
%TD*%
D15*
%TO.C,U3*%
X170195000Y-88407000D03*
D16*
X167655000Y-88407000D03*
X165115000Y-88407000D03*
X162575000Y-88407000D03*
X160035000Y-88407000D03*
X157495000Y-88407000D03*
X154955000Y-88407000D03*
X152415000Y-88407000D03*
X152415000Y-96027000D03*
X154955000Y-96027000D03*
X157495000Y-96027000D03*
X160035000Y-96027000D03*
X162575000Y-96027000D03*
X165115000Y-96027000D03*
X167655000Y-96027000D03*
X170195000Y-96027000D03*
%TD*%
D20*
%TO.C,U4*%
X137181000Y-103124000D03*
X137181000Y-105664000D03*
D21*
X137181000Y-108204000D03*
%TD*%
D13*
%TO.C,R19*%
X159146000Y-65039000D03*
D14*
X159146000Y-54879000D03*
%TD*%
D17*
%TO.C,D3*%
X145811000Y-67579000D03*
D18*
X148351000Y-67579000D03*
X150891000Y-67579000D03*
X153431000Y-67579000D03*
X155971000Y-67579000D03*
X155971000Y-52339000D03*
X153431000Y-52339000D03*
X150891000Y-52339000D03*
X148351000Y-52339000D03*
X145811000Y-52339000D03*
%TD*%
D13*
%TO.C,C2*%
X148605000Y-94717000D03*
X148605000Y-89717000D03*
%TD*%
%TO.C,R14*%
X145303000Y-72898000D03*
D14*
X145303000Y-83058000D03*
%TD*%
D13*
%TO.C,R6*%
X119903000Y-83073000D03*
D14*
X119903000Y-72913000D03*
%TD*%
D17*
%TO.C,D2*%
X132341000Y-67579000D03*
D18*
X134881000Y-67579000D03*
X137421000Y-67579000D03*
X139961000Y-67579000D03*
X142501000Y-67579000D03*
X142501000Y-52339000D03*
X139961000Y-52339000D03*
X137421000Y-52339000D03*
X134881000Y-52339000D03*
X132341000Y-52339000D03*
%TD*%
D13*
%TO.C,R20*%
X162321000Y-65039000D03*
D14*
X162321000Y-54879000D03*
%TD*%
D13*
%TO.C,R10*%
X132603000Y-83073000D03*
D14*
X132603000Y-72913000D03*
%TD*%
D13*
%TO.C,R2*%
X109362000Y-65039000D03*
D14*
X109362000Y-54879000D03*
%TD*%
D13*
%TO.C,R18*%
X158003000Y-83073000D03*
D14*
X158003000Y-72913000D03*
%TD*%
D13*
%TO.C,C3*%
X174005000Y-94717000D03*
X174005000Y-89717000D03*
%TD*%
%TO.C,R15*%
X148478000Y-83073000D03*
D14*
X148478000Y-72913000D03*
%TD*%
D13*
%TO.C,R17*%
X154828000Y-83073000D03*
D14*
X154828000Y-72913000D03*
%TD*%
D13*
%TO.C,R7*%
X123078000Y-83073000D03*
D14*
X123078000Y-72913000D03*
%TD*%
D13*
%TO.C,R25*%
X112268000Y-107696000D03*
D14*
X112268000Y-117856000D03*
%TD*%
D13*
%TO.C,C5*%
X166385000Y-103179000D03*
X166385000Y-108179000D03*
%TD*%
D19*
%TO.C,REF\u002A\u002A*%
X170000000Y-130000000D03*
%TD*%
D13*
%TO.C,R1*%
X106187000Y-65039000D03*
D14*
X106187000Y-54879000D03*
%TD*%
D22*
%TO.C,J1*%
X104910000Y-111490000D03*
X104910000Y-102850000D03*
X101110000Y-111490000D03*
X101110000Y-102850000D03*
%TD*%
%LPD*%
M02*
