%TF.GenerationSoftware,KiCad,Pcbnew,7.0.10*%
%TF.CreationDate,2024-02-08T16:52:54+11:00*%
%TF.ProjectId,Desktop Thermometer USB-C,4465736b-746f-4702-9054-6865726d6f6d,rev?*%
%TF.SameCoordinates,Original*%
%TF.FileFunction,Soldermask,Top*%
%TF.FilePolarity,Negative*%
%FSLAX46Y46*%
G04 Gerber Fmt 4.6, Leading zero omitted, Abs format (unit mm)*
G04 Created by KiCad (PCBNEW 7.0.10) date 2024-02-08 16:52:54*
%MOMM*%
%LPD*%
G01*
G04 APERTURE LIST*
%ADD10C,1.600000*%
%ADD11O,1.600000X1.600000*%
%ADD12R,1.600000X2.400000*%
%ADD13O,1.600000X2.400000*%
%ADD14R,1.524000X2.524000*%
%ADD15O,1.524000X2.524000*%
%ADD16C,3.200000*%
%ADD17C,1.500000*%
%ADD18R,1.500000X1.500000*%
%ADD19O,2.204000X1.204000*%
G04 APERTURE END LIST*
D10*
%TO.C,C4*%
X142001000Y-103179000D03*
X142001000Y-108179000D03*
%TD*%
%TO.C,C1*%
X123205000Y-94717000D03*
X123205000Y-89717000D03*
%TD*%
%TO.C,R8*%
X126253000Y-83073000D03*
D11*
X126253000Y-72913000D03*
%TD*%
D12*
%TO.C,U2*%
X144780000Y-88392000D03*
D13*
X142240000Y-88392000D03*
X139700000Y-88392000D03*
X137160000Y-88392000D03*
X134620000Y-88392000D03*
X132080000Y-88392000D03*
X129540000Y-88392000D03*
X127000000Y-88392000D03*
X127000000Y-96012000D03*
X129540000Y-96012000D03*
X132080000Y-96012000D03*
X134620000Y-96012000D03*
X137160000Y-96012000D03*
X139700000Y-96012000D03*
X142240000Y-96012000D03*
X144780000Y-96012000D03*
%TD*%
D10*
%TO.C,R21*%
X165496000Y-65039000D03*
D11*
X165496000Y-54879000D03*
%TD*%
D14*
%TO.C,D1*%
X118879000Y-67579000D03*
D15*
X121419000Y-67579000D03*
X123959000Y-67579000D03*
X126499000Y-67579000D03*
X129039000Y-67579000D03*
X129039000Y-52339000D03*
X126499000Y-52339000D03*
X123959000Y-52339000D03*
X121419000Y-52339000D03*
X118879000Y-52339000D03*
%TD*%
D10*
%TO.C,R4*%
X115712000Y-65039000D03*
D11*
X115712000Y-54879000D03*
%TD*%
D12*
%TO.C,U1*%
X119395000Y-88407000D03*
D13*
X116855000Y-88407000D03*
X114315000Y-88407000D03*
X111775000Y-88407000D03*
X109235000Y-88407000D03*
X106695000Y-88407000D03*
X104155000Y-88407000D03*
X101615000Y-88407000D03*
X101615000Y-96027000D03*
X104155000Y-96027000D03*
X106695000Y-96027000D03*
X109235000Y-96027000D03*
X111775000Y-96027000D03*
X114315000Y-96027000D03*
X116855000Y-96027000D03*
X119395000Y-96027000D03*
%TD*%
D10*
%TO.C,R13*%
X142128000Y-83073000D03*
D11*
X142128000Y-72913000D03*
%TD*%
D16*
%TO.C,REF\u002A\u002A*%
X105000000Y-130000000D03*
%TD*%
D10*
%TO.C,R24*%
X108966000Y-106172000D03*
D11*
X108966000Y-116332000D03*
%TD*%
D10*
%TO.C,R22*%
X168671000Y-65039000D03*
D11*
X168671000Y-54879000D03*
%TD*%
D10*
%TO.C,R23*%
X151399000Y-110759000D03*
D11*
X151399000Y-100599000D03*
%TD*%
D10*
%TO.C,R16*%
X151653000Y-83073000D03*
D11*
X151653000Y-72913000D03*
%TD*%
D10*
%TO.C,R12*%
X138953000Y-83073000D03*
D11*
X138953000Y-72913000D03*
%TD*%
D12*
%TO.C,U5*%
X162565000Y-101854000D03*
D13*
X160025000Y-101854000D03*
X157485000Y-101854000D03*
X154945000Y-101854000D03*
X154945000Y-109474000D03*
X157485000Y-109474000D03*
X160025000Y-109474000D03*
X162565000Y-109474000D03*
%TD*%
D10*
%TO.C,R3*%
X112537000Y-65039000D03*
D11*
X112537000Y-54879000D03*
%TD*%
D10*
%TO.C,R5*%
X116728000Y-83073000D03*
D11*
X116728000Y-72913000D03*
%TD*%
D10*
%TO.C,R9*%
X129428000Y-83073000D03*
D11*
X129428000Y-72913000D03*
%TD*%
D10*
%TO.C,R11*%
X135778000Y-83073000D03*
D11*
X135778000Y-72913000D03*
%TD*%
D12*
%TO.C,U3*%
X170195000Y-88407000D03*
D13*
X167655000Y-88407000D03*
X165115000Y-88407000D03*
X162575000Y-88407000D03*
X160035000Y-88407000D03*
X157495000Y-88407000D03*
X154955000Y-88407000D03*
X152415000Y-88407000D03*
X152415000Y-96027000D03*
X154955000Y-96027000D03*
X157495000Y-96027000D03*
X160035000Y-96027000D03*
X162575000Y-96027000D03*
X165115000Y-96027000D03*
X167655000Y-96027000D03*
X170195000Y-96027000D03*
%TD*%
D17*
%TO.C,U4*%
X137181000Y-103124000D03*
X137181000Y-105664000D03*
D18*
X137181000Y-108204000D03*
%TD*%
D10*
%TO.C,R19*%
X159146000Y-65039000D03*
D11*
X159146000Y-54879000D03*
%TD*%
D14*
%TO.C,D3*%
X145811000Y-67579000D03*
D15*
X148351000Y-67579000D03*
X150891000Y-67579000D03*
X153431000Y-67579000D03*
X155971000Y-67579000D03*
X155971000Y-52339000D03*
X153431000Y-52339000D03*
X150891000Y-52339000D03*
X148351000Y-52339000D03*
X145811000Y-52339000D03*
%TD*%
D10*
%TO.C,C2*%
X148605000Y-94717000D03*
X148605000Y-89717000D03*
%TD*%
%TO.C,R14*%
X145303000Y-72898000D03*
D11*
X145303000Y-83058000D03*
%TD*%
D10*
%TO.C,R6*%
X119903000Y-83073000D03*
D11*
X119903000Y-72913000D03*
%TD*%
D14*
%TO.C,D2*%
X132341000Y-67579000D03*
D15*
X134881000Y-67579000D03*
X137421000Y-67579000D03*
X139961000Y-67579000D03*
X142501000Y-67579000D03*
X142501000Y-52339000D03*
X139961000Y-52339000D03*
X137421000Y-52339000D03*
X134881000Y-52339000D03*
X132341000Y-52339000D03*
%TD*%
D10*
%TO.C,R20*%
X162321000Y-65039000D03*
D11*
X162321000Y-54879000D03*
%TD*%
D10*
%TO.C,R10*%
X132603000Y-83073000D03*
D11*
X132603000Y-72913000D03*
%TD*%
D10*
%TO.C,R2*%
X109362000Y-65039000D03*
D11*
X109362000Y-54879000D03*
%TD*%
D10*
%TO.C,R18*%
X158003000Y-83073000D03*
D11*
X158003000Y-72913000D03*
%TD*%
D10*
%TO.C,C3*%
X174005000Y-94717000D03*
X174005000Y-89717000D03*
%TD*%
%TO.C,R15*%
X148478000Y-83073000D03*
D11*
X148478000Y-72913000D03*
%TD*%
D10*
%TO.C,R17*%
X154828000Y-83073000D03*
D11*
X154828000Y-72913000D03*
%TD*%
D10*
%TO.C,R7*%
X123078000Y-83073000D03*
D11*
X123078000Y-72913000D03*
%TD*%
D10*
%TO.C,R25*%
X112268000Y-107696000D03*
D11*
X112268000Y-117856000D03*
%TD*%
D10*
%TO.C,C5*%
X166385000Y-103179000D03*
X166385000Y-108179000D03*
%TD*%
D16*
%TO.C,REF\u002A\u002A*%
X170000000Y-130000000D03*
%TD*%
D10*
%TO.C,R1*%
X106187000Y-65039000D03*
D11*
X106187000Y-54879000D03*
%TD*%
D19*
%TO.C,J1*%
X104910000Y-111490000D03*
X104910000Y-102850000D03*
X101110000Y-111490000D03*
X101110000Y-102850000D03*
%TD*%
M02*
