%TF.GenerationSoftware,KiCad,Pcbnew,7.0.10*%
%TF.CreationDate,2024-02-08T16:53:14+11:00*%
%TF.ProjectId,Desktop Thermometer USB-C,4465736b-746f-4702-9054-6865726d6f6d,rev?*%
%TF.SameCoordinates,Original*%
%TF.FileFunction,Drillmap*%
%TF.FilePolarity,Positive*%
%FSLAX45Y45*%
G04 Gerber Fmt 4.5, Leading zero omitted, Abs format (unit mm)*
G04 Created by KiCad (PCBNEW 7.0.10) date 2024-02-08 16:53:14*
%MOMM*%
%LPD*%
G01*
G04 APERTURE LIST*
%ADD10C,0.100000*%
%ADD11C,0.200000*%
%ADD12C,0.320000*%
G04 APERTURE END LIST*
D10*
X9829800Y-4800600D02*
X17703800Y-4800600D01*
X17703800Y-13563600D01*
X9829800Y-13563600D01*
X9829800Y-4800600D01*
D11*
D12*
X10340000Y-12840000D02*
X10660000Y-13160000D01*
X10660000Y-12840000D02*
X10340000Y-13160000D01*
X16840000Y-12840000D02*
X17160000Y-13160000D01*
X17160000Y-12840000D02*
X16840000Y-13160000D01*
D11*
X10085577Y-13880084D02*
X10085577Y-13680084D01*
X10085577Y-13680084D02*
X10133196Y-13680084D01*
X10133196Y-13680084D02*
X10161767Y-13689608D01*
X10161767Y-13689608D02*
X10180815Y-13708655D01*
X10180815Y-13708655D02*
X10190339Y-13727703D01*
X10190339Y-13727703D02*
X10199863Y-13765798D01*
X10199863Y-13765798D02*
X10199863Y-13794369D01*
X10199863Y-13794369D02*
X10190339Y-13832465D01*
X10190339Y-13832465D02*
X10180815Y-13851512D01*
X10180815Y-13851512D02*
X10161767Y-13870560D01*
X10161767Y-13870560D02*
X10133196Y-13880084D01*
X10133196Y-13880084D02*
X10085577Y-13880084D01*
X10285577Y-13880084D02*
X10285577Y-13746750D01*
X10285577Y-13784846D02*
X10295101Y-13765798D01*
X10295101Y-13765798D02*
X10304624Y-13756274D01*
X10304624Y-13756274D02*
X10323672Y-13746750D01*
X10323672Y-13746750D02*
X10342720Y-13746750D01*
X10409386Y-13880084D02*
X10409386Y-13746750D01*
X10409386Y-13680084D02*
X10399863Y-13689608D01*
X10399863Y-13689608D02*
X10409386Y-13699131D01*
X10409386Y-13699131D02*
X10418910Y-13689608D01*
X10418910Y-13689608D02*
X10409386Y-13680084D01*
X10409386Y-13680084D02*
X10409386Y-13699131D01*
X10533196Y-13880084D02*
X10514148Y-13870560D01*
X10514148Y-13870560D02*
X10504624Y-13851512D01*
X10504624Y-13851512D02*
X10504624Y-13680084D01*
X10637958Y-13880084D02*
X10618910Y-13870560D01*
X10618910Y-13870560D02*
X10609386Y-13851512D01*
X10609386Y-13851512D02*
X10609386Y-13680084D01*
X10866529Y-13880084D02*
X10866529Y-13680084D01*
X10866529Y-13680084D02*
X10933196Y-13822941D01*
X10933196Y-13822941D02*
X10999863Y-13680084D01*
X10999863Y-13680084D02*
X10999863Y-13880084D01*
X11180815Y-13880084D02*
X11180815Y-13775322D01*
X11180815Y-13775322D02*
X11171291Y-13756274D01*
X11171291Y-13756274D02*
X11152244Y-13746750D01*
X11152244Y-13746750D02*
X11114148Y-13746750D01*
X11114148Y-13746750D02*
X11095101Y-13756274D01*
X11180815Y-13870560D02*
X11161767Y-13880084D01*
X11161767Y-13880084D02*
X11114148Y-13880084D01*
X11114148Y-13880084D02*
X11095101Y-13870560D01*
X11095101Y-13870560D02*
X11085577Y-13851512D01*
X11085577Y-13851512D02*
X11085577Y-13832465D01*
X11085577Y-13832465D02*
X11095101Y-13813417D01*
X11095101Y-13813417D02*
X11114148Y-13803893D01*
X11114148Y-13803893D02*
X11161767Y-13803893D01*
X11161767Y-13803893D02*
X11180815Y-13794369D01*
X11276053Y-13746750D02*
X11276053Y-13946750D01*
X11276053Y-13756274D02*
X11295101Y-13746750D01*
X11295101Y-13746750D02*
X11333196Y-13746750D01*
X11333196Y-13746750D02*
X11352243Y-13756274D01*
X11352243Y-13756274D02*
X11361767Y-13765798D01*
X11361767Y-13765798D02*
X11371291Y-13784846D01*
X11371291Y-13784846D02*
X11371291Y-13841988D01*
X11371291Y-13841988D02*
X11361767Y-13861036D01*
X11361767Y-13861036D02*
X11352243Y-13870560D01*
X11352243Y-13870560D02*
X11333196Y-13880084D01*
X11333196Y-13880084D02*
X11295101Y-13880084D01*
X11295101Y-13880084D02*
X11276053Y-13870560D01*
X11457005Y-13861036D02*
X11466529Y-13870560D01*
X11466529Y-13870560D02*
X11457005Y-13880084D01*
X11457005Y-13880084D02*
X11447482Y-13870560D01*
X11447482Y-13870560D02*
X11457005Y-13861036D01*
X11457005Y-13861036D02*
X11457005Y-13880084D01*
X11457005Y-13756274D02*
X11466529Y-13765798D01*
X11466529Y-13765798D02*
X11457005Y-13775322D01*
X11457005Y-13775322D02*
X11447482Y-13765798D01*
X11447482Y-13765798D02*
X11457005Y-13756274D01*
X11457005Y-13756274D02*
X11457005Y-13775322D01*
X9624800Y-14108600D02*
X9824800Y-14308600D01*
X9824800Y-14108600D02*
X9624800Y-14308600D01*
X10066529Y-14100084D02*
X10190339Y-14100084D01*
X10190339Y-14100084D02*
X10123672Y-14176274D01*
X10123672Y-14176274D02*
X10152244Y-14176274D01*
X10152244Y-14176274D02*
X10171291Y-14185798D01*
X10171291Y-14185798D02*
X10180815Y-14195322D01*
X10180815Y-14195322D02*
X10190339Y-14214369D01*
X10190339Y-14214369D02*
X10190339Y-14261988D01*
X10190339Y-14261988D02*
X10180815Y-14281036D01*
X10180815Y-14281036D02*
X10171291Y-14290560D01*
X10171291Y-14290560D02*
X10152244Y-14300084D01*
X10152244Y-14300084D02*
X10095101Y-14300084D01*
X10095101Y-14300084D02*
X10076053Y-14290560D01*
X10076053Y-14290560D02*
X10066529Y-14281036D01*
X10276053Y-14281036D02*
X10285577Y-14290560D01*
X10285577Y-14290560D02*
X10276053Y-14300084D01*
X10276053Y-14300084D02*
X10266529Y-14290560D01*
X10266529Y-14290560D02*
X10276053Y-14281036D01*
X10276053Y-14281036D02*
X10276053Y-14300084D01*
X10361767Y-14119131D02*
X10371291Y-14109608D01*
X10371291Y-14109608D02*
X10390339Y-14100084D01*
X10390339Y-14100084D02*
X10437958Y-14100084D01*
X10437958Y-14100084D02*
X10457005Y-14109608D01*
X10457005Y-14109608D02*
X10466529Y-14119131D01*
X10466529Y-14119131D02*
X10476053Y-14138179D01*
X10476053Y-14138179D02*
X10476053Y-14157227D01*
X10476053Y-14157227D02*
X10466529Y-14185798D01*
X10466529Y-14185798D02*
X10352244Y-14300084D01*
X10352244Y-14300084D02*
X10476053Y-14300084D01*
X10599863Y-14100084D02*
X10618910Y-14100084D01*
X10618910Y-14100084D02*
X10637958Y-14109608D01*
X10637958Y-14109608D02*
X10647482Y-14119131D01*
X10647482Y-14119131D02*
X10657005Y-14138179D01*
X10657005Y-14138179D02*
X10666529Y-14176274D01*
X10666529Y-14176274D02*
X10666529Y-14223893D01*
X10666529Y-14223893D02*
X10657005Y-14261988D01*
X10657005Y-14261988D02*
X10647482Y-14281036D01*
X10647482Y-14281036D02*
X10637958Y-14290560D01*
X10637958Y-14290560D02*
X10618910Y-14300084D01*
X10618910Y-14300084D02*
X10599863Y-14300084D01*
X10599863Y-14300084D02*
X10580815Y-14290560D01*
X10580815Y-14290560D02*
X10571291Y-14281036D01*
X10571291Y-14281036D02*
X10561767Y-14261988D01*
X10561767Y-14261988D02*
X10552244Y-14223893D01*
X10552244Y-14223893D02*
X10552244Y-14176274D01*
X10552244Y-14176274D02*
X10561767Y-14138179D01*
X10561767Y-14138179D02*
X10571291Y-14119131D01*
X10571291Y-14119131D02*
X10580815Y-14109608D01*
X10580815Y-14109608D02*
X10599863Y-14100084D01*
X10790339Y-14100084D02*
X10809386Y-14100084D01*
X10809386Y-14100084D02*
X10828434Y-14109608D01*
X10828434Y-14109608D02*
X10837958Y-14119131D01*
X10837958Y-14119131D02*
X10847482Y-14138179D01*
X10847482Y-14138179D02*
X10857005Y-14176274D01*
X10857005Y-14176274D02*
X10857005Y-14223893D01*
X10857005Y-14223893D02*
X10847482Y-14261988D01*
X10847482Y-14261988D02*
X10837958Y-14281036D01*
X10837958Y-14281036D02*
X10828434Y-14290560D01*
X10828434Y-14290560D02*
X10809386Y-14300084D01*
X10809386Y-14300084D02*
X10790339Y-14300084D01*
X10790339Y-14300084D02*
X10771291Y-14290560D01*
X10771291Y-14290560D02*
X10761767Y-14281036D01*
X10761767Y-14281036D02*
X10752244Y-14261988D01*
X10752244Y-14261988D02*
X10742720Y-14223893D01*
X10742720Y-14223893D02*
X10742720Y-14176274D01*
X10742720Y-14176274D02*
X10752244Y-14138179D01*
X10752244Y-14138179D02*
X10761767Y-14119131D01*
X10761767Y-14119131D02*
X10771291Y-14109608D01*
X10771291Y-14109608D02*
X10790339Y-14100084D01*
X10942720Y-14300084D02*
X10942720Y-14166750D01*
X10942720Y-14185798D02*
X10952244Y-14176274D01*
X10952244Y-14176274D02*
X10971291Y-14166750D01*
X10971291Y-14166750D02*
X10999863Y-14166750D01*
X10999863Y-14166750D02*
X11018910Y-14176274D01*
X11018910Y-14176274D02*
X11028434Y-14195322D01*
X11028434Y-14195322D02*
X11028434Y-14300084D01*
X11028434Y-14195322D02*
X11037958Y-14176274D01*
X11037958Y-14176274D02*
X11057005Y-14166750D01*
X11057005Y-14166750D02*
X11085577Y-14166750D01*
X11085577Y-14166750D02*
X11104625Y-14176274D01*
X11104625Y-14176274D02*
X11114148Y-14195322D01*
X11114148Y-14195322D02*
X11114148Y-14300084D01*
X11209386Y-14300084D02*
X11209386Y-14166750D01*
X11209386Y-14185798D02*
X11218910Y-14176274D01*
X11218910Y-14176274D02*
X11237958Y-14166750D01*
X11237958Y-14166750D02*
X11266529Y-14166750D01*
X11266529Y-14166750D02*
X11285577Y-14176274D01*
X11285577Y-14176274D02*
X11295101Y-14195322D01*
X11295101Y-14195322D02*
X11295101Y-14300084D01*
X11295101Y-14195322D02*
X11304624Y-14176274D01*
X11304624Y-14176274D02*
X11323672Y-14166750D01*
X11323672Y-14166750D02*
X11352243Y-14166750D01*
X11352243Y-14166750D02*
X11371291Y-14176274D01*
X11371291Y-14176274D02*
X11380815Y-14195322D01*
X11380815Y-14195322D02*
X11380815Y-14300084D01*
X11771291Y-14090560D02*
X11599863Y-14347703D01*
X12028434Y-14100084D02*
X12047482Y-14100084D01*
X12047482Y-14100084D02*
X12066529Y-14109608D01*
X12066529Y-14109608D02*
X12076053Y-14119131D01*
X12076053Y-14119131D02*
X12085577Y-14138179D01*
X12085577Y-14138179D02*
X12095101Y-14176274D01*
X12095101Y-14176274D02*
X12095101Y-14223893D01*
X12095101Y-14223893D02*
X12085577Y-14261988D01*
X12085577Y-14261988D02*
X12076053Y-14281036D01*
X12076053Y-14281036D02*
X12066529Y-14290560D01*
X12066529Y-14290560D02*
X12047482Y-14300084D01*
X12047482Y-14300084D02*
X12028434Y-14300084D01*
X12028434Y-14300084D02*
X12009386Y-14290560D01*
X12009386Y-14290560D02*
X11999863Y-14281036D01*
X11999863Y-14281036D02*
X11990339Y-14261988D01*
X11990339Y-14261988D02*
X11980815Y-14223893D01*
X11980815Y-14223893D02*
X11980815Y-14176274D01*
X11980815Y-14176274D02*
X11990339Y-14138179D01*
X11990339Y-14138179D02*
X11999863Y-14119131D01*
X11999863Y-14119131D02*
X12009386Y-14109608D01*
X12009386Y-14109608D02*
X12028434Y-14100084D01*
X12180815Y-14281036D02*
X12190339Y-14290560D01*
X12190339Y-14290560D02*
X12180815Y-14300084D01*
X12180815Y-14300084D02*
X12171291Y-14290560D01*
X12171291Y-14290560D02*
X12180815Y-14281036D01*
X12180815Y-14281036D02*
X12180815Y-14300084D01*
X12380815Y-14300084D02*
X12266529Y-14300084D01*
X12323672Y-14300084D02*
X12323672Y-14100084D01*
X12323672Y-14100084D02*
X12304625Y-14128655D01*
X12304625Y-14128655D02*
X12285577Y-14147703D01*
X12285577Y-14147703D02*
X12266529Y-14157227D01*
X12457006Y-14119131D02*
X12466529Y-14109608D01*
X12466529Y-14109608D02*
X12485577Y-14100084D01*
X12485577Y-14100084D02*
X12533196Y-14100084D01*
X12533196Y-14100084D02*
X12552244Y-14109608D01*
X12552244Y-14109608D02*
X12561767Y-14119131D01*
X12561767Y-14119131D02*
X12571291Y-14138179D01*
X12571291Y-14138179D02*
X12571291Y-14157227D01*
X12571291Y-14157227D02*
X12561767Y-14185798D01*
X12561767Y-14185798D02*
X12447482Y-14300084D01*
X12447482Y-14300084D02*
X12571291Y-14300084D01*
X12742720Y-14100084D02*
X12704625Y-14100084D01*
X12704625Y-14100084D02*
X12685577Y-14109608D01*
X12685577Y-14109608D02*
X12676053Y-14119131D01*
X12676053Y-14119131D02*
X12657006Y-14147703D01*
X12657006Y-14147703D02*
X12647482Y-14185798D01*
X12647482Y-14185798D02*
X12647482Y-14261988D01*
X12647482Y-14261988D02*
X12657006Y-14281036D01*
X12657006Y-14281036D02*
X12666529Y-14290560D01*
X12666529Y-14290560D02*
X12685577Y-14300084D01*
X12685577Y-14300084D02*
X12723672Y-14300084D01*
X12723672Y-14300084D02*
X12742720Y-14290560D01*
X12742720Y-14290560D02*
X12752244Y-14281036D01*
X12752244Y-14281036D02*
X12761767Y-14261988D01*
X12761767Y-14261988D02*
X12761767Y-14214369D01*
X12761767Y-14214369D02*
X12752244Y-14195322D01*
X12752244Y-14195322D02*
X12742720Y-14185798D01*
X12742720Y-14185798D02*
X12723672Y-14176274D01*
X12723672Y-14176274D02*
X12685577Y-14176274D01*
X12685577Y-14176274D02*
X12666529Y-14185798D01*
X12666529Y-14185798D02*
X12657006Y-14195322D01*
X12657006Y-14195322D02*
X12647482Y-14214369D01*
X12885577Y-14100084D02*
X12904625Y-14100084D01*
X12904625Y-14100084D02*
X12923672Y-14109608D01*
X12923672Y-14109608D02*
X12933196Y-14119131D01*
X12933196Y-14119131D02*
X12942720Y-14138179D01*
X12942720Y-14138179D02*
X12952244Y-14176274D01*
X12952244Y-14176274D02*
X12952244Y-14223893D01*
X12952244Y-14223893D02*
X12942720Y-14261988D01*
X12942720Y-14261988D02*
X12933196Y-14281036D01*
X12933196Y-14281036D02*
X12923672Y-14290560D01*
X12923672Y-14290560D02*
X12904625Y-14300084D01*
X12904625Y-14300084D02*
X12885577Y-14300084D01*
X12885577Y-14300084D02*
X12866529Y-14290560D01*
X12866529Y-14290560D02*
X12857006Y-14281036D01*
X12857006Y-14281036D02*
X12847482Y-14261988D01*
X12847482Y-14261988D02*
X12837958Y-14223893D01*
X12837958Y-14223893D02*
X12837958Y-14176274D01*
X12837958Y-14176274D02*
X12847482Y-14138179D01*
X12847482Y-14138179D02*
X12857006Y-14119131D01*
X12857006Y-14119131D02*
X12866529Y-14109608D01*
X12866529Y-14109608D02*
X12885577Y-14100084D01*
X13028434Y-14100084D02*
X13028434Y-14138179D01*
X13104625Y-14100084D02*
X13104625Y-14138179D01*
X13399863Y-14376274D02*
X13390339Y-14366750D01*
X13390339Y-14366750D02*
X13371291Y-14338179D01*
X13371291Y-14338179D02*
X13361768Y-14319131D01*
X13361768Y-14319131D02*
X13352244Y-14290560D01*
X13352244Y-14290560D02*
X13342720Y-14242941D01*
X13342720Y-14242941D02*
X13342720Y-14204846D01*
X13342720Y-14204846D02*
X13352244Y-14157227D01*
X13352244Y-14157227D02*
X13361768Y-14128655D01*
X13361768Y-14128655D02*
X13371291Y-14109608D01*
X13371291Y-14109608D02*
X13390339Y-14081036D01*
X13390339Y-14081036D02*
X13399863Y-14071512D01*
X13466529Y-14119131D02*
X13476053Y-14109608D01*
X13476053Y-14109608D02*
X13495101Y-14100084D01*
X13495101Y-14100084D02*
X13542720Y-14100084D01*
X13542720Y-14100084D02*
X13561768Y-14109608D01*
X13561768Y-14109608D02*
X13571291Y-14119131D01*
X13571291Y-14119131D02*
X13580815Y-14138179D01*
X13580815Y-14138179D02*
X13580815Y-14157227D01*
X13580815Y-14157227D02*
X13571291Y-14185798D01*
X13571291Y-14185798D02*
X13457006Y-14300084D01*
X13457006Y-14300084D02*
X13580815Y-14300084D01*
X13818910Y-14300084D02*
X13818910Y-14100084D01*
X13904625Y-14300084D02*
X13904625Y-14195322D01*
X13904625Y-14195322D02*
X13895101Y-14176274D01*
X13895101Y-14176274D02*
X13876053Y-14166750D01*
X13876053Y-14166750D02*
X13847482Y-14166750D01*
X13847482Y-14166750D02*
X13828434Y-14176274D01*
X13828434Y-14176274D02*
X13818910Y-14185798D01*
X14028434Y-14300084D02*
X14009387Y-14290560D01*
X14009387Y-14290560D02*
X13999863Y-14281036D01*
X13999863Y-14281036D02*
X13990339Y-14261988D01*
X13990339Y-14261988D02*
X13990339Y-14204846D01*
X13990339Y-14204846D02*
X13999863Y-14185798D01*
X13999863Y-14185798D02*
X14009387Y-14176274D01*
X14009387Y-14176274D02*
X14028434Y-14166750D01*
X14028434Y-14166750D02*
X14057006Y-14166750D01*
X14057006Y-14166750D02*
X14076053Y-14176274D01*
X14076053Y-14176274D02*
X14085577Y-14185798D01*
X14085577Y-14185798D02*
X14095101Y-14204846D01*
X14095101Y-14204846D02*
X14095101Y-14261988D01*
X14095101Y-14261988D02*
X14085577Y-14281036D01*
X14085577Y-14281036D02*
X14076053Y-14290560D01*
X14076053Y-14290560D02*
X14057006Y-14300084D01*
X14057006Y-14300084D02*
X14028434Y-14300084D01*
X14209387Y-14300084D02*
X14190339Y-14290560D01*
X14190339Y-14290560D02*
X14180815Y-14271512D01*
X14180815Y-14271512D02*
X14180815Y-14100084D01*
X14361768Y-14290560D02*
X14342720Y-14300084D01*
X14342720Y-14300084D02*
X14304625Y-14300084D01*
X14304625Y-14300084D02*
X14285577Y-14290560D01*
X14285577Y-14290560D02*
X14276053Y-14271512D01*
X14276053Y-14271512D02*
X14276053Y-14195322D01*
X14276053Y-14195322D02*
X14285577Y-14176274D01*
X14285577Y-14176274D02*
X14304625Y-14166750D01*
X14304625Y-14166750D02*
X14342720Y-14166750D01*
X14342720Y-14166750D02*
X14361768Y-14176274D01*
X14361768Y-14176274D02*
X14371291Y-14195322D01*
X14371291Y-14195322D02*
X14371291Y-14214369D01*
X14371291Y-14214369D02*
X14276053Y-14233417D01*
X14447482Y-14290560D02*
X14466530Y-14300084D01*
X14466530Y-14300084D02*
X14504625Y-14300084D01*
X14504625Y-14300084D02*
X14523672Y-14290560D01*
X14523672Y-14290560D02*
X14533196Y-14271512D01*
X14533196Y-14271512D02*
X14533196Y-14261988D01*
X14533196Y-14261988D02*
X14523672Y-14242941D01*
X14523672Y-14242941D02*
X14504625Y-14233417D01*
X14504625Y-14233417D02*
X14476053Y-14233417D01*
X14476053Y-14233417D02*
X14457006Y-14223893D01*
X14457006Y-14223893D02*
X14447482Y-14204846D01*
X14447482Y-14204846D02*
X14447482Y-14195322D01*
X14447482Y-14195322D02*
X14457006Y-14176274D01*
X14457006Y-14176274D02*
X14476053Y-14166750D01*
X14476053Y-14166750D02*
X14504625Y-14166750D01*
X14504625Y-14166750D02*
X14523672Y-14176274D01*
X14599863Y-14376274D02*
X14609387Y-14366750D01*
X14609387Y-14366750D02*
X14628434Y-14338179D01*
X14628434Y-14338179D02*
X14637958Y-14319131D01*
X14637958Y-14319131D02*
X14647482Y-14290560D01*
X14647482Y-14290560D02*
X14657006Y-14242941D01*
X14657006Y-14242941D02*
X14657006Y-14204846D01*
X14657006Y-14204846D02*
X14647482Y-14157227D01*
X14647482Y-14157227D02*
X14637958Y-14128655D01*
X14637958Y-14128655D02*
X14628434Y-14109608D01*
X14628434Y-14109608D02*
X14609387Y-14081036D01*
X14609387Y-14081036D02*
X14599863Y-14071512D01*
X14961768Y-14376274D02*
X14952244Y-14366750D01*
X14952244Y-14366750D02*
X14933196Y-14338179D01*
X14933196Y-14338179D02*
X14923672Y-14319131D01*
X14923672Y-14319131D02*
X14914149Y-14290560D01*
X14914149Y-14290560D02*
X14904625Y-14242941D01*
X14904625Y-14242941D02*
X14904625Y-14204846D01*
X14904625Y-14204846D02*
X14914149Y-14157227D01*
X14914149Y-14157227D02*
X14923672Y-14128655D01*
X14923672Y-14128655D02*
X14933196Y-14109608D01*
X14933196Y-14109608D02*
X14952244Y-14081036D01*
X14952244Y-14081036D02*
X14961768Y-14071512D01*
X15037958Y-14166750D02*
X15037958Y-14300084D01*
X15037958Y-14185798D02*
X15047482Y-14176274D01*
X15047482Y-14176274D02*
X15066530Y-14166750D01*
X15066530Y-14166750D02*
X15095101Y-14166750D01*
X15095101Y-14166750D02*
X15114149Y-14176274D01*
X15114149Y-14176274D02*
X15123672Y-14195322D01*
X15123672Y-14195322D02*
X15123672Y-14300084D01*
X15247482Y-14300084D02*
X15228434Y-14290560D01*
X15228434Y-14290560D02*
X15218911Y-14281036D01*
X15218911Y-14281036D02*
X15209387Y-14261988D01*
X15209387Y-14261988D02*
X15209387Y-14204846D01*
X15209387Y-14204846D02*
X15218911Y-14185798D01*
X15218911Y-14185798D02*
X15228434Y-14176274D01*
X15228434Y-14176274D02*
X15247482Y-14166750D01*
X15247482Y-14166750D02*
X15276053Y-14166750D01*
X15276053Y-14166750D02*
X15295101Y-14176274D01*
X15295101Y-14176274D02*
X15304625Y-14185798D01*
X15304625Y-14185798D02*
X15314149Y-14204846D01*
X15314149Y-14204846D02*
X15314149Y-14261988D01*
X15314149Y-14261988D02*
X15304625Y-14281036D01*
X15304625Y-14281036D02*
X15295101Y-14290560D01*
X15295101Y-14290560D02*
X15276053Y-14300084D01*
X15276053Y-14300084D02*
X15247482Y-14300084D01*
X15371292Y-14166750D02*
X15447482Y-14166750D01*
X15399863Y-14100084D02*
X15399863Y-14271512D01*
X15399863Y-14271512D02*
X15409387Y-14290560D01*
X15409387Y-14290560D02*
X15428434Y-14300084D01*
X15428434Y-14300084D02*
X15447482Y-14300084D01*
X15666530Y-14166750D02*
X15666530Y-14366750D01*
X15666530Y-14176274D02*
X15685577Y-14166750D01*
X15685577Y-14166750D02*
X15723673Y-14166750D01*
X15723673Y-14166750D02*
X15742720Y-14176274D01*
X15742720Y-14176274D02*
X15752244Y-14185798D01*
X15752244Y-14185798D02*
X15761768Y-14204846D01*
X15761768Y-14204846D02*
X15761768Y-14261988D01*
X15761768Y-14261988D02*
X15752244Y-14281036D01*
X15752244Y-14281036D02*
X15742720Y-14290560D01*
X15742720Y-14290560D02*
X15723673Y-14300084D01*
X15723673Y-14300084D02*
X15685577Y-14300084D01*
X15685577Y-14300084D02*
X15666530Y-14290560D01*
X15876053Y-14300084D02*
X15857006Y-14290560D01*
X15857006Y-14290560D02*
X15847482Y-14271512D01*
X15847482Y-14271512D02*
X15847482Y-14100084D01*
X16037958Y-14300084D02*
X16037958Y-14195322D01*
X16037958Y-14195322D02*
X16028434Y-14176274D01*
X16028434Y-14176274D02*
X16009387Y-14166750D01*
X16009387Y-14166750D02*
X15971292Y-14166750D01*
X15971292Y-14166750D02*
X15952244Y-14176274D01*
X16037958Y-14290560D02*
X16018911Y-14300084D01*
X16018911Y-14300084D02*
X15971292Y-14300084D01*
X15971292Y-14300084D02*
X15952244Y-14290560D01*
X15952244Y-14290560D02*
X15942720Y-14271512D01*
X15942720Y-14271512D02*
X15942720Y-14252465D01*
X15942720Y-14252465D02*
X15952244Y-14233417D01*
X15952244Y-14233417D02*
X15971292Y-14223893D01*
X15971292Y-14223893D02*
X16018911Y-14223893D01*
X16018911Y-14223893D02*
X16037958Y-14214369D01*
X16104625Y-14166750D02*
X16180815Y-14166750D01*
X16133196Y-14100084D02*
X16133196Y-14271512D01*
X16133196Y-14271512D02*
X16142720Y-14290560D01*
X16142720Y-14290560D02*
X16161768Y-14300084D01*
X16161768Y-14300084D02*
X16180815Y-14300084D01*
X16323673Y-14290560D02*
X16304625Y-14300084D01*
X16304625Y-14300084D02*
X16266530Y-14300084D01*
X16266530Y-14300084D02*
X16247482Y-14290560D01*
X16247482Y-14290560D02*
X16237958Y-14271512D01*
X16237958Y-14271512D02*
X16237958Y-14195322D01*
X16237958Y-14195322D02*
X16247482Y-14176274D01*
X16247482Y-14176274D02*
X16266530Y-14166750D01*
X16266530Y-14166750D02*
X16304625Y-14166750D01*
X16304625Y-14166750D02*
X16323673Y-14176274D01*
X16323673Y-14176274D02*
X16333196Y-14195322D01*
X16333196Y-14195322D02*
X16333196Y-14214369D01*
X16333196Y-14214369D02*
X16237958Y-14233417D01*
X16504625Y-14300084D02*
X16504625Y-14100084D01*
X16504625Y-14290560D02*
X16485577Y-14300084D01*
X16485577Y-14300084D02*
X16447482Y-14300084D01*
X16447482Y-14300084D02*
X16428434Y-14290560D01*
X16428434Y-14290560D02*
X16418911Y-14281036D01*
X16418911Y-14281036D02*
X16409387Y-14261988D01*
X16409387Y-14261988D02*
X16409387Y-14204846D01*
X16409387Y-14204846D02*
X16418911Y-14185798D01*
X16418911Y-14185798D02*
X16428434Y-14176274D01*
X16428434Y-14176274D02*
X16447482Y-14166750D01*
X16447482Y-14166750D02*
X16485577Y-14166750D01*
X16485577Y-14166750D02*
X16504625Y-14176274D01*
X16580815Y-14376274D02*
X16590339Y-14366750D01*
X16590339Y-14366750D02*
X16609387Y-14338179D01*
X16609387Y-14338179D02*
X16618911Y-14319131D01*
X16618911Y-14319131D02*
X16628434Y-14290560D01*
X16628434Y-14290560D02*
X16637958Y-14242941D01*
X16637958Y-14242941D02*
X16637958Y-14204846D01*
X16637958Y-14204846D02*
X16628434Y-14157227D01*
X16628434Y-14157227D02*
X16618911Y-14128655D01*
X16618911Y-14128655D02*
X16609387Y-14109608D01*
X16609387Y-14109608D02*
X16590339Y-14081036D01*
X16590339Y-14081036D02*
X16580815Y-14071512D01*
M02*
