%TF.GenerationSoftware,KiCad,Pcbnew,7.0.10*%
%TF.CreationDate,2024-02-08T16:52:54+11:00*%
%TF.ProjectId,Desktop Thermometer USB-C,4465736b-746f-4702-9054-6865726d6f6d,rev?*%
%TF.SameCoordinates,Original*%
%TF.FileFunction,Legend,Bot*%
%TF.FilePolarity,Positive*%
%FSLAX46Y46*%
G04 Gerber Fmt 4.6, Leading zero omitted, Abs format (unit mm)*
G04 Created by KiCad (PCBNEW 7.0.10) date 2024-02-08 16:52:54*
%MOMM*%
%LPD*%
G01*
G04 APERTURE LIST*
G04 Aperture macros list*
%AMRoundRect*
0 Rectangle with rounded corners*
0 $1 Rounding radius*
0 $2 $3 $4 $5 $6 $7 $8 $9 X,Y pos of 4 corners*
0 Add a 4 corners polygon primitive as box body*
4,1,4,$2,$3,$4,$5,$6,$7,$8,$9,$2,$3,0*
0 Add four circle primitives for the rounded corners*
1,1,$1+$1,$2,$3*
1,1,$1+$1,$4,$5*
1,1,$1+$1,$6,$7*
1,1,$1+$1,$8,$9*
0 Add four rect primitives between the rounded corners*
20,1,$1+$1,$2,$3,$4,$5,0*
20,1,$1+$1,$4,$5,$6,$7,0*
20,1,$1+$1,$6,$7,$8,$9,0*
20,1,$1+$1,$8,$9,$2,$3,0*%
G04 Aperture macros list end*
%ADD10C,0.153000*%
%ADD11C,0.150000*%
%ADD12C,0.127000*%
%ADD13C,1.600000*%
%ADD14O,1.600000X1.600000*%
%ADD15R,1.600000X2.400000*%
%ADD16O,1.600000X2.400000*%
%ADD17R,1.524000X2.524000*%
%ADD18O,1.524000X2.524000*%
%ADD19C,3.200000*%
%ADD20C,1.500000*%
%ADD21R,1.500000X1.500000*%
%ADD22RoundRect,0.102000X-0.750000X-0.350000X0.750000X-0.350000X0.750000X0.350000X-0.750000X0.350000X0*%
%ADD23RoundRect,0.102000X-0.750000X-0.380000X0.750000X-0.380000X0.750000X0.380000X-0.750000X0.380000X0*%
%ADD24RoundRect,0.102000X-0.750000X-0.400000X0.750000X-0.400000X0.750000X0.400000X-0.750000X0.400000X0*%
%ADD25O,2.204000X1.204000*%
G04 APERTURE END LIST*
D10*
X152823247Y-58625663D02*
X152823247Y-57625663D01*
X152823247Y-57625663D02*
X152585152Y-57625663D01*
X152585152Y-57625663D02*
X152442295Y-57673282D01*
X152442295Y-57673282D02*
X152347057Y-57768520D01*
X152347057Y-57768520D02*
X152299438Y-57863758D01*
X152299438Y-57863758D02*
X152251819Y-58054234D01*
X152251819Y-58054234D02*
X152251819Y-58197091D01*
X152251819Y-58197091D02*
X152299438Y-58387567D01*
X152299438Y-58387567D02*
X152347057Y-58482805D01*
X152347057Y-58482805D02*
X152442295Y-58578044D01*
X152442295Y-58578044D02*
X152585152Y-58625663D01*
X152585152Y-58625663D02*
X152823247Y-58625663D01*
X151442295Y-58578044D02*
X151537533Y-58625663D01*
X151537533Y-58625663D02*
X151728009Y-58625663D01*
X151728009Y-58625663D02*
X151823247Y-58578044D01*
X151823247Y-58578044D02*
X151870866Y-58482805D01*
X151870866Y-58482805D02*
X151870866Y-58101853D01*
X151870866Y-58101853D02*
X151823247Y-58006615D01*
X151823247Y-58006615D02*
X151728009Y-57958996D01*
X151728009Y-57958996D02*
X151537533Y-57958996D01*
X151537533Y-57958996D02*
X151442295Y-58006615D01*
X151442295Y-58006615D02*
X151394676Y-58101853D01*
X151394676Y-58101853D02*
X151394676Y-58197091D01*
X151394676Y-58197091D02*
X151870866Y-58292329D01*
X151013723Y-58578044D02*
X150918485Y-58625663D01*
X150918485Y-58625663D02*
X150728009Y-58625663D01*
X150728009Y-58625663D02*
X150632771Y-58578044D01*
X150632771Y-58578044D02*
X150585152Y-58482805D01*
X150585152Y-58482805D02*
X150585152Y-58435186D01*
X150585152Y-58435186D02*
X150632771Y-58339948D01*
X150632771Y-58339948D02*
X150728009Y-58292329D01*
X150728009Y-58292329D02*
X150870866Y-58292329D01*
X150870866Y-58292329D02*
X150966104Y-58244710D01*
X150966104Y-58244710D02*
X151013723Y-58149472D01*
X151013723Y-58149472D02*
X151013723Y-58101853D01*
X151013723Y-58101853D02*
X150966104Y-58006615D01*
X150966104Y-58006615D02*
X150870866Y-57958996D01*
X150870866Y-57958996D02*
X150728009Y-57958996D01*
X150728009Y-57958996D02*
X150632771Y-58006615D01*
X150156580Y-58625663D02*
X150156580Y-57625663D01*
X150061342Y-58244710D02*
X149775628Y-58625663D01*
X149775628Y-57958996D02*
X150156580Y-58339948D01*
X149489913Y-57958996D02*
X149108961Y-57958996D01*
X149347056Y-57625663D02*
X149347056Y-58482805D01*
X149347056Y-58482805D02*
X149299437Y-58578044D01*
X149299437Y-58578044D02*
X149204199Y-58625663D01*
X149204199Y-58625663D02*
X149108961Y-58625663D01*
X148632770Y-58625663D02*
X148728008Y-58578044D01*
X148728008Y-58578044D02*
X148775627Y-58530424D01*
X148775627Y-58530424D02*
X148823246Y-58435186D01*
X148823246Y-58435186D02*
X148823246Y-58149472D01*
X148823246Y-58149472D02*
X148775627Y-58054234D01*
X148775627Y-58054234D02*
X148728008Y-58006615D01*
X148728008Y-58006615D02*
X148632770Y-57958996D01*
X148632770Y-57958996D02*
X148489913Y-57958996D01*
X148489913Y-57958996D02*
X148394675Y-58006615D01*
X148394675Y-58006615D02*
X148347056Y-58054234D01*
X148347056Y-58054234D02*
X148299437Y-58149472D01*
X148299437Y-58149472D02*
X148299437Y-58435186D01*
X148299437Y-58435186D02*
X148347056Y-58530424D01*
X148347056Y-58530424D02*
X148394675Y-58578044D01*
X148394675Y-58578044D02*
X148489913Y-58625663D01*
X148489913Y-58625663D02*
X148632770Y-58625663D01*
X147870865Y-57958996D02*
X147870865Y-58958996D01*
X147870865Y-58006615D02*
X147775627Y-57958996D01*
X147775627Y-57958996D02*
X147585151Y-57958996D01*
X147585151Y-57958996D02*
X147489913Y-58006615D01*
X147489913Y-58006615D02*
X147442294Y-58054234D01*
X147442294Y-58054234D02*
X147394675Y-58149472D01*
X147394675Y-58149472D02*
X147394675Y-58435186D01*
X147394675Y-58435186D02*
X147442294Y-58530424D01*
X147442294Y-58530424D02*
X147489913Y-58578044D01*
X147489913Y-58578044D02*
X147585151Y-58625663D01*
X147585151Y-58625663D02*
X147775627Y-58625663D01*
X147775627Y-58625663D02*
X147870865Y-58578044D01*
X146347055Y-57625663D02*
X145775627Y-57625663D01*
X146061341Y-58625663D02*
X146061341Y-57625663D01*
X145442293Y-58625663D02*
X145442293Y-57625663D01*
X145013722Y-58625663D02*
X145013722Y-58101853D01*
X145013722Y-58101853D02*
X145061341Y-58006615D01*
X145061341Y-58006615D02*
X145156579Y-57958996D01*
X145156579Y-57958996D02*
X145299436Y-57958996D01*
X145299436Y-57958996D02*
X145394674Y-58006615D01*
X145394674Y-58006615D02*
X145442293Y-58054234D01*
X144156579Y-58578044D02*
X144251817Y-58625663D01*
X144251817Y-58625663D02*
X144442293Y-58625663D01*
X144442293Y-58625663D02*
X144537531Y-58578044D01*
X144537531Y-58578044D02*
X144585150Y-58482805D01*
X144585150Y-58482805D02*
X144585150Y-58101853D01*
X144585150Y-58101853D02*
X144537531Y-58006615D01*
X144537531Y-58006615D02*
X144442293Y-57958996D01*
X144442293Y-57958996D02*
X144251817Y-57958996D01*
X144251817Y-57958996D02*
X144156579Y-58006615D01*
X144156579Y-58006615D02*
X144108960Y-58101853D01*
X144108960Y-58101853D02*
X144108960Y-58197091D01*
X144108960Y-58197091D02*
X144585150Y-58292329D01*
X143680388Y-58625663D02*
X143680388Y-57958996D01*
X143680388Y-58149472D02*
X143632769Y-58054234D01*
X143632769Y-58054234D02*
X143585150Y-58006615D01*
X143585150Y-58006615D02*
X143489912Y-57958996D01*
X143489912Y-57958996D02*
X143394674Y-57958996D01*
X143061340Y-58625663D02*
X143061340Y-57958996D01*
X143061340Y-58054234D02*
X143013721Y-58006615D01*
X143013721Y-58006615D02*
X142918483Y-57958996D01*
X142918483Y-57958996D02*
X142775626Y-57958996D01*
X142775626Y-57958996D02*
X142680388Y-58006615D01*
X142680388Y-58006615D02*
X142632769Y-58101853D01*
X142632769Y-58101853D02*
X142632769Y-58625663D01*
X142632769Y-58101853D02*
X142585150Y-58006615D01*
X142585150Y-58006615D02*
X142489912Y-57958996D01*
X142489912Y-57958996D02*
X142347055Y-57958996D01*
X142347055Y-57958996D02*
X142251816Y-58006615D01*
X142251816Y-58006615D02*
X142204197Y-58101853D01*
X142204197Y-58101853D02*
X142204197Y-58625663D01*
X141585150Y-58625663D02*
X141680388Y-58578044D01*
X141680388Y-58578044D02*
X141728007Y-58530424D01*
X141728007Y-58530424D02*
X141775626Y-58435186D01*
X141775626Y-58435186D02*
X141775626Y-58149472D01*
X141775626Y-58149472D02*
X141728007Y-58054234D01*
X141728007Y-58054234D02*
X141680388Y-58006615D01*
X141680388Y-58006615D02*
X141585150Y-57958996D01*
X141585150Y-57958996D02*
X141442293Y-57958996D01*
X141442293Y-57958996D02*
X141347055Y-58006615D01*
X141347055Y-58006615D02*
X141299436Y-58054234D01*
X141299436Y-58054234D02*
X141251817Y-58149472D01*
X141251817Y-58149472D02*
X141251817Y-58435186D01*
X141251817Y-58435186D02*
X141299436Y-58530424D01*
X141299436Y-58530424D02*
X141347055Y-58578044D01*
X141347055Y-58578044D02*
X141442293Y-58625663D01*
X141442293Y-58625663D02*
X141585150Y-58625663D01*
X140823245Y-58625663D02*
X140823245Y-57958996D01*
X140823245Y-58054234D02*
X140775626Y-58006615D01*
X140775626Y-58006615D02*
X140680388Y-57958996D01*
X140680388Y-57958996D02*
X140537531Y-57958996D01*
X140537531Y-57958996D02*
X140442293Y-58006615D01*
X140442293Y-58006615D02*
X140394674Y-58101853D01*
X140394674Y-58101853D02*
X140394674Y-58625663D01*
X140394674Y-58101853D02*
X140347055Y-58006615D01*
X140347055Y-58006615D02*
X140251817Y-57958996D01*
X140251817Y-57958996D02*
X140108960Y-57958996D01*
X140108960Y-57958996D02*
X140013721Y-58006615D01*
X140013721Y-58006615D02*
X139966102Y-58101853D01*
X139966102Y-58101853D02*
X139966102Y-58625663D01*
X139108960Y-58578044D02*
X139204198Y-58625663D01*
X139204198Y-58625663D02*
X139394674Y-58625663D01*
X139394674Y-58625663D02*
X139489912Y-58578044D01*
X139489912Y-58578044D02*
X139537531Y-58482805D01*
X139537531Y-58482805D02*
X139537531Y-58101853D01*
X139537531Y-58101853D02*
X139489912Y-58006615D01*
X139489912Y-58006615D02*
X139394674Y-57958996D01*
X139394674Y-57958996D02*
X139204198Y-57958996D01*
X139204198Y-57958996D02*
X139108960Y-58006615D01*
X139108960Y-58006615D02*
X139061341Y-58101853D01*
X139061341Y-58101853D02*
X139061341Y-58197091D01*
X139061341Y-58197091D02*
X139537531Y-58292329D01*
X138775626Y-57958996D02*
X138394674Y-57958996D01*
X138632769Y-57625663D02*
X138632769Y-58482805D01*
X138632769Y-58482805D02*
X138585150Y-58578044D01*
X138585150Y-58578044D02*
X138489912Y-58625663D01*
X138489912Y-58625663D02*
X138394674Y-58625663D01*
X137680388Y-58578044D02*
X137775626Y-58625663D01*
X137775626Y-58625663D02*
X137966102Y-58625663D01*
X137966102Y-58625663D02*
X138061340Y-58578044D01*
X138061340Y-58578044D02*
X138108959Y-58482805D01*
X138108959Y-58482805D02*
X138108959Y-58101853D01*
X138108959Y-58101853D02*
X138061340Y-58006615D01*
X138061340Y-58006615D02*
X137966102Y-57958996D01*
X137966102Y-57958996D02*
X137775626Y-57958996D01*
X137775626Y-57958996D02*
X137680388Y-58006615D01*
X137680388Y-58006615D02*
X137632769Y-58101853D01*
X137632769Y-58101853D02*
X137632769Y-58197091D01*
X137632769Y-58197091D02*
X138108959Y-58292329D01*
X137204197Y-58625663D02*
X137204197Y-57958996D01*
X137204197Y-58149472D02*
X137156578Y-58054234D01*
X137156578Y-58054234D02*
X137108959Y-58006615D01*
X137108959Y-58006615D02*
X137013721Y-57958996D01*
X137013721Y-57958996D02*
X136918483Y-57958996D01*
X135823244Y-57625663D02*
X135823244Y-58435186D01*
X135823244Y-58435186D02*
X135775625Y-58530424D01*
X135775625Y-58530424D02*
X135728006Y-58578044D01*
X135728006Y-58578044D02*
X135632768Y-58625663D01*
X135632768Y-58625663D02*
X135442292Y-58625663D01*
X135442292Y-58625663D02*
X135347054Y-58578044D01*
X135347054Y-58578044D02*
X135299435Y-58530424D01*
X135299435Y-58530424D02*
X135251816Y-58435186D01*
X135251816Y-58435186D02*
X135251816Y-57625663D01*
X134823244Y-58578044D02*
X134680387Y-58625663D01*
X134680387Y-58625663D02*
X134442292Y-58625663D01*
X134442292Y-58625663D02*
X134347054Y-58578044D01*
X134347054Y-58578044D02*
X134299435Y-58530424D01*
X134299435Y-58530424D02*
X134251816Y-58435186D01*
X134251816Y-58435186D02*
X134251816Y-58339948D01*
X134251816Y-58339948D02*
X134299435Y-58244710D01*
X134299435Y-58244710D02*
X134347054Y-58197091D01*
X134347054Y-58197091D02*
X134442292Y-58149472D01*
X134442292Y-58149472D02*
X134632768Y-58101853D01*
X134632768Y-58101853D02*
X134728006Y-58054234D01*
X134728006Y-58054234D02*
X134775625Y-58006615D01*
X134775625Y-58006615D02*
X134823244Y-57911377D01*
X134823244Y-57911377D02*
X134823244Y-57816139D01*
X134823244Y-57816139D02*
X134775625Y-57720901D01*
X134775625Y-57720901D02*
X134728006Y-57673282D01*
X134728006Y-57673282D02*
X134632768Y-57625663D01*
X134632768Y-57625663D02*
X134394673Y-57625663D01*
X134394673Y-57625663D02*
X134251816Y-57673282D01*
X133489911Y-58101853D02*
X133347054Y-58149472D01*
X133347054Y-58149472D02*
X133299435Y-58197091D01*
X133299435Y-58197091D02*
X133251816Y-58292329D01*
X133251816Y-58292329D02*
X133251816Y-58435186D01*
X133251816Y-58435186D02*
X133299435Y-58530424D01*
X133299435Y-58530424D02*
X133347054Y-58578044D01*
X133347054Y-58578044D02*
X133442292Y-58625663D01*
X133442292Y-58625663D02*
X133823244Y-58625663D01*
X133823244Y-58625663D02*
X133823244Y-57625663D01*
X133823244Y-57625663D02*
X133489911Y-57625663D01*
X133489911Y-57625663D02*
X133394673Y-57673282D01*
X133394673Y-57673282D02*
X133347054Y-57720901D01*
X133347054Y-57720901D02*
X133299435Y-57816139D01*
X133299435Y-57816139D02*
X133299435Y-57911377D01*
X133299435Y-57911377D02*
X133347054Y-58006615D01*
X133347054Y-58006615D02*
X133394673Y-58054234D01*
X133394673Y-58054234D02*
X133489911Y-58101853D01*
X133489911Y-58101853D02*
X133823244Y-58101853D01*
X132823244Y-58244710D02*
X132061340Y-58244710D01*
X131013721Y-58530424D02*
X131061340Y-58578044D01*
X131061340Y-58578044D02*
X131204197Y-58625663D01*
X131204197Y-58625663D02*
X131299435Y-58625663D01*
X131299435Y-58625663D02*
X131442292Y-58578044D01*
X131442292Y-58578044D02*
X131537530Y-58482805D01*
X131537530Y-58482805D02*
X131585149Y-58387567D01*
X131585149Y-58387567D02*
X131632768Y-58197091D01*
X131632768Y-58197091D02*
X131632768Y-58054234D01*
X131632768Y-58054234D02*
X131585149Y-57863758D01*
X131585149Y-57863758D02*
X131537530Y-57768520D01*
X131537530Y-57768520D02*
X131442292Y-57673282D01*
X131442292Y-57673282D02*
X131299435Y-57625663D01*
X131299435Y-57625663D02*
X131204197Y-57625663D01*
X131204197Y-57625663D02*
X131061340Y-57673282D01*
X131061340Y-57673282D02*
X131013721Y-57720901D01*
X129823244Y-58101853D02*
X129489911Y-58101853D01*
X129347054Y-58625663D02*
X129823244Y-58625663D01*
X129823244Y-58625663D02*
X129823244Y-57625663D01*
X129823244Y-57625663D02*
X129347054Y-57625663D01*
X128489911Y-58625663D02*
X128489911Y-57625663D01*
X128489911Y-58578044D02*
X128585149Y-58625663D01*
X128585149Y-58625663D02*
X128775625Y-58625663D01*
X128775625Y-58625663D02*
X128870863Y-58578044D01*
X128870863Y-58578044D02*
X128918482Y-58530424D01*
X128918482Y-58530424D02*
X128966101Y-58435186D01*
X128966101Y-58435186D02*
X128966101Y-58149472D01*
X128966101Y-58149472D02*
X128918482Y-58054234D01*
X128918482Y-58054234D02*
X128870863Y-58006615D01*
X128870863Y-58006615D02*
X128775625Y-57958996D01*
X128775625Y-57958996D02*
X128585149Y-57958996D01*
X128585149Y-57958996D02*
X128489911Y-58006615D01*
X128013720Y-58625663D02*
X128013720Y-57958996D01*
X128013720Y-57625663D02*
X128061339Y-57673282D01*
X128061339Y-57673282D02*
X128013720Y-57720901D01*
X128013720Y-57720901D02*
X127966101Y-57673282D01*
X127966101Y-57673282D02*
X128013720Y-57625663D01*
X128013720Y-57625663D02*
X128013720Y-57720901D01*
X127680387Y-57958996D02*
X127299435Y-57958996D01*
X127537530Y-57625663D02*
X127537530Y-58482805D01*
X127537530Y-58482805D02*
X127489911Y-58578044D01*
X127489911Y-58578044D02*
X127394673Y-58625663D01*
X127394673Y-58625663D02*
X127299435Y-58625663D01*
X126966101Y-58625663D02*
X126966101Y-57958996D01*
X126966101Y-57625663D02*
X127013720Y-57673282D01*
X127013720Y-57673282D02*
X126966101Y-57720901D01*
X126966101Y-57720901D02*
X126918482Y-57673282D01*
X126918482Y-57673282D02*
X126966101Y-57625663D01*
X126966101Y-57625663D02*
X126966101Y-57720901D01*
X126347054Y-58625663D02*
X126442292Y-58578044D01*
X126442292Y-58578044D02*
X126489911Y-58530424D01*
X126489911Y-58530424D02*
X126537530Y-58435186D01*
X126537530Y-58435186D02*
X126537530Y-58149472D01*
X126537530Y-58149472D02*
X126489911Y-58054234D01*
X126489911Y-58054234D02*
X126442292Y-58006615D01*
X126442292Y-58006615D02*
X126347054Y-57958996D01*
X126347054Y-57958996D02*
X126204197Y-57958996D01*
X126204197Y-57958996D02*
X126108959Y-58006615D01*
X126108959Y-58006615D02*
X126061340Y-58054234D01*
X126061340Y-58054234D02*
X126013721Y-58149472D01*
X126013721Y-58149472D02*
X126013721Y-58435186D01*
X126013721Y-58435186D02*
X126061340Y-58530424D01*
X126061340Y-58530424D02*
X126108959Y-58578044D01*
X126108959Y-58578044D02*
X126204197Y-58625663D01*
X126204197Y-58625663D02*
X126347054Y-58625663D01*
X125585149Y-57958996D02*
X125585149Y-58625663D01*
X125585149Y-58054234D02*
X125537530Y-58006615D01*
X125537530Y-58006615D02*
X125442292Y-57958996D01*
X125442292Y-57958996D02*
X125299435Y-57958996D01*
X125299435Y-57958996D02*
X125204197Y-58006615D01*
X125204197Y-58006615D02*
X125156578Y-58101853D01*
X125156578Y-58101853D02*
X125156578Y-58625663D01*
X123918482Y-58244710D02*
X123156578Y-58244710D01*
X121347054Y-58625663D02*
X121680387Y-58149472D01*
X121918482Y-58625663D02*
X121918482Y-57625663D01*
X121918482Y-57625663D02*
X121537530Y-57625663D01*
X121537530Y-57625663D02*
X121442292Y-57673282D01*
X121442292Y-57673282D02*
X121394673Y-57720901D01*
X121394673Y-57720901D02*
X121347054Y-57816139D01*
X121347054Y-57816139D02*
X121347054Y-57958996D01*
X121347054Y-57958996D02*
X121394673Y-58054234D01*
X121394673Y-58054234D02*
X121442292Y-58101853D01*
X121442292Y-58101853D02*
X121537530Y-58149472D01*
X121537530Y-58149472D02*
X121918482Y-58149472D01*
X120537530Y-58578044D02*
X120632768Y-58625663D01*
X120632768Y-58625663D02*
X120823244Y-58625663D01*
X120823244Y-58625663D02*
X120918482Y-58578044D01*
X120918482Y-58578044D02*
X120966101Y-58482805D01*
X120966101Y-58482805D02*
X120966101Y-58101853D01*
X120966101Y-58101853D02*
X120918482Y-58006615D01*
X120918482Y-58006615D02*
X120823244Y-57958996D01*
X120823244Y-57958996D02*
X120632768Y-57958996D01*
X120632768Y-57958996D02*
X120537530Y-58006615D01*
X120537530Y-58006615D02*
X120489911Y-58101853D01*
X120489911Y-58101853D02*
X120489911Y-58197091D01*
X120489911Y-58197091D02*
X120966101Y-58292329D01*
X120156577Y-57958996D02*
X119918482Y-58625663D01*
X119918482Y-58625663D02*
X119680387Y-57958996D01*
X118013720Y-58625663D02*
X118585148Y-58625663D01*
X118299434Y-58625663D02*
X118299434Y-57625663D01*
X118299434Y-57625663D02*
X118394672Y-57768520D01*
X118394672Y-57768520D02*
X118489910Y-57863758D01*
X118489910Y-57863758D02*
X118585148Y-57911377D01*
X117585148Y-58530424D02*
X117537529Y-58578044D01*
X117537529Y-58578044D02*
X117585148Y-58625663D01*
X117585148Y-58625663D02*
X117632767Y-58578044D01*
X117632767Y-58578044D02*
X117585148Y-58530424D01*
X117585148Y-58530424D02*
X117585148Y-58625663D01*
X116918482Y-57625663D02*
X116823244Y-57625663D01*
X116823244Y-57625663D02*
X116728006Y-57673282D01*
X116728006Y-57673282D02*
X116680387Y-57720901D01*
X116680387Y-57720901D02*
X116632768Y-57816139D01*
X116632768Y-57816139D02*
X116585149Y-58006615D01*
X116585149Y-58006615D02*
X116585149Y-58244710D01*
X116585149Y-58244710D02*
X116632768Y-58435186D01*
X116632768Y-58435186D02*
X116680387Y-58530424D01*
X116680387Y-58530424D02*
X116728006Y-58578044D01*
X116728006Y-58578044D02*
X116823244Y-58625663D01*
X116823244Y-58625663D02*
X116918482Y-58625663D01*
X116918482Y-58625663D02*
X117013720Y-58578044D01*
X117013720Y-58578044D02*
X117061339Y-58530424D01*
X117061339Y-58530424D02*
X117108958Y-58435186D01*
X117108958Y-58435186D02*
X117156577Y-58244710D01*
X117156577Y-58244710D02*
X117156577Y-58006615D01*
X117156577Y-58006615D02*
X117108958Y-57816139D01*
X117108958Y-57816139D02*
X117061339Y-57720901D01*
X117061339Y-57720901D02*
X117013720Y-57673282D01*
X117013720Y-57673282D02*
X116918482Y-57625663D01*
X116156577Y-58244710D02*
X115394673Y-58244710D01*
X114966101Y-58339948D02*
X114489911Y-58339948D01*
X115061339Y-58625663D02*
X114728006Y-57625663D01*
X114728006Y-57625663D02*
X114394673Y-58625663D01*
X152251819Y-60140424D02*
X152299438Y-60188044D01*
X152299438Y-60188044D02*
X152442295Y-60235663D01*
X152442295Y-60235663D02*
X152537533Y-60235663D01*
X152537533Y-60235663D02*
X152680390Y-60188044D01*
X152680390Y-60188044D02*
X152775628Y-60092805D01*
X152775628Y-60092805D02*
X152823247Y-59997567D01*
X152823247Y-59997567D02*
X152870866Y-59807091D01*
X152870866Y-59807091D02*
X152870866Y-59664234D01*
X152870866Y-59664234D02*
X152823247Y-59473758D01*
X152823247Y-59473758D02*
X152775628Y-59378520D01*
X152775628Y-59378520D02*
X152680390Y-59283282D01*
X152680390Y-59283282D02*
X152537533Y-59235663D01*
X152537533Y-59235663D02*
X152442295Y-59235663D01*
X152442295Y-59235663D02*
X152299438Y-59283282D01*
X152299438Y-59283282D02*
X152251819Y-59330901D01*
X151680390Y-60235663D02*
X151775628Y-60188044D01*
X151775628Y-60188044D02*
X151823247Y-60140424D01*
X151823247Y-60140424D02*
X151870866Y-60045186D01*
X151870866Y-60045186D02*
X151870866Y-59759472D01*
X151870866Y-59759472D02*
X151823247Y-59664234D01*
X151823247Y-59664234D02*
X151775628Y-59616615D01*
X151775628Y-59616615D02*
X151680390Y-59568996D01*
X151680390Y-59568996D02*
X151537533Y-59568996D01*
X151537533Y-59568996D02*
X151442295Y-59616615D01*
X151442295Y-59616615D02*
X151394676Y-59664234D01*
X151394676Y-59664234D02*
X151347057Y-59759472D01*
X151347057Y-59759472D02*
X151347057Y-60045186D01*
X151347057Y-60045186D02*
X151394676Y-60140424D01*
X151394676Y-60140424D02*
X151442295Y-60188044D01*
X151442295Y-60188044D02*
X151537533Y-60235663D01*
X151537533Y-60235663D02*
X151680390Y-60235663D01*
X150918485Y-59568996D02*
X150918485Y-60568996D01*
X150918485Y-59616615D02*
X150823247Y-59568996D01*
X150823247Y-59568996D02*
X150632771Y-59568996D01*
X150632771Y-59568996D02*
X150537533Y-59616615D01*
X150537533Y-59616615D02*
X150489914Y-59664234D01*
X150489914Y-59664234D02*
X150442295Y-59759472D01*
X150442295Y-59759472D02*
X150442295Y-60045186D01*
X150442295Y-60045186D02*
X150489914Y-60140424D01*
X150489914Y-60140424D02*
X150537533Y-60188044D01*
X150537533Y-60188044D02*
X150632771Y-60235663D01*
X150632771Y-60235663D02*
X150823247Y-60235663D01*
X150823247Y-60235663D02*
X150918485Y-60188044D01*
X150108961Y-59568996D02*
X149870866Y-60235663D01*
X149632771Y-59568996D02*
X149870866Y-60235663D01*
X149870866Y-60235663D02*
X149966104Y-60473758D01*
X149966104Y-60473758D02*
X150013723Y-60521377D01*
X150013723Y-60521377D02*
X150108961Y-60568996D01*
X149251818Y-60235663D02*
X149251818Y-59568996D01*
X149251818Y-59759472D02*
X149204199Y-59664234D01*
X149204199Y-59664234D02*
X149156580Y-59616615D01*
X149156580Y-59616615D02*
X149061342Y-59568996D01*
X149061342Y-59568996D02*
X148966104Y-59568996D01*
X148632770Y-60235663D02*
X148632770Y-59568996D01*
X148632770Y-59235663D02*
X148680389Y-59283282D01*
X148680389Y-59283282D02*
X148632770Y-59330901D01*
X148632770Y-59330901D02*
X148585151Y-59283282D01*
X148585151Y-59283282D02*
X148632770Y-59235663D01*
X148632770Y-59235663D02*
X148632770Y-59330901D01*
X147728009Y-59568996D02*
X147728009Y-60378520D01*
X147728009Y-60378520D02*
X147775628Y-60473758D01*
X147775628Y-60473758D02*
X147823247Y-60521377D01*
X147823247Y-60521377D02*
X147918485Y-60568996D01*
X147918485Y-60568996D02*
X148061342Y-60568996D01*
X148061342Y-60568996D02*
X148156580Y-60521377D01*
X147728009Y-60188044D02*
X147823247Y-60235663D01*
X147823247Y-60235663D02*
X148013723Y-60235663D01*
X148013723Y-60235663D02*
X148108961Y-60188044D01*
X148108961Y-60188044D02*
X148156580Y-60140424D01*
X148156580Y-60140424D02*
X148204199Y-60045186D01*
X148204199Y-60045186D02*
X148204199Y-59759472D01*
X148204199Y-59759472D02*
X148156580Y-59664234D01*
X148156580Y-59664234D02*
X148108961Y-59616615D01*
X148108961Y-59616615D02*
X148013723Y-59568996D01*
X148013723Y-59568996D02*
X147823247Y-59568996D01*
X147823247Y-59568996D02*
X147728009Y-59616615D01*
X147251818Y-60235663D02*
X147251818Y-59235663D01*
X146823247Y-60235663D02*
X146823247Y-59711853D01*
X146823247Y-59711853D02*
X146870866Y-59616615D01*
X146870866Y-59616615D02*
X146966104Y-59568996D01*
X146966104Y-59568996D02*
X147108961Y-59568996D01*
X147108961Y-59568996D02*
X147204199Y-59616615D01*
X147204199Y-59616615D02*
X147251818Y-59664234D01*
X146489913Y-59568996D02*
X146108961Y-59568996D01*
X146347056Y-59235663D02*
X146347056Y-60092805D01*
X146347056Y-60092805D02*
X146299437Y-60188044D01*
X146299437Y-60188044D02*
X146204199Y-60235663D01*
X146204199Y-60235663D02*
X146108961Y-60235663D01*
X144204198Y-59473758D02*
X144299437Y-59426139D01*
X144299437Y-59426139D02*
X144489913Y-59426139D01*
X144489913Y-59426139D02*
X144585151Y-59473758D01*
X144585151Y-59473758D02*
X144680389Y-59568996D01*
X144680389Y-59568996D02*
X144728008Y-59664234D01*
X144728008Y-59664234D02*
X144728008Y-59854710D01*
X144728008Y-59854710D02*
X144680389Y-59949948D01*
X144680389Y-59949948D02*
X144585151Y-60045186D01*
X144585151Y-60045186D02*
X144489913Y-60092805D01*
X144489913Y-60092805D02*
X144299437Y-60092805D01*
X144299437Y-60092805D02*
X144204198Y-60045186D01*
X144394675Y-59092805D02*
X144632770Y-59140424D01*
X144632770Y-59140424D02*
X144870865Y-59283282D01*
X144870865Y-59283282D02*
X145013722Y-59521377D01*
X145013722Y-59521377D02*
X145061341Y-59759472D01*
X145061341Y-59759472D02*
X145013722Y-59997567D01*
X145013722Y-59997567D02*
X144870865Y-60235663D01*
X144870865Y-60235663D02*
X144632770Y-60378520D01*
X144632770Y-60378520D02*
X144394675Y-60426139D01*
X144394675Y-60426139D02*
X144156579Y-60378520D01*
X144156579Y-60378520D02*
X143918484Y-60235663D01*
X143918484Y-60235663D02*
X143775627Y-59997567D01*
X143775627Y-59997567D02*
X143728008Y-59759472D01*
X143728008Y-59759472D02*
X143775627Y-59521377D01*
X143775627Y-59521377D02*
X143918484Y-59283282D01*
X143918484Y-59283282D02*
X144156579Y-59140424D01*
X144156579Y-59140424D02*
X144394675Y-59092805D01*
X142585150Y-59330901D02*
X142537531Y-59283282D01*
X142537531Y-59283282D02*
X142442293Y-59235663D01*
X142442293Y-59235663D02*
X142204198Y-59235663D01*
X142204198Y-59235663D02*
X142108960Y-59283282D01*
X142108960Y-59283282D02*
X142061341Y-59330901D01*
X142061341Y-59330901D02*
X142013722Y-59426139D01*
X142013722Y-59426139D02*
X142013722Y-59521377D01*
X142013722Y-59521377D02*
X142061341Y-59664234D01*
X142061341Y-59664234D02*
X142632769Y-60235663D01*
X142632769Y-60235663D02*
X142013722Y-60235663D01*
X141394674Y-59235663D02*
X141299436Y-59235663D01*
X141299436Y-59235663D02*
X141204198Y-59283282D01*
X141204198Y-59283282D02*
X141156579Y-59330901D01*
X141156579Y-59330901D02*
X141108960Y-59426139D01*
X141108960Y-59426139D02*
X141061341Y-59616615D01*
X141061341Y-59616615D02*
X141061341Y-59854710D01*
X141061341Y-59854710D02*
X141108960Y-60045186D01*
X141108960Y-60045186D02*
X141156579Y-60140424D01*
X141156579Y-60140424D02*
X141204198Y-60188044D01*
X141204198Y-60188044D02*
X141299436Y-60235663D01*
X141299436Y-60235663D02*
X141394674Y-60235663D01*
X141394674Y-60235663D02*
X141489912Y-60188044D01*
X141489912Y-60188044D02*
X141537531Y-60140424D01*
X141537531Y-60140424D02*
X141585150Y-60045186D01*
X141585150Y-60045186D02*
X141632769Y-59854710D01*
X141632769Y-59854710D02*
X141632769Y-59616615D01*
X141632769Y-59616615D02*
X141585150Y-59426139D01*
X141585150Y-59426139D02*
X141537531Y-59330901D01*
X141537531Y-59330901D02*
X141489912Y-59283282D01*
X141489912Y-59283282D02*
X141394674Y-59235663D01*
X140680388Y-59330901D02*
X140632769Y-59283282D01*
X140632769Y-59283282D02*
X140537531Y-59235663D01*
X140537531Y-59235663D02*
X140299436Y-59235663D01*
X140299436Y-59235663D02*
X140204198Y-59283282D01*
X140204198Y-59283282D02*
X140156579Y-59330901D01*
X140156579Y-59330901D02*
X140108960Y-59426139D01*
X140108960Y-59426139D02*
X140108960Y-59521377D01*
X140108960Y-59521377D02*
X140156579Y-59664234D01*
X140156579Y-59664234D02*
X140728007Y-60235663D01*
X140728007Y-60235663D02*
X140108960Y-60235663D01*
X139251817Y-59568996D02*
X139251817Y-60235663D01*
X139489912Y-59188044D02*
X139728007Y-59902329D01*
X139728007Y-59902329D02*
X139108960Y-59902329D01*
X137966102Y-59854710D02*
X137204198Y-59854710D01*
X136108959Y-59235663D02*
X135537531Y-59235663D01*
X135823245Y-60235663D02*
X135823245Y-59235663D01*
X135204197Y-60235663D02*
X135204197Y-59235663D01*
X134775626Y-60235663D02*
X134775626Y-59711853D01*
X134775626Y-59711853D02*
X134823245Y-59616615D01*
X134823245Y-59616615D02*
X134918483Y-59568996D01*
X134918483Y-59568996D02*
X135061340Y-59568996D01*
X135061340Y-59568996D02*
X135156578Y-59616615D01*
X135156578Y-59616615D02*
X135204197Y-59664234D01*
X133918483Y-60188044D02*
X134013721Y-60235663D01*
X134013721Y-60235663D02*
X134204197Y-60235663D01*
X134204197Y-60235663D02*
X134299435Y-60188044D01*
X134299435Y-60188044D02*
X134347054Y-60092805D01*
X134347054Y-60092805D02*
X134347054Y-59711853D01*
X134347054Y-59711853D02*
X134299435Y-59616615D01*
X134299435Y-59616615D02*
X134204197Y-59568996D01*
X134204197Y-59568996D02*
X134013721Y-59568996D01*
X134013721Y-59568996D02*
X133918483Y-59616615D01*
X133918483Y-59616615D02*
X133870864Y-59711853D01*
X133870864Y-59711853D02*
X133870864Y-59807091D01*
X133870864Y-59807091D02*
X134347054Y-59902329D01*
X132347054Y-59711853D02*
X132204197Y-59759472D01*
X132204197Y-59759472D02*
X132156578Y-59807091D01*
X132156578Y-59807091D02*
X132108959Y-59902329D01*
X132108959Y-59902329D02*
X132108959Y-60045186D01*
X132108959Y-60045186D02*
X132156578Y-60140424D01*
X132156578Y-60140424D02*
X132204197Y-60188044D01*
X132204197Y-60188044D02*
X132299435Y-60235663D01*
X132299435Y-60235663D02*
X132680387Y-60235663D01*
X132680387Y-60235663D02*
X132680387Y-59235663D01*
X132680387Y-59235663D02*
X132347054Y-59235663D01*
X132347054Y-59235663D02*
X132251816Y-59283282D01*
X132251816Y-59283282D02*
X132204197Y-59330901D01*
X132204197Y-59330901D02*
X132156578Y-59426139D01*
X132156578Y-59426139D02*
X132156578Y-59521377D01*
X132156578Y-59521377D02*
X132204197Y-59616615D01*
X132204197Y-59616615D02*
X132251816Y-59664234D01*
X132251816Y-59664234D02*
X132347054Y-59711853D01*
X132347054Y-59711853D02*
X132680387Y-59711853D01*
X131680387Y-60235663D02*
X131680387Y-59568996D01*
X131680387Y-59759472D02*
X131632768Y-59664234D01*
X131632768Y-59664234D02*
X131585149Y-59616615D01*
X131585149Y-59616615D02*
X131489911Y-59568996D01*
X131489911Y-59568996D02*
X131394673Y-59568996D01*
X130918482Y-60235663D02*
X131013720Y-60188044D01*
X131013720Y-60188044D02*
X131061339Y-60140424D01*
X131061339Y-60140424D02*
X131108958Y-60045186D01*
X131108958Y-60045186D02*
X131108958Y-59759472D01*
X131108958Y-59759472D02*
X131061339Y-59664234D01*
X131061339Y-59664234D02*
X131013720Y-59616615D01*
X131013720Y-59616615D02*
X130918482Y-59568996D01*
X130918482Y-59568996D02*
X130775625Y-59568996D01*
X130775625Y-59568996D02*
X130680387Y-59616615D01*
X130680387Y-59616615D02*
X130632768Y-59664234D01*
X130632768Y-59664234D02*
X130585149Y-59759472D01*
X130585149Y-59759472D02*
X130585149Y-60045186D01*
X130585149Y-60045186D02*
X130632768Y-60140424D01*
X130632768Y-60140424D02*
X130680387Y-60188044D01*
X130680387Y-60188044D02*
X130775625Y-60235663D01*
X130775625Y-60235663D02*
X130918482Y-60235663D01*
X130156577Y-60235663D02*
X130156577Y-59235663D01*
X130061339Y-59854710D02*
X129775625Y-60235663D01*
X129775625Y-59568996D02*
X130156577Y-59949948D01*
X128966101Y-60188044D02*
X129061339Y-60235663D01*
X129061339Y-60235663D02*
X129251815Y-60235663D01*
X129251815Y-60235663D02*
X129347053Y-60188044D01*
X129347053Y-60188044D02*
X129394672Y-60092805D01*
X129394672Y-60092805D02*
X129394672Y-59711853D01*
X129394672Y-59711853D02*
X129347053Y-59616615D01*
X129347053Y-59616615D02*
X129251815Y-59568996D01*
X129251815Y-59568996D02*
X129061339Y-59568996D01*
X129061339Y-59568996D02*
X128966101Y-59616615D01*
X128966101Y-59616615D02*
X128918482Y-59711853D01*
X128918482Y-59711853D02*
X128918482Y-59807091D01*
X128918482Y-59807091D02*
X129394672Y-59902329D01*
X128489910Y-59568996D02*
X128489910Y-60235663D01*
X128489910Y-59664234D02*
X128442291Y-59616615D01*
X128442291Y-59616615D02*
X128347053Y-59568996D01*
X128347053Y-59568996D02*
X128204196Y-59568996D01*
X128204196Y-59568996D02*
X128108958Y-59616615D01*
X128108958Y-59616615D02*
X128061339Y-59711853D01*
X128061339Y-59711853D02*
X128061339Y-60235663D01*
X126823243Y-59711853D02*
X126489910Y-59711853D01*
X126347053Y-60235663D02*
X126823243Y-60235663D01*
X126823243Y-60235663D02*
X126823243Y-59235663D01*
X126823243Y-59235663D02*
X126347053Y-59235663D01*
X125918481Y-59568996D02*
X125918481Y-60235663D01*
X125918481Y-59664234D02*
X125870862Y-59616615D01*
X125870862Y-59616615D02*
X125775624Y-59568996D01*
X125775624Y-59568996D02*
X125632767Y-59568996D01*
X125632767Y-59568996D02*
X125537529Y-59616615D01*
X125537529Y-59616615D02*
X125489910Y-59711853D01*
X125489910Y-59711853D02*
X125489910Y-60235663D01*
X124585148Y-59568996D02*
X124585148Y-60378520D01*
X124585148Y-60378520D02*
X124632767Y-60473758D01*
X124632767Y-60473758D02*
X124680386Y-60521377D01*
X124680386Y-60521377D02*
X124775624Y-60568996D01*
X124775624Y-60568996D02*
X124918481Y-60568996D01*
X124918481Y-60568996D02*
X125013719Y-60521377D01*
X124585148Y-60188044D02*
X124680386Y-60235663D01*
X124680386Y-60235663D02*
X124870862Y-60235663D01*
X124870862Y-60235663D02*
X124966100Y-60188044D01*
X124966100Y-60188044D02*
X125013719Y-60140424D01*
X125013719Y-60140424D02*
X125061338Y-60045186D01*
X125061338Y-60045186D02*
X125061338Y-59759472D01*
X125061338Y-59759472D02*
X125013719Y-59664234D01*
X125013719Y-59664234D02*
X124966100Y-59616615D01*
X124966100Y-59616615D02*
X124870862Y-59568996D01*
X124870862Y-59568996D02*
X124680386Y-59568996D01*
X124680386Y-59568996D02*
X124585148Y-59616615D01*
X124108957Y-60235663D02*
X124108957Y-59568996D01*
X124108957Y-59235663D02*
X124156576Y-59283282D01*
X124156576Y-59283282D02*
X124108957Y-59330901D01*
X124108957Y-59330901D02*
X124061338Y-59283282D01*
X124061338Y-59283282D02*
X124108957Y-59235663D01*
X124108957Y-59235663D02*
X124108957Y-59330901D01*
X123632767Y-59568996D02*
X123632767Y-60235663D01*
X123632767Y-59664234D02*
X123585148Y-59616615D01*
X123585148Y-59616615D02*
X123489910Y-59568996D01*
X123489910Y-59568996D02*
X123347053Y-59568996D01*
X123347053Y-59568996D02*
X123251815Y-59616615D01*
X123251815Y-59616615D02*
X123204196Y-59711853D01*
X123204196Y-59711853D02*
X123204196Y-60235663D01*
X122347053Y-60188044D02*
X122442291Y-60235663D01*
X122442291Y-60235663D02*
X122632767Y-60235663D01*
X122632767Y-60235663D02*
X122728005Y-60188044D01*
X122728005Y-60188044D02*
X122775624Y-60092805D01*
X122775624Y-60092805D02*
X122775624Y-59711853D01*
X122775624Y-59711853D02*
X122728005Y-59616615D01*
X122728005Y-59616615D02*
X122632767Y-59568996D01*
X122632767Y-59568996D02*
X122442291Y-59568996D01*
X122442291Y-59568996D02*
X122347053Y-59616615D01*
X122347053Y-59616615D02*
X122299434Y-59711853D01*
X122299434Y-59711853D02*
X122299434Y-59807091D01*
X122299434Y-59807091D02*
X122775624Y-59902329D01*
X121489910Y-60188044D02*
X121585148Y-60235663D01*
X121585148Y-60235663D02*
X121775624Y-60235663D01*
X121775624Y-60235663D02*
X121870862Y-60188044D01*
X121870862Y-60188044D02*
X121918481Y-60092805D01*
X121918481Y-60092805D02*
X121918481Y-59711853D01*
X121918481Y-59711853D02*
X121870862Y-59616615D01*
X121870862Y-59616615D02*
X121775624Y-59568996D01*
X121775624Y-59568996D02*
X121585148Y-59568996D01*
X121585148Y-59568996D02*
X121489910Y-59616615D01*
X121489910Y-59616615D02*
X121442291Y-59711853D01*
X121442291Y-59711853D02*
X121442291Y-59807091D01*
X121442291Y-59807091D02*
X121918481Y-59902329D01*
X121013719Y-60235663D02*
X121013719Y-59568996D01*
X121013719Y-59759472D02*
X120966100Y-59664234D01*
X120966100Y-59664234D02*
X120918481Y-59616615D01*
X120918481Y-59616615D02*
X120823243Y-59568996D01*
X120823243Y-59568996D02*
X120728005Y-59568996D01*
X152347057Y-61845663D02*
X152823247Y-61845663D01*
X152823247Y-61845663D02*
X152823247Y-60845663D01*
X152013723Y-61845663D02*
X152013723Y-61178996D01*
X152013723Y-60845663D02*
X152061342Y-60893282D01*
X152061342Y-60893282D02*
X152013723Y-60940901D01*
X152013723Y-60940901D02*
X151966104Y-60893282D01*
X151966104Y-60893282D02*
X152013723Y-60845663D01*
X152013723Y-60845663D02*
X152013723Y-60940901D01*
X151108962Y-61798044D02*
X151204200Y-61845663D01*
X151204200Y-61845663D02*
X151394676Y-61845663D01*
X151394676Y-61845663D02*
X151489914Y-61798044D01*
X151489914Y-61798044D02*
X151537533Y-61750424D01*
X151537533Y-61750424D02*
X151585152Y-61655186D01*
X151585152Y-61655186D02*
X151585152Y-61369472D01*
X151585152Y-61369472D02*
X151537533Y-61274234D01*
X151537533Y-61274234D02*
X151489914Y-61226615D01*
X151489914Y-61226615D02*
X151394676Y-61178996D01*
X151394676Y-61178996D02*
X151204200Y-61178996D01*
X151204200Y-61178996D02*
X151108962Y-61226615D01*
X150299438Y-61798044D02*
X150394676Y-61845663D01*
X150394676Y-61845663D02*
X150585152Y-61845663D01*
X150585152Y-61845663D02*
X150680390Y-61798044D01*
X150680390Y-61798044D02*
X150728009Y-61702805D01*
X150728009Y-61702805D02*
X150728009Y-61321853D01*
X150728009Y-61321853D02*
X150680390Y-61226615D01*
X150680390Y-61226615D02*
X150585152Y-61178996D01*
X150585152Y-61178996D02*
X150394676Y-61178996D01*
X150394676Y-61178996D02*
X150299438Y-61226615D01*
X150299438Y-61226615D02*
X150251819Y-61321853D01*
X150251819Y-61321853D02*
X150251819Y-61417091D01*
X150251819Y-61417091D02*
X150728009Y-61512329D01*
X149823247Y-61178996D02*
X149823247Y-61845663D01*
X149823247Y-61274234D02*
X149775628Y-61226615D01*
X149775628Y-61226615D02*
X149680390Y-61178996D01*
X149680390Y-61178996D02*
X149537533Y-61178996D01*
X149537533Y-61178996D02*
X149442295Y-61226615D01*
X149442295Y-61226615D02*
X149394676Y-61321853D01*
X149394676Y-61321853D02*
X149394676Y-61845663D01*
X148966104Y-61798044D02*
X148870866Y-61845663D01*
X148870866Y-61845663D02*
X148680390Y-61845663D01*
X148680390Y-61845663D02*
X148585152Y-61798044D01*
X148585152Y-61798044D02*
X148537533Y-61702805D01*
X148537533Y-61702805D02*
X148537533Y-61655186D01*
X148537533Y-61655186D02*
X148585152Y-61559948D01*
X148585152Y-61559948D02*
X148680390Y-61512329D01*
X148680390Y-61512329D02*
X148823247Y-61512329D01*
X148823247Y-61512329D02*
X148918485Y-61464710D01*
X148918485Y-61464710D02*
X148966104Y-61369472D01*
X148966104Y-61369472D02*
X148966104Y-61321853D01*
X148966104Y-61321853D02*
X148918485Y-61226615D01*
X148918485Y-61226615D02*
X148823247Y-61178996D01*
X148823247Y-61178996D02*
X148680390Y-61178996D01*
X148680390Y-61178996D02*
X148585152Y-61226615D01*
X147728009Y-61798044D02*
X147823247Y-61845663D01*
X147823247Y-61845663D02*
X148013723Y-61845663D01*
X148013723Y-61845663D02*
X148108961Y-61798044D01*
X148108961Y-61798044D02*
X148156580Y-61702805D01*
X148156580Y-61702805D02*
X148156580Y-61321853D01*
X148156580Y-61321853D02*
X148108961Y-61226615D01*
X148108961Y-61226615D02*
X148013723Y-61178996D01*
X148013723Y-61178996D02*
X147823247Y-61178996D01*
X147823247Y-61178996D02*
X147728009Y-61226615D01*
X147728009Y-61226615D02*
X147680390Y-61321853D01*
X147680390Y-61321853D02*
X147680390Y-61417091D01*
X147680390Y-61417091D02*
X148156580Y-61512329D01*
X146823247Y-61845663D02*
X146823247Y-60845663D01*
X146823247Y-61798044D02*
X146918485Y-61845663D01*
X146918485Y-61845663D02*
X147108961Y-61845663D01*
X147108961Y-61845663D02*
X147204199Y-61798044D01*
X147204199Y-61798044D02*
X147251818Y-61750424D01*
X147251818Y-61750424D02*
X147299437Y-61655186D01*
X147299437Y-61655186D02*
X147299437Y-61369472D01*
X147299437Y-61369472D02*
X147251818Y-61274234D01*
X147251818Y-61274234D02*
X147204199Y-61226615D01*
X147204199Y-61226615D02*
X147108961Y-61178996D01*
X147108961Y-61178996D02*
X146918485Y-61178996D01*
X146918485Y-61178996D02*
X146823247Y-61226615D01*
X145156580Y-61178996D02*
X145156580Y-61845663D01*
X145585151Y-61178996D02*
X145585151Y-61702805D01*
X145585151Y-61702805D02*
X145537532Y-61798044D01*
X145537532Y-61798044D02*
X145442294Y-61845663D01*
X145442294Y-61845663D02*
X145299437Y-61845663D01*
X145299437Y-61845663D02*
X145204199Y-61798044D01*
X145204199Y-61798044D02*
X145156580Y-61750424D01*
X144680389Y-61178996D02*
X144680389Y-61845663D01*
X144680389Y-61274234D02*
X144632770Y-61226615D01*
X144632770Y-61226615D02*
X144537532Y-61178996D01*
X144537532Y-61178996D02*
X144394675Y-61178996D01*
X144394675Y-61178996D02*
X144299437Y-61226615D01*
X144299437Y-61226615D02*
X144251818Y-61321853D01*
X144251818Y-61321853D02*
X144251818Y-61845663D01*
X143347056Y-61845663D02*
X143347056Y-60845663D01*
X143347056Y-61798044D02*
X143442294Y-61845663D01*
X143442294Y-61845663D02*
X143632770Y-61845663D01*
X143632770Y-61845663D02*
X143728008Y-61798044D01*
X143728008Y-61798044D02*
X143775627Y-61750424D01*
X143775627Y-61750424D02*
X143823246Y-61655186D01*
X143823246Y-61655186D02*
X143823246Y-61369472D01*
X143823246Y-61369472D02*
X143775627Y-61274234D01*
X143775627Y-61274234D02*
X143728008Y-61226615D01*
X143728008Y-61226615D02*
X143632770Y-61178996D01*
X143632770Y-61178996D02*
X143442294Y-61178996D01*
X143442294Y-61178996D02*
X143347056Y-61226615D01*
X142489913Y-61798044D02*
X142585151Y-61845663D01*
X142585151Y-61845663D02*
X142775627Y-61845663D01*
X142775627Y-61845663D02*
X142870865Y-61798044D01*
X142870865Y-61798044D02*
X142918484Y-61702805D01*
X142918484Y-61702805D02*
X142918484Y-61321853D01*
X142918484Y-61321853D02*
X142870865Y-61226615D01*
X142870865Y-61226615D02*
X142775627Y-61178996D01*
X142775627Y-61178996D02*
X142585151Y-61178996D01*
X142585151Y-61178996D02*
X142489913Y-61226615D01*
X142489913Y-61226615D02*
X142442294Y-61321853D01*
X142442294Y-61321853D02*
X142442294Y-61417091D01*
X142442294Y-61417091D02*
X142918484Y-61512329D01*
X142013722Y-61845663D02*
X142013722Y-61178996D01*
X142013722Y-61369472D02*
X141966103Y-61274234D01*
X141966103Y-61274234D02*
X141918484Y-61226615D01*
X141918484Y-61226615D02*
X141823246Y-61178996D01*
X141823246Y-61178996D02*
X141728008Y-61178996D01*
X140061341Y-61750424D02*
X140108960Y-61798044D01*
X140108960Y-61798044D02*
X140251817Y-61845663D01*
X140251817Y-61845663D02*
X140347055Y-61845663D01*
X140347055Y-61845663D02*
X140489912Y-61798044D01*
X140489912Y-61798044D02*
X140585150Y-61702805D01*
X140585150Y-61702805D02*
X140632769Y-61607567D01*
X140632769Y-61607567D02*
X140680388Y-61417091D01*
X140680388Y-61417091D02*
X140680388Y-61274234D01*
X140680388Y-61274234D02*
X140632769Y-61083758D01*
X140632769Y-61083758D02*
X140585150Y-60988520D01*
X140585150Y-60988520D02*
X140489912Y-60893282D01*
X140489912Y-60893282D02*
X140347055Y-60845663D01*
X140347055Y-60845663D02*
X140251817Y-60845663D01*
X140251817Y-60845663D02*
X140108960Y-60893282D01*
X140108960Y-60893282D02*
X140061341Y-60940901D01*
X139632769Y-61321853D02*
X139299436Y-61321853D01*
X139156579Y-61845663D02*
X139632769Y-61845663D01*
X139632769Y-61845663D02*
X139632769Y-60845663D01*
X139632769Y-60845663D02*
X139156579Y-60845663D01*
X138156579Y-61845663D02*
X138489912Y-61369472D01*
X138728007Y-61845663D02*
X138728007Y-60845663D01*
X138728007Y-60845663D02*
X138347055Y-60845663D01*
X138347055Y-60845663D02*
X138251817Y-60893282D01*
X138251817Y-60893282D02*
X138204198Y-60940901D01*
X138204198Y-60940901D02*
X138156579Y-61036139D01*
X138156579Y-61036139D02*
X138156579Y-61178996D01*
X138156579Y-61178996D02*
X138204198Y-61274234D01*
X138204198Y-61274234D02*
X138251817Y-61321853D01*
X138251817Y-61321853D02*
X138347055Y-61369472D01*
X138347055Y-61369472D02*
X138728007Y-61369472D01*
X137728007Y-61845663D02*
X137728007Y-60845663D01*
X137728007Y-60845663D02*
X137156579Y-61845663D01*
X137156579Y-61845663D02*
X137156579Y-60845663D01*
X136680388Y-61464710D02*
X135918484Y-61464710D01*
X135251817Y-60845663D02*
X135061341Y-60845663D01*
X135061341Y-60845663D02*
X134966103Y-60893282D01*
X134966103Y-60893282D02*
X134870865Y-60988520D01*
X134870865Y-60988520D02*
X134823246Y-61178996D01*
X134823246Y-61178996D02*
X134823246Y-61512329D01*
X134823246Y-61512329D02*
X134870865Y-61702805D01*
X134870865Y-61702805D02*
X134966103Y-61798044D01*
X134966103Y-61798044D02*
X135061341Y-61845663D01*
X135061341Y-61845663D02*
X135251817Y-61845663D01*
X135251817Y-61845663D02*
X135347055Y-61798044D01*
X135347055Y-61798044D02*
X135442293Y-61702805D01*
X135442293Y-61702805D02*
X135489912Y-61512329D01*
X135489912Y-61512329D02*
X135489912Y-61178996D01*
X135489912Y-61178996D02*
X135442293Y-60988520D01*
X135442293Y-60988520D02*
X135347055Y-60893282D01*
X135347055Y-60893282D02*
X135251817Y-60845663D01*
X134394674Y-61845663D02*
X134394674Y-60845663D01*
X134394674Y-61321853D02*
X133823246Y-61321853D01*
X133823246Y-61845663D02*
X133823246Y-60845663D01*
X132870865Y-61845663D02*
X133347055Y-61845663D01*
X133347055Y-61845663D02*
X133347055Y-60845663D01*
X132537531Y-61464710D02*
X131775627Y-61464710D01*
X131347055Y-60940901D02*
X131299436Y-60893282D01*
X131299436Y-60893282D02*
X131204198Y-60845663D01*
X131204198Y-60845663D02*
X130966103Y-60845663D01*
X130966103Y-60845663D02*
X130870865Y-60893282D01*
X130870865Y-60893282D02*
X130823246Y-60940901D01*
X130823246Y-60940901D02*
X130775627Y-61036139D01*
X130775627Y-61036139D02*
X130775627Y-61131377D01*
X130775627Y-61131377D02*
X130823246Y-61274234D01*
X130823246Y-61274234D02*
X131394674Y-61845663D01*
X131394674Y-61845663D02*
X130775627Y-61845663D01*
X129680388Y-61178996D02*
X129442293Y-61845663D01*
X129442293Y-61845663D02*
X129204198Y-61178996D01*
X128870864Y-60940901D02*
X128823245Y-60893282D01*
X128823245Y-60893282D02*
X128728007Y-60845663D01*
X128728007Y-60845663D02*
X128489912Y-60845663D01*
X128489912Y-60845663D02*
X128394674Y-60893282D01*
X128394674Y-60893282D02*
X128347055Y-60940901D01*
X128347055Y-60940901D02*
X128299436Y-61036139D01*
X128299436Y-61036139D02*
X128299436Y-61131377D01*
X128299436Y-61131377D02*
X128347055Y-61274234D01*
X128347055Y-61274234D02*
X128918483Y-61845663D01*
X128918483Y-61845663D02*
X128299436Y-61845663D01*
D11*
X105489333Y-100800819D02*
X105489333Y-101515104D01*
X105489333Y-101515104D02*
X105536952Y-101657961D01*
X105536952Y-101657961D02*
X105632190Y-101753200D01*
X105632190Y-101753200D02*
X105775047Y-101800819D01*
X105775047Y-101800819D02*
X105870285Y-101800819D01*
X104489333Y-101800819D02*
X105060761Y-101800819D01*
X104775047Y-101800819D02*
X104775047Y-100800819D01*
X104775047Y-100800819D02*
X104870285Y-100943676D01*
X104870285Y-100943676D02*
X104965523Y-101038914D01*
X104965523Y-101038914D02*
X105060761Y-101086533D01*
%TO.C,G\u002A\u002A\u002A*%
G36*
X157411219Y-62287322D02*
G01*
X157423944Y-62289696D01*
X157431563Y-62291980D01*
X157448513Y-62299300D01*
X157463464Y-62309052D01*
X157476148Y-62321002D01*
X157486295Y-62334915D01*
X157493637Y-62350557D01*
X157495705Y-62357947D01*
X157497587Y-62369886D01*
X157498348Y-62382829D01*
X157497927Y-62395477D01*
X157496262Y-62406528D01*
X157495262Y-62410425D01*
X157488978Y-62426887D01*
X157479887Y-62441558D01*
X157468176Y-62454266D01*
X157454027Y-62464837D01*
X157437626Y-62473097D01*
X157419158Y-62478875D01*
X157412434Y-62479967D01*
X157400799Y-62480708D01*
X157385831Y-62480694D01*
X157382681Y-62480614D01*
X157373462Y-62480259D01*
X157366391Y-62479675D01*
X157360476Y-62478714D01*
X157354728Y-62477227D01*
X157348157Y-62475068D01*
X157345524Y-62474117D01*
X157328510Y-62466099D01*
X157313924Y-62455782D01*
X157301899Y-62443369D01*
X157292573Y-62429063D01*
X157286081Y-62413065D01*
X157282558Y-62395578D01*
X157282141Y-62376803D01*
X157284460Y-62360200D01*
X157289839Y-62343516D01*
X157298051Y-62328590D01*
X157308961Y-62315581D01*
X157322432Y-62304649D01*
X157338329Y-62295954D01*
X157356514Y-62289656D01*
X157367068Y-62287590D01*
X157381465Y-62286268D01*
X157396621Y-62286179D01*
X157411219Y-62287322D01*
G37*
G36*
X155541663Y-58211611D02*
G01*
X155556809Y-58217333D01*
X155558342Y-58218125D01*
X155567208Y-58223842D01*
X155576840Y-58231616D01*
X155586433Y-58240698D01*
X155595184Y-58250337D01*
X155602288Y-58259780D01*
X155610212Y-58272762D01*
X155622076Y-58296898D01*
X155631737Y-58323107D01*
X155639133Y-58350999D01*
X155644204Y-58380183D01*
X155646889Y-58410269D01*
X155647128Y-58440867D01*
X155644859Y-58471587D01*
X155640022Y-58502038D01*
X155637182Y-58514750D01*
X155630083Y-58539444D01*
X155621377Y-58562136D01*
X155611195Y-58582634D01*
X155599668Y-58600745D01*
X155586924Y-58616279D01*
X155573096Y-58629041D01*
X155558312Y-58638842D01*
X155542704Y-58645487D01*
X155542516Y-58645546D01*
X155533175Y-58647307D01*
X155522122Y-58647698D01*
X155510731Y-58646749D01*
X155500371Y-58644492D01*
X155491934Y-58641339D01*
X155477353Y-58633185D01*
X155463581Y-58622005D01*
X155450748Y-58608015D01*
X155438982Y-58591433D01*
X155428413Y-58572474D01*
X155419169Y-58551356D01*
X155411381Y-58528296D01*
X155405176Y-58503509D01*
X155400685Y-58477213D01*
X155400369Y-58474628D01*
X155399412Y-58463537D01*
X155398745Y-58450323D01*
X155398374Y-58435908D01*
X155398306Y-58421212D01*
X155398548Y-58407156D01*
X155399106Y-58394660D01*
X155399989Y-58384646D01*
X155403790Y-58360475D01*
X155409910Y-58333956D01*
X155417752Y-58309176D01*
X155427120Y-58286839D01*
X155431520Y-58278187D01*
X155442704Y-58259752D01*
X155454950Y-58244033D01*
X155468097Y-58231117D01*
X155481982Y-58221090D01*
X155496442Y-58214039D01*
X155511318Y-58210051D01*
X155526445Y-58209213D01*
X155541663Y-58211611D01*
G37*
G36*
X156505007Y-58195048D02*
G01*
X156520929Y-58201042D01*
X156524103Y-58202684D01*
X156534384Y-58209529D01*
X156545083Y-58218638D01*
X156555527Y-58229339D01*
X156565043Y-58240963D01*
X156572957Y-58252839D01*
X156576000Y-58258239D01*
X156586123Y-58279377D01*
X156594889Y-58302850D01*
X156602052Y-58327940D01*
X156607368Y-58353928D01*
X156609042Y-58366848D01*
X156610294Y-58382349D01*
X156611052Y-58399112D01*
X156611285Y-58416062D01*
X156610961Y-58432122D01*
X156610050Y-58446217D01*
X156607421Y-58467496D01*
X156602392Y-58493836D01*
X156595641Y-58518536D01*
X156587286Y-58541384D01*
X156577443Y-58562171D01*
X156566227Y-58580687D01*
X156553755Y-58596719D01*
X156540143Y-58610058D01*
X156525507Y-58620494D01*
X156509962Y-58627814D01*
X156506854Y-58628798D01*
X156500973Y-58629954D01*
X156493744Y-58630445D01*
X156484148Y-58630372D01*
X156476270Y-58630063D01*
X156470168Y-58629467D01*
X156465125Y-58628321D01*
X156459934Y-58626344D01*
X156453385Y-58623256D01*
X156451659Y-58622374D01*
X156440956Y-58615520D01*
X156429815Y-58606319D01*
X156418953Y-58595473D01*
X156409085Y-58583688D01*
X156400928Y-58571667D01*
X156399720Y-58569601D01*
X156389148Y-58548660D01*
X156379963Y-58525062D01*
X156372333Y-58499296D01*
X156366428Y-58471853D01*
X156366158Y-58470258D01*
X156364732Y-58459073D01*
X156363620Y-58445538D01*
X156362847Y-58430559D01*
X156362438Y-58415040D01*
X156362420Y-58399886D01*
X156362818Y-58386001D01*
X156363658Y-58374290D01*
X156366481Y-58352985D01*
X156371915Y-58326072D01*
X156379182Y-58300775D01*
X156388156Y-58277411D01*
X156398712Y-58256296D01*
X156410724Y-58237747D01*
X156424066Y-58222080D01*
X156430831Y-58215652D01*
X156445099Y-58204754D01*
X156459603Y-58197255D01*
X156474391Y-58193144D01*
X156489510Y-58192412D01*
X156505007Y-58195048D01*
G37*
G36*
X156929639Y-59794739D02*
G01*
X156938860Y-59798415D01*
X156950750Y-59805850D01*
X156960412Y-59815267D01*
X156967776Y-59826246D01*
X156972771Y-59838362D01*
X156975327Y-59851195D01*
X156975373Y-59864323D01*
X156972839Y-59877323D01*
X156967656Y-59889773D01*
X156959753Y-59901252D01*
X156949058Y-59911337D01*
X156945303Y-59913895D01*
X156937721Y-59918041D01*
X156930368Y-59921072D01*
X156930331Y-59921083D01*
X156929528Y-59921325D01*
X156928612Y-59921555D01*
X156927496Y-59921773D01*
X156926092Y-59921979D01*
X156924314Y-59922173D01*
X156922076Y-59922357D01*
X156919289Y-59922529D01*
X156915867Y-59922692D01*
X156911723Y-59922843D01*
X156906770Y-59922985D01*
X156900921Y-59923117D01*
X156894090Y-59923240D01*
X156886188Y-59923354D01*
X156877129Y-59923459D01*
X156866827Y-59923555D01*
X156855194Y-59923643D01*
X156842143Y-59923723D01*
X156827587Y-59923795D01*
X156811440Y-59923860D01*
X156793614Y-59923918D01*
X156774022Y-59923968D01*
X156752578Y-59924013D01*
X156729194Y-59924051D01*
X156703783Y-59924082D01*
X156676259Y-59924109D01*
X156646534Y-59924129D01*
X156614522Y-59924145D01*
X156580136Y-59924155D01*
X156543288Y-59924162D01*
X156503891Y-59924163D01*
X156461859Y-59924161D01*
X156417105Y-59924155D01*
X156369542Y-59924145D01*
X156319082Y-59924133D01*
X156265639Y-59924117D01*
X156209126Y-59924099D01*
X156149455Y-59924078D01*
X156086541Y-59924055D01*
X156020295Y-59924031D01*
X155120477Y-59923696D01*
X155110568Y-59919053D01*
X155099362Y-59912678D01*
X155088063Y-59902937D01*
X155079426Y-59891053D01*
X155073435Y-59877010D01*
X155072862Y-59875085D01*
X155070462Y-59862826D01*
X155070682Y-59851078D01*
X155073525Y-59838492D01*
X155077494Y-59828416D01*
X155085387Y-59816073D01*
X155096009Y-59805785D01*
X155109368Y-59797544D01*
X155120477Y-59792099D01*
X156019441Y-59791631D01*
X156918404Y-59791163D01*
X156929639Y-59794739D01*
G37*
G36*
X156591595Y-61726346D02*
G01*
X156600386Y-61728232D01*
X156608432Y-61732257D01*
X156616014Y-61738664D01*
X156623414Y-61747696D01*
X156630916Y-61759595D01*
X156638800Y-61774605D01*
X156639272Y-61775573D01*
X156641751Y-61780749D01*
X156645522Y-61788703D01*
X156650499Y-61799256D01*
X156656601Y-61812231D01*
X156663745Y-61827450D01*
X156671847Y-61844734D01*
X156680825Y-61863906D01*
X156690596Y-61884787D01*
X156701076Y-61907200D01*
X156712183Y-61930967D01*
X156723834Y-61955909D01*
X156735945Y-61981848D01*
X156748435Y-62008607D01*
X156761219Y-62036008D01*
X156774215Y-62063872D01*
X156787340Y-62092022D01*
X156800511Y-62120279D01*
X156813646Y-62148466D01*
X156826660Y-62176404D01*
X156839471Y-62203916D01*
X156851997Y-62230823D01*
X156864154Y-62256948D01*
X156875858Y-62282112D01*
X156887029Y-62306138D01*
X156897581Y-62328847D01*
X156907433Y-62350062D01*
X156916501Y-62369604D01*
X156924703Y-62387296D01*
X156931955Y-62402959D01*
X156938174Y-62416416D01*
X156943279Y-62427488D01*
X156947184Y-62435997D01*
X156949809Y-62441766D01*
X156951068Y-62444616D01*
X156954332Y-62452869D01*
X156958545Y-62465570D01*
X156960831Y-62476375D01*
X156961243Y-62485837D01*
X156959833Y-62494511D01*
X156956656Y-62502951D01*
X156951721Y-62510676D01*
X156943557Y-62518912D01*
X156933512Y-62525926D01*
X156922405Y-62531159D01*
X156911055Y-62534053D01*
X156907806Y-62534443D01*
X156896356Y-62534570D01*
X156886630Y-62532229D01*
X156877865Y-62527146D01*
X156869300Y-62519048D01*
X156868694Y-62518357D01*
X156863986Y-62512224D01*
X156858990Y-62504671D01*
X156854691Y-62497172D01*
X156854229Y-62496261D01*
X156852007Y-62491710D01*
X156848485Y-62484354D01*
X156843742Y-62474365D01*
X156837861Y-62461918D01*
X156830921Y-62447186D01*
X156823003Y-62430342D01*
X156814189Y-62411561D01*
X156804560Y-62391015D01*
X156794195Y-62368878D01*
X156783176Y-62345324D01*
X156771584Y-62320527D01*
X156759500Y-62294660D01*
X156747005Y-62267896D01*
X156734178Y-62240410D01*
X156721102Y-62212375D01*
X156707857Y-62183963D01*
X156694525Y-62155350D01*
X156681184Y-62126709D01*
X156667918Y-62098212D01*
X156654806Y-62070035D01*
X156641930Y-62042349D01*
X156629369Y-62015330D01*
X156617206Y-61989150D01*
X156605521Y-61963983D01*
X156594395Y-61940003D01*
X156583908Y-61917383D01*
X156574142Y-61896297D01*
X156565177Y-61876919D01*
X156557095Y-61859421D01*
X156549975Y-61843978D01*
X156543900Y-61830763D01*
X156538949Y-61819951D01*
X156535204Y-61811713D01*
X156532746Y-61806224D01*
X156531655Y-61803658D01*
X156529728Y-61797733D01*
X156527124Y-61783512D01*
X156527718Y-61770429D01*
X156531465Y-61758594D01*
X156538320Y-61748117D01*
X156548236Y-61739108D01*
X156561170Y-61731677D01*
X156569519Y-61728622D01*
X156582644Y-61726288D01*
X156591595Y-61726346D01*
G37*
G36*
X156244082Y-61855965D02*
G01*
X156264771Y-61855996D01*
X156283023Y-61856059D01*
X156299007Y-61856159D01*
X156312893Y-61856300D01*
X156324850Y-61856485D01*
X156335047Y-61856719D01*
X156343655Y-61857006D01*
X156350841Y-61857350D01*
X156356776Y-61857754D01*
X156361629Y-61858224D01*
X156365569Y-61858762D01*
X156368766Y-61859373D01*
X156371388Y-61860062D01*
X156373606Y-61860831D01*
X156375589Y-61861686D01*
X156377505Y-61862630D01*
X156379069Y-61863526D01*
X156384265Y-61868416D01*
X156388346Y-61875843D01*
X156391427Y-61886071D01*
X156393625Y-61899366D01*
X156393882Y-61901936D01*
X156394371Y-61908737D01*
X156394899Y-61918117D01*
X156395452Y-61929675D01*
X156396020Y-61943013D01*
X156396590Y-61957731D01*
X156397150Y-61973429D01*
X156397689Y-61989708D01*
X156398193Y-62006167D01*
X156398652Y-62022409D01*
X156399052Y-62038032D01*
X156399382Y-62052638D01*
X156399631Y-62065826D01*
X156399785Y-62077197D01*
X156399833Y-62086352D01*
X156399763Y-62092892D01*
X156399563Y-62096415D01*
X156397067Y-62108148D01*
X156392123Y-62119989D01*
X156384986Y-62129243D01*
X156375548Y-62136011D01*
X156363702Y-62140390D01*
X156349340Y-62142479D01*
X156345141Y-62142675D01*
X156333176Y-62142207D01*
X156323251Y-62139854D01*
X156314599Y-62135365D01*
X156306451Y-62128491D01*
X156303993Y-62125959D01*
X156300525Y-62121878D01*
X156297807Y-62117628D01*
X156295733Y-62112745D01*
X156294197Y-62106764D01*
X156293091Y-62099221D01*
X156292309Y-62089652D01*
X156291744Y-62077593D01*
X156291289Y-62062581D01*
X156291263Y-62061575D01*
X156290892Y-62048239D01*
X156290470Y-62034186D01*
X156290028Y-62020451D01*
X156289601Y-62008065D01*
X156289221Y-61998064D01*
X156288159Y-61972001D01*
X156234553Y-61972001D01*
X156180946Y-61972001D01*
X156180946Y-62165124D01*
X156180946Y-62358247D01*
X156226113Y-62358247D01*
X156230669Y-62358253D01*
X156249486Y-62358431D01*
X156265302Y-62358908D01*
X156278457Y-62359748D01*
X156289285Y-62361013D01*
X156298126Y-62362766D01*
X156305315Y-62365072D01*
X156311190Y-62367993D01*
X156316089Y-62371592D01*
X156320347Y-62375933D01*
X156320871Y-62376555D01*
X156325713Y-62383909D01*
X156328957Y-62392586D01*
X156330776Y-62403226D01*
X156331343Y-62416469D01*
X156330777Y-62429246D01*
X156328821Y-62440334D01*
X156325302Y-62449422D01*
X156320052Y-62457123D01*
X156317582Y-62459652D01*
X156309565Y-62465341D01*
X156299602Y-62469874D01*
X156288716Y-62472742D01*
X156287888Y-62472826D01*
X156283662Y-62473013D01*
X156276373Y-62473194D01*
X156266265Y-62473368D01*
X156253585Y-62473532D01*
X156238579Y-62473684D01*
X156221492Y-62473822D01*
X156202569Y-62473945D01*
X156182056Y-62474049D01*
X156160200Y-62474133D01*
X156137246Y-62474195D01*
X156113439Y-62474233D01*
X156088718Y-62474257D01*
X156062539Y-62474273D01*
X156039394Y-62474268D01*
X156019075Y-62474232D01*
X156001375Y-62474155D01*
X155986085Y-62474026D01*
X155972998Y-62473838D01*
X155961905Y-62473579D01*
X155952599Y-62473241D01*
X155944872Y-62472813D01*
X155938516Y-62472286D01*
X155933324Y-62471651D01*
X155929087Y-62470898D01*
X155925597Y-62470016D01*
X155922647Y-62468997D01*
X155920029Y-62467831D01*
X155917534Y-62466507D01*
X155914956Y-62465018D01*
X155911768Y-62462914D01*
X155904004Y-62455068D01*
X155898403Y-62444652D01*
X155895004Y-62431756D01*
X155893845Y-62416467D01*
X155893941Y-62411662D01*
X155895776Y-62397243D01*
X155899998Y-62385251D01*
X155906673Y-62375607D01*
X155915871Y-62368230D01*
X155927658Y-62363042D01*
X155942104Y-62359963D01*
X155946109Y-62359596D01*
X155953582Y-62359189D01*
X155963346Y-62358838D01*
X155974784Y-62358561D01*
X155987279Y-62358376D01*
X156000214Y-62358300D01*
X156045931Y-62358247D01*
X156045931Y-62165124D01*
X156045931Y-61972001D01*
X155992232Y-61972001D01*
X155938532Y-61972001D01*
X155937625Y-61982682D01*
X155937543Y-61983761D01*
X155937233Y-61989162D01*
X155936850Y-61997279D01*
X155936418Y-62007585D01*
X155935957Y-62019550D01*
X155935490Y-62032646D01*
X155935037Y-62046345D01*
X155934889Y-62050870D01*
X155934206Y-62068882D01*
X155933473Y-62083538D01*
X155932688Y-62094888D01*
X155931847Y-62102982D01*
X155930947Y-62107871D01*
X155929309Y-62113099D01*
X155924457Y-62123710D01*
X155918045Y-62131667D01*
X155909695Y-62137259D01*
X155899029Y-62140775D01*
X155885669Y-62142504D01*
X155871771Y-62142496D01*
X155859553Y-62140368D01*
X155849295Y-62135960D01*
X155840601Y-62129153D01*
X155835253Y-62122852D01*
X155831029Y-62115129D01*
X155828135Y-62105696D01*
X155826238Y-62093731D01*
X155826213Y-62093477D01*
X155826054Y-62089300D01*
X155826029Y-62082164D01*
X155826124Y-62072479D01*
X155826327Y-62060659D01*
X155826623Y-62047113D01*
X155827001Y-62032254D01*
X155827446Y-62016493D01*
X155827947Y-62000240D01*
X155828489Y-61983909D01*
X155829059Y-61967910D01*
X155829646Y-61952654D01*
X155830234Y-61938553D01*
X155830812Y-61926019D01*
X155831366Y-61915462D01*
X155831883Y-61907295D01*
X155832350Y-61901929D01*
X155833524Y-61893038D01*
X155835678Y-61882228D01*
X155838525Y-61874015D01*
X155842313Y-61867913D01*
X155847291Y-61863435D01*
X155853705Y-61860095D01*
X155854144Y-61859918D01*
X155855392Y-61859457D01*
X155856805Y-61859041D01*
X155858555Y-61858666D01*
X155860813Y-61858332D01*
X155863751Y-61858033D01*
X155867540Y-61857769D01*
X155872350Y-61857537D01*
X155878354Y-61857332D01*
X155885721Y-61857154D01*
X155894624Y-61857000D01*
X155905233Y-61856865D01*
X155917720Y-61856749D01*
X155932255Y-61856648D01*
X155949011Y-61856559D01*
X155968158Y-61856481D01*
X155989866Y-61856409D01*
X156014309Y-61856343D01*
X156041656Y-61856277D01*
X156072078Y-61856212D01*
X156105748Y-61856142D01*
X156133570Y-61856086D01*
X156165700Y-61856027D01*
X156194716Y-61855985D01*
X156220787Y-61855963D01*
X156244082Y-61855965D01*
G37*
G36*
X155721088Y-61969606D02*
G01*
X155707111Y-61971638D01*
X155693865Y-61972440D01*
X155693865Y-62165954D01*
X155693865Y-62204432D01*
X155693865Y-62359468D01*
X155707784Y-62360422D01*
X155712442Y-62360873D01*
X155725872Y-62363984D01*
X155736976Y-62369584D01*
X155745702Y-62377617D01*
X155752000Y-62388024D01*
X155755817Y-62400747D01*
X155757100Y-62415727D01*
X155757100Y-62415982D01*
X155756083Y-62431262D01*
X155753004Y-62443909D01*
X155747731Y-62454111D01*
X155740131Y-62462054D01*
X155730073Y-62467925D01*
X155717424Y-62471911D01*
X155715388Y-62472275D01*
X155712293Y-62472631D01*
X155708129Y-62472939D01*
X155702699Y-62473202D01*
X155695810Y-62473421D01*
X155687264Y-62473599D01*
X155676865Y-62473737D01*
X155664419Y-62473838D01*
X155649730Y-62473903D01*
X155632601Y-62473935D01*
X155612837Y-62473935D01*
X155590242Y-62473905D01*
X155564621Y-62473848D01*
X155535778Y-62473765D01*
X155507291Y-62473675D01*
X155481483Y-62473585D01*
X155458646Y-62473486D01*
X155438557Y-62473369D01*
X155420990Y-62473222D01*
X155405720Y-62473037D01*
X155392523Y-62472803D01*
X155381172Y-62472510D01*
X155371443Y-62472148D01*
X155363112Y-62471707D01*
X155355952Y-62471177D01*
X155349740Y-62470548D01*
X155344250Y-62469810D01*
X155339258Y-62468952D01*
X155334538Y-62467966D01*
X155329865Y-62466841D01*
X155325014Y-62465566D01*
X155319761Y-62464132D01*
X155299424Y-62457033D01*
X155278932Y-62446720D01*
X155259672Y-62433817D01*
X155242061Y-62418687D01*
X155226521Y-62401692D01*
X155213469Y-62383194D01*
X155203327Y-62363555D01*
X155202927Y-62362611D01*
X155198062Y-62349824D01*
X155194594Y-62337550D01*
X155192348Y-62324824D01*
X155191153Y-62310681D01*
X155190833Y-62294158D01*
X155190881Y-62286901D01*
X155191094Y-62277449D01*
X155191146Y-62276593D01*
X155337343Y-62276593D01*
X155337379Y-62291979D01*
X155339173Y-62303474D01*
X155343575Y-62316365D01*
X155350467Y-62327503D01*
X155359968Y-62336976D01*
X155372194Y-62344875D01*
X155387263Y-62351289D01*
X155405292Y-62356307D01*
X155426398Y-62360020D01*
X155430225Y-62360399D01*
X155437592Y-62360875D01*
X155447466Y-62361348D01*
X155459346Y-62361802D01*
X155472733Y-62362215D01*
X155487126Y-62362571D01*
X155502024Y-62362850D01*
X155563977Y-62363818D01*
X155563977Y-62284125D01*
X155563977Y-62204432D01*
X155516551Y-62204447D01*
X155515652Y-62204448D01*
X155488046Y-62204699D01*
X155463602Y-62205435D01*
X155442101Y-62206693D01*
X155423320Y-62208515D01*
X155407042Y-62210940D01*
X155393044Y-62214008D01*
X155381107Y-62217758D01*
X155371011Y-62222230D01*
X155362534Y-62227464D01*
X155355458Y-62233500D01*
X155351899Y-62237466D01*
X155344789Y-62248738D01*
X155339875Y-62261980D01*
X155337343Y-62276593D01*
X155191146Y-62276593D01*
X155191552Y-62269953D01*
X155192349Y-62263513D01*
X155193576Y-62257227D01*
X155195326Y-62250194D01*
X155196974Y-62244314D01*
X155202584Y-62228563D01*
X155209673Y-62214781D01*
X155218828Y-62201949D01*
X155230637Y-62189051D01*
X155237768Y-62182240D01*
X155248146Y-62173557D01*
X155259034Y-62166108D01*
X155271382Y-62159268D01*
X155286139Y-62152410D01*
X155299054Y-62146796D01*
X155289237Y-62140316D01*
X155286878Y-62138696D01*
X155276540Y-62130339D01*
X155266238Y-62120248D01*
X155256992Y-62109488D01*
X155249819Y-62099123D01*
X155247146Y-62094387D01*
X155239255Y-62076720D01*
X155234035Y-62057819D01*
X155231396Y-62037287D01*
X155231378Y-62034381D01*
X155380253Y-62034381D01*
X155380261Y-62038425D01*
X155380387Y-62046185D01*
X155380772Y-62051721D01*
X155381548Y-62055878D01*
X155382846Y-62059501D01*
X155384801Y-62063435D01*
X155387067Y-62067335D01*
X155393824Y-62075889D01*
X155402414Y-62082911D01*
X155413131Y-62088535D01*
X155426272Y-62092899D01*
X155442131Y-62096136D01*
X155461004Y-62098382D01*
X155463758Y-62098597D01*
X155472613Y-62099093D01*
X155483736Y-62099521D01*
X155496309Y-62099858D01*
X155509514Y-62100079D01*
X155522532Y-62100162D01*
X155563977Y-62100180D01*
X155563977Y-62034381D01*
X155563977Y-61968582D01*
X155519114Y-61968584D01*
X155504250Y-61968651D01*
X155482999Y-61969058D01*
X155464675Y-61969883D01*
X155448985Y-61971180D01*
X155435636Y-61973003D01*
X155424336Y-61975408D01*
X155414792Y-61978448D01*
X155406710Y-61982179D01*
X155399799Y-61986654D01*
X155393765Y-61991929D01*
X155392267Y-61993465D01*
X155387293Y-61999497D01*
X155383847Y-62005838D01*
X155381688Y-62013256D01*
X155380572Y-62022515D01*
X155380253Y-62034381D01*
X155231378Y-62034381D01*
X155231253Y-62014727D01*
X155232438Y-61999209D01*
X155235366Y-61981391D01*
X155240092Y-61964957D01*
X155246849Y-61948928D01*
X155257153Y-61931289D01*
X155270578Y-61914897D01*
X155286739Y-61900508D01*
X155305607Y-61888140D01*
X155327156Y-61877806D01*
X155351356Y-61869524D01*
X155378179Y-61863309D01*
X155407598Y-61859177D01*
X155411939Y-61858859D01*
X155420409Y-61858507D01*
X155432154Y-61858219D01*
X155447193Y-61857995D01*
X155465546Y-61857835D01*
X155487236Y-61857738D01*
X155512281Y-61857704D01*
X155540703Y-61857733D01*
X155572522Y-61857824D01*
X155593947Y-61857905D01*
X155617151Y-61858002D01*
X155637345Y-61858102D01*
X155654753Y-61858210D01*
X155669600Y-61858332D01*
X155682110Y-61858472D01*
X155692508Y-61858635D01*
X155701018Y-61858829D01*
X155707864Y-61859056D01*
X155713271Y-61859323D01*
X155717463Y-61859635D01*
X155720663Y-61859998D01*
X155723098Y-61860415D01*
X155724991Y-61860894D01*
X155726565Y-61861438D01*
X155737109Y-61867170D01*
X155745899Y-61875315D01*
X155752135Y-61885192D01*
X155753899Y-61889520D01*
X155755089Y-61893804D01*
X155755791Y-61898845D01*
X155756126Y-61905531D01*
X155756217Y-61914747D01*
X155756174Y-61921946D01*
X155755906Y-61929319D01*
X155755298Y-61934734D01*
X155754245Y-61939026D01*
X155752642Y-61943033D01*
X155749448Y-61949067D01*
X155742028Y-61958464D01*
X155732651Y-61965263D01*
X155723814Y-61968582D01*
X155721088Y-61969606D01*
G37*
G36*
X154839563Y-61857494D02*
G01*
X154872537Y-61857502D01*
X154905946Y-61857531D01*
X154936109Y-61857581D01*
X154963114Y-61857653D01*
X154987053Y-61857748D01*
X155008015Y-61857866D01*
X155026089Y-61858009D01*
X155041367Y-61858176D01*
X155053937Y-61858369D01*
X155063891Y-61858589D01*
X155071317Y-61858836D01*
X155076306Y-61859110D01*
X155078948Y-61859413D01*
X155089522Y-61862486D01*
X155098605Y-61867341D01*
X155106397Y-61874359D01*
X155111384Y-61881260D01*
X155115114Y-61890244D01*
X155117239Y-61901308D01*
X155117913Y-61914993D01*
X155117683Y-61921973D01*
X155115409Y-61936328D01*
X155110718Y-61948280D01*
X155103629Y-61957811D01*
X155094161Y-61964899D01*
X155082332Y-61969522D01*
X155068160Y-61971659D01*
X155054678Y-61972440D01*
X155054678Y-62165978D01*
X155054678Y-62359517D01*
X155067923Y-62360319D01*
X155080746Y-62362214D01*
X155092910Y-62366638D01*
X155102897Y-62373356D01*
X155110462Y-62382196D01*
X155115358Y-62392988D01*
X155115740Y-62394402D01*
X155117125Y-62402786D01*
X155117783Y-62412951D01*
X155117713Y-62423616D01*
X155116915Y-62433502D01*
X155115388Y-62441328D01*
X155114127Y-62444957D01*
X155108355Y-62454971D01*
X155099955Y-62463069D01*
X155089223Y-62469015D01*
X155076452Y-62472571D01*
X155075315Y-62472691D01*
X155070566Y-62472925D01*
X155062774Y-62473140D01*
X155052187Y-62473336D01*
X155039053Y-62473515D01*
X155023621Y-62473675D01*
X155006140Y-62473817D01*
X154986858Y-62473941D01*
X154966024Y-62474046D01*
X154943886Y-62474134D01*
X154920692Y-62474203D01*
X154896692Y-62474253D01*
X154872133Y-62474286D01*
X154847265Y-62474300D01*
X154822335Y-62474296D01*
X154797593Y-62474273D01*
X154773286Y-62474233D01*
X154749664Y-62474174D01*
X154726974Y-62474096D01*
X154705466Y-62474001D01*
X154685388Y-62473887D01*
X154666988Y-62473755D01*
X154650515Y-62473604D01*
X154636218Y-62473435D01*
X154624344Y-62473248D01*
X154615144Y-62473043D01*
X154608864Y-62472819D01*
X154605753Y-62472577D01*
X154599441Y-62471183D01*
X154590897Y-62467695D01*
X154584501Y-62462393D01*
X154579560Y-62454807D01*
X154575288Y-62446264D01*
X154575288Y-62363375D01*
X154575288Y-62357994D01*
X154575308Y-62338476D01*
X154575375Y-62321989D01*
X154575517Y-62308220D01*
X154575760Y-62296859D01*
X154576130Y-62287596D01*
X154576655Y-62280120D01*
X154577360Y-62274120D01*
X154578273Y-62269285D01*
X154579419Y-62265305D01*
X154580827Y-62261868D01*
X154582521Y-62258664D01*
X154584530Y-62255383D01*
X154589488Y-62249407D01*
X154598484Y-62242931D01*
X154602434Y-62240890D01*
X154606649Y-62239235D01*
X154611308Y-62238205D01*
X154617402Y-62237595D01*
X154625924Y-62237195D01*
X154631914Y-62237069D01*
X154644170Y-62237621D01*
X154654097Y-62239502D01*
X154662333Y-62242868D01*
X154669517Y-62247876D01*
X154674194Y-62252520D01*
X154678118Y-62258076D01*
X154681217Y-62264786D01*
X154683573Y-62273026D01*
X154685267Y-62283169D01*
X154686381Y-62295591D01*
X154686997Y-62310665D01*
X154687197Y-62328766D01*
X154687231Y-62363375D01*
X154807719Y-62363375D01*
X154928208Y-62363375D01*
X154928208Y-62285612D01*
X154928208Y-62207850D01*
X154883164Y-62207850D01*
X154838119Y-62207850D01*
X154837000Y-62221275D01*
X154836552Y-62225685D01*
X154833728Y-62239816D01*
X154828910Y-62251229D01*
X154821967Y-62260061D01*
X154812764Y-62266447D01*
X154801171Y-62270523D01*
X154787055Y-62272424D01*
X154785178Y-62272511D01*
X154770663Y-62271794D01*
X154758367Y-62268481D01*
X154748274Y-62262565D01*
X154740369Y-62254036D01*
X154734638Y-62242886D01*
X154734032Y-62241237D01*
X154733244Y-62238849D01*
X154732597Y-62236299D01*
X154732075Y-62233260D01*
X154731667Y-62229407D01*
X154731358Y-62224415D01*
X154731134Y-62217958D01*
X154730981Y-62209711D01*
X154730886Y-62199347D01*
X154730836Y-62186542D01*
X154730816Y-62170970D01*
X154730812Y-62152306D01*
X154730813Y-62141608D01*
X154730825Y-62124686D01*
X154730862Y-62110690D01*
X154730936Y-62099304D01*
X154731060Y-62090211D01*
X154731248Y-62083093D01*
X154731513Y-62077635D01*
X154731867Y-62073519D01*
X154732323Y-62070427D01*
X154732896Y-62068045D01*
X154733597Y-62066053D01*
X154734440Y-62064137D01*
X154734721Y-62063541D01*
X154740936Y-62053974D01*
X154749333Y-62045725D01*
X154758859Y-62039844D01*
X154762130Y-62038592D01*
X154771950Y-62036363D01*
X154783143Y-62035441D01*
X154794411Y-62035884D01*
X154804457Y-62037752D01*
X154805187Y-62037969D01*
X154815584Y-62042705D01*
X154823907Y-62049967D01*
X154830214Y-62059844D01*
X154834560Y-62072422D01*
X154837004Y-62087789D01*
X154838119Y-62100180D01*
X154883163Y-62100180D01*
X154928208Y-62100180D01*
X154928208Y-62033527D01*
X154928208Y-61966873D01*
X154807719Y-61966873D01*
X154687231Y-61966873D01*
X154687197Y-61998064D01*
X154687083Y-62011207D01*
X154686622Y-62025418D01*
X154685760Y-62037023D01*
X154684448Y-62046471D01*
X154682637Y-62054209D01*
X154680276Y-62060687D01*
X154679384Y-62062614D01*
X154673588Y-62071771D01*
X154666009Y-62078612D01*
X154656196Y-62083456D01*
X154643697Y-62086625D01*
X154639745Y-62087229D01*
X154624951Y-62087877D01*
X154611680Y-62085833D01*
X154600171Y-62081217D01*
X154590659Y-62074153D01*
X154583383Y-62064762D01*
X154578580Y-62053167D01*
X154578128Y-62051465D01*
X154577417Y-62048353D01*
X154576834Y-62044910D01*
X154576368Y-62040794D01*
X154576005Y-62035662D01*
X154575733Y-62029170D01*
X154575539Y-62020976D01*
X154575410Y-62010735D01*
X154575334Y-61998106D01*
X154575297Y-61982746D01*
X154575288Y-61964310D01*
X154575288Y-61964143D01*
X154575299Y-61944682D01*
X154575357Y-61928327D01*
X154575495Y-61914768D01*
X154575747Y-61903693D01*
X154576148Y-61894793D01*
X154576733Y-61887758D01*
X154577534Y-61882278D01*
X154578587Y-61878042D01*
X154579926Y-61874741D01*
X154581585Y-61872063D01*
X154583598Y-61869700D01*
X154586000Y-61867340D01*
X154586627Y-61866739D01*
X154587977Y-61865435D01*
X154589309Y-61864259D01*
X154590793Y-61863205D01*
X154592602Y-61862267D01*
X154594907Y-61861437D01*
X154597881Y-61860709D01*
X154601695Y-61860077D01*
X154606521Y-61859533D01*
X154612532Y-61859071D01*
X154619898Y-61858685D01*
X154628792Y-61858367D01*
X154639385Y-61858111D01*
X154651850Y-61857910D01*
X154666358Y-61857758D01*
X154683082Y-61857648D01*
X154702192Y-61857573D01*
X154723861Y-61857527D01*
X154748261Y-61857502D01*
X154775563Y-61857493D01*
X154805940Y-61857492D01*
X154839563Y-61857494D01*
G37*
G36*
X157621573Y-59642005D02*
G01*
X157621166Y-59701983D01*
X157619755Y-59761045D01*
X157617343Y-59818405D01*
X157613933Y-59873279D01*
X157606162Y-59960886D01*
X157595705Y-60047591D01*
X157582642Y-60132507D01*
X157566992Y-60215587D01*
X157548773Y-60296786D01*
X157528005Y-60376058D01*
X157504705Y-60453356D01*
X157478894Y-60528636D01*
X157450589Y-60601851D01*
X157419809Y-60672955D01*
X157386574Y-60741902D01*
X157350902Y-60808647D01*
X157312812Y-60873143D01*
X157272323Y-60935346D01*
X157229452Y-60995208D01*
X157184220Y-61052684D01*
X157136646Y-61107729D01*
X157086747Y-61160295D01*
X157065300Y-61181527D01*
X157037810Y-61207676D01*
X157010712Y-61232134D01*
X156983206Y-61255598D01*
X156954494Y-61278764D01*
X156923777Y-61302327D01*
X156880049Y-61333893D01*
X156821485Y-61372480D01*
X156761288Y-61408066D01*
X156699446Y-61440657D01*
X156635951Y-61470258D01*
X156570791Y-61496874D01*
X156503958Y-61520510D01*
X156458095Y-61534709D01*
X156396794Y-61551168D01*
X156334610Y-61564989D01*
X156271228Y-61576228D01*
X156206328Y-61584938D01*
X156139596Y-61591174D01*
X156070712Y-61594991D01*
X156066586Y-61595117D01*
X156055084Y-61595286D01*
X156041064Y-61595307D01*
X156025144Y-61595190D01*
X156007945Y-61594951D01*
X155990088Y-61594602D01*
X155972192Y-61594156D01*
X155954877Y-61593625D01*
X155938764Y-61593024D01*
X155924473Y-61592365D01*
X155912625Y-61591661D01*
X155841913Y-61585217D01*
X155770354Y-61575452D01*
X155699993Y-61562519D01*
X155630867Y-61546428D01*
X155563012Y-61527191D01*
X155496462Y-61504821D01*
X155431255Y-61479330D01*
X155367426Y-61450730D01*
X155305011Y-61419033D01*
X155244046Y-61384252D01*
X155184566Y-61346397D01*
X155180722Y-61343809D01*
X155123272Y-61302955D01*
X155067831Y-61259362D01*
X155014432Y-61213081D01*
X154963111Y-61164163D01*
X154913903Y-61112660D01*
X154866845Y-61058621D01*
X154821971Y-61002099D01*
X154779316Y-60943144D01*
X154738917Y-60881808D01*
X154700808Y-60818142D01*
X154665025Y-60752196D01*
X154631603Y-60684022D01*
X154600578Y-60613670D01*
X154571985Y-60541193D01*
X154545859Y-60466641D01*
X154522236Y-60390065D01*
X154522219Y-60390007D01*
X154500119Y-60307483D01*
X154480838Y-60223068D01*
X154464379Y-60136810D01*
X154450745Y-60048756D01*
X154439940Y-59958953D01*
X154431968Y-59867449D01*
X154426831Y-59774292D01*
X154424534Y-59679529D01*
X154424852Y-59623202D01*
X154574849Y-59623202D01*
X154575378Y-59712488D01*
X154578459Y-59800259D01*
X154584084Y-59886379D01*
X154592246Y-59970715D01*
X154602937Y-60053133D01*
X154616152Y-60133496D01*
X154631881Y-60211672D01*
X154634716Y-60224360D01*
X154653998Y-60303001D01*
X154675709Y-60379258D01*
X154699864Y-60453159D01*
X154726474Y-60524734D01*
X154755552Y-60594012D01*
X154787113Y-60661022D01*
X154821168Y-60725794D01*
X154857730Y-60788357D01*
X154896813Y-60848740D01*
X154938429Y-60906973D01*
X154959963Y-60934961D01*
X155003673Y-60987703D01*
X155049462Y-61037791D01*
X155097270Y-61085185D01*
X155147038Y-61129846D01*
X155198706Y-61171733D01*
X155252215Y-61210807D01*
X155307506Y-61247028D01*
X155364520Y-61280355D01*
X155423197Y-61310749D01*
X155483479Y-61338170D01*
X155545305Y-61362579D01*
X155608618Y-61383934D01*
X155673357Y-61402196D01*
X155702091Y-61409154D01*
X155756393Y-61420412D01*
X155812588Y-61429734D01*
X155870013Y-61437016D01*
X155928006Y-61442154D01*
X155929095Y-61442227D01*
X155938154Y-61442710D01*
X155949768Y-61443171D01*
X155963338Y-61443598D01*
X155978268Y-61443982D01*
X155993962Y-61444312D01*
X156009821Y-61444578D01*
X156025249Y-61444770D01*
X156039649Y-61444878D01*
X156052424Y-61444891D01*
X156062978Y-61444799D01*
X156070712Y-61444593D01*
X156098268Y-61443216D01*
X156141972Y-61440231D01*
X156183507Y-61436308D01*
X156223591Y-61431368D01*
X156262945Y-61425326D01*
X156302290Y-61418101D01*
X156309985Y-61416553D01*
X156375831Y-61401395D01*
X156440388Y-61383081D01*
X156503601Y-61361637D01*
X156565417Y-61337090D01*
X156625779Y-61309467D01*
X156684634Y-61278794D01*
X156741926Y-61245097D01*
X156797601Y-61208404D01*
X156851603Y-61168741D01*
X156903877Y-61126135D01*
X156910167Y-61120690D01*
X156933487Y-61099706D01*
X156957749Y-61076738D01*
X156982256Y-61052484D01*
X157006310Y-61027648D01*
X157029213Y-61002929D01*
X157050268Y-60979029D01*
X157068554Y-60957225D01*
X157111862Y-60901880D01*
X157152802Y-60844109D01*
X157191358Y-60783960D01*
X157227511Y-60721475D01*
X157261245Y-60656701D01*
X157292543Y-60589683D01*
X157321387Y-60520464D01*
X157347762Y-60449091D01*
X157371649Y-60375608D01*
X157393032Y-60300061D01*
X157411894Y-60222493D01*
X157428217Y-60142950D01*
X157441985Y-60061478D01*
X157453180Y-59978121D01*
X157461786Y-59892923D01*
X157462267Y-59887224D01*
X157463860Y-59867720D01*
X157465235Y-59849656D01*
X157466405Y-59832592D01*
X157467388Y-59816085D01*
X157468198Y-59799695D01*
X157468852Y-59782978D01*
X157469364Y-59765494D01*
X157469751Y-59746801D01*
X157470028Y-59726457D01*
X157470211Y-59704020D01*
X157470316Y-59679049D01*
X157470358Y-59651102D01*
X157470360Y-59632668D01*
X157470328Y-59608708D01*
X157470243Y-59587398D01*
X157470091Y-59568285D01*
X157469858Y-59550917D01*
X157469532Y-59534839D01*
X157469098Y-59519599D01*
X157468543Y-59504744D01*
X157467854Y-59489820D01*
X157467017Y-59474375D01*
X157466019Y-59457955D01*
X157464845Y-59440107D01*
X157463484Y-59420379D01*
X157459812Y-59372630D01*
X157451081Y-59281883D01*
X157440080Y-59190953D01*
X157426862Y-59099992D01*
X157411484Y-59009148D01*
X157394002Y-58918571D01*
X157374469Y-58828413D01*
X157352943Y-58738823D01*
X157329478Y-58649951D01*
X157304129Y-58561947D01*
X157276953Y-58474962D01*
X157248004Y-58389145D01*
X157217338Y-58304646D01*
X157185009Y-58221616D01*
X157151075Y-58140204D01*
X157115589Y-58060561D01*
X157078608Y-57982837D01*
X157040187Y-57907182D01*
X157000381Y-57833745D01*
X156959245Y-57762678D01*
X156916835Y-57694129D01*
X156873206Y-57628250D01*
X156828415Y-57565190D01*
X156782515Y-57505099D01*
X156735563Y-57448128D01*
X156733762Y-57446032D01*
X156715166Y-57424895D01*
X156695116Y-57402927D01*
X156674112Y-57380638D01*
X156652655Y-57358538D01*
X156631247Y-57337134D01*
X156610388Y-57316937D01*
X156590579Y-57298455D01*
X156572320Y-57282198D01*
X156553311Y-57266035D01*
X156508290Y-57230003D01*
X156463447Y-57197310D01*
X156418693Y-57167914D01*
X156373936Y-57141769D01*
X156329083Y-57118830D01*
X156284045Y-57099052D01*
X156238730Y-57082392D01*
X156193047Y-57068803D01*
X156146904Y-57058242D01*
X156100210Y-57050663D01*
X156098229Y-57050417D01*
X156085532Y-57049190D01*
X156070390Y-57048196D01*
X156053616Y-57047451D01*
X156036028Y-57046972D01*
X156018443Y-57046776D01*
X156001676Y-57046879D01*
X155986543Y-57047299D01*
X155973861Y-57048052D01*
X155965461Y-57048798D01*
X155919181Y-57054737D01*
X155873269Y-57063767D01*
X155827660Y-57075919D01*
X155782287Y-57091224D01*
X155737083Y-57109713D01*
X155691983Y-57131419D01*
X155646919Y-57156373D01*
X155601826Y-57184606D01*
X155556637Y-57216150D01*
X155511286Y-57251036D01*
X155465706Y-57289296D01*
X155461183Y-57293313D01*
X155450904Y-57302759D01*
X155438983Y-57314041D01*
X155425866Y-57326712D01*
X155412001Y-57340327D01*
X155397832Y-57354439D01*
X155383806Y-57368603D01*
X155370370Y-57382372D01*
X155357969Y-57395302D01*
X155347050Y-57406945D01*
X155338059Y-57416856D01*
X155331457Y-57424346D01*
X155287440Y-57476141D01*
X155244882Y-57529560D01*
X155203636Y-57584826D01*
X155163554Y-57642161D01*
X155124492Y-57701789D01*
X155086301Y-57763932D01*
X155048836Y-57828814D01*
X155011950Y-57896656D01*
X154975495Y-57967681D01*
X154974304Y-57970069D01*
X154932308Y-58057348D01*
X154892705Y-58145858D01*
X154855312Y-58236039D01*
X154819948Y-58328327D01*
X154786430Y-58423163D01*
X154757335Y-58512290D01*
X154725473Y-58618869D01*
X154696505Y-58726227D01*
X154670485Y-58834111D01*
X154647467Y-58942267D01*
X154627504Y-59050440D01*
X154610649Y-59158377D01*
X154596957Y-59265823D01*
X154586480Y-59372525D01*
X154581476Y-59440622D01*
X154576879Y-59532535D01*
X154574849Y-59623202D01*
X154424852Y-59623202D01*
X154425078Y-59583207D01*
X154428469Y-59485374D01*
X154434708Y-59386077D01*
X154443800Y-59285363D01*
X154447104Y-59254691D01*
X154458879Y-59159655D01*
X154472937Y-59064733D01*
X154489223Y-58970067D01*
X154507680Y-58875799D01*
X154528254Y-58782073D01*
X154550888Y-58689029D01*
X154575529Y-58596812D01*
X154602119Y-58505563D01*
X154630603Y-58415426D01*
X154660927Y-58326542D01*
X154693034Y-58239054D01*
X154726869Y-58153104D01*
X154762376Y-58068836D01*
X154799501Y-57986392D01*
X154838187Y-57905913D01*
X154878379Y-57827544D01*
X154920022Y-57751425D01*
X154963060Y-57677700D01*
X155007438Y-57606512D01*
X155053099Y-57538002D01*
X155099990Y-57472314D01*
X155148054Y-57409589D01*
X155197235Y-57349971D01*
X155205098Y-57340874D01*
X155226575Y-57316702D01*
X155249323Y-57291983D01*
X155272799Y-57267271D01*
X155296463Y-57243123D01*
X155319772Y-57220094D01*
X155342186Y-57198741D01*
X155363163Y-57179619D01*
X155405749Y-57143175D01*
X155455525Y-57103971D01*
X155505627Y-57068128D01*
X155556045Y-57035652D01*
X155606768Y-57006549D01*
X155657785Y-56980823D01*
X155709085Y-56958481D01*
X155760657Y-56939528D01*
X155812490Y-56923968D01*
X155864574Y-56911809D01*
X155916897Y-56903054D01*
X155918874Y-56902791D01*
X155970810Y-56897646D01*
X156022737Y-56895910D01*
X156074622Y-56897573D01*
X156126434Y-56902626D01*
X156178142Y-56911060D01*
X156229715Y-56922865D01*
X156281120Y-56938033D01*
X156332327Y-56956554D01*
X156383304Y-56978419D01*
X156434019Y-57003618D01*
X156484442Y-57032143D01*
X156534541Y-57063984D01*
X156584284Y-57099131D01*
X156603058Y-57113331D01*
X156653360Y-57153963D01*
X156703058Y-57197893D01*
X156752104Y-57245064D01*
X156800455Y-57295420D01*
X156848063Y-57348905D01*
X156894884Y-57405462D01*
X156940872Y-57465035D01*
X156985981Y-57527568D01*
X157030166Y-57593005D01*
X157073382Y-57661290D01*
X157115582Y-57732365D01*
X157156721Y-57806175D01*
X157159479Y-57811319D01*
X157166608Y-57824869D01*
X157174817Y-57840751D01*
X157183844Y-57858439D01*
X157193428Y-57877408D01*
X157203306Y-57897130D01*
X157213217Y-57917081D01*
X157222899Y-57936735D01*
X157232092Y-57955566D01*
X157240532Y-57973048D01*
X157247958Y-57988655D01*
X157254110Y-58001862D01*
X157271305Y-58039921D01*
X157314589Y-58141118D01*
X157355287Y-58244319D01*
X157393341Y-58349290D01*
X157428692Y-58455799D01*
X157461282Y-58563613D01*
X157491053Y-58672499D01*
X157517947Y-58782224D01*
X157541905Y-58892556D01*
X157562869Y-59003261D01*
X157580780Y-59114107D01*
X157595580Y-59224861D01*
X157607212Y-59335290D01*
X157615616Y-59445160D01*
X157616738Y-59464411D01*
X157619362Y-59522434D01*
X157620973Y-59581894D01*
X157621480Y-59632668D01*
X157621573Y-59642005D01*
G37*
D12*
%TO.C,J1*%
X98510000Y-111640000D02*
X99760000Y-111640000D01*
X98510000Y-111640000D02*
X98510000Y-102700000D01*
X102460000Y-111640000D02*
X103560000Y-111640000D01*
X98510000Y-102700000D02*
X99760000Y-102700000D01*
X102460000Y-102700000D02*
X103560000Y-102700000D01*
%TD*%
%LPC*%
D13*
%TO.C,C4*%
X142001000Y-103179000D03*
X142001000Y-108179000D03*
%TD*%
%TO.C,C1*%
X123205000Y-94717000D03*
X123205000Y-89717000D03*
%TD*%
%TO.C,R8*%
X126253000Y-83073000D03*
D14*
X126253000Y-72913000D03*
%TD*%
D15*
%TO.C,U2*%
X144780000Y-88392000D03*
D16*
X142240000Y-88392000D03*
X139700000Y-88392000D03*
X137160000Y-88392000D03*
X134620000Y-88392000D03*
X132080000Y-88392000D03*
X129540000Y-88392000D03*
X127000000Y-88392000D03*
X127000000Y-96012000D03*
X129540000Y-96012000D03*
X132080000Y-96012000D03*
X134620000Y-96012000D03*
X137160000Y-96012000D03*
X139700000Y-96012000D03*
X142240000Y-96012000D03*
X144780000Y-96012000D03*
%TD*%
D13*
%TO.C,R21*%
X165496000Y-65039000D03*
D14*
X165496000Y-54879000D03*
%TD*%
D17*
%TO.C,D1*%
X118879000Y-67579000D03*
D18*
X121419000Y-67579000D03*
X123959000Y-67579000D03*
X126499000Y-67579000D03*
X129039000Y-67579000D03*
X129039000Y-52339000D03*
X126499000Y-52339000D03*
X123959000Y-52339000D03*
X121419000Y-52339000D03*
X118879000Y-52339000D03*
%TD*%
D13*
%TO.C,R4*%
X115712000Y-65039000D03*
D14*
X115712000Y-54879000D03*
%TD*%
D15*
%TO.C,U1*%
X119395000Y-88407000D03*
D16*
X116855000Y-88407000D03*
X114315000Y-88407000D03*
X111775000Y-88407000D03*
X109235000Y-88407000D03*
X106695000Y-88407000D03*
X104155000Y-88407000D03*
X101615000Y-88407000D03*
X101615000Y-96027000D03*
X104155000Y-96027000D03*
X106695000Y-96027000D03*
X109235000Y-96027000D03*
X111775000Y-96027000D03*
X114315000Y-96027000D03*
X116855000Y-96027000D03*
X119395000Y-96027000D03*
%TD*%
D13*
%TO.C,R13*%
X142128000Y-83073000D03*
D14*
X142128000Y-72913000D03*
%TD*%
D19*
%TO.C,REF\u002A\u002A*%
X105000000Y-130000000D03*
%TD*%
D13*
%TO.C,R24*%
X108966000Y-106172000D03*
D14*
X108966000Y-116332000D03*
%TD*%
D13*
%TO.C,R22*%
X168671000Y-65039000D03*
D14*
X168671000Y-54879000D03*
%TD*%
D13*
%TO.C,R23*%
X151399000Y-110759000D03*
D14*
X151399000Y-100599000D03*
%TD*%
D13*
%TO.C,R16*%
X151653000Y-83073000D03*
D14*
X151653000Y-72913000D03*
%TD*%
D13*
%TO.C,R12*%
X138953000Y-83073000D03*
D14*
X138953000Y-72913000D03*
%TD*%
D15*
%TO.C,U5*%
X162565000Y-101854000D03*
D16*
X160025000Y-101854000D03*
X157485000Y-101854000D03*
X154945000Y-101854000D03*
X154945000Y-109474000D03*
X157485000Y-109474000D03*
X160025000Y-109474000D03*
X162565000Y-109474000D03*
%TD*%
D13*
%TO.C,R3*%
X112537000Y-65039000D03*
D14*
X112537000Y-54879000D03*
%TD*%
D13*
%TO.C,R5*%
X116728000Y-83073000D03*
D14*
X116728000Y-72913000D03*
%TD*%
D13*
%TO.C,R9*%
X129428000Y-83073000D03*
D14*
X129428000Y-72913000D03*
%TD*%
D13*
%TO.C,R11*%
X135778000Y-83073000D03*
D14*
X135778000Y-72913000D03*
%TD*%
D15*
%TO.C,U3*%
X170195000Y-88407000D03*
D16*
X167655000Y-88407000D03*
X165115000Y-88407000D03*
X162575000Y-88407000D03*
X160035000Y-88407000D03*
X157495000Y-88407000D03*
X154955000Y-88407000D03*
X152415000Y-88407000D03*
X152415000Y-96027000D03*
X154955000Y-96027000D03*
X157495000Y-96027000D03*
X160035000Y-96027000D03*
X162575000Y-96027000D03*
X165115000Y-96027000D03*
X167655000Y-96027000D03*
X170195000Y-96027000D03*
%TD*%
D20*
%TO.C,U4*%
X137181000Y-103124000D03*
X137181000Y-105664000D03*
D21*
X137181000Y-108204000D03*
%TD*%
D13*
%TO.C,R19*%
X159146000Y-65039000D03*
D14*
X159146000Y-54879000D03*
%TD*%
D17*
%TO.C,D3*%
X145811000Y-67579000D03*
D18*
X148351000Y-67579000D03*
X150891000Y-67579000D03*
X153431000Y-67579000D03*
X155971000Y-67579000D03*
X155971000Y-52339000D03*
X153431000Y-52339000D03*
X150891000Y-52339000D03*
X148351000Y-52339000D03*
X145811000Y-52339000D03*
%TD*%
D13*
%TO.C,C2*%
X148605000Y-94717000D03*
X148605000Y-89717000D03*
%TD*%
%TO.C,R14*%
X145303000Y-72898000D03*
D14*
X145303000Y-83058000D03*
%TD*%
D13*
%TO.C,R6*%
X119903000Y-83073000D03*
D14*
X119903000Y-72913000D03*
%TD*%
D17*
%TO.C,D2*%
X132341000Y-67579000D03*
D18*
X134881000Y-67579000D03*
X137421000Y-67579000D03*
X139961000Y-67579000D03*
X142501000Y-67579000D03*
X142501000Y-52339000D03*
X139961000Y-52339000D03*
X137421000Y-52339000D03*
X134881000Y-52339000D03*
X132341000Y-52339000D03*
%TD*%
D13*
%TO.C,R20*%
X162321000Y-65039000D03*
D14*
X162321000Y-54879000D03*
%TD*%
D13*
%TO.C,R10*%
X132603000Y-83073000D03*
D14*
X132603000Y-72913000D03*
%TD*%
D13*
%TO.C,R2*%
X109362000Y-65039000D03*
D14*
X109362000Y-54879000D03*
%TD*%
D13*
%TO.C,R18*%
X158003000Y-83073000D03*
D14*
X158003000Y-72913000D03*
%TD*%
D13*
%TO.C,C3*%
X174005000Y-94717000D03*
X174005000Y-89717000D03*
%TD*%
%TO.C,R15*%
X148478000Y-83073000D03*
D14*
X148478000Y-72913000D03*
%TD*%
D13*
%TO.C,R17*%
X154828000Y-83073000D03*
D14*
X154828000Y-72913000D03*
%TD*%
D13*
%TO.C,R7*%
X123078000Y-83073000D03*
D14*
X123078000Y-72913000D03*
%TD*%
D13*
%TO.C,R25*%
X112268000Y-107696000D03*
D14*
X112268000Y-117856000D03*
%TD*%
D13*
%TO.C,C5*%
X166385000Y-103179000D03*
X166385000Y-108179000D03*
%TD*%
D19*
%TO.C,REF\u002A\u002A*%
X170000000Y-130000000D03*
%TD*%
D13*
%TO.C,R1*%
X106187000Y-65039000D03*
D14*
X106187000Y-54879000D03*
%TD*%
D22*
%TO.C,J1*%
X105200000Y-107670000D03*
D23*
X105200000Y-105650000D03*
D24*
X105200000Y-104420000D03*
D22*
X105200000Y-106670000D03*
D23*
X105200000Y-108690000D03*
D24*
X105200000Y-109920000D03*
D25*
X104910000Y-111490000D03*
X104910000Y-102850000D03*
X101110000Y-111490000D03*
X101110000Y-102850000D03*
%TD*%
%LPD*%
M02*
